<?xml version="1.0" encoding="UTF-8" standalone="no"?>
<svg
   xmlns:dc="http://purl.org/dc/elements/1.1/"
   xmlns:cc="http://creativecommons.org/ns#"
   xmlns:rdf="http://www.w3.org/1999/02/22-rdf-syntax-ns#"
   xmlns:svg="http://www.w3.org/2000/svg"
   xmlns="http://www.w3.org/2000/svg"
   xmlns:sodipodi="http://sodipodi.sourceforge.net/DTD/sodipodi-0.dtd"
   xmlns:inkscape="http://www.inkscape.org/namespaces/inkscape"
   version="1.0"
   id="svg2424"
   height="200"
   width="200"
   sodipodi:docname="arch-linux.svg"
   inkscape:version="0.92.3 (2405546, 2018-03-11)">
  <sodipodi:namedview
     pagecolor="#ffffff"
     bordercolor="#666666"
     borderopacity="1"
     objecttolerance="10"
     gridtolerance="10"
     guidetolerance="10"
     inkscape:pageopacity="0"
     inkscape:pageshadow="2"
     inkscape:window-width="1920"
     inkscape:window-height="1016"
     id="namedview11"
     showgrid="true"
     inkscape:zoom="1.18"
     inkscape:cx="100"
     inkscape:cy="100"
     inkscape:window-x="0"
     inkscape:window-y="27"
     inkscape:window-maximized="1"
     inkscape:current-layer="svg2424">
    <inkscape:grid
       type="xygrid"
       id="grid818" />
  </sodipodi:namedview>
  <defs
     id="defs2426" />
  <metadata
     id="metadata2429">
    <rdf:RDF>
      <cc:Work
         rdf:about="">
        <dc:format>image/svg+xml</dc:format>
        <dc:type
           rdf:resource="http://purl.org/dc/dcmitype/StillImage" />
        <dc:title />
      </cc:Work>
    </rdf:RDF>
  </metadata>
  <g
     transform="matrix(1.083114,0,0,1.083114,-47.394765,-148.27067)"
     id="layer1"
     style="stroke-width:0.92326385">
    <g
       transform="matrix(0.8746356,0,0,0.8746356,14.730518,23.408954)"
       id="g2424"
       style="stroke-width:0.92326385">
      <g
         transform="translate(-0.56099638,1.9415748)"
         id="g3101"
         style="stroke-width:0.92326385">
        <path
           style="fill:#1793d1;fill-opacity:1;fill-rule:evenodd;stroke:none;stroke-width:0.92326385"
           d="m 139.32579,138.36443 c -8.45709,20.73453 -13.558,34.29734 -22.97386,54.41552 5.7731,6.11948 12.85931,13.24593 24.36729,21.29458 -12.3722,-5.09109 -20.81156,-10.20242 -27.11843,-15.50646 -12.05051,25.14523 -30.93018,60.96349 -69.243123,129.80406 30.112687,-17.38458 53.455506,-28.10236 75.209893,-32.19198 -0.93414,-4.01773 -1.46524,-8.36369 -1.42917,-12.89823 l 0.0357,-0.96469 c 0.47782,-19.2924 10.51371,-34.12825 22.40219,-33.12093 11.88848,1.00732 21.12927,17.4729 20.65145,36.76531 -0.0899,3.63022 -0.49933,7.12245 -1.21479,10.36146 21.5182,4.20934 44.61142,14.89968 74.31667,32.04906 -5.8573,-10.78369 -11.08544,-20.5044 -16.07813,-29.7624 -7.86429,-6.09535 -16.06713,-14.02847 -32.79937,-22.61656 11.50078,2.98839 19.73519,6.43619 26.15375,10.29 -50.76203,-94.51003 -54.87267,-107.06846 -72.2801,-147.91874 z"
           id="path2518"
           inkscape:connector-curvature="0" />
        <text
           id="text2638"
           y="311.41299"
           x="233.12782"
           style="font-style:normal;font-weight:normal;font-size:8.25130367px;font-family:'DejaVu Sans Mono';fill:#87cdde;fill-opacity:1;stroke:none;stroke-width:0.92326385"
           xml:space="preserve"><tspan
             y="311.41299"
             x="233.12782"
             id="tspan2640"
             style="stroke-width:0.92326385">TM</tspan></text>
      </g>
    </g>
  </g>
</svg>
