<?xml version="1.0" encoding="UTF-8" standalone="no"?>
<svg
   xmlns:dc="http://purl.org/dc/elements/1.1/"
   xmlns:cc="http://creativecommons.org/ns#"
   xmlns:rdf="http://www.w3.org/1999/02/22-rdf-syntax-ns#"
   xmlns:svg="http://www.w3.org/2000/svg"
   xmlns="http://www.w3.org/2000/svg"
   xmlns:xlink="http://www.w3.org/1999/xlink"
   id="svg35"
   version="1.1"
   viewBox="0 0 200 200"
   height="200"
   width="200">
  <metadata
     id="metadata39">
    <rdf:RDF>
      <cc:Work
         rdf:about="">
        <dc:format>image/svg+xml</dc:format>
        <dc:type
           rdf:resource="http://purl.org/dc/dcmitype/StillImage" />
        <dc:title>ISO安装器-128px</dc:title>
      </cc:Work>
    </rdf:RDF>
  </metadata>
  <!-- Generator: Sketch 39.1 (31720) - http://www.bohemiancoding.com/sketch -->
  <title
     id="title2">ISO安装器-128px</title>
  <desc
     id="desc4">Created with Sketch.</desc>
  <defs
     id="defs11">
    <linearGradient
       id="linearGradient4727">
      <stop
         id="stop4723"
         offset="0"
         style="stop-color:#00b7ff;stop-opacity:1;" />
      <stop
         id="stop4725"
         offset="1"
         style="stop-color:#0d61bd;stop-opacity:1" />
    </linearGradient>
    <linearGradient
       gradientUnits="userSpaceOnUse"
       y2="175"
       x2="100"
       y1="25"
       x1="100"
       id="linearGradient4729"
       xlink:href="#linearGradient4727" />
  </defs>
  <path
     style="opacity:0.8;fill:url(#linearGradient4729);fill-rule:evenodd;stroke:none;stroke-width:1;fill-opacity:1"
     id="path11795"
     d="M 127.3618,24.637455 C 115.86449,20.44316 104.08718,19.311729 92.658435,20.374592 79.406814,21.420318 72.938149,25.52316 73.321012,24.780318 51.652127,32.517455 33.331862,49.157497 24.846024,72.494675 9.7372352,114.05474 31.137544,160.0148 72.635288,175.14625 114.15018,190.2777 160.04227,168.84909 175.15106,127.28903 190.26556,85.728969 168.86526,39.774613 127.3618,24.637455 Z M 75.366755,167.63196 c -4.422919,-1.61716 -8.554408,-3.6743 -12.445894,-6.02287 19.337425,1.48571 44.572079,-2.97143 61.589469,-18.89717 0,0 32.44047,-25.92005 8.97156,-68.457245 0,0 3.78291,17.142884 -1.04001,31.245745 0,0 -4.60007,19.17718 -25.04608,24.74861 -30.114731,8.20573 -64.429513,-12.87429 -78.772578,-23.08575 -1.080015,-10.49715 -0.12,-21.342879 3.725768,-31.925742 5.702941,-15.680021 16.423095,-27.914336 29.520429,-36.131494 -3.274335,22.90861 -0.685724,44.000062 3.034328,52.834378 4.994358,11.845728 13.674484,25.662888 30.606157,27.434318 16.931686,1.77715 26.268956,-14.06859 26.268956,-14.06859 8.68584,-13.200023 10.04586,-32.154338 9.91443,-32.611475 -0.13143,-0.462863 -2.31432,-1.714295 -2.31432,-1.714295 -5.8458,23.65718 -15.48594,31.56004 -15.48594,31.56004 -15.200216,14.67432 -25.966092,4.49716 -25.966092,4.49716 C 76.355343,94.60899 84.458317,74.408948 84.458317,74.408948 88.989812,60.648949 102.19572,40.51177 117.16165,30.27175 c 2.49147,0.617137 5.00008,1 7.46297,1.897136 9.05727,3.302864 16.98882,8.280021 23.69748,14.394316 -10.94301,3.994295 -28.61184,12.440021 -28.61184,12.440021 C 91.704136,70.797517 89.812679,88.637559 89.812679,88.637559 86.915496,107.02615 101.50428,99.24328 101.50428,99.24328 c 15.01736,-7.31429 22.39461,-30.108626 22.39461,-30.108626 -4.68578,-0.891411 -8.37726,0.531431 -8.37726,0.531431 -5.99437,14.794316 -18.223126,20.880042 -18.223126,20.880042 -4.811501,2.548568 -5.931515,-1.954295 -5.931515,-1.954295 -0.81144,-3.371431 3.48005,-3.948568 3.48005,-3.948568 6.662961,-2.588568 10.925881,-9.588589 11.891601,-12.451452 0.96002,-2.868569 2.74862,-3.091432 2.74862,-3.091432 9.13156,-2.914294 17.45739,-3.565726 17.45739,-3.565726 11.33731,-1.394274 28.69185,4.011431 28.69185,4.011431 3.89148,1.565727 7.62296,2.737158 10.9373,3.674295 6.36009,15.891452 7.36582,33.98863 1.06287,51.33722 -13.58877,37.40006 -54.90365,56.69151 -92.269915,43.07436 z" />
</svg>
