<?xml version="1.0" encoding="UTF-8" standalone="no"?>
<!-- Created with Inkscape (http://www.inkscape.org/) -->

<svg
   xmlns:dc="http://purl.org/dc/elements/1.1/"
   xmlns:cc="http://creativecommons.org/ns#"
   xmlns:rdf="http://www.w3.org/1999/02/22-rdf-syntax-ns#"
   xmlns:svg="http://www.w3.org/2000/svg"
   xmlns="http://www.w3.org/2000/svg"
   xmlns:sodipodi="http://sodipodi.sourceforge.net/DTD/sodipodi-0.dtd"
   xmlns:inkscape="http://www.inkscape.org/namespaces/inkscape"
   id="svg2"
   sodipodi:version="0.32"
   inkscape:version="0.92.3 (2405546, 2018-03-11)"
   width="200"
   height="200"
   version="1.0"
   sodipodi:docname="knoppix.svg"
   inkscape:output_extension="org.inkscape.output.svg.inkscape"
   sodipodi:modified="true">
  <metadata
     id="metadata7">
    <rdf:RDF>
      <cc:Work
         rdf:about="">
        <dc:format>image/svg+xml</dc:format>
        <dc:type
           rdf:resource="http://purl.org/dc/dcmitype/StillImage" />
        <dc:title></dc:title>
      </cc:Work>
    </rdf:RDF>
  </metadata>
  <defs
     id="defs5" />
  <sodipodi:namedview
     inkscape:window-height="1016"
     inkscape:window-width="1920"
     inkscape:pageshadow="2"
     inkscape:pageopacity="0.0"
     guidetolerance="10.0"
     gridtolerance="10.0"
     objecttolerance="10.0"
     borderopacity="1.0"
     bordercolor="#666666"
     pagecolor="#ffffff"
     id="base"
     inkscape:zoom="1"
     inkscape:cx="-40.575181"
     inkscape:cy="216.73943"
     inkscape:window-x="0"
     inkscape:window-y="27"
     inkscape:current-layer="layer2"
     showgrid="false"
     inkscape:window-maximized="1" />
  <g
     inkscape:groupmode="layer"
     id="layer1"
     inkscape:label="image"
     transform="translate(0,-86)" />
  <g
     inkscape:groupmode="layer"
     id="layer2"
     inkscape:label="stuff"
     transform="translate(0,-86)">
    <g
       id="g10010"
       transform="matrix(0.6373604,0,0,0.6373604,13.009641,95.341718)">
      <path
         id="path7080"
         d="m 273.7841,131.71695 c 0,64.31889 -55.206,116.51973 -123.22769,116.51973 -68.021684,0 -123.22769,-52.20084 -123.22769,-116.51973 0,-64.318891 55.206006,-116.51973 123.22769,-116.51973 68.02169,0 123.22769,52.200839 123.22769,116.51973 z"
         style="fill:#e7e7fe;fill-opacity:1;stroke:#000000;stroke-width:0.98844904;stroke-miterlimit:4;stroke-dashoffset:0;stroke-opacity:1"
         transform="matrix(0.9857913,0,0,1.0340139,0.4000923,-2.9895567)"
         inkscape:connector-curvature="0" />
      <path
         id="path9020"
         d="m 273.7841,131.71695 c 0,64.31889 -55.206,116.51973 -123.22769,116.51973 -68.021684,0 -123.22769,-52.20084 -123.22769,-116.51973 0,-64.318891 55.206006,-116.51973 123.22769,-116.51973 68.02169,0 123.22769,52.200839 123.22769,116.51973 z"
         style="fill:none;fill-opacity:1;stroke:#000000;stroke-width:0.98844904;stroke-miterlimit:4;stroke-dasharray:3.95379611, 3.95379611;stroke-dashoffset:0;stroke-opacity:1"
         transform="matrix(0.9657045,0,0,1.0170351,3.9216417,-13.920638)"
         inkscape:connector-curvature="0" />
      <path
         id="path14891"
         d="m 193.04691,210.59776 c 0.62111,3.22976 3.22976,4.5962 3.22976,4.5962 13.2917,0.37266 23.85052,-2.11177 23.85052,-2.11177 0,0 3.10554,1.49065 -3.60242,5.34152 h -7.32907 c 0,0 -1.36643,3.35399 -5.58996,6.08686 h -6.70796 l -2.48443,2.48443 0.11746,0.12403 -8.0744,0.86955 -6.33529,-10.80727 z"
         style="fill:#bdbf00;fill-opacity:1;fill-rule:evenodd;stroke:#000000;stroke-width:0.82499999;stroke-linecap:butt;stroke-linejoin:miter;stroke-miterlimit:4;stroke-opacity:1"
         inkscape:connector-curvature="0" />
      <path
         id="path13918"
         d="m 168.55988,217.92678 c 0,0 2.85709,0.99377 2.73287,2.73287 0,0 -0.37266,3.72665 -5.46574,6.45952 0,0 -8.44707,4.0993 -8.81973,5.46574 0,0 -1.24221,3.60243 3.35398,2.98132 0,0 5.46575,-2.11177 7.32907,-2.11177 0,0 3.22976,2.48443 7.82595,2.36021 0,0 4.09931,-2.85709 5.58997,-2.48443 0,0 4.0993,2.60865 6.33529,2.23599 0,0 5.46574,-2.48443 6.21107,-2.36021 0,0 4.22353,3.35398 7.57751,3.35398 l 3.85086,-0.12422 c 3.72665,-0.62111 2.23599,-3.72665 2.23599,-3.72665 l -21.49031,-13.16747 c -1.7391,-1.49066 -0.74533,-3.4782 -0.74533,-3.4782 4.22353,-1.49066 8.0744,-4.96886 8.0744,-4.96886 0.24844,-1.49066 -0.0439,-3.7204 -0.0439,-3.7204"
         style="fill:#e7c100;fill-opacity:1;fill-rule:evenodd;stroke:#000000;stroke-width:0.82499999;stroke-linecap:butt;stroke-linejoin:miter;stroke-miterlimit:4;stroke-opacity:1"
         inkscape:connector-curvature="0" />
      <path
         id="path13920"
         d="m 106.08513,210.59757 c -0.62111,3.22976 -3.22976,4.5962 -3.22976,4.5962 -13.291696,0.37266 -23.85052,-2.11177 -23.85052,-2.11177 0,0 -3.105537,1.49065 3.602422,5.34152 h 7.329066 c 0,0 1.366436,3.35399 5.589966,6.08686 h 6.707956 l 2.48443,2.48443 v 0.24844 l 5.71419,-1.7391 6.58374,-5.34152 -2.11177,-6.3353 z"
         style="fill:#bdbf00;fill-opacity:1;fill-rule:evenodd;stroke:#000000;stroke-width:0.82499999;stroke-linecap:butt;stroke-linejoin:miter;stroke-miterlimit:4;stroke-opacity:1"
         inkscape:connector-curvature="0" />
      <path
         id="path12947"
         d="m 130.18409,217.92664 c 0,0 -2.85709,0.99377 -2.73287,2.73287 0,0 0.37266,3.72665 5.46574,6.45952 0,0 8.44707,4.0993 8.81973,5.46574 0,0 1.24221,3.60243 -3.35398,2.98132 0,0 -5.46575,-2.11177 -7.32907,-2.11177 0,0 -3.22976,2.48443 -7.82595,2.36021 0,0 -4.09931,-2.85709 -5.58997,-2.48443 0,0 -4.0993,2.60865 -6.33529,2.23599 0,0 -5.46574,-2.48443 -6.21107,-2.36021 0,0 -4.22353,3.35398 -7.577513,3.35398 l -3.850865,-0.12422 c -3.726644,-0.62111 -2.235986,-3.72665 -2.235986,-3.72665 l 21.490314,-13.16747 c 1.7391,-1.49066 0.74533,-3.4782 0.74533,-3.4782 -4.22353,-1.49066 -8.0744,-4.96886 -8.0744,-4.96886 -0.24844,-1.49066 0.0621,-3.54032 0.0621,-3.54032"
         style="fill:#e7c100;fill-opacity:1;fill-rule:evenodd;stroke:#000000;stroke-width:0.82499999;stroke-linecap:butt;stroke-linejoin:miter;stroke-miterlimit:4;stroke-opacity:1"
         inkscape:connector-curvature="0" />
      <path
         id="path2172"
         d="m 189.6855,116.06547 c 11.17993,0 28.81938,-16.89412 28.81938,-16.89412 14.90657,-13.16747 25.09273,-19.62699 25.09273,-19.62699 6.21108,-3.72664 5.96263,4.22353 5.96263,4.22353 l -0.99377,5.2173 -16.89412,31.30381 0.92224,0.57586 -1.4054,7.72973 -15.45946,2.81082 h -18.97297 z"
         style="fill:#979996;fill-opacity:1;fill-rule:evenodd;stroke:#000000;stroke-width:1px;stroke-linecap:butt;stroke-linejoin:miter;stroke-opacity:1"
         inkscape:connector-curvature="0" />
      <path
         id="path2170"
         d="m 109.06644,116.06504 c -11.179932,0 -28.819376,-16.894118 -28.819376,-16.894118 C 65.340489,86.003447 55.154329,79.543931 55.154329,79.543931 c -6.211073,-3.726644 -5.96263,4.223529 -5.96263,4.223529 l 0.993772,5.217302 16.894118,31.303808 17.947438,13.92765 17.567563,-9.13514 7.02703,-4.21622 z"
         style="fill:#979996;fill-opacity:1;fill-rule:evenodd;stroke:#000000;stroke-width:1px;stroke-linecap:butt;stroke-linejoin:miter;stroke-opacity:1"
         inkscape:connector-curvature="0" />
      <path
         id="path2161"
         d="m 149.0625,35.5625 c 0,0 -24.83118,0.0088 -27.8125,26.34375 v 21.25 c 0.0189,17.62855 -7.00023,32.94614 -23.5625,40.65625 l -3.53125,-0.0312 c -1.490656,-0.24844 -1.228092,-2.75 -2.71875,-2.75 H 34.78125 c 0.124221,0.62111 -5.21875,0.5 -5.21875,0.5 -1e-6,0 -1.117993,1.6101 0,4.21875 -1e-6,0 6.475993,9.93417 32.5625,19.375 2e-6,0 24.070177,9.83008 30.28125,27.59375 4.586464,10.66026 6.175746,26.72021 10.6875,32.3125 0.008,0.005 0.022,0.0562 0.0312,0.0625 7.33846,7.36331 17.41109,10.74544 27.40625,12.59375 0,0 10.38426,-0.025 18.53125,-2.28125 8.14699,2.25626 18.53125,2.28125 18.53125,2.28125 9.99516,-1.84831 20.06779,-5.23044 27.40625,-12.59375 0.009,-0.006 0.0234,-0.0577 0.0312,-0.0625 4.51175,-5.59229 6.10103,-21.65224 10.6875,-32.3125 6.21117,-17.76372 30.28134,-27.5938 30.28135,-27.5938 26.0865,-9.44083 32.5625,-19.375 32.5625,-19.375 1.11798,-2.60865 0,-4.21875 0,-4.21875 -10e-6,0 -5.34297,0.12111 -5.21875,-0.5 H 206.6875 c -1.49066,0 -1.2281,2.50156 -2.71875,2.75 l -3.53125,0.0312 C 183.87523,116.10239 176.85611,100.7848 176.875,83.15625 v -21.25 C 173.89368,35.571298 149.0625,35.5625 149.0625,35.5625 Z"
         style="fill:#8b8d8a;fill-opacity:1;fill-rule:evenodd;stroke:#000000;stroke-width:1px;stroke-linecap:butt;stroke-linejoin:miter;stroke-opacity:1"
         inkscape:connector-curvature="0" />
      <path
         id="path2197"
         d="m 108.21622,127.54054 c 0,0 -10.364868,17.21622 -11.594598,33.37838 v 17.56757 c 0,0 1.229729,12.64864 3.513518,20.55405"
         style="fill:none;fill-rule:evenodd;stroke:#000000;stroke-width:1px;stroke-linecap:butt;stroke-linejoin:miter;stroke-opacity:1"
         inkscape:connector-curvature="0" />
      <path
         id="path2199"
         d="m 190.43243,127.54032 c 0,0 10.36487,17.21622 11.5946,33.37838 v 17.56757 c 0.26351,1.14189 -1.75675,12.64864 -4.04054,20.55405"
         style="fill:none;fill-rule:evenodd;stroke:#000000;stroke-width:1px;stroke-linecap:butt;stroke-linejoin:miter;stroke-opacity:1"
         inkscape:connector-curvature="0" />
      <path
         id="path2201"
         d="m 130.34375,83.261824 v 8.625 c 0,0 -8.06334,22.141886 -9.46875,30.749996 v 5.25 c 0,0 -10.02872,14.24071 -12.3125,31.28125 v 22.65625 c 1.90137,17.15208 16.52827,22.93252 31.8125,26.53125 h 9.19764 8.61486 C 173.47173,204.75684 188.09863,198.9764 190,181.82432 v -22.65625 c -2.28378,-17.04054 -12.3125,-31.28125 -12.3125,-31.28125 v -5.25 c -1.40541,-8.60811 -9.46875,-30.749997 -9.46875,-30.749996 v -8.625 z"
         style="fill:#f1f3f0;fill-opacity:1;fill-rule:evenodd;stroke:#000000;stroke-width:1px;stroke-linecap:butt;stroke-linejoin:miter;stroke-opacity:1"
         inkscape:connector-curvature="0" />
      <path
         id="path3184"
         d="m 149.41217,70.446379 v -8.081081 c 1.93243,-7.554054 9.13513,-8.081081 9.13513,-8.081081 0,0 7.72973,-10e-7 9.66216,9.31081 v 8.081081 c 0,0 -0.87837,3.513514 -2.63513,4.391892 l -8.69595,3.688756 -8.60811,-6.675675 z"
         style="fill:#ffffff;fill-opacity:1;fill-rule:evenodd;stroke:#000000;stroke-width:0.60000002;stroke-linecap:butt;stroke-linejoin:miter;stroke-miterlimit:4;stroke-dasharray:none;stroke-opacity:1"
         inkscape:connector-curvature="0" />
      <path
         id="path3182"
         d="m 149.32432,70.445946 v -8.081081 c -1.93243,-7.554054 -9.13513,-8.081081 -9.13513,-8.081081 0,0 -7.72973,-10e-7 -9.66216,9.31081 v 8.081081 c 0,0 0.87837,3.513514 2.63513,4.391892 l 5.7973,3.162162 10.36486,-5.445946 z"
         style="fill:#ffffff;fill-opacity:1;fill-rule:evenodd;stroke:#000000;stroke-width:0.60000002;stroke-linecap:butt;stroke-linejoin:miter;stroke-miterlimit:4;stroke-dasharray:none;stroke-opacity:1"
         inkscape:connector-curvature="0" />
      <path
         id="path3186"
         d="M 145.29262,71.294183 C 146.9696,70.610965 146.0894,66.653848 145.98649,65 c -1.16374,-4.654966 -5.97298,-4.743243 -5.97298,-4.743243 0,0 -6.14865,0.878378 -5.62162,6.675675 0.14068,0.04621 -1.14872,5.305011 1.75676,9.135135"
         style="fill:#000000;fill-opacity:1;fill-rule:evenodd;stroke:#000000;stroke-width:1px;stroke-linecap:butt;stroke-linejoin:miter;stroke-opacity:1"
         inkscape:connector-curvature="0" />
      <path
         id="path2205"
         d="m 146.34375,70.625 c 0,10e-7 -6.86149,2.455236 -10.375,5.96875 -22.11603,-1.048269 5.03384,13.790431 11.0625,16.15625 h 4.25 C 157.30991,90.384181 184.49102,75.545488 162.375,76.59375 158.86149,73.080236 152,70.625 152,70.625 Z"
         style="fill:#ed9e75;fill-opacity:1;fill-rule:evenodd;stroke:#000000;stroke-width:1px;stroke-linecap:butt;stroke-linejoin:miter;stroke-opacity:1"
         inkscape:connector-curvature="0" />
      <path
         id="path5138"
         d="m 152.09879,71.977053 c -0.53029,0.410821 -0.66893,1.120817 -0.30946,1.584819 0.35948,0.464008 1.08159,0.507163 1.61188,0.09634 0.53029,-0.410822 0.66893,-1.120818 0.30946,-1.584826 -0.35947,-0.464002 -1.08159,-0.507156 -1.61188,-0.09633 z"
         style="opacity:0.6350711;fill:#000000;fill-opacity:1;stroke:none;stroke-width:1;stroke-miterlimit:4;stroke-opacity:1"
         inkscape:connector-curvature="0" />
      <path
         id="path4159"
         d="m 130.34375,79.9375 c 0,-2e-6 7.5761,6.95436 18.59375,7.28125 9.00433,-0.608317 13.24155,-3.536539 18.90625,-7.28125"
         style="fill:none;fill-rule:evenodd;stroke:#000000;stroke-width:1px;stroke-linecap:butt;stroke-linejoin:miter;stroke-opacity:1"
         inkscape:connector-curvature="0" />
      <path
         id="path5136"
         d="m 146.37417,71.976973 c 0.53029,0.410821 0.66893,1.120817 0.30946,1.584819 -0.35947,0.464008 -1.08159,0.507163 -1.61187,0.09634 -0.53029,-0.410822 -0.66893,-1.120818 -0.30946,-1.584826 0.35947,-0.464002 1.08159,-0.507156 1.61187,-0.09633 z"
         style="opacity:0.6350711;fill:#000000;fill-opacity:1;stroke:none;stroke-width:1;stroke-miterlimit:4;stroke-opacity:1"
         inkscape:connector-curvature="0" />
      <path
         id="rect5140"
         d="M 47.697414,35.565903 H 250.93098 V 238.30258 H 47.697414 Z"
         style="fill:none;fill-opacity:1;stroke:#000000;stroke-width:1;stroke-miterlimit:4;stroke-dasharray:4, 2;stroke-dashoffset:0;stroke-opacity:1"
         inkscape:connector-curvature="0" />
      <path
         id="flowRoot10960"
         d="m 89.129812,262.40896 h 1.198243 v 3.74303 l 3.974373,-3.74303 h 1.542294 l -4.395538,4.1286 4.709929,4.72773 h -1.577886 l -4.253172,-4.26504 v 4.26504 h -1.198243 v -8.85633 m 7.972472,0 h 1.613477 l 3.926919,7.40894 v -7.40894 h 1.16265 v 8.85633 h -1.61348 l -3.926913,-7.40895 v 7.40895 h -1.162653 v -8.85633 m 12.682406,0.81267 c -0.87002,10e-6 -1.56207,0.32429 -2.07617,0.97283 -0.51014,0.64856 -0.76522,1.53242 -0.76521,2.65156 -1e-5,1.1152 0.25507,1.99708 0.76521,2.64563 0.5141,0.64855 1.20615,0.97283 2.07617,0.97283 0.87,0 1.5581,-0.32428 2.0643,-0.97283 0.51013,-0.64855 0.7652,-1.53043 0.76521,-2.64563 -1e-5,-1.11914 -0.25508,-2.003 -0.76521,-2.65156 -0.5062,-0.64854 -1.1943,-0.97282 -2.0643,-0.97283 m 0,-0.97283 c 1.24173,10e-6 2.23434,0.41722 2.97781,1.25163 0.74346,0.83047 1.11519,1.94567 1.1152,3.34559 -1e-5,1.39598 -0.37174,2.51117 -1.1152,3.34559 -0.74347,0.83047 -1.73608,1.2457 -2.97781,1.2457 -1.24571,0 -2.24227,-0.41523 -2.98968,-1.2457 -0.74347,-0.83046 -1.1152,-1.94566 -1.1152,-3.34559 0,-1.39992 0.37173,-2.51512 1.1152,-3.34559 0.74741,-0.83441 1.74397,-1.25162 2.98968,-1.25163 m 7.16573,1.14486 v 3.32779 h 1.5067 c 0.5576,10e-6 0.98865,-0.14434 1.29316,-0.43303 0.30449,-0.28868 0.45675,-0.69995 0.45675,-1.23383 0,-0.52991 -0.15226,-0.93921 -0.45675,-1.2279 -0.30451,-0.28868 -0.73556,-0.43303 -1.29316,-0.43303 h -1.5067 m -1.19824,-0.9847 h 2.70494 c 0.9926,1e-5 1.742,0.22542 2.24819,0.67624 0.51014,0.44688 0.76521,1.10334 0.76522,1.96939 -1e-5,0.87397 -0.25508,1.53439 -0.76522,1.98125 -0.50619,0.44688 -1.25559,0.67031 -2.24819,0.67031 h -1.5067 v 3.55914 h -1.19824 v -8.85633 m 8.53007,0.9847 v 3.32779 h 1.5067 c 0.5576,10e-6 0.98865,-0.14434 1.29316,-0.43303 0.30449,-0.28868 0.45675,-0.69995 0.45675,-1.23383 0,-0.52991 -0.15226,-0.93921 -0.45675,-1.2279 -0.30451,-0.28868 -0.73556,-0.43303 -1.29316,-0.43303 h -1.5067 m -1.19825,-0.9847 h 2.70495 c 0.9926,1e-5 1.742,0.22542 2.24819,0.67624 0.51014,0.44688 0.76521,1.10334 0.76522,1.96939 -1e-5,0.87397 -0.25508,1.53439 -0.76522,1.98125 -0.50619,0.44688 -1.25559,0.67031 -2.24819,0.67031 h -1.5067 v 3.55914 H 123.084 v -8.85633 m 7.33183,0 h 1.19824 v 8.85633 h -1.19824 v -8.85633 m 3.15577,0 h 1.28723 l 2.20073,3.29221 2.2126,-3.29221 h 1.28722 l -2.84731,4.25317 3.03713,4.60316 h -1.28722 l -2.4914,-3.76676 -2.50919,3.76676 h -1.29316 l 3.16171,-4.72773 -2.75834,-4.1286"
         style="font-size:12.14853001px;fill:#000000"
         transform="matrix(2.1401766,0,0,2.1401766,-95.644473,-297.47617)"
         inkscape:connector-curvature="0" />
      <path
         id="flowRoot10968"
         d="m 88.808805,261.53323 h 0.875639 v 5.73501 h 3.151436 v 0.73692 h -4.027075 v -6.47193 m 4.90705,1.6169 h 0.797612 v 4.85503 h -0.797612 v -4.85503 m 0,-1.88999 h 0.797612 v 1.01002 h -0.797612 v -1.01002 m 1.889994,1.88999 h 0.845296 l 1.517197,4.07476 1.517197,-4.07476 h 0.845301 l -1.820642,4.85503 h -1.083712 l -1.820637,-4.85503 m 9.978821,2.22811 v 0.39014 h -3.66728 c 0.0347,0.54908 0.1994,0.96812 0.49417,1.25711 0.29766,0.2861 0.71092,0.42915 1.23977,0.42915 0.30633,0 0.60254,-0.0376 0.88864,-0.11271 0.28899,-0.0751 0.57509,-0.18784 0.85831,-0.33812 v 0.75427 c -0.28611,0.12137 -0.57943,0.21385 -0.87998,0.27743 -0.30055,0.0636 -0.60544,0.0954 -0.91465,0.0954 -0.7745,0 -1.3886,-0.22541 -1.84231,-0.67623 -0.45083,-0.45083 -0.67624,-1.0606 -0.67624,-1.82931 0,-0.79472 0.21385,-1.42472 0.64156,-1.88999 0.43059,-0.46816 1.01002,-0.70225 1.73827,-0.70225 0.65312,0 1.16896,0.21097 1.54754,0.63289 0.38147,0.41904 0.5722,0.98979 0.5722,1.71226 m -0.79761,-0.23408 c -0.006,-0.43637 -0.1286,-0.7846 -0.36846,-1.0447 -0.23698,-0.26008 -0.55198,-0.39013 -0.945,-0.39013 -0.44505,0 -0.80195,0.12571 -1.07071,0.37713 -0.26587,0.25142 -0.41903,0.60544 -0.45949,1.06204 l 2.84366,-0.004 m 9.38062,1.93768 v -1.73828 h -1.43051 v -0.71958 h 2.29748 v 2.77864 c -0.33813,0.23986 -0.71093,0.42192 -1.1184,0.54619 -0.40748,0.12137 -0.84241,0.18206 -1.30479,0.18206 -1.01146,0 -1.8033,-0.29477 -2.37549,-0.88431 -0.56931,-0.59242 -0.85397,-1.41605 -0.85397,-2.47086 0,-1.0577 0.28466,-1.88132 0.85397,-2.47087 0.57219,-0.59242 1.36403,-0.88863 2.37549,-0.88864 0.42193,1e-5 0.82218,0.052 1.20076,0.15606 0.38146,0.10404 0.73258,0.2572 1.05337,0.45949 v 0.93199 c -0.32368,-0.27453 -0.66758,-0.48116 -1.0317,-0.61988 -0.36413,-0.13871 -0.74704,-0.20807 -1.14873,-0.20807 -0.79184,0 -1.38716,0.22108 -1.78596,0.66323 -0.39592,0.44216 -0.59388,1.10105 -0.59388,1.97669 0,0.87275 0.19796,1.5302 0.59388,1.97236 0.3988,0.44215 0.99412,0.66323 1.78596,0.66323 0.30921,0 0.5852,-0.026 0.82795,-0.078 0.24275,-0.0549 0.46094,-0.13871 0.65457,-0.25142 m 2.47086,-5.54861 h 1.17908 l 2.86967,5.41423 v -5.41423 h 0.84963 v 6.47193 h -1.17908 l -2.86967,-5.41423 v 5.41423 h -0.84963 v -6.47193 m 6.54129,0 h 0.87997 v 3.93171 c 0,0.69358 0.12571,1.19353 0.37714,1.49986 0.25141,0.30344 0.65889,0.45516 1.22242,0.45516 0.56064,0 0.96667,-0.15172 1.2181,-0.45516 0.25141,-0.30633 0.37712,-0.80628 0.37713,-1.49986 v -3.93171 h 0.87997 v 4.04008 c 0,0.84385 -0.20952,1.48108 -0.62855,1.91167 -0.41615,0.4306 -1.0317,0.64589 -1.84665,0.64589 -0.81784,0 -1.43628,-0.21529 -1.85531,-0.64589 -0.41615,-0.43059 -0.62422,-1.06782 -0.62422,-1.91167 v -4.04008 m 7.98479,0 h 0.73693 l -2.25413,7.29555 h -0.73692 l 2.25412,-7.29555 m 1.6169,0 h 0.87564 v 5.73501 h 3.15144 v 0.73692 h -4.02708 v -6.47193 m 4.90705,1.6169 h 0.79761 v 4.85503 h -0.79761 v -4.85503 m 0,-1.88999 h 0.79761 v 1.01002 h -0.79761 v -1.01002 m 6.49794,3.81466 v 2.93036 h -0.79761 v -2.90435 c 0,-0.45949 -0.0896,-0.80339 -0.26876,-1.03169 -0.17918,-0.2283 -0.44794,-0.34245 -0.80628,-0.34245 -0.4306,0 -0.77016,0.13727 -1.01869,0.41181 -0.24854,0.27454 -0.3728,0.64878 -0.3728,1.12272 v 2.74396 h -0.80195 v -4.85503 h 0.80195 v 0.75426 c 0.19073,-0.29187 0.4147,-0.51006 0.6719,-0.65456 0.26009,-0.14449 0.55919,-0.21674 0.89732,-0.21674 0.55774,0 0.97967,0.1734 1.26577,0.52018 0.2861,0.3439 0.42915,0.85108 0.42915,1.52153 m 1.5172,1.01436 v -2.93903 h 0.79761 v 2.90868 c 0,0.4595 0.0896,0.80484 0.26876,1.03603 0.17917,0.22831 0.44793,0.34246 0.80628,0.34246 0.43059,0 0.77016,-0.13727 1.01869,-0.41181 0.25142,-0.27454 0.37713,-0.64878 0.37713,-1.12273 v -2.75263 h 0.79762 v 4.85503 h -0.79762 v -0.74559 c -0.19362,0.29477 -0.41903,0.5144 -0.67623,0.6589 -0.25432,0.1416 -0.55053,0.2124 -0.88865,0.2124 -0.55775,0 -0.98112,-0.17339 -1.27011,-0.52018 -0.28899,-0.34679 -0.43348,-0.85396 -0.43348,-1.52153 m 9.75341,-2.93903 -1.75562,2.36249 1.84665,2.49254 h -0.94066 l -1.41316,-1.90733 -1.41316,1.90733 h -0.94067 l 1.88566,-2.54022 -1.72527,-2.31481 h 0.94067 l 1.28745,1.72961 1.28745,-1.72961 h 0.94066 m 7.95878,-1.40449 v 0.85396 c -0.33234,-0.15893 -0.64589,-0.27742 -0.94066,-0.35545 -0.29477,-0.078 -0.57943,-0.11704 -0.85396,-0.11704 -0.47684,0 -0.8453,0.0925 -1.10539,0.27743 -0.2572,0.18496 -0.3858,0.44794 -0.3858,0.78894 0,0.2861 0.0853,0.50285 0.25575,0.65023 0.1734,0.1445 0.49996,0.26154 0.97968,0.35112 l 0.52885,0.10837 c 0.65312,0.12427 1.13428,0.3439 1.44351,0.6589 0.3121,0.31211 0.46816,0.73114 0.46816,1.2571 0,0.62711 -0.21097,1.1025 -0.63289,1.42617 -0.41904,0.32367 -1.03458,0.4855 -1.84664,0.4855 -0.30633,0 -0.63289,-0.0347 -0.97968,-0.10403 -0.3439,-0.0694 -0.7008,-0.17195 -1.07071,-0.30778 v -0.90165 c 0.35546,0.19941 0.70369,0.34968 1.0447,0.45083 0.34101,0.10114 0.67624,0.15172 1.00569,0.15172 0.49995,0 0.88575,-0.0983 1.1574,-0.29477 0.27165,-0.19651 0.40747,-0.47683 0.40748,-0.84096 -1e-5,-0.31789 -0.0983,-0.56642 -0.29477,-0.7456 -0.19363,-0.17917 -0.51296,-0.31355 -0.958,-0.40314 l -0.53319,-0.10403 c -0.65312,-0.13005 -1.12562,-0.33378 -1.4175,-0.61122 -0.29188,-0.27743 -0.43782,-0.66323 -0.43782,-1.1574 0,-0.5722 0.20085,-1.02302 0.60255,-1.35248 0.40458,-0.32944 0.96089,-0.49416 1.66892,-0.49417 0.30343,10e-6 0.61265,0.0275 0.92765,0.0824 0.315,0.0549 0.63722,0.13728 0.96667,0.24709 m 3.74098,6.71035 c -0.22541,0.57798 -0.44504,0.95511 -0.65889,1.13139 -0.21386,0.17628 -0.49996,0.26443 -0.8583,0.26443 h -0.63723 v -0.66757 h 0.46817 c 0.21963,0 0.39013,-0.052 0.51151,-0.15605 0.12137,-0.10404 0.25575,-0.34968 0.40314,-0.73693 l 0.14305,-0.36413 -1.96369,-4.777 h 0.8453 l 1.5172,3.79733 1.51719,-3.79733 h 0.8453 l -2.13275,5.30586 m 6.32888,-5.16281 v 0.75426 c -0.22541,-0.11559 -0.45949,-0.20228 -0.70224,-0.26009 -0.24276,-0.0578 -0.49418,-0.0867 -0.75427,-0.0867 -0.39591,0 -0.69357,0.0607 -0.89298,0.18206 -0.19651,0.12138 -0.29477,0.30344 -0.29477,0.54619 0,0.18496 0.0708,0.3309 0.21241,0.43782 0.14161,0.10404 0.42626,0.20374 0.85397,0.29911 l 0.27309,0.0607 c 0.56642,0.12138 0.96812,0.29333 1.20509,0.51585 0.23986,0.21963 0.35979,0.52741 0.35979,0.92332 0,0.45083 -0.17917,0.80773 -0.53752,1.07071 -0.35546,0.26298 -0.8453,0.39447 -1.46951,0.39447 -0.26009,0 -0.53174,-0.026 -0.81495,-0.078 -0.28032,-0.0491 -0.57654,-0.12427 -0.88865,-0.22542 v -0.82362 c 0.29477,0.15317 0.58521,0.26876 0.87131,0.34679 0.2861,0.0751 0.56931,0.11271 0.84963,0.11271 0.37568,0 0.66467,-0.0636 0.86697,-0.19074 0.20229,-0.13004 0.30343,-0.31211 0.30344,-0.54619 -1e-5,-0.21674 -0.0737,-0.38291 -0.22108,-0.49851 -0.1445,-0.11559 -0.46383,-0.22685 -0.958,-0.33378 l -0.27743,-0.065 c -0.49418,-0.10404 -0.85108,-0.26298 -1.07071,-0.47684 -0.21963,-0.21674 -0.32945,-0.51295 -0.32945,-0.88864 0,-0.4566 0.16184,-0.80917 0.4855,-1.0577 0.32367,-0.24853 0.78317,-0.3728 1.37849,-0.3728 0.29476,0 0.57219,0.0217 0.83229,0.065 0.26009,0.0434 0.49995,0.10838 0.71958,0.19507 m 2.32348,-1.52153 v 1.37848 h 1.64291 v 0.61988 h -1.64291 v 2.63559 c 0,0.39592 0.0535,0.65023 0.16039,0.76294 0.10981,0.1127 0.33089,0.16906 0.66323,0.16906 h 0.81929 v 0.66756 h -0.81929 c -0.61555,0 -1.04037,-0.11415 -1.27445,-0.34245 -0.23408,-0.23119 -0.35112,-0.65023 -0.35112,-1.25711 v -2.63559 h -0.5852 v -0.61988 h 0.5852 v -1.37848 h 0.80195 m 6.84906,3.60659 v 0.39014 h -3.66728 c 0.0347,0.54908 0.1994,0.96812 0.49417,1.25711 0.29766,0.2861 0.71092,0.42915 1.23977,0.42915 0.30633,0 0.60254,-0.0376 0.88865,-0.11271 0.28898,-0.0751 0.57508,-0.18784 0.8583,-0.33812 v 0.75427 c -0.28611,0.12137 -0.57943,0.21385 -0.87998,0.27743 -0.30055,0.0636 -0.60544,0.0954 -0.91465,0.0954 -0.7745,0 -1.3886,-0.22541 -1.84231,-0.67623 -0.45083,-0.45083 -0.67624,-1.0606 -0.67624,-1.82931 0,-0.79472 0.21385,-1.42472 0.64156,-1.88999 0.43059,-0.46816 1.01002,-0.70225 1.73827,-0.70225 0.65312,0 1.16896,0.21097 1.54754,0.63289 0.38147,0.41904 0.5722,0.98979 0.5722,1.71226 m -0.79761,-0.23408 c -0.006,-0.43637 -0.1286,-0.7846 -0.36846,-1.0447 -0.23698,-0.26008 -0.55197,-0.39013 -0.945,-0.39013 -0.44504,0 -0.80195,0.12571 -1.07071,0.37713 -0.26587,0.25142 -0.41903,0.60544 -0.45949,1.06204 l 2.84366,-0.004 m 5.88672,-1.06204 c 0.1994,-0.35834 0.43782,-0.62277 0.71525,-0.79327 0.27743,-0.1705 0.60399,-0.25576 0.97968,-0.25576 0.50573,0 0.89586,0.17773 1.17041,0.53319 0.27453,0.35257 0.4118,0.85541 0.41181,1.50852 v 2.93036 h -0.80195 v -2.90435 c 0,-0.46527 -0.0824,-0.81061 -0.24708,-1.03603 -0.16473,-0.2254 -0.41616,-0.33811 -0.75427,-0.33811 -0.41326,0 -0.73982,0.13727 -0.97967,0.41181 -0.23987,0.27454 -0.3598,0.64878 -0.3598,1.12272 v 2.74396 h -0.80194 v -2.90435 c -1e-5,-0.46816 -0.0824,-0.8135 -0.24709,-1.03603 -0.16473,-0.2254 -0.41904,-0.33811 -0.76293,-0.33811 -0.40748,0 -0.73115,0.13871 -0.97101,0.41614 -0.23986,0.27455 -0.35979,0.64734 -0.35979,1.11839 v 2.74396 h -0.80195 v -4.85503 h 0.80195 v 0.75426 c 0.18206,-0.29765 0.40025,-0.51728 0.65456,-0.65889 0.25431,-0.1416 0.5563,-0.21241 0.90598,-0.21241 0.35257,0 0.65167,0.0896 0.89732,0.26876 0.24852,0.17918 0.43203,0.43927 0.55052,0.78027"
         style="font-size:8.87777233px;fill:#000000"
         transform="matrix(0,-2.1401766,2.1401766,0,-556.95341,432.94975)"
         inkscape:connector-curvature="0" />
      <path
         id="path10976"
         d="M 45.185187,258.4956 H 248.55959"
         style="fill:none;fill-rule:evenodd;stroke:#000000;stroke-width:1.4987154;stroke-linecap:butt;stroke-linejoin:miter;stroke-miterlimit:4;stroke-dasharray:5.99486166, 2.99743083, 1.49871542, 2.99743083;stroke-dashoffset:0;stroke-opacity:1"
         inkscape:connector-curvature="0" />
      <path
         id="path11947"
         d="m 45.5,255.60811 v 6.14865 l -11.945946,-3.33784 z"
         style="fill:none;fill-rule:evenodd;stroke:#000000;stroke-width:1px;stroke-linecap:butt;stroke-linejoin:miter;stroke-opacity:1"
         inkscape:connector-curvature="0" />
      <path
         id="path12918"
         d="m 248.5447,255.60835 v 6.14865 l 11.94594,-3.33784 z"
         style="fill:none;fill-rule:evenodd;stroke:#000000;stroke-width:1px;stroke-linecap:butt;stroke-linejoin:miter;stroke-opacity:1"
         inkscape:connector-curvature="0" />
      <path
         id="path12920"
         d="m 31.303808,250.47266 v 15.90035"
         style="fill:none;fill-rule:evenodd;stroke:#000000;stroke-width:1px;stroke-linecap:butt;stroke-linejoin:miter;stroke-opacity:1"
         inkscape:connector-curvature="0" />
      <path
         id="path12922"
         d="M 262.49389,250.47265 V 266.373"
         style="fill:none;fill-rule:evenodd;stroke:#000000;stroke-width:1px;stroke-linecap:butt;stroke-linejoin:miter;stroke-opacity:1"
         inkscape:connector-curvature="0" />
      <path
         id="path12933"
         d="M 23.07505,32.736159 V 236.11056"
         style="fill:none;fill-rule:evenodd;stroke:#000000;stroke-width:1.4987154;stroke-linecap:butt;stroke-linejoin:miter;stroke-miterlimit:4;stroke-dasharray:5.99486166, 2.99743083, 1.49871542, 2.99743083;stroke-dashoffset:0;stroke-opacity:1"
         inkscape:connector-curvature="0" />
      <path
         id="path12935"
         d="M 25.96254,33.050972 H 19.81389 L 23.15173,21.105026 Z"
         style="fill:none;fill-rule:evenodd;stroke:#000000;stroke-width:1px;stroke-linecap:butt;stroke-linejoin:miter;stroke-opacity:1"
         inkscape:connector-curvature="0" />
      <path
         id="path12937"
         d="m 25.9623,236.09567 h -6.14865 l 3.33784,11.94594 z"
         style="fill:none;fill-rule:evenodd;stroke:#000000;stroke-width:1px;stroke-linecap:butt;stroke-linejoin:miter;stroke-opacity:1"
         inkscape:connector-curvature="0" />
      <path
         id="path12939"
         d="M 31.09799,18.85478 H 15.19764"
         style="fill:none;fill-rule:evenodd;stroke:#000000;stroke-width:1px;stroke-linecap:butt;stroke-linejoin:miter;stroke-opacity:1"
         inkscape:connector-curvature="0" />
      <path
         id="path12941"
         d="M 31.843329,250.04486 H 15.19765"
         style="fill:none;fill-rule:evenodd;stroke:#000000;stroke-width:1px;stroke-linecap:butt;stroke-linejoin:miter;stroke-opacity:1"
         inkscape:connector-curvature="0" />
      <path
         id="path26553"
         d="m 153.91592,71.294616 c -1.67698,-0.683218 -0.79678,-4.640335 -0.69387,-6.294183 1.16374,-4.654966 5.97298,-4.743243 5.97298,-4.743243 0,0 6.14865,0.878378 5.62162,6.675675 -0.14068,0.04621 1.1048,5.568525 -1.80068,9.398649"
         style="fill:#000000;fill-opacity:1;fill-rule:evenodd;stroke:#000000;stroke-width:1px;stroke-linecap:butt;stroke-linejoin:miter;stroke-opacity:1"
         inkscape:connector-curvature="0" />
      <path
         id="path2200"
         d="m 106.07007,206.86467 c 11.44817,8.57646 25.72891,10.06819 25.72891,10.06819 l -6.45952,2.73288 -6.70796,-3.85087 -12.79481,-6.77007 c -0.24844,-1.86332 0.23338,-2.18013 0.23338,-2.18013 z"
         style="fill:#e7c100;fill-opacity:1;fill-rule:evenodd;stroke:none;stroke-width:1px;stroke-linecap:butt;stroke-linejoin:miter;stroke-opacity:1"
         inkscape:connector-curvature="0" />
      <path
         id="path3173"
         d="m 192.60682,206.62337 c -11.44817,8.57646 -25.75087,10.30975 -25.75087,10.30975 l 6.45952,2.73288 6.70796,-3.85087 12.79481,-6.77007 c 0.24844,-1.86332 -0.21142,-2.42169 -0.21142,-2.42169 z"
         style="fill:#e7c100;fill-opacity:1;fill-rule:evenodd;stroke:none;stroke-width:1px;stroke-linecap:butt;stroke-linejoin:miter;stroke-opacity:1"
         inkscape:connector-curvature="0" />
    </g>
  </g>
</svg>
