<svg xmlns="http://www.w3.org/2000/svg" xmlns:xlink="http://www.w3.org/1999/xlink" width="200" viewBox="0 0 199.996 200.004" height="200">
    <defs>
        <filter height="1.258" y="-.129" width="1.153" x="-.076" id="r" color-interpolation-filters="sRGB">
            <feGaussianBlur stdDeviation="2.036"/>
        </filter>
        <filter id="s" color-interpolation-filters="sRGB">
            <feGaussianBlur stdDeviation=".932"/>
        </filter>
        <radialGradient xlink:href="#a" id="t" gradientUnits="userSpaceOnUse" gradientTransform="matrix(.81524 -.03431 .02961 1.24799 -208.437 -35.543)" cx="223.196" cy="137.661" fx="223.196" fy="137.661" r="14.572"/>
        <linearGradient id="a">
            <stop offset="0" stop-color="#fefefc"/>
            <stop offset=".757" stop-color="#fefefc"/>
            <stop offset="1" stop-color="#d4d4d4"/>
        </linearGradient>
        <radialGradient xlink:href="#a" id="u" gradientUnits="userSpaceOnUse" gradientTransform="matrix(1.08578 -.03431 .03944 1.24799 -233.542 -35.543)" cx="223.196" cy="137.661" fx="223.196" fy="137.661" r="14.572"/>
        <filter height="1.215" y="-.107" width="1.108" x="-.054" id="v" color-interpolation-filters="sRGB">
            <feGaussianBlur stdDeviation="1.361"/>
        </filter>
        <radialGradient xlink:href="#b" id="w" gradientUnits="userSpaceOnUse" gradientTransform="matrix(.69785 -.50717 .46034 .6334 -271.102 183.03)" cx="275.538" cy="150.651" fx="275.538" fy="150.651" r="15.382"/>
        <linearGradient id="b">
            <stop offset="0" stop-color="#020204"/>
            <stop offset=".734" stop-color="#020204"/>
            <stop offset="1" stop-color="#5c5c5c"/>
        </linearGradient>
        <filter id="x" x="-.292" width="1.584" y="-.308" height="1.617" color-interpolation-filters="sRGB">
            <feGaussianBlur stdDeviation="1.74"/>
        </filter>
        <filter height="1.418" y="-.209" width="1.316" x="-.158" id="y" color-interpolation-filters="sRGB">
            <feGaussianBlur stdDeviation=".249"/>
        </filter>
        <linearGradient xlink:href="#c" id="z" gradientUnits="userSpaceOnUse" gradientTransform="translate(90)" x1="213.016" y1="132.77" x2="219.733" y2="140.725"/>
        <linearGradient id="c">
            <stop offset="0" stop-color="#949494" stop-opacity=".392"/>
            <stop offset=".5" stop-color="#949494"/>
            <stop offset="1" stop-color="#949494" stop-opacity=".392"/>
        </linearGradient>
        <filter height="1.363" y="-.181" width="1.357" x="-.179" id="A" color-interpolation-filters="sRGB">
            <feGaussianBlur stdDeviation=".519"/>
        </filter>
        <linearGradient xlink:href="#d" id="B" gradientUnits="userSpaceOnUse" gradientTransform="translate(-279 -9)" x1="294.51" y1="114.562" x2="308.741" y2="127.997"/>
        <linearGradient id="d">
            <stop offset="0" stop-color="#646464" stop-opacity="0"/>
            <stop offset=".306" stop-color="#646464" stop-opacity=".583"/>
            <stop offset=".47" stop-color="#646464"/>
            <stop offset=".728" stop-color="#646464" stop-opacity=".257"/>
            <stop offset="1" stop-color="#646464" stop-opacity="0"/>
        </linearGradient>
        <filter id="C" color-interpolation-filters="sRGB">
            <feGaussianBlur stdDeviation=".147"/>
        </filter>
        <linearGradient xlink:href="#d" id="D" gradientUnits="userSpaceOnUse" gradientTransform="translate(-279 -9)" x1="253.227" y1="115.666" x2="266.627" y2="128.571"/>
        <filter id="E" color-interpolation-filters="sRGB">
            <feGaussianBlur stdDeviation=".135"/>
        </filter>
        <linearGradient xlink:href="#e" id="F" gradientUnits="userSpaceOnUse" x1="164.049" y1="132.063" x2="169.882" y2="142.493"/>
        <linearGradient id="e">
            <stop offset="0" stop-color="#757574" stop-opacity="0"/>
            <stop offset=".263" stop-color="#757574"/>
            <stop offset=".5" stop-color="#757574"/>
            <stop offset="1" stop-color="#757574" stop-opacity="0"/>
        </linearGradient>
        <filter height="1.292" y="-.146" width="1.469" x="-.234" id="G" color-interpolation-filters="sRGB">
            <feGaussianBlur stdDeviation=".513"/>
        </filter>
        <radialGradient xlink:href="#f" id="H" gradientUnits="userSpaceOnUse" gradientTransform="matrix(.93619 -.3864 .27133 .65739 -244.475 146.723)" cx="294.485" cy="193.099" fx="294.485" fy="193.099" r="31.111"/>
        <linearGradient id="f">
            <stop offset="0" stop-color="#d2940a"/>
            <stop offset=".751" stop-color="#d89c08"/>
            <stop offset=".866" stop-color="#b67e07"/>
            <stop offset="1" stop-color="#946106"/>
        </linearGradient>
        <filter height="1.43" y="-.215" width="1.31" x="-.155" id="I" color-interpolation-filters="sRGB">
            <feGaussianBlur stdDeviation=".899"/>
        </filter>
        <filter id="J" color-interpolation-filters="sRGB">
            <feGaussianBlur stdDeviation=".758"/>
        </filter>
        <linearGradient xlink:href="#g" id="K" gradientUnits="userSpaceOnUse" gradientTransform="translate(-210)" x1="256.857" y1="158.314" x2="313.337" y2="157.872"/>
        <linearGradient id="g">
            <stop offset="0" stop-color="#ad780a"/>
            <stop offset=".12" stop-color="#d89e08"/>
            <stop offset=".255" stop-color="#edb80b"/>
            <stop offset=".392" stop-color="#ebc80d"/>
            <stop offset=".527" stop-color="#f5d838"/>
            <stop offset=".769" stop-color="#f6d811"/>
            <stop offset="1" stop-color="#f5cd31"/>
        </linearGradient>
        <filter id="L" x="-.161" width="1.322" y="-.13" height="1.261" color-interpolation-filters="sRGB">
            <feGaussianBlur stdDeviation=".849"/>
        </filter>
        <radialGradient xlink:href="#h" id="M" gradientUnits="userSpaceOnUse" gradientTransform="matrix(1 0 0 .58333 0 61.416)" cx="77.672" cy="147.093" fx="77.672" fy="147.093" r="3.23"/>
        <linearGradient id="h">
            <stop offset="0" stop-color="#3a2903"/>
            <stop offset=".555" stop-color="#735208"/>
            <stop offset="1" stop-color="#ac8c04"/>
        </linearGradient>
        <filter id="N" color-interpolation-filters="sRGB">
            <feGaussianBlur stdDeviation=".11"/>
        </filter>
        <radialGradient xlink:href="#h" id="O" gradientUnits="userSpaceOnUse" gradientTransform="matrix(1 0 0 1.07512 0 -11.094)" cx="63.125" cy="147.441" fx="63.125" fy="147.441" r="1.535"/>
        <filter id="P" x="-.116" width="1.233" y="-.106" height="1.211" color-interpolation-filters="sRGB">
            <feGaussianBlur stdDeviation=".11"/>
        </filter>
        <linearGradient xlink:href="#i" id="Q" gradientUnits="userSpaceOnUse" x1="243.031" y1="157.018" x2="243.469" y2="159.768"/>
        <linearGradient id="i">
            <stop offset="0" stop-color="#f5ce2d"/>
            <stop offset="1" stop-color="#d79b08"/>
        </linearGradient>
        <filter height="1.272" y="-.136" width="1.215" x="-.107" id="R" color-interpolation-filters="sRGB">
            <feGaussianBlur stdDeviation=".264"/>
        </filter>
        <clipPath id="S">
            <path d="M304.847 225.45c6.017 4.923 9.777 12.317 10.943 20.003 1.826 12.031-2.346 24.074-6.445 35.532-.818 2.285-1.64 4.59-1.965 6.995-.325 2.405-.12 4.949 1.03 7.086 1.302 2.425 3.732 4.125 6.366 4.923 2.589.785 5.394.761 8.015.092 2.62-.668 5.06-1.967 7.187-3.64 5.48-4.31 8.758-10.985 10.01-17.843 1.253-6.859.64-13.93-.55-20.799-1.624-9.369-4.31-18.54-7.74-27.407-2.518-6.508-5.469-12.911-9.618-18.52-4.046-5.47-9.162-10.09-13.104-15.636-2.732-3.844-4.9-8.13-8.191-11.508-1.646-1.688-3.577-3.135-5.77-4.001-2.193-.866-4.664-1.125-6.933-.483-1.504.426-2.892 1.238-4.038 2.302-1.145 1.064-2.052 2.376-2.692 3.803-1.28 2.853-1.477 6.112-.965 9.198.66 3.983 2.444 7.693 4.465 11.188 2.274 3.932 4.918 7.72 8.385 10.654 3.598 3.047 7.961 5.074 11.61 8.06" fill="none" stroke="#c17d11"/>
        </clipPath>
        <filter id="T" x="-.118" width="1.235" y="-.04" height="1.08" color-interpolation-filters="sRGB">
            <feGaussianBlur stdDeviation="1.352"/>
        </filter>
        <radialGradient xlink:href="#j" id="U" gradientUnits="userSpaceOnUse" gradientTransform="matrix(-.69844 0 0 .76336 166.306 50.22)" cx="336.224" cy="220.538" fx="336.224" fy="220.538" r="27.391"/>
        <linearGradient id="j">
            <stop offset="0"/>
            <stop offset="1" stop-opacity=".249"/>
        </linearGradient>
        <filter id="V" color-interpolation-filters="sRGB">
            <feGaussianBlur stdDeviation=".643"/>
        </filter>
        <radialGradient xlink:href="#j" id="W" gradientUnits="userSpaceOnUse" gradientTransform="matrix(1 0 0 .76336 -289 41.22)" cx="312.145" cy="236.366" fx="312.145" fy="236.366" r="27.391"/>
        <filter id="X" color-interpolation-filters="sRGB">
            <feGaussianBlur stdDeviation="1.138"/>
        </filter>
        <radialGradient xlink:href="#j" id="Y" gradientUnits="userSpaceOnUse" gradientTransform="matrix(1 0 0 1.06923 -289 -23.86)" cx="275.554" cy="225.135" fx="275.554" fy="225.135" r="10.845"/>
        <filter id="Z" color-interpolation-filters="sRGB">
            <feGaussianBlur stdDeviation=".785"/>
        </filter>
        <filter height="1.116" y="-.058" width="2.633" x="-.817" id="aa" color-interpolation-filters="sRGB">
            <feGaussianBlur stdDeviation="1.446"/>
        </filter>
        <filter id="ab" x="-.178" width="1.355" y="-.159" height="1.319" color-interpolation-filters="sRGB">
            <feGaussianBlur stdDeviation=".901"/>
        </filter>
        <linearGradient xlink:href="#k" id="ac" gradientUnits="userSpaceOnUse" gradientTransform="translate(-310)" x1="338.286" y1="323.901" x2="341.982" y2="351.487"/>
        <linearGradient id="k">
            <stop offset="0"/>
            <stop offset="1" stop-opacity="0"/>
        </linearGradient>
        <filter id="ad" color-interpolation-filters="sRGB">
            <feGaussianBlur stdDeviation="2.209"/>
        </filter>
        <linearGradient xlink:href="#l" id="af" gradientUnits="userSpaceOnUse" x1="442.039" y1="371.544" x2="490.122" y2="293.585"/>
        <linearGradient id="l">
            <stop offset="0" stop-color="#3e2a06"/>
            <stop offset="1" stop-color="#ad780a"/>
        </linearGradient>
        <clipPath id="ae">
            <path d="M516.006 331.876c.908 1.596-1.57 3.387-2.816 4.738-2.742 2.973-6.451 4.902-9.897 7.02-5.913 3.635-12.619 5.903-18.42 9.716-3.882 2.553-7.327 5.722-10.86 8.743-3.022 2.584-5.481 5.876-8.832 8.017-3.352 2.143-7.044 4.154-10.99 4.65-4.784.602-9.873-.255-14.3-2.164-3.094-1.334-6.16-3.381-7.963-6.229-1.812-2.865-2.06-6.537-2.232-9.924-.308-6.06 1.362-12.06 2.178-18.073.68-5.003 1.853-9.943 2.26-14.975.74-9.142-.78-18.408.32-27.513.355-2.937-.18-6.66 2.013-8.644 2.038-1.845 5.43-1.122 8.179-1.063 3.345.071 6.632.951 9.89 1.717 2.055.483 3.997 1.411 6.071 1.81 3.44.663 6.966 1.067 10.468.952 3.785-.123 7.436-1.796 11.223-1.764 1.552.013 3.124.281 4.587.8 1.483.524 2.988 1.206 4.123 2.295.865.83 1.429 1.956 1.878 3.068.672 1.662.895 3.478 1.167 5.25.243 1.574-.153 3.271.415 4.76 1.83 4.798 5.576 8.726 9.225 12.342 1.742 1.934 4.03 3.534 6.167 4.828 2.269 1.375 4.367 2.45 5.463 4.816.659 1.485-.544 3.761.683 4.827z" fill="url(#linearGradient14493)"/>
        </clipPath>
        <clipPath id="ag">
            <path d="M516.006 331.876c.908 1.596-1.57 3.387-2.816 4.738-2.742 2.973-6.451 4.902-9.897 7.02-5.913 3.635-12.619 5.903-18.42 9.716-3.882 2.553-7.327 5.722-10.86 8.743-3.022 2.584-5.481 5.876-8.832 8.017-3.352 2.143-7.044 4.154-10.99 4.65-4.784.602-9.873-.255-14.3-2.164-3.094-1.334-6.16-3.381-7.963-6.229-1.812-2.865-2.06-6.537-2.232-9.924-.308-6.06 1.362-12.06 2.178-18.073.68-5.003 1.853-9.943 2.26-14.975.74-9.142-.78-18.408.32-27.513.355-2.937-.18-6.66 2.013-8.644 2.038-1.845 5.43-1.122 8.179-1.063 3.345.071 6.632.951 9.89 1.717 2.055.483 3.997 1.411 6.071 1.81 3.44.663 6.966 1.067 10.468.952 3.785-.123 7.436-1.796 11.223-1.764 1.552.013 3.124.281 4.587.8 1.483.524 2.988 1.206 4.123 2.295.865.83 1.429 1.956 1.878 3.068.672 1.662.895 3.478 1.167 5.25.243 1.574-.153 3.271.415 4.76 1.83 4.798 5.576 8.726 9.225 12.342 1.742 1.934 4.03 3.534 6.167 4.828 2.269 1.375 4.367 2.45 5.463 4.816.659 1.485-.544 3.761.683 4.827z" fill="url(#linearGradient14485)"/>
        </clipPath>
        <filter id="ah" x="-.145" width="1.29" y="-.143" height="1.286" color-interpolation-filters="sRGB">
            <feGaussianBlur stdDeviation="4.779"/>
        </filter>
        <clipPath id="ai">
            <path d="M511.827 331.9c.795 1.296-1.374 2.749-2.464 3.845-2.399 2.412-5.644 3.978-8.658 5.696-5.174 2.95-11.041 4.79-16.116 7.885-3.397 2.072-6.411 4.644-9.502 7.095-2.644 2.097-4.796 4.768-7.727 6.506-2.933 1.738-6.163 3.37-9.616 3.773-4.185.488-8.637-.207-12.51-1.756-2.708-1.082-5.39-2.744-6.967-5.055-1.587-2.325-1.804-5.305-1.954-8.053-.269-4.918 1.192-9.787 1.906-14.666.594-4.06 1.622-8.069 1.978-12.152.647-7.419-.683-14.938.28-22.327.31-2.383-.159-5.403 1.76-7.014 1.784-1.498 4.751-.91 7.156-.863 2.927.058 5.803.772 8.652 1.393 1.8.393 3.498 1.146 5.313 1.47 3.01.537 6.095.865 9.158.772 3.312-.1 6.507-1.457 9.82-1.432 1.358.01 2.733.229 4.013.65 1.297.425 2.614.978 3.607 1.862.757.674 1.25 1.588 1.643 2.49.588 1.349.783 2.822 1.021 4.26.213 1.277-.133 2.655.363 3.862 1.601 3.895 4.88 7.082 8.07 10.016 1.526 1.57 3.527 2.868 5.397 3.918 1.985 1.116 3.82 1.988 4.779 3.908.577 1.206-.476 3.052.598 3.917z" fill="url(#linearGradient14477)"/>
        </clipPath>
        <filter id="aj" x="-.115" width="1.231" y="-.125" height="1.25" color-interpolation-filters="sRGB">
            <feGaussianBlur stdDeviation="3.173"/>
        </filter>
        <linearGradient xlink:href="#m" id="ak" gradientUnits="userSpaceOnUse" gradientTransform="translate(-310)" x1="355.164" y1="289.589" x2="353.75" y2="302.317"/>
        <linearGradient id="m">
            <stop offset="0" stop-color="#f3cd0c"/>
            <stop offset="1" stop-color="#f3cd0c" stop-opacity="0"/>
        </linearGradient>
        <filter id="al" x="-.021" width="1.042" y="-.129" height="1.259" color-interpolation-filters="sRGB">
            <feGaussianBlur stdDeviation=".479"/>
        </filter>
        <filter id="am" x="-.604" width="2.208" y="-.482" height="1.965" color-interpolation-filters="sRGB">
            <feGaussianBlur stdDeviation="2.64"/>
        </filter>
        <filter id="an" x="-.469" width="1.939" y="-.274" height="1.547" color-interpolation-filters="sRGB">
            <feGaussianBlur stdDeviation=".86"/>
        </filter>
        <radialGradient xlink:href="#n" id="ao" gradientUnits="userSpaceOnUse" gradientTransform="matrix(1.3082 .35053 -.36795 1.37322 -310.51 -240.35)" cx="363.34" cy="303.415" fx="363.34" fy="303.415" r="16.846"/>
        <linearGradient id="n">
            <stop offset="0" stop-color="#110800"/>
            <stop offset=".591" stop-color="#a65a00" stop-opacity=".8"/>
            <stop offset="1" stop-color="#ff921e" stop-opacity="0"/>
        </linearGradient>
        <filter id="ap" x="-.201" width="1.401" y="-.234" height="1.468" color-interpolation-filters="sRGB">
            <feGaussianBlur stdDeviation="2.844"/>
        </filter>
        <radialGradient xlink:href="#n" id="aq" gradientUnits="userSpaceOnUse" gradientTransform="matrix(1.3082 .35053 -.36795 1.37322 -310.51 -240.35)" cx="363.34" cy="303.415" fx="363.34" fy="303.415" r="16.846"/>
        <filter id="ar" x="-.091" width="1.183" y="-.107" height="1.213" color-interpolation-filters="sRGB">
            <feGaussianBlur stdDeviation="1.297"/>
        </filter>
        <radialGradient xlink:href="#o" id="at" gradientUnits="userSpaceOnUse" gradientTransform="matrix(.36025 .1568 -.07247 .1665 260.617 181.938)" cx="382.235" cy="246.858" fx="382.235" fy="246.858" r="20.538"/>
        <linearGradient id="o">
            <stop offset="0" stop-color="#7c7c7c"/>
            <stop offset="1" stop-color="#7c7c7c" stop-opacity=".329"/>
        </linearGradient>
        <clipPath id="as">
            <path d="M386.188 285.328c-.406-1.104-1.119-2.082-1.991-2.87-.872-.788-1.9-1.392-2.983-1.852-2.165-.918-4.52-1.261-6.831-1.695-2.18-.41-4.342-.907-6.528-1.278-2.272-.385-4.618-.632-6.866-.125-1.965.443-3.784 1.459-5.271 2.819-1.488 1.36-2.65 3.056-3.485 4.89-1.473 3.23-1.935 6.865-1.654 10.403.209 2.633.875 5.346 2.608 7.34 1.401 1.61 3.388 2.614 5.434 3.22a18.392 18.392 0 0 0 10.86-.155 28.586 28.586 0 0 0 14.331-10.78c1.139-1.649 2.112-3.447 2.553-5.403.336-1.49.349-3.08-.177-4.514" fill="none" stroke="#ce5c00"/>
        </clipPath>
        <filter id="au" x="-.07" width="1.141" y="-.151" height="1.301" color-interpolation-filters="sRGB">
            <feGaussianBlur stdDeviation="1.025"/>
        </filter>
        <linearGradient xlink:href="#o" id="aw" gradientUnits="userSpaceOnUse" x1="358.5" y1="279.362" x2="361.5" y2="279.237"/>
        <clipPath id="av">
            <path d="M386.188 285.328c-.406-1.104-1.119-2.082-1.991-2.87-.872-.788-1.9-1.392-2.983-1.852-2.165-.918-4.52-1.261-6.831-1.695-2.18-.41-4.342-.907-6.528-1.278-2.272-.385-4.618-.632-6.866-.125-1.965.443-3.784 1.459-5.271 2.819-1.488 1.36-2.65 3.056-3.485 4.89-1.473 3.23-1.935 6.865-1.654 10.403.209 2.633.875 5.346 2.608 7.34 1.401 1.61 3.388 2.614 5.434 3.22a18.392 18.392 0 0 0 10.86-.155 28.586 28.586 0 0 0 14.331-10.78c1.139-1.649 2.112-3.447 2.553-5.403.336-1.49.349-3.08-.177-4.514" fill="none" stroke="#ce5c00"/>
        </clipPath>
        <filter id="ax" x="-.07" width="1.141" y="-.151" height="1.301" color-interpolation-filters="sRGB">
            <feGaussianBlur stdDeviation="1.025"/>
        </filter>
        <clipPath id="ay">
            <path d="M248.06 184.612s-5.106 6.345-7.896 10.247c-2.791 3.902-5.737 6.649-8.588 10.752-2.85 4.102-7.364 9.431-9.449 13.93-2.084 4.499-2.32 9.036-4.265 13.85-1.944 4.813-3.701 10.641-5.97 15.335-2.27 4.695-5.371 9.685-6.94 13.536-1.567 3.85-3.81 5.724-4.107 10.22-.297 4.498-.578 8.318 3.771 16.773 4.35 8.455 17.237 22.007 24.242 27.925 7.006 5.917 9.391 7.225 14.603 8.526 5.21 1.3 13.856 2.998 16.728-1.27 2.873-4.269 2.272-5.965-.748-10.667-3.02-4.701-4.825-5.302-9.797-9.573-4.971-4.272-18.637-14.873-22.682-19.24-4.045-4.367-7.107-3.412-5.53-6.284 1.577-2.873-2.207-4.009-2.658-7.693-.763-6.245.944-18.71 1.46-22.133.516-3.423 1.223-2.925 3.518-8.04 2.294-5.115 4.124-8.624 7.05-13.467 2.924-4.843 8.624-10.128 11.15-15.278 2.527-5.15 3.505-10.72 4.363-15.318.857-4.598 1.746-12.13 1.746-12.13z" fill="none" stroke="#729fcf" stroke-width=".125"/>
        </clipPath>
        <filter id="az" x="-.101" width="1.202" y="-.043" height="1.085" color-interpolation-filters="sRGB">
            <feGaussianBlur stdDeviation="1.132"/>
        </filter>
        <clipPath id="aA">
            <path d="M137.577 281.02c1.6-.664 3.398-.785 5.1-.47 1.703.313 3.312 1.049 4.744 2.022 2.864 1.946 4.988 4.778 7.023 7.58 4.672 6.433 9.169 13.002 13.245 19.829 3.306 5.537 6.343 11.257 10.164 16.453 2.494 3.392 5.306 6.54 7.813 9.922 2.506 3.383 4.728 7.056 5.84 11.117 1.443 5.276.884 11.092-1.627 15.953-1.767 3.419-4.477 6.352-7.773 8.339-3.296 1.986-7.17 3.014-11.016 2.87-6.114-.23-11.7-3.285-17.384-5.55-11.58-4.612-24.16-6.059-36.097-9.651-3.668-1.104-7.275-2.41-10.97-3.426-1.64-.452-3.308-.849-4.858-1.552-1.55-.703-3-1.749-3.862-3.217-.666-1.134-.948-2.47-.93-3.785.018-1.316.326-2.615.774-3.852.896-2.474 2.343-4.713 3.32-7.157 1.595-3.989 1.882-8.388 1.666-12.679-.215-4.291-.91-8.545-1.204-12.831-.131-1.914-.18-3.853.185-5.736.365-1.884 1.175-3.725 2.557-5.056 1.274-1.226 2.965-1.955 4.697-2.316 1.731-.361 3.515-.378 5.284-.338 1.768.04 3.54.135 5.303-.01 1.763-.145 3.534-.54 5.07-1.419 1.46-.834 2.653-2.074 3.643-3.434.99-1.36 1.789-2.846 2.609-4.314.82-1.468 1.668-2.931 2.741-4.226 1.074-1.294 2.39-2.423 3.943-3.067" fill="#402c07"/>
        </clipPath>
        <linearGradient xlink:href="#p" id="aB" gradientUnits="userSpaceOnUse" x1="123.134" y1="301.54" x2="170.864" y2="381.62"/>
        <linearGradient id="p">
            <stop offset="0" stop-color="#b98309"/>
            <stop offset="1" stop-color="#382605"/>
        </linearGradient>
        <filter id="aC" x="-.108" width="1.215" y="-.108" height="1.217" color-interpolation-filters="sRGB">
            <feGaussianBlur stdDeviation="3.924"/>
        </filter>
        <filter id="aD" color-interpolation-filters="sRGB">
            <feGaussianBlur stdDeviation="2.437"/>
        </filter>
        <linearGradient xlink:href="#q" id="aE" gradientUnits="userSpaceOnUse" gradientTransform="translate(-.53 -1.768)" x1="171.571" y1="323.991" x2="186.597" y2="352.275"/>
        <linearGradient id="q">
            <stop offset="0" stop-color="#ebc40c"/>
            <stop offset="1" stop-color="#ebc40c" stop-opacity="0"/>
        </linearGradient>
        <filter id="aF" color-interpolation-filters="sRGB">
            <feGaussianBlur stdDeviation=".37"/>
        </filter>
    </defs>
    <g stroke-width="1.704">
        <path d="M134.868 71.895c1.926 4.126 4.077 8.15 5.988 12.283 3.679 7.955 6.472 16.355 7.633 25.019 1.16 8.664.653 17.609-2.103 25.917-3.112 9.377-9.017 17.719-16.254 24.548-8.561 8.077-19.551 14.305-31.405 14.764-7.724.3-15.414-1.873-22.255-5.414-5.749-2.976-10.996-6.941-15.184-11.826-4.187-4.885-7.296-10.7-8.735-16.93-1.773-7.673-.971-15.818 1.712-23.23 1.92-5.3 4.763-10.235 6.788-15.497 2.213-5.75 3.449-11.89 6.38-17.32 2.658-4.923 6.644-9.129 8.76-14.299 1.265-3.088 1.813-6.405 2.63-9.635.817-3.231 1.96-6.486 4.183-8.996 2.68-3.024 6.712-4.664 10.764-5.124 4.052-.46 8.153.161 12.13 1.053a83.902 83.902 0 0 1 9.352 2.662c2.611.913 5.198 1.977 7.456 3.558 3.077 2.153 5.42 5.186 7.288 8.414 1.866 3.228 3.296 6.678 4.872 10.053z" fill="#020204"/>
        <path d="M100.85 174.498c3.256.186 6.504.497 9.728.976 2.836.421 5.65.972 8.438 1.636 4.365 1.04 8.715 2.368 13.204 2.494 1.182.033 2.373-.019 3.527-.272 1.154-.252 2.274-.713 3.198-1.438 1.379-1.08 2.255-2.711 2.579-4.415.323-1.705.123-3.478-.385-5.138-1.015-3.321-3.189-6.155-4.992-9.135-1.032-1.706-1.952-3.48-3.07-5.133-1.118-1.654-2.457-3.202-4.153-4.278-2.348-1.488-5.26-1.974-8.04-1.701-2.779.273-5.443 1.26-7.924 2.523-3.477 1.77-6.75 4.202-8.645 7.571-.66 1.173-1.14 2.433-1.7 3.655-.56 1.221-1.217 2.424-2.166 3.385-1.059 1.072-2.433 1.795-3.528 2.83-.548.519-1.027 1.121-1.308 1.816-.28.694-.35 1.487-.094 2.19.176.483.498.907.894 1.24.396.332.865.575 1.357.745.983.34 2.04.39 3.08.45z" fill="#020204"/>
        <path d="M91.177 174.292c-2.712.062-5.397.54-8.054 1.08a149.21 149.21 0 0 0-7.576 1.738c-4.233 1.093-8.472 2.402-12.847 2.494-1.152.024-2.311-.038-3.434-.294-1.122-.255-2.208-.71-3.109-1.416-1.376-1.079-2.25-2.706-2.574-4.407-.324-1.7-.126-3.47.376-5.129 1.004-3.317 3.157-6.156 4.92-9.152 1.002-1.702 1.886-3.472 2.97-5.125 1.083-1.653 2.388-3.205 4.059-4.286 2.277-1.472 5.116-1.97 7.828-1.708 2.713.263 5.311 1.245 7.703 2.53 3.376 1.814 6.46 4.31 8.412 7.571 1.37 2.288 2.16 4.903 3.76 7.04.863 1.152 1.947 2.146 2.664 3.39.359.62.621 1.306.683 2.018.06.712-.09 1.454-.498 2.046-.269.391-.643.708-1.06.941a4.689 4.689 0 0 1-1.35.484c-.941.193-1.912.164-2.873.185zM76.02 63.203c-.38-4.51-.29-9.045-.46-13.568-.165-4.35-.572-8.696-.423-13.045.151-4.43.905-8.91 2.907-12.88 2.003-3.972 5.254-7.337 9.222-9.44 3.734-1.98 8.028-2.825 12.27-2.78 5.75.062 11.516 1.77 16.173 5.09 2.92 2.08 5.376 4.759 7.313 7.749 1.652 2.551 2.936 5.339 3.742 8.258 1.653 5.989 1.261 12.308 1.582 18.505.305 5.873 1.261 11.732.936 17.604-.07 1.276-.21 2.58-.789 3.724-.563 1.115-1.52 2.011-2.618 2.629-1.098.618-2.335.97-3.586 1.16-2.501.379-5.058.128-7.579.358-3.656.334-7.144 1.667-10.774 2.22-4.325.657-8.732.19-13.105.019-1.751-.069-3.508-.09-5.248-.305-1.739-.214-3.473-.629-5.02-1.44-.953-.5-1.83-1.149-2.541-1.948-.712-.8-1.254-1.752-1.525-2.78-.407-1.544-.192-3.17-.187-4.765.006-1.458-.166-2.911-.29-4.365z" fill="#020204"/>
        <path d="M82.903 61.466c-.619.763-1.022 1.68-1.266 2.627-.243.946-.332 1.925-.37 2.9-.076 1.952.045 3.94-.48 5.824-.562 2.013-1.82 3.757-3.052 5.457-2.133 2.945-4.29 5.966-5.342 9.43a16.483 16.483 0 0 0-.62 6.497 68.389 68.389 0 0 0-6.167 10.93c-2.596 5.785-4.377 11.946-5.003 18.24-.767 7.706.235 15.632 3.33 22.752 2.237 5.148 5.573 9.86 9.873 13.529a33.808 33.808 0 0 0 7.213 4.712c9.001 4.351 20.126 4.36 28.978-.28 4.626-2.424 8.531-5.97 12.296-9.557 2.268-2.16 4.523-4.372 6.253-6.97 3.33-5 4.49-11.077 5.21-17.012 1.26-10.379 1.3-21.341-3.326-30.75a33.921 33.921 0 0 0-6.261-8.812 47.694 47.694 0 0 0-3.96-13.118c-1.402-3-3.117-5.856-4.42-8.9-.535-1.249-1-2.528-1.594-3.751-.594-1.224-1.327-2.4-2.322-3.338-1.02-.96-2.29-1.64-3.631-2.075-1.34-.436-2.751-.633-4.16-.703-2.82-.14-5.645.223-8.466.113-2.245-.087-4.483-.474-6.727-.344-1.121.065-2.243.262-3.284.678-1.041.416-2.001 1.057-2.702 1.921z" fill="#fdfdfb"/>
        <path d="M-28.632 172.601c1.702 4.938 5.13 9.152 9.185 12.444 1.349 1.095 2.783 2.104 4.367 2.817 1.584.712 3.331 1.12 5.062.972 1.695-.144 3.307-.809 4.789-1.645 1.48-.837 2.856-1.847 4.293-2.758 2.462-1.56 5.1-2.821 7.657-4.22 3.082-1.687 6.07-3.59 8.665-5.96 1.187-1.084 2.295-2.268 3.607-3.199 1.312-.93 2.883-1.605 4.488-1.496 1.204.082 2.333.594 3.512.848.59.127 1.201.189 1.798.098.596-.09 1.18-.344 1.597-.78.513-.532.737-1.299.71-2.038-.027-.738-.284-1.453-.629-2.107-.689-1.308-1.734-2.435-2.2-3.838-.414-1.249-.33-2.599-.294-3.914.037-1.315.008-2.69-.599-3.857-.461-.89-1.236-1.595-2.121-2.064-.886-.468-1.879-.71-2.876-.803-1.995-.188-3.994.2-5.995.313-2.656.15-5.322-.182-7.977-.022-3.311.199-6.557 1.16-9.874 1.166-3.786.007-7.568-1.232-11.308-.64-1.604.254-3.135.838-4.676 1.353-1.54.514-3.132.967-4.757.943-1.844-.026-3.629-.665-5.469-.796-.92-.066-1.862 0-2.726.323-.863.323-1.644.924-2.068 1.743-.243.469-.363.996-.386 1.524-.023.528.05 1.057.178 1.57.255 1.026.724 1.983 1.11 2.967 1.392 3.554 1.692 7.448 2.937 11.056z" fill-opacity=".259" filter="url(#r)" transform="matrix(.59172 0 0 .58197 98.463 -28.63)"/>
        <path d="M-54.38 165.474a39.396 39.396 0 0 1 8.769 8.051c2.313 2.884 4.28 6.154 7.299 8.289 2.132 1.508 4.695 2.358 7.294 2.616 3.051.303 6.14-.187 9.082-1.052 2.726-.802 5.363-1.93 7.782-3.422 4.598-2.836 8.439-6.992 13.51-8.857 1.107-.407 2.26-.698 3.326-1.2 1.068-.502 2.072-1.254 2.581-2.318.49-1.022.471-2.202.631-3.324.17-1.201.554-2.362.764-3.557.21-1.195.235-2.472-.282-3.57-.427-.908-1.205-1.627-2.1-2.084-.894-.457-1.9-.665-2.904-.714-2.006-.098-3.987.415-5.988.598-2.65.241-5.318-.1-7.977-.02-3.308.1-6.568.85-9.874 1.006-3.772.178-7.534-.418-11.308-.552-1.632-.058-3.275-.028-4.884.253-1.609.281-3.188.822-4.549 1.726-1.32.877-2.396 2.067-3.606 3.09-.605.512-1.248.986-1.954 1.345-.706.36-1.479.605-2.27.643-.408.02-.819-.015-1.222.047a2.59 2.59 0 0 0-1.698 1.053 2.59 2.59 0 0 0-.423 1.952z" transform="matrix(.59172 0 0 .53605 110.889 -25.076)" opacity=".3" filter="url(#s)"/>
        <path d="M-24.768 113.362c-1.78.097-3.484.92-4.787 2.137-1.304 1.218-2.222 2.812-2.787 4.503-1.13 3.384-.875 7.052-.618 10.61.232 3.222.47 6.506 1.676 9.502.604 1.498 1.45 2.91 2.58 4.064 1.13 1.153 2.553 2.042 4.12 2.434 1.468.368 3.037.292 4.482-.162 1.445-.454 2.764-1.279 3.846-2.338 1.58-1.545 2.643-3.566 3.254-5.69.61-2.123.784-4.35.752-6.56-.04-2.764-.4-5.538-1.266-8.164-.865-2.626-2.245-5.103-4.173-7.086-.933-.96-1.997-1.805-3.198-2.397-1.201-.593-2.544-.926-3.88-.853z" fill="url(#t)" transform="matrix(.59172 0 0 .58197 98.463 -28.63)"/>
        <path d="M6.75 113.362c-2.78 1.91-5.11 4.575-6.25 7.75-1.436 4.002-.886 8.48.5 12.5 1.42 4.117 3.794 8.041 7.38 10.513 1.792 1.235 3.867 2.083 6.03 2.338 2.162.256 4.409-.095 6.34-1.1 2.353-1.227 4.148-3.374 5.262-5.782 1.115-2.408 1.589-5.07 1.738-7.719.19-3.375-.14-6.806-1.25-10-1.205-3.469-3.39-6.67-6.473-8.666-1.541-.998-3.292-1.684-5.11-1.936-1.82-.251-3.705-.063-5.417.602-.975.38-1.887.908-2.75 1.5z" fill="url(#u)" transform="matrix(.59172 0 0 .58197 98.463 -28.63)"/>
        <path d="M-25.36 142.154a71.64 71.64 0 0 0-5.137 4.685c-.903.909-1.809 1.884-2.214 3.1-.36 1.08-.292 2.253-.469 3.379-.06.385-.15.769-.152 1.16 0 .195.02.39.078.577.057.187.151.364.285.506.222.238.538.366.856.431.318.065.645.072.968.107 1.456.158 2.798.864 4.004 1.695 1.205.832 2.314 1.8 3.55 2.586 2.732 1.734 5.994 2.504 9.227 2.628 3.233.123 6.458-.371 9.63-1.005 2.52-.504 5.034-1.101 7.426-2.044 3.662-1.443 6.963-3.667 10.118-6.022 1.433-1.07 2.846-2.173 4.132-3.415.437-.422.86-.86 1.328-1.246.468-.386.988-.721 1.566-.907.88-.284 1.835-.202 2.748-.05.687.115 1.376.27 2.072.242a3.074 3.074 0 0 0 1.02-.204c.324-.13.622-.33.844-.6a2.02 2.02 0 0 0 .441-1.272 2.579 2.579 0 0 0-.37-1.305c-.466-.79-1.27-1.323-2.106-1.695-1.146-.51-2.386-.761-3.605-1.056a51.677 51.677 0 0 1-10.836-3.954c-1.716-.851-3.384-1.795-5.072-2.7-1.735-.93-3.504-1.824-5.389-2.395-4.213-1.277-8.818-.859-12.977.586a27.753 27.753 0 0 0-11.967 8.188z" opacity=".3" filter="url(#v)" transform="matrix(.59172 0 0 .58197 98.463 -28.63)"/>
        <path d="M-16.4 136.862c1.768-1.986 2.977-4.41 4.675-6.457.849-1.023 1.828-1.955 2.981-2.616 1.154-.662 2.492-1.042 3.817-.927 1.474.128 2.855.862 3.934 1.875 1.08 1.012 1.88 2.29 2.519 3.625.611 1.278 1.097 2.64 1.979 3.75.94 1.184 2.26 1.992 3.45 2.923.597.465 1.168.97 1.64 1.56.47.592.839 1.277.99 2.017a4.21 4.21 0 0 1-.185 2.267 5.078 5.078 0 0 1-1.26 1.904c-1.105 1.065-2.613 1.64-4.133 1.855-3.04.43-6.115-.476-9.185-.392-3.106.086-6.141 1.184-9.247 1.07-1.553-.056-3.128-.436-4.404-1.323a5.57 5.57 0 0 1-1.596-1.675 4.597 4.597 0 0 1-.673-2.206c-.025-.74.148-1.48.444-2.16.296-.68.713-1.302 1.182-1.876.939-1.147 2.087-2.106 3.073-3.214z" fill="url(#w)" transform="matrix(.59172 0 0 .58197 98.463 -28.63)"/>
        <path transform="matrix(.68178 0 0 .67055 -80.252 -41.921)" d="M277.96 90.857c-2.224 1.57-1.252 3.53-.296 5.497.957 1.968-2.104 7.64-2.136 7.885-.032.244 6.025-2.876 7.676-4.902 1.95-2.394 6.877 3.238 6.608 2.381.002-1.533-9.627-12.431-11.852-10.861z" fill="#7c7c7c" filter="url(#x)"/>
        <path d="M106.25 42.228a3.856 3.856 0 0 0-1.746.576 4.557 4.557 0 0 0-1.323 1.268c-.703 1.006-1.012 2.239-1.061 3.458-.038.915.065 1.842.374 2.706.308.864.829 1.664 1.546 2.248a4.52 4.52 0 0 0 2.618 1.001 4.448 4.448 0 0 0 2.699-.76 4.792 4.792 0 0 0 1.483-1.672 6.155 6.155 0 0 0 .672-2.128c.174-1.307-.023-2.672-.637-3.845-.615-1.172-1.657-2.137-2.915-2.593a4.182 4.182 0 0 0-1.71-.26z" fill="#020204"/>
        <path d="M304.656 137.612c-.866.342-2.236.127-2.616.977-.225.503.093 1.332.603 1.54 1.033.421 2.632-.34 3.05-1.375.18-.449-.094-1.16-.54-1.348-.166-.07-.33.14-.497.206z" fill="#141413" filter="url(#y)" transform="matrix(.59172 0 0 .58197 -72.543 -33.868)"/>
        <path d="M308.625 139.862c1.161-1.16-.826-4.24-2.375-5.5-1.122-.913-4.39-1.868-4.25-.875.14.994 1.61 2.267 2.595 3.238 1.212 1.195 3.479 3.689 4.03 3.137z" fill="url(#z)" filter="url(#A)" transform="matrix(.59172 0 0 .58197 -72.543 -33.868)"/>
        <path d="M16.406 105.125c-.477.6-.908 1.252-1.25 1.969 2.147.462 4.2 1.346 6.031 2.562 3.546 2.355 6.237 5.797 8.125 9.625a9.964 9.964 0 0 0 1.188-1.594c-1.898-3.987-4.644-7.594-8.313-10.03-1.762-1.171-3.724-2.054-5.78-2.532z" fill="url(#B)" filter="url(#C)" transform="matrix(.59172 0 0 .58197 98.463 -28.63)"/>
        <path d="M-24.969 107.081c-.242-.005-.477.017-.718.029-.156.007-.315.013-.47.028 1.414.128 2.818.508 4.095 1.081 1.738.781 3.273 1.893 4.624 3.159 2.504 2.345 4.366 5.24 5.625 8.31a20.8 20.8 0 0 0-2.062-6.66 21.505 21.505 0 0 0-1.563-1.65c-1.35-1.266-2.886-2.378-4.624-3.159-1.522-.683-3.214-1.108-4.907-1.138z" fill="url(#D)" filter="url(#E)" transform="matrix(.59172 0 0 .58197 98.463 -28.63)"/>
        <path d="M81.267 45.926c-.22 1.307-.228 2.678.228 3.924.302.823.8 1.57 1.404 2.212.396.42.845.801 1.37 1.049.526.248 1.134.353 1.699.213.521-.128.977-.459 1.314-.87.336-.413.56-.905.72-1.41.472-1.49.396-3.12-.072-4.611-.342-1.087-.907-2.135-1.791-2.867a3.582 3.582 0 0 0-1.453-.75c-.537-.124-1.117-.095-1.62.13-.557.248-.989.723-1.271 1.257-.283.535-.428 1.129-.528 1.723z" fill="#020204"/>
        <path d="M164.688 135.487c.241.634 1.054.864 1.5 1.375.433.497.887 1.01 1.125 1.625.454 1.176-.45 2.92.5 3.75.297.26.894.267 1.187 0 1.145-1.042.89-3.144.438-4.625-.412-1.344-1.428-2.616-2.68-3.255-.579-.295-1.45-.54-1.945-.12-.32.271-.275.859-.125 1.25z" fill="url(#F)" filter="url(#G)" transform="matrix(.59172 0 0 .58197 -13.372 -33.868)"/>
        <g transform="matrix(.59172 0 0 .58197 51.717 -33.868)">
            <path d="M45.752 165.032c.061.295.172.58.327.84.265.444.654.805 1.073 1.11.42.306.873.56 1.312.836 2.334 1.467 4.235 3.529 5.925 5.707 2.266 2.922 4.272 6.165 7.299 8.289 2.138 1.5 4.696 2.355 7.294 2.616 3.051.306 6.14-.186 9.082-1.052 2.726-.803 5.363-1.93 7.782-3.422 4.598-2.835 8.44-6.992 13.51-8.857 1.107-.407 2.26-.698 3.326-1.2 1.068-.502 2.072-1.254 2.581-2.318.49-1.022.471-2.202.631-3.324.17-1.201.554-2.362.764-3.557.21-1.195.235-2.472-.282-3.57-.427-.908-1.205-1.628-2.1-2.084-.894-.457-1.9-.665-2.904-.714-2.006-.099-3.987.415-5.988.598-2.65.242-5.318-.098-7.977-.02-3.308.1-6.568.845-9.874 1.006-3.772.183-7.535-.399-11.308-.552-1.634-.066-3.28-.05-4.892.226-1.612.276-3.195.823-4.54 1.753-1.312.905-2.357 2.14-3.56 3.184-.603.521-1.25.999-1.967 1.347-.717.348-1.508.564-2.304.547-.41-.009-.831-.077-1.222.047-.243.078-.46.227-.643.406a3.767 3.767 0 0 0-.478.6 10.52 10.52 0 0 0-.867 1.558z" fill="url(#H)"/>
            <path d="M60.557 169.097a6.7 6.7 0 0 0 .643 4.771 6.7 6.7 0 0 0 3.703 3.077c1.977.659 4.206.336 6.054-.628 1.072-.56 2.052-1.346 2.67-2.385a4.51 4.51 0 0 0 .604-1.695 3.733 3.733 0 0 0-.185-1.786 3.88 3.88 0 0 0-1.146-1.596 5.211 5.211 0 0 0-1.733-.945c-1.258-.416-2.611-.424-3.934-.36a38.862 38.862 0 0 0-5.97.752" fill="#d9b30d" filter="url(#I)"/>
            <path d="M54.066 156.68c-1.339.791-2.628 1.664-3.897 2.563-.657.466-1.334.969-1.68 1.696-.246.515-.303 1.099-.31 1.67-.008.57.028 1.143-.047 1.709-.05.386-.154.766-.171 1.155-.009.195.005.392.056.58.051.187.142.367.275.508.173.184.408.296.65.37.24.073.49.11.735.168 1.174.277 2.197.997 3.094 1.804.897.807 1.703 1.715 2.639 2.477 2.537 2.064 5.89 2.918 9.16 2.972 3.271.054 6.505-.63 9.696-1.35 2.506-.564 5.015-1.154 7.426-2.043 3.702-1.365 7.14-3.432 10.118-6.022 1.35-1.174 2.617-2.463 4.132-3.415 1.341-.842 2.843-1.398 4.207-2.203.121-.072.243-.146.352-.236.109-.09.205-.199.269-.325a.984.984 0 0 0 .039-.716 1.902 1.902 0 0 0-.36-.634 4.423 4.423 0 0 0-.57-.578c-1.424-1.219-3.356-1.662-5.225-1.81-1.87-.148-3.76-.044-5.61-.353-1.739-.29-3.393-.938-5.072-1.477a37.34 37.34 0 0 0-5.389-1.31c-4.295-.701-8.717-.567-12.977.32a37.927 37.927 0 0 0-11.54 4.48z" fill="#604405" filter="url(#J)"/>
            <path d="M53.64 152.154a23.756 23.756 0 0 0-5.137 4.685c-.84 1.031-1.603 2.151-2.027 3.412-.333.992-.446 2.042-.656 3.067-.079.384-.171.769-.17 1.16.001.197.026.394.087.58.06.186.158.362.294.503.224.234.54.361.858.427.318.065.644.075.966.111 1.455.166 2.794.872 4 1.703 1.206.83 2.317 1.795 3.555 2.578 2.734 1.729 5.994 2.498 9.227 2.622 3.232.125 6.457-.366 9.63-1 2.52-.503 5.033-1.1 7.425-2.043 3.662-1.444 6.963-3.667 10.118-6.022 1.433-1.07 2.846-2.173 4.132-3.415.437-.422.86-.86 1.328-1.246.468-.386.988-.721 1.566-.907.88-.284 1.835-.202 2.748-.05.687.115 1.376.27 2.072.241a3.074 3.074 0 0 0 1.02-.203c.324-.13.622-.33.844-.6a2.02 2.02 0 0 0 .441-1.272 2.575 2.575 0 0 0-.37-1.305c-.466-.79-1.27-1.323-2.106-1.695-1.146-.51-2.386-.761-3.605-1.056a51.677 51.677 0 0 1-10.836-3.954c-1.716-.851-3.384-1.795-5.072-2.7-1.735-.93-3.504-1.824-5.389-2.395-4.213-1.277-8.818-.859-12.977.586a27.753 27.753 0 0 0-11.967 8.188z" fill="url(#K)"/>
            <path d="M83.239 153.08a1.794 1.794 0 0 0-.902-.591 2.413 2.413 0 0 0-1.084-.049c-.72.123-1.365.51-1.966.925-1.708 1.176-3.219 2.628-4.537 4.23-1.745 2.12-3.185 4.571-3.668 7.274-.081.456-.135.922-.078 1.38.057.46.233.916.559 1.244.286.288.675.464 1.078.522.402.058.815.002 1.2-.128.77-.26 1.41-.8 2.015-1.342 3.336-2.985 6.352-6.567 7.56-10.878.12-.433.223-.876.22-1.325-.002-.45-.119-.91-.397-1.262z" fill="#f6da4a" filter="url(#L)"/>
            <path d="M75.251 146.89c.232.742 1.428.62 2.12.975.606.313 1.094.998 1.776 1.017.65.019 1.664-.225 1.749-.87.111-.854-1.134-1.396-1.936-1.709-1.031-.402-2.353-.606-3.32-.068-.222.124-.464.413-.389.655z" opacity=".8" fill="url(#M)" filter="url(#N)"/>
            <path d="M63.827 146.47c-.888-.289-2.357 1.277-1.878 2.079.132.22.535.499.806.35.41-.225.744-1.03 1.188-1.345.296-.21.23-.972-.116-1.084z" opacity=".8" fill="url(#O)" filter="url(#P)"/>
            <ellipse ry="2.328" rx="2.608" cy="158.284" cx="243.297" transform="matrix(1.09562 0 -.17018 1.51813 -136.244 -82.117)" style="marker:none" color="#000" overflow="visible" fill="url(#Q)" filter="url(#R)" enable-background="accumulate"/>
        </g>
        <path d="M137.576 97.336c3.6 2.848 5.885 7.15 6.592 11.64.552 3.503.194 7.098-.61 10.553-.802 3.455-2.042 6.795-3.273 10.127-.49 1.328-.983 2.67-1.178 4.07-.195 1.4-.072 2.883.615 4.124.787 1.424 2.256 2.404 3.835 2.865 1.56.456 3.244.446 4.822.06 1.578-.388 3.051-1.143 4.336-2.124 3.264-2.493 5.233-6.372 5.995-10.367.763-3.994.412-8.118-.296-12.122-.967-5.46-2.593-10.796-4.663-15.95-1.523-3.792-3.304-7.52-5.794-10.778-2.436-3.19-5.507-5.874-7.893-9.1-1.659-2.24-2.987-4.742-4.975-6.707-.993-.983-2.154-1.823-3.467-2.325-1.314-.502-2.789-.65-4.145-.274-1.788.495-3.249 1.88-4.026 3.54-.777 1.658-.913 3.563-.61 5.365.39 2.325 1.471 4.483 2.69 6.512 1.377 2.29 2.972 4.496 5.05 6.2 2.17 1.778 4.795 2.95 6.995 4.69z" fill="#020204"/>
        <path transform="matrix(.60241 0 0 .58197 -46.067 -33.868)" clip-path="url(#S)" d="M290.781 216.018c.485.468.981.943 1.5 1.375 3.667 3.055 5.619 6.486 9.338 9.477 6.085 4.895 12.259 13.344 13.454 21.06.933 6.02-.3 9.29-1.804 16.389-1.504 7.098-5.77 17.148-8.074 23.992-.92 2.729 1.861 1.603 1.496 4.48a17.72 17.72 0 0 0-.035 4.259c.023-.271.04-.553.07-.822.442-3.923 1.623-7.695 2.908-11.395 2.475-7.123 5.315-14.101 7.272-21.408 1.958-7.307 1.74-12.565.72-18.844-1.286-7.896-5.798-15.187-12.188-20-4.519-3.403-9.847-5.585-14.657-8.563z" fill="#838384" filter="url(#T)"/>
        <path d="M-61.003 211.593c.88 1.524-.547 6.778 19.964 3.415 0 0-3.602.458-7.153 1.405-5.52 2.133-10.33 4.517-14.04 7.675-3.675 3.121-6.367 7.197-9.74 10.697 0 0 5.462-11.519 6.824-14.988 1.361-3.468-.228-3.31.849-8.413 1.077-5.104 3.713-10.007 3.713-10.007s-2.152 7.21-.417 10.216z" transform="matrix(.68302 0 0 .58197 114.636 -33.868)" opacity=".25" fill="url(#U)" filter="url(#V)"/>
        <path d="M33.05 201.218c-4.825 3.361-7.652 2.963-13.507 3.62-5.854.658-21.698.42-21.698.42s2.294-.042 7.377.905c5.084.946 15.454 1.852 21.292 4.074 5.839 2.223 7.969 2.857 11.517 5.1 5.052 3.195 8.759 8.198 13.587 11.698 0 0 .234-4.644-1.715-8.113-1.95-3.468-7.19-8.935-8.732-14.038-1.542-5.104-2.275-15.132-2.275-15.132s-1.02 8.105-5.846 11.466z" opacity=".42" fill="url(#W)" filter="url(#X)" transform="matrix(.59172 0 0 .58197 98.463 -28.63)"/>
        <path d="M-12.33 194.04a60.304 60.304 0 0 1-.697 4.344c-.14.71-.295 1.42-.56 2.093-.263.674-.643 1.313-1.18 1.797-.471.424-1.045.716-1.621.98a24.363 24.363 0 0 1-7.108 2.019c.98.072 1.959.16 2.935.268.616.067 1.232.142 1.832.296.6.153 1.185.39 1.684.755.548.4.978.948 1.3 1.546.64 1.192.854 2.563.972 3.91.152 1.724.163 3.46.033 5.185.116-1.155.358-2.296.72-3.398.653-1.986 1.704-3.848 3.12-5.387.562-.61 1.18-1.17 1.859-1.648a10.29 10.29 0 0 1 7.236-1.76A11.239 11.239 0 0 1-9 202.805c-1.042-.785-1.95-1.763-2.58-2.905a8.107 8.107 0 0 1-.751-5.86z" opacity=".2" fill="url(#Y)" filter="url(#Z)" transform="matrix(.59172 0 0 .58197 98.463 -28.63)"/>
        <path style="marker:none" d="M-18.5 228.08a88.71 88.71 0 0 0-2.526 14.278c-.637 6.812-.483 13.672-.849 20.504-.31 5.798-.991 11.656.016 17.374a29.845 29.845 0 0 0 2.554 7.875c.193-.95.334-1.911.423-2.876.426-4.636-.354-9.287-.618-13.935-.462-8.148.666-16.29 1.125-24.438.353-6.255.31-12.532-.125-18.781z" color="#000" overflow="visible" opacity=".11" filter="url(#aa)" enable-background="accumulate" transform="matrix(.59172 0 0 .58197 98.463 -28.63)"/>
        <path d="M37.688 157.862c-2.163 1.97 1.013 4.928 2.52 8.404.935 2.162 3.526 5.206 6.032 4.718 1.884-.367 3.054-3.08 2.875-4.991-.344-3.689-3.456-4.553-5.717-5.82-1.791-1.004-4.192-3.694-5.71-2.31z" fill="#838384" filter="url(#ab)" transform="matrix(.59172 0 0 .58197 98.463 -28.63)"/>
        <path d="M86.056 328.132a16.61 16.61 0 0 1-2.05 4.41c-1.98 3.013-4.854 5.28-7.726 7.371-4.9 3.566-10.003 6.838-14.563 10.89-3.056 2.715-5.842 5.76-8.423 8.965-2.208 2.742-4.284 5.62-6.801 8.057-2.54 2.46-5.53 4.447-8.752 5.53-3.918 1.316-8.058 1.253-11.832.26-2.645-.697-5.224-1.908-6.862-4.098-1.645-2.198-2.178-5.152-2.368-8.052-.337-5.128.26-10.37.803-15.575.452-4.326.868-8.655 1.038-12.972.31-7.852-.196-15.636-1.231-23.273-.174-1.28-.362-2.568-.257-3.886.105-1.317.535-2.688 1.436-3.705.832-.94 1.993-1.496 3.15-1.769 1.159-.273 2.33-.29 3.494-.321 2.74-.075 5.496-.24 8.195.006 1.703.155 3.372.474 5.073.642 2.838.28 5.781.133 8.627-.723 3.064-.923 5.987-2.652 9.1-3.128a12.954 12.954 0 0 1 3.8.006c1.268.182 2.53.542 3.503 1.336.74.604 1.282 1.433 1.706 2.317.631 1.316 1.02 2.77 1.241 4.261.197 1.32.267 2.68.598 3.957.545 2.102 1.78 3.887 3.267 5.34 1.487 1.453 3.225 2.602 4.961 3.734 1.73 1.128 3.468 2.247 5.315 3.176.866.437 1.757.831 2.586 1.333.828.503 1.6 1.122 2.15 1.936.747 1.105 1.046 2.553.822 3.975" transform="matrix(.60762 0 0 .58197 109.52 -33.868)" opacity=".2" fill="url(#ac)" filter="url(#ad)"/>
        <path d="M516.006 331.876a16.933 16.933 0 0 1-2.816 4.738c-2.624 3.115-6.268 5.17-9.897 7.02-6.188 3.154-12.601 5.921-18.42 9.716-3.897 2.543-7.495 5.527-10.86 8.743-2.877 2.75-5.605 5.687-8.832 8.017-3.256 2.352-7.02 4.055-10.99 4.65-4.83.725-9.822-.212-14.3-2.164-3.137-1.367-6.155-3.323-7.963-6.229-1.814-2.917-2.228-6.488-2.232-9.924-.008-6.076 1.118-12.09 2.178-18.073.881-4.972 1.72-9.955 2.26-14.975.984-9.131.977-18.353.32-27.513-.11-1.535-.237-3.084-.008-4.605.23-1.52.855-3.036 2.021-4.04 1.077-.926 2.521-1.335 3.94-1.414 1.418-.078 2.834.147 4.24.352 3.312.484 6.65.865 9.888 1.717 2.043.537 4.034 1.259 6.073 1.81 3.402.92 6.966 1.362 10.467.952 3.77-.44 7.43-1.856 11.224-1.764 1.556.037 3.101.331 4.586.8 1.516.477 3.01 1.161 4.123 2.295.846.86 1.436 1.945 1.879 3.068.66 1.674 1.015 3.457 1.167 5.25.135 1.588.113 3.194.414 4.76.495 2.574 1.848 4.922 3.529 6.934 1.68 2.012 3.69 3.72 5.696 5.408 2 1.68 4.01 3.355 6.167 4.828 1.012.692 2.056 1.34 3.017 2.1.961.762 1.845 1.648 2.446 2.716a6.785 6.785 0 0 1 .683 4.827z" clip-path="url(#ae)" transform="matrix(.59172 0 0 .58197 -131.715 -33.868)" fill="url(#af)"/>
        <path d="M512.891 328.724a15.312 15.312 0 0 1-2.571 4.26c-2.403 2.814-5.73 4.655-9.038 6.311-5.653 2.83-11.503 5.318-16.821 8.736-3.554 2.283-6.841 4.965-9.918 7.86-2.63 2.472-5.125 5.115-8.066 7.207-2.981 2.12-6.418 3.647-10.037 4.18-4.41.651-8.96-.192-13.058-1.945-2.857-1.222-5.618-2.97-7.272-5.6-1.647-2.617-2.032-5.83-2.04-8.922-.013-5.464 1.019-10.87 1.99-16.248.807-4.469 1.576-8.948 2.064-13.463.889-8.208.848-16.498.292-24.735-.093-1.38-.2-2.774.012-4.14.212-1.368.778-2.728 1.826-3.631.983-.847 2.303-1.218 3.599-1.286 1.295-.068 2.587.142 3.87.33 3.024.445 6.073.78 9.032 1.544 1.865.482 3.683 1.131 5.545 1.628 3.11.829 6.362 1.225 9.56.856 3.44-.398 6.786-1.672 10.249-1.587 1.42.035 2.83.3 4.188.72 1.382.425 2.75 1.034 3.765 2.062.766.776 1.296 1.754 1.716 2.76.626 1.496 1.033 3.097 1.066 4.719.035 1.693-.336 3.395-.106 5.073.186 1.363.763 2.648 1.5 3.81.738 1.16 1.635 2.21 2.523 3.26 1.717 2.029 3.44 4.097 5.593 5.654 2.452 1.774 5.362 2.812 7.895 4.468.755.493 1.486 1.052 2.018 1.78a4.757 4.757 0 0 1 .624 4.34z" clip-path="url(#ag)" transform="matrix(.59172 0 0 .58197 -131.715 -33.868)" fill="#cd8907" filter="url(#ah)"/>
        <path d="M508.793 327.925a14.944 14.944 0 0 1-2.311 3.492c-2.154 2.428-5.061 4.099-8.124 5.172-5.042 1.767-10.546 2.005-15.495 4.016-3.016 1.227-5.73 3.074-8.479 4.82-2.222 1.41-4.492 2.768-6.932 3.755-2.755 1.116-5.686 1.74-8.626 2.179-1.87.279-3.762.484-5.651.387-1.89-.097-3.784-.507-5.452-1.4-1.264-.678-2.4-1.654-3.075-2.92-.75-1.405-.88-3.055-.863-4.648.046-4.246 1.026-8.446.996-12.692-.025-3.696-.815-7.345-1.042-11.035-.437-7.094 1.205-14.313-.24-21.272-.231-1.115-.542-2.227-.527-3.365.008-.569.099-1.141.315-1.667.217-.526.563-1.005 1.025-1.338.389-.28.85-.45 1.323-.526a4.736 4.736 0 0 1 1.432.007c.948.136 1.852.482 2.776.737 2.641.73 5.432.714 8.117 1.265 1.685.345 3.317.911 4.984 1.334 2.8.71 5.72 1.013 8.592.701 3.089-.335 6.108-1.375 9.213-1.3 1.273.03 2.538.25 3.765.59 1.228.339 2.456.819 3.384 1.69.67.629 1.152 1.431 1.543 2.262.57 1.212.967 2.528.957 3.868-.005.696-.119 1.387-.186 2.08-.068.694-.088 1.404.091 2.078.18.676.554 1.287.983 1.84.428.554.915 1.06 1.358 1.602 1.242 1.517 2.13 3.285 3.097 4.99.968 1.706 2.053 3.393 3.58 4.622 2.08 1.672 4.779 2.34 7.097 3.661.679.387 1.337.841 1.814 1.46.382.495.638 1.088.735 1.706.098.618.037 1.26-.174 1.85z" transform="matrix(.67632 0 0 .71716 -172.542 -78.753)" clip-path="url(#ai)" fill="#f5c021" filter="url(#aj)"/>
        <path d="M27.31 290.65c3.275-.887 6.065 1.597 8.442 3.472 1.535 1.31 3.753.98 5.636 1.042 3.12-.113 6.226.523 9.347.136 6.145-.52 12.169-2.03 18.343-2.29 2.95-.186 6.26-.357 8.808 1.365 1.033.716 2.547 3.742 3.566 2.605-.42-3.178-2.777-6.256-5.939-7.102-2.475-.39-4.99.291-7.49.071-7.422-.177-14.793-1.555-22.233-1.16-5.177.045-10.347-.195-15.516-.397-2.03-.415-2.746 1.39-3.849 2.081" fill="url(#ak)" filter="url(#al)" transform="matrix(.59172 0 0 .58197 110.889 -33.868)"/>
        <path d="M361.75 209.343c.002-1.533-7.565-10.056-9.79-8.486-2.224 1.57-.491 3.784-.296 5.497.196 1.714-.945 6.61.239 7.26 1.184.65 3.366-2.52 5.301-4.277 1.558-1.415 4.544 1.54 4.546.006z" transform="matrix(-.05678 -.55695 -.45844 .06898 252.251 287.148)" opacity=".75" fill="#7c7c7c" filter="url(#am)"/>
        <path transform="matrix(-.04137 .55695 -.33403 -.06898 156.195 -104.878)" d="M351.96 200.857c-1.451.388-1.23 3.994-.296 5.497.79 1.27 3.073 2.272 3.759 1.005 1.114-2.055-1.472-7.036-3.463-6.502z" opacity=".25" fill="#7c7c7c" filter="url(#an)"/>
        <g>
            <path d="M71.484 295.64c-.563-1.102-1.587-1.926-2.73-2.402-1.14-.477-2.396-.63-3.633-.62-2.475.02-4.935.664-7.4.45-2.083-.18-4.059-.962-6.09-1.457-2.097-.51-4.322-.71-6.405-.143-2.226.606-4.19 2.094-5.419 4.046-1.084 1.72-1.599 3.752-1.761 5.78-.162 2.027.013 4.066.218 6.09.149 1.463.314 2.93.668 4.358.354 1.428.904 2.823 1.766 4.015 1.24 1.716 3.083 2.94 5.07 3.675a14.086 14.086 0 0 0 10.13-.177c5.66-2.457 10.45-6.864 13.37-12.299a26.203 26.203 0 0 0 2.382-6.165c.208-.853.372-1.722.38-2.6.007-.878-.147-1.769-.546-2.55z" opacity=".35" fill="url(#ao)" filter="url(#ap)" transform="matrix(.59172 0 0 .58197 110.889 -33.868)"/>
            <path d="M71.484 295.64c-.563-1.102-1.587-1.926-2.73-2.402-1.14-.477-2.396-.63-3.633-.62-2.475.02-4.935.664-7.4.45-2.083-.18-4.059-.962-6.09-1.457-2.097-.51-4.322-.71-6.405-.143-2.226.606-4.19 2.094-5.419 4.046-1.084 1.72-1.599 3.752-1.761 5.78-.162 2.027.013 4.066.218 6.09.149 1.463.314 2.93.668 4.358.354 1.428.904 2.823 1.766 4.015 1.24 1.716 3.083 2.94 5.07 3.675a14.086 14.086 0 0 0 10.13-.177c5.66-2.457 10.45-6.864 13.37-12.299a26.203 26.203 0 0 0 2.382-6.165c.208-.853.372-1.722.38-2.6.007-.878-.147-1.769-.546-2.55z" transform="matrix(.59172 0 0 .42072 110.889 13.13)" opacity=".35" fill="url(#aq)" filter="url(#ar)"/>
        </g>
        <g>
            <path d="M155.97 132.183c-.24-.643-.662-1.212-1.178-1.67-.516-.46-1.124-.81-1.765-1.078-1.28-.535-2.675-.734-4.042-.987-1.29-.238-2.57-.527-3.863-.743-1.344-.224-2.732-.368-4.062-.073-1.163.258-2.24.849-3.12 1.64-.88.792-1.567 1.779-2.061 2.846-.872 1.88-1.145 3.995-.98 6.054.124 1.533.519 3.112 1.545 4.272.828.937 2.004 1.522 3.215 1.874 2.086.607 4.359.575 6.426-.09 3.413-1.124 6.436-3.36 8.48-6.273.673-.96 1.25-2.007 1.51-3.145.2-.867.207-1.793-.105-2.627z" fill="#020204"/>
            <path d="M362.219 276.456c-.55.03-1.082.09-1.625.187-3.47.617-6.647 2.809-8.438 5.844a12.379 12.379 0 0 0-1.656 7.156c.073-1.741.53-3.446 1.375-4.968 1.434-2.582 4.032-4.53 6.938-5.063 1.79-.328 3.631-.13 5.437.094 1.733.215 3.481.443 5.188.812 2.64.572 5.254 1.452 7.468 3 .517.362 1 .769 1.406 1.25.407.482.722 1.038.844 1.657.178.904-.08 1.853-.531 2.656-.452.803-1.065 1.507-1.719 2.156a39.497 39.497 0 0 1-1.656 1.531c2.559-.495 5.152-1.197 7.281-2.687.9-.63 1.715-1.385 2.25-2.344.535-.959.763-2.121.5-3.187-.177-.72-.571-1.383-1.062-1.938-.491-.555-1.08-1.012-1.688-1.437a20.015 20.015 0 0 0-9.062-3.47 110.837 110.837 0 0 0-6.281-.968c-1.644-.206-3.321-.373-4.97-.281z" clip-path="url(#as)" transform="matrix(.59172 0 0 .58197 -72.543 -33.868)" fill="url(#at)" filter="url(#au)"/>
            <path d="M362.219 276.456c-.55.03-1.082.09-1.625.187-3.47.617-6.647 2.809-8.438 5.844a12.379 12.379 0 0 0-1.656 7.156c.073-1.741.53-3.446 1.375-4.968 1.434-2.582 4.032-4.53 6.938-5.063 1.79-.328 3.631-.13 5.437.094 1.733.215 3.481.443 5.188.812 2.64.572 5.254 1.452 7.468 3 .517.362 1 .769 1.406 1.25.407.482.722 1.038.844 1.657.178.904-.08 1.853-.531 2.656-.452.803-1.065 1.507-1.719 2.156a39.497 39.497 0 0 1-1.656 1.531c2.559-.495 5.152-1.197 7.281-2.687.9-.63 1.715-1.385 2.25-2.344.535-.959.763-2.121.5-3.187-.177-.72-.571-1.383-1.062-1.938-.491-.555-1.08-1.012-1.688-1.437a20.015 20.015 0 0 0-9.062-3.47 110.837 110.837 0 0 0-6.281-.968c-1.644-.206-3.321-.373-4.97-.281z" clip-path="url(#av)" transform="matrix(.59172 0 0 .58197 -72.543 -33.868)" fill="url(#aw)" filter="url(#ax)"/>
        </g>
        <g>
            <path d="M74.497 73.46a2504.938 2504.938 0 0 0-4.931 6.073c-1.69 2.088-3.378 4.18-5.082 6.257-2.09 2.55-4.23 5.118-5.59 8.107-1.17 2.568-1.723 5.358-2.525 8.06-.91 3.068-2.145 6.035-3.533 8.925-1.28 2.668-2.692 5.274-4.105 7.877-1.029 1.894-2.074 3.83-2.431 5.948-.282 1.674-.117 3.401.316 5.044.433 1.642 1.13 3.207 1.916 4.717 3.353 6.445 8.384 12.001 14.344 16.251a50.591 50.591 0 0 0 8.64 4.962c1.647.74 3.381 1.4 5.19 1.43.906.016 1.82-.13 2.648-.489.829-.358 1.569-.933 2.061-1.68.605-.918.81-2.06.69-3.147-.122-1.088-.554-2.126-1.133-3.06-1.414-2.283-3.648-3.935-5.797-5.572a193.125 193.125 0 0 1-13.421-11.197c-1.213-1.11-2.425-2.256-3.272-3.657-.825-1.364-1.271-2.918-1.573-4.477-.828-4.276-.616-8.777.864-12.88.578-1.606 1.344-3.139 2.081-4.68 1.28-2.67 2.49-5.392 4.172-7.837 2.093-3.044 4.892-5.622 6.598-8.891 1.44-2.76 2.024-5.862 2.581-8.915.436-2.388.867-4.778 1.292-7.168z" fill="#020204"/>
            <path d="M232.33 224.27a33 33 0 0 0-5.953 7.318c-2.668 4.458-4.239 9.468-6.178 14.289-1.444 3.588-3.125 7.193-3.327 11.056-.103 1.984.191 3.966.257 5.951.066 1.986-.117 4.052-1.09 5.784a7.006 7.006 0 0 1-3.733 3.144 11.07 11.07 0 0 1 5.336 3.866c1.114 1.499 1.827 3.253 2.796 4.85.787 1.299 1.753 2.502 2.943 3.445 1.19.944 2.611 1.62 4.117 1.813a7.258 7.258 0 0 0 5.765-1.842 135.281 135.281 0 0 1 5.15-53.8c.336-1.095.688-2.198.77-3.34.084-1.143-.128-2.349-.823-3.259a3.544 3.544 0 0 0-1.43-1.108 3.544 3.544 0 0 0-1.792-.252 3.543 3.543 0 0 0-1.68.67c-.49.363-.883.856-1.127 1.415z" clip-path="url(#ay)" transform="matrix(.59172 0 0 .58197 -72.543 -33.868)" opacity=".95" fill="#7c7c7c" filter="url(#az)"/>
        </g>
        <g transform="matrix(.59172 0 0 .58197 -31.123 -33.868)" clip-path="url(#aA)">
            <path d="M137.577 281.02c1.6-.664 3.398-.785 5.1-.47 1.703.313 3.312 1.049 4.744 2.022 2.864 1.946 4.988 4.778 7.023 7.58 4.672 6.433 9.169 13.002 13.245 19.829 3.306 5.537 6.343 11.257 10.164 16.453 2.494 3.392 5.306 6.54 7.813 9.922 2.506 3.383 4.728 7.056 5.84 11.117 1.443 5.276.884 11.092-1.627 15.953-1.767 3.419-4.477 6.352-7.773 8.339-3.296 1.986-7.17 3.014-11.016 2.87-6.114-.23-11.7-3.285-17.384-5.55-11.58-4.612-24.16-6.059-36.097-9.651-3.668-1.104-7.275-2.41-10.97-3.426-1.64-.452-3.308-.849-4.858-1.552-1.55-.703-3-1.749-3.862-3.217-.666-1.134-.948-2.47-.93-3.785.018-1.316.326-2.615.774-3.852.896-2.474 2.343-4.713 3.32-7.157 1.595-3.989 1.882-8.388 1.666-12.679-.215-4.291-.91-8.545-1.204-12.831-.131-1.914-.18-3.853.185-5.736.365-1.884 1.175-3.725 2.557-5.056 1.274-1.226 2.965-1.955 4.697-2.316 1.731-.361 3.515-.378 5.284-.338 1.768.04 3.54.135 5.303-.01 1.763-.145 3.534-.54 5.07-1.419 1.46-.834 2.653-2.074 3.643-3.434.99-1.36 1.789-2.846 2.609-4.314.82-1.468 1.668-2.931 2.741-4.226 1.074-1.294 2.39-2.423 3.943-3.067z" fill="url(#aB)"/>
            <path d="M140.11 283.779c1.455-.586 3.094-.65 4.622-.304 1.529.346 2.95 1.09 4.189 2.047 2.477 1.914 4.2 4.614 5.854 7.268 3.97 6.433 7.851 12.934 11.516 19.568 2.777 4.993 5.425 10.092 8.838 14.678 2.263 3.042 4.847 5.832 7.157 8.837 2.31 3.006 4.372 6.282 5.393 9.934 1.316 4.706.783 9.91-1.495 14.233a18.98 18.98 0 0 1-7.186 7.512 18.499 18.499 0 0 1-10.087 2.488c-5.598-.258-10.711-3.053-15.98-4.95-10.104-3.666-21.054-4.158-31.417-7.02-3.715-1.009-7.337-2.353-11.07-3.295-1.651-.416-3.332-.757-4.902-1.419-1.569-.662-3.046-1.689-3.897-3.165-.633-1.097-.886-2.388-.847-3.654.04-1.266.36-2.51.81-3.694.902-2.367 2.32-4.51 3.23-6.874 1.378-3.575 1.55-7.505 1.293-11.327-.256-3.822-.92-7.61-1.153-11.433-.104-1.71-.12-3.44.226-5.116.346-1.677 1.076-3.31 2.295-4.512 1.321-1.309 3.141-2.024 4.978-2.304 1.836-.28 3.706-.158 5.554.007 1.85.165 3.705.373 5.561.261 1.857-.11 3.736-.563 5.27-1.607 1.397-.944 2.445-2.324 3.244-3.798.798-1.474 1.367-3.055 1.976-4.616.609-1.562 1.267-3.122 2.222-4.51.955-1.388 2.236-2.605 3.806-3.235" fill="#d99a03" filter="url(#aC)"/>
            <path d="M138.753 281.235c1.41-.712 3.07-.858 4.617-.536 1.545.32 2.978 1.09 4.195 2.095 2.435 2.01 3.98 4.875 5.42 7.686 3.305 6.454 6.383 13.05 10.338 19.128 2.868 4.41 6.18 8.517 9.081 12.905 3.936 5.95 7.136 12.495 8.457 19.507.888 4.715.859 9.81-1.373 14.057-1.469 2.796-3.85 5.09-6.663 6.526-2.814 1.435-6.043 2.017-9.19 1.734-4.953-.445-9.453-2.925-14.117-4.655-8.274-3.069-17.218-3.803-25.734-6.118-3.592-.977-7.11-2.236-10.75-3.01-1.607-.342-3.244-.591-4.778-1.18-1.533-.588-2.986-1.565-3.77-3.008-.55-1.016-.736-2.205-.654-3.358.083-1.153.421-2.275.865-3.342.888-2.134 2.2-4.09 2.89-6.296 1.014-3.242.597-6.757-.163-10.067-.76-3.31-1.857-6.562-2.195-9.941-.15-1.506-.147-3.04.192-4.515.338-1.475 1.027-2.892 2.108-3.95 1.393-1.362 3.344-2.04 5.283-2.229 1.94-.19 3.893.069 5.82.351 1.929.283 3.869.59 5.815.5 1.947-.09 3.929-.61 5.454-1.824 1.507-1.2 2.455-2.987 2.999-4.836.544-1.849.72-3.782.943-5.696.222-1.914.5-3.846 1.23-5.63.729-1.784 1.96-3.428 3.68-4.298z" transform="matrix(1 0 0 .98205 0 3.959)" fill="#f5bd0c" filter="url(#aD)"/>
            <path d="M156.407 295.97c2.606 4.713 4.196 10.121 6.781 14.874 2.379 4.373 5.085 8.874 7.5 12.907 1.076 1.795 3.584 4.554 6.12 8.837 2.297 3.88 4.618 9.297 5.916 11.116-.746-2.129-2.28-7.847-4.109-11.923-1.71-3.809-3.7-5.982-4.927-8.03-2.415-4.033-5.016-7.657-7.5-11.5-3.425-5.302-6.035-11.236-9.78-16.282z" fill="url(#aE)" filter="url(#aF)"/>
        </g>
    </g>
</svg>
