<?xml version="1.0" encoding="UTF-8" standalone="no"?>
<!-- Created with Inkscape (http://www.inkscape.org/) -->

<svg
   xmlns:dc="http://purl.org/dc/elements/1.1/"
   xmlns:cc="http://creativecommons.org/ns#"
   xmlns:rdf="http://www.w3.org/1999/02/22-rdf-syntax-ns#"
   xmlns:svg="http://www.w3.org/2000/svg"
   xmlns="http://www.w3.org/2000/svg"
   xmlns:sodipodi="http://sodipodi.sourceforge.net/DTD/sodipodi-0.dtd"
   xmlns:inkscape="http://www.inkscape.org/namespaces/inkscape"
   version="1.1"
   width="200"
   height="200"
   id="svg3375"
   inkscape:version="0.92.3 (2405546, 2018-03-11)"
   sodipodi:docname="tails.svg">
  <sodipodi:namedview
     pagecolor="#ffffff"
     bordercolor="#666666"
     borderopacity="1"
     objecttolerance="10"
     gridtolerance="10"
     guidetolerance="10"
     inkscape:pageopacity="0"
     inkscape:pageshadow="2"
     inkscape:window-width="1920"
     inkscape:window-height="1016"
     id="namedview53"
     showgrid="false"
     fit-margin-top="0"
     fit-margin-left="0"
     fit-margin-right="0"
     fit-margin-bottom="0"
     inkscape:zoom="1"
     inkscape:cx="-163.51703"
     inkscape:cy="45.179944"
     inkscape:window-x="0"
     inkscape:window-y="27"
     inkscape:window-maximized="1"
     inkscape:current-layer="svg3375">
    <inkscape:grid
       type="xygrid"
       id="grid910" />
  </sodipodi:namedview>
  <defs
     id="defs3377" />
  <metadata
     id="metadata3380">
    <rdf:RDF>
      <cc:Work
         rdf:about="">
        <dc:format>image/svg+xml</dc:format>
        <dc:type
           rdf:resource="http://purl.org/dc/dcmitype/StillImage" />
        <dc:title />
      </cc:Work>
    </rdf:RDF>
  </metadata>
  <g
     id="g908"
     transform="matrix(1.4588898,0,0,1.4588898,24.657104,-4.5107007)"
     style="stroke-width:0.6854527">
    <path
       d="m 99.863756,67.329377 v 20.46145 c 0,0.626618 -0.418829,0.790791 -0.934101,0.364204 L 88.486948,79.509638 C 87.972171,79.08346 87.553343,78.23241 87.553343,77.605793 v -2.575886 l -3.263514,-2.653366 c -3.499897,-2.845554 -6.302388,-8.622414 -6.302388,-12.850381 0,-4.227059 2.821598,-5.328699 6.302388,-2.459302 l 3.263514,2.653368 v -2.575882 c 0,-0.62632 0.418828,-0.790488 0.933605,-0.36431 l 10.44246,8.645185 c 0.516417,0.425411 0.934348,1.277838 0.934348,1.904158 z M 84.476403,60.823804 c -1.84222,-1.518636 -3.335537,-0.935312 -3.335537,1.301887 0,2.237806 1.493317,5.282574 3.335537,6.80121 l 3.07694,2.499566 v -8.103396 l -3.07694,-2.499565 z"
       id="path5189-4"
       style="fill:#56347c;fill-opacity:1;stroke-width:0.84171313"
       inkscape:connector-curvature="0" />
    <g
       transform="matrix(0.56990325,1.1380705,-1.1380705,0.56990325,86.253352,-20.621103)"
       id="g3500"
       style="fill:#56347c;fill-opacity:1;stroke-width:0.6854527">
      <path
         d="M 97.976,37.8 C 97.972,37.779 97.968,37.758 97.963,37.737 97.947,37.669 97.927,37.602 97.901,37.538 97.898,37.53 97.896,37.522 97.893,37.515 97.863,37.446 97.826,37.38 97.786,37.317 97.775,37.299 97.762,37.283 97.75,37.266 97.715,37.216 97.676,37.169 97.634,37.125 97.623,37.113 97.613,37.101 97.601,37.089 97.548,37.037 97.49,36.989 97.428,36.946 97.413,36.935 97.396,36.927 97.38,36.917 97.349,36.898 97.32,36.877 97.288,36.86 L 96.743,36.576 71.837016,47.695585 25.252,24.269 l -0.666,0.33 c -0.006,0.003 -0.01,0.007 -0.016,0.01 -0.047,0.024 -0.09,0.055 -0.134,0.084 -0.029,0.019 -0.06,0.036 -0.087,0.057 -0.034,0.027 -0.063,0.059 -0.094,0.09 -0.031,0.03 -0.065,0.059 -0.093,0.092 -0.022,0.026 -0.039,0.056 -0.06,0.084 -0.031,0.043 -0.063,0.086 -0.088,0.132 -0.003,0.005 -0.007,0.01 -0.01,0.015 -0.015,0.028 -0.022,0.057 -0.035,0.085 -0.02,0.046 -0.041,0.09 -0.056,0.138 -0.013,0.041 -0.02,0.082 -0.029,0.123 -0.009,0.043 -0.019,0.085 -0.024,0.128 -0.005,0.043 -0.004,0.085 -0.005,0.127 -0.001,0.044 -0.003,0.087 0.001,0.13 0.002,0.023 0.005,0.046 0.009,0.069 -0.006,0.051 -0.015,0.1 -0.015,0.152 L 23.854,41.674 27.21708,40.107419 63.622,58.211 38.537615,69.347048 l -18.939,-9.469 L 2.6090632,51.38471 c -0.012,-0.006 -0.025,-0.009 -0.038,-0.014 -0.042,-0.02 -0.086,-0.035 -0.131,-0.05 -0.04,-0.014 -0.08,-0.028 -0.121,-0.038 -0.038,-0.009 -0.078,-0.014 -0.117,-0.019 -0.049,-0.007 -0.098,-0.014 -0.148,-0.015 -0.013,0 -0.024,-0.004 -0.037,-0.004 -0.025,0 -0.049,0.006 -0.074,0.007 -0.05,0.004 -0.099,0.007 -0.148,0.016 -0.04,0.007 -0.079,0.017 -0.118,0.027 -0.043,0.011 -0.085,0.024 -0.127,0.039 -0.039,0.015 -0.077,0.032 -0.114,0.051 -0.039,0.019 -0.077,0.039 -0.115,0.062 -0.035,0.022 -0.068,0.045 -0.1,0.07 -0.035,0.027 -0.07,0.054 -0.103,0.085 -0.031,0.029 -0.059,0.059 -0.087,0.09 -0.028,0.032 -0.056,0.064 -0.082,0.099 -0.028,0.038 -0.052,0.079 -0.076,0.12 -0.013,0.023 -0.03,0.042 -0.042,0.066 -0.006,0.012 -0.008,0.025 -0.014,0.037 -0.02,0.043 -0.036,0.089 -0.051,0.135 -0.013,0.039 -0.027,0.078 -0.036,0.117 -0.009,0.04 -0.014,0.081 -0.02,0.122 -0.007,0.048 -0.013,0.095 -0.014,0.142 0.001,0.014 -0.003,0.026 -0.003,0.039 v 19.531 c 0,0.026 0.006,0.051 0.008,0.077 0.003,0.048 0.006,0.096 0.014,0.143 0.007,0.042 0.017,0.082 0.028,0.122 0.011,0.042 0.023,0.083 0.038,0.123 0.015,0.04 0.033,0.079 0.052,0.117 0.019,0.038 0.038,0.076 0.061,0.112 0.022,0.035 0.046,0.069 0.071,0.102 0.027,0.035 0.054,0.069 0.084,0.102 0.028,0.031 0.059,0.059 0.09,0.087 0.032,0.029 0.064,0.056 0.1,0.082 0.038,0.027 0.077,0.051 0.118,0.075 0.023,0.014 0.043,0.031 0.068,0.043 L 37.945615,91.543048 c 0.007,0.004 0.015,0.004 0.022,0.008 0.017,0.008 0.032,0.017 0.049,0.025 0.01,0.004 0.02,0.007 0.03,0.011 0.056,0.022 0.113,0.041 0.171,0.055 0.012,0.003 0.024,0.006 0.036,0.009 0.016,0.003 0.032,0.005 0.048,0.008 0.077,0.014 0.154,0.024 0.232,0.024 0.001,0 0.002,0 0.003,0 h 0.001 10e-4 c 10e-4,0 0.002,0 0.003,0 0.078,0 0.156,-0.01 0.232,-0.024 0.016,-0.003 0.032,-0.005 0.048,-0.008 0.012,-0.003 0.024,-0.006 0.036,-0.009 0.058,-0.014 0.115,-0.033 0.17,-0.055 0.01,-0.004 0.021,-0.007 0.031,-0.011 0.017,-0.007 0.032,-0.017 0.049,-0.024 0.007,-0.003 0.015,-0.004 0.022,-0.008 L 61.746,81.642 l 9.462,5.221 c 0.018,0.01 0.037,0.017 0.056,0.026 0.019,0.01 0.038,0.02 0.058,0.029 0.008,0.003 0.016,0.007 0.024,0.01 0.031,0.013 0.063,0.023 0.095,0.033 0.019,0.006 0.038,0.013 0.058,0.019 0.021,0.006 0.043,0.011 0.064,0.015 0.015,0.003 0.029,0.006 0.044,0.008 0.007,0.001 0.015,0.003 0.022,0.004 0.014,0.002 0.028,0.006 0.042,0.008 0.059,0.008 0.117,0.013 0.176,0.013 h 0.001 0.001 c 10e-4,0 0.002,0 0.003,0 0.078,0 0.155,-0.01 0.232,-0.024 0.013,-0.002 0.026,-0.003 0.039,-0.006 0.01,-0.002 0.019,-0.006 0.029,-0.008 0.07,-0.017 0.14,-0.037 0.207,-0.065 0.007,-0.003 0.014,-0.007 0.021,-0.01 0.004,-0.002 0.008,-0.004 0.012,-0.006 0.006,-0.003 0.012,-0.003 0.018,-0.006 L 97.238,75.317 C 97.703,75.098 98,74.631 98,74.117 V 38.034 C 98,38.028 97.998,38.023 97.998,38.017 97.997,37.943 97.989,37.871 97.976,37.8 Z m -60.762385,40.617048 -7.614,3.666 3.972,1.986 3.641,-1.986 v 6.29 L 3.3410632,71.43771 v -9.829 l 8.6775518,4.241338 -7.2569997,3.35 3.972,1.986 7.2689997,-3.378 4.313,2.051 -7.487,3.456 3.972,1.986 7.503,-3.482 4.621,2.344 -7.381,3.407 3.972,1.986 7.395,-3.434 4.303,2.111 z M 65.228,76.939 39.861615,88.216048 v -16.57 L 65.228,60.37 Z M 3.3410632,58.52771 v -3.31 L 37.213615,71.821048 v 3.31 z"
         id="path3502"
         style="fill:#56347c;fill-opacity:1;stroke-width:0.6854527"
         inkscape:connector-curvature="0" />
    </g>
    <polygon
       points="39.076,59.22 33.117,56.241 39.407,53.262 45.366,56.241 "
       transform="matrix(0.54983328,1.0979917,-1.0979917,0.54983328,77.909076,-22.354562)"
       id="polygon3506"
       style="fill:#56347c;fill-opacity:1;stroke-width:0.6854527" />
    <polygon
       points="35.103,50.613 28.814,53.593 22.855,50.613 29.145,47.634 "
       transform="matrix(0.54983328,1.0979917,-1.0979917,0.54983328,77.371842,-22.661554)"
       id="polygon3508"
       style="fill:#56347c;fill-opacity:1;stroke-width:0.6854527" />
    <path
       d="m 46.712597,39.844431 c 2.608691,3.320542 5.27431,9.805851 5.27431,15.798513 0,5.990244 -2.665619,8.03339 -5.27431,7.004251 0,-2.453546 0,-20.623806 0,-22.802764 z"
       id="path4818-2-4-3"
       style="fill:#56347c;fill-opacity:1;stroke-width:0.84171313"
       inkscape:connector-curvature="0" />
  </g>
</svg>
