<?xml version="1.0" encoding="UTF-8" standalone="no"?>
<svg
   xmlns:dc="http://purl.org/dc/elements/1.1/"
   xmlns:cc="http://creativecommons.org/ns#"
   xmlns:rdf="http://www.w3.org/1999/02/22-rdf-syntax-ns#"
   xmlns:svg="http://www.w3.org/2000/svg"
   xmlns="http://www.w3.org/2000/svg"
   xmlns:xlink="http://www.w3.org/1999/xlink"
   xmlns:sodipodi="http://sodipodi.sourceforge.net/DTD/sodipodi-0.dtd"
   xmlns:inkscape="http://www.inkscape.org/namespaces/inkscape"
   version="1.0"
   width="200"
   height="200"
   id="svg2"
   sodipodi:docname="desktop-lxde.svg"
   inkscape:version="0.92.3 (2405546, 2018-03-11)">
  <metadata
     id="metadata42">
    <rdf:RDF>
      <cc:Work
         rdf:about="">
        <dc:format>image/svg+xml</dc:format>
        <dc:type
           rdf:resource="http://purl.org/dc/dcmitype/StillImage" />
        <dc:title></dc:title>
      </cc:Work>
    </rdf:RDF>
  </metadata>
  <sodipodi:namedview
     pagecolor="#ffffff"
     bordercolor="#666666"
     borderopacity="1"
     objecttolerance="10"
     gridtolerance="10"
     guidetolerance="10"
     inkscape:pageopacity="0"
     inkscape:pageshadow="2"
     inkscape:window-width="1920"
     inkscape:window-height="1016"
     id="namedview40"
     showgrid="false"
     inkscape:zoom="0.4411215"
     inkscape:cx="-168.82203"
     inkscape:cy="267.5"
     inkscape:window-x="0"
     inkscape:window-y="27"
     inkscape:window-maximized="1"
     inkscape:current-layer="svg2" />
  <defs
     id="defs4">
    <linearGradient
       id="linearGradient4835">
      <stop
         id="stop4837"
         style="stop-color:#ffffff;stop-opacity:0"
         offset="0" />
      <stop
         id="stop4839"
         style="stop-color:#ffffff;stop-opacity:0.63529414"
         offset="1" />
    </linearGradient>
    <linearGradient
       id="linearGradient4793">
      <stop
         id="stop4795"
         style="stop-color:#000000;stop-opacity:0"
         offset="0" />
      <stop
         id="stop4797"
         style="stop-color:#000000;stop-opacity:0.2"
         offset="1" />
    </linearGradient>
    <linearGradient
       id="linearGradient4777">
      <stop
         id="stop4779"
         style="stop-color:#000000;stop-opacity:0.1451"
         offset="0" />
      <stop
         id="stop4781"
         style="stop-color:#000000;stop-opacity:0"
         offset="1" />
    </linearGradient>
    <filter
       id="filter3326">
      <feGaussianBlur
         inkscape:collect="always"
         stdDeviation="2.6472166"
         id="feGaussianBlur3328" />
    </filter>
    <linearGradient
       id="linearGradient3486">
      <stop
         id="stop3488"
         style="stop-color:#000000;stop-opacity:0.502"
         offset="0" />
      <stop
         id="stop3490"
         style="stop-color:#ffffff;stop-opacity:1"
         offset="1" />
    </linearGradient>
    <filter
       id="filter4517">
      <feGaussianBlur
         inkscape:collect="always"
         stdDeviation="1.3154426"
         id="feGaussianBlur4519" />
    </filter>
    <filter
       id="filter4638">
      <feGaussianBlur
         id="feGaussianBlur4640"
         stdDeviation="1.1397656"
         inkscape:collect="always" />
    </filter>
    <radialGradient
       cx="244.97728"
       cy="276.31491"
       r="217.6875"
       fx="244.97728"
       fy="276.31491"
       id="radialGradient4712"
       xlink:href="#linearGradient3486"
       gradientUnits="userSpaceOnUse"
       gradientTransform="matrix(1.197615,0,0,1.2337965,-49.386039,-400.70691)" />
    <filter
       id="filter4773">
      <feGaussianBlur
         id="feGaussianBlur4775"
         stdDeviation="1.5496228"
         inkscape:collect="always" />
    </filter>
    <linearGradient
       x1="352.8949"
       y1="175.32442"
       x2="324.35019"
       y2="158.35384"
       id="linearGradient4783"
       xlink:href="#linearGradient4777"
       gradientUnits="userSpaceOnUse"
       gradientTransform="translate(0,-335)" />
    <radialGradient
       cx="390.52817"
       cy="105.77066"
       r="118.78125"
       fx="390.52817"
       fy="105.77066"
       id="radialGradient4832"
       xlink:href="#linearGradient4793"
       gradientUnits="userSpaceOnUse"
       gradientTransform="matrix(-0.2772848,0.2362336,-0.420973,-0.4941271,560.77607,-281.42117)" />
    <radialGradient
       cx="235.58434"
       cy="137.56808"
       r="268.90195"
       fx="235.58434"
       fy="137.56808"
       id="radialGradient4841"
       xlink:href="#linearGradient4835"
       gradientUnits="userSpaceOnUse"
       gradientTransform="matrix(0.238287,-0.271638,0.08478983,0.07437954,222.35079,-72.50742)" />
    <filter
       id="filter4871">
      <feGaussianBlur
         id="feGaussianBlur4873"
         stdDeviation="8.1240593"
         inkscape:collect="always" />
    </filter>
  </defs>
  <g
     id="g859"
     transform="matrix(0.3161397,0,0,0.3161397,12.511075,119.12539)">
    <path
       inkscape:connector-curvature="0"
       style="fill-opacity:0.33333333"
       id="path3317"
       d="m 412.16854,-116.84086 c -32.92218,-37.16665 -62.59062,-61.17199 -106.50912,1.41811 -26.13347,37.24392 -182.96198,250.60048 -211.739258,284.58514 -8.359192,9.8718 -13.256086,16.73245 -19.674206,20.70907 0.01017,-13.50863 108.330774,-185.04748 138.644754,-234.75889 36.41278,-59.71274 35.25666,-56.22565 30.8992,-56.20985 -6.16876,0.0224 -18.7156,9.1219 -37.79374,29.4689 -34.83788,37.1549 -138.015824,175.43846 -145.129144,173.30562 2.4712,-10.04513 83.183334,-133.81471 119.830134,-185.01447 31.59112,-44.13639 19.51537,-47.50043 1.40813,-43.1917 -77.15068,18.4003 -169.423167,62.88442 -172.40729,61.2795 1.115869,-2.30339 310.76152,-220.04526 352.12641,-224.20791 4.81541,-0.48458 14.97555,-9.07289 33.08083,-16.22615 19.65476,-7.76544 32.88269,-14.08176 36.15504,-12.08482 -14.34334,20.10676 -21.89566,24.15315 -22.02328,30.63895 -0.20898,10.62039 -3.9889,27.8016 -8.12815,33.28741 80.01619,53.30481 111.23482,235.05669 134.09387,381.24433 5.45519,34.69821 10.51065,60.75545 11.79996,76.23862 -6.75375,-17.37777 -70.73144,-248.34052 -134.63414,-320.48186 z" />
    <path
       inkscape:connector-curvature="0"
       style="fill-opacity:0.62745098;filter:url(#filter3326)"
       id="path3293"
       d="m 413.66855,-116.84085 c -32.92218,-37.16666 -62.59063,-61.172 -106.50912,1.41811 C 281.02596,-78.17882 124.19745,135.17774 95.420165,169.1624 87.060973,179.0342 82.164079,185.89485 75.745959,189.87147 75.756129,176.36284 184.07674,4.82399 214.39071,-44.88742 c 36.41279,-59.71274 35.25668,-56.22565 30.89921,-56.20985 -6.16877,0.0224 -18.71561,9.1219 -37.79375,29.4689 -34.83788,37.1549 -138.015821,175.43845 -145.129141,173.30561 2.4712,-10.04513 83.183331,-133.8147 119.830131,-185.01446 31.59113,-44.13639 19.51538,-47.50043 1.40813,-43.1917 -77.15067,18.4003 -169.42316,62.88442 -172.40729,61.2795 1.11587,-2.30339 310.76152,-220.04527 352.12641,-224.20792 4.81542,-0.48458 14.97556,-9.07289 33.08084,-16.22615 19.65476,-7.76544 32.88269,-14.08176 36.15504,-12.08482 -14.34335,20.10676 -21.89566,24.15315 -22.02329,30.63895 -0.20897,10.62039 -3.98889,27.8016 -8.12815,33.28741 80.0162,53.30481 111.23482,235.0567 134.09388,381.24434 5.45519,34.6982 10.51065,60.75544 11.79995,76.23861 -6.75374,-17.37777 -70.73143,-248.34051 -134.63413,-320.48185 z" />
    <path
       inkscape:connector-curvature="0"
       style="fill:#ffffff;stroke:#6e6e6e;stroke-width:1.5"
       id="path3287"
       d="m 409.4182,-127.09087 c -32.92218,-37.16666 -62.59062,-61.172 -106.50912,1.41811 -26.13347,37.24392 -182.96198,250.60047 -211.739263,284.58513 -8.359184,9.8718 -13.256078,16.73245 -19.674198,20.70907 0.01017,-13.50863 108.330771,-185.04747 138.644751,-234.75888 36.41278,-59.71274 35.25666,-56.22565 30.8992,-56.20985 -6.16876,0.0224 -18.7156,9.1219 -37.79374,29.4689 -34.83788,37.1549 -138.015821,175.43844 -145.129141,173.3056 2.4712,-10.04512 83.183331,-133.81469 119.830131,-185.01445 31.59112,-44.13639 19.51537,-47.50043 1.40813,-43.1917 -77.15068,18.4003 -169.423164,62.88442 -172.407287,61.2795 1.115869,-2.30339 310.761517,-220.04527 352.126407,-224.20792 4.81541,-0.48458 14.97555,-9.07289 33.08083,-16.22615 19.65476,-7.76544 32.88269,-14.08176 36.15504,-12.08482 -14.34334,20.10676 -21.89566,24.15315 -22.02328,30.63895 -0.20898,10.62039 -3.9889,27.8016 -8.12815,33.28741 80.01619,53.30481 111.23482,235.0567 134.09387,381.24433 5.45519,34.6982 10.51065,60.75544 11.79996,76.23861 C 537.29859,176.0132 473.3209,-54.94953 409.4182,-127.09087 Z" />
    <path
       inkscape:connector-curvature="0"
       style="fill:url(#radialGradient4712);filter:url(#filter4871)"
       id="path3431"
       d="m 369.68194,-291.27579 c -8.62411,0.84525 -13.87931,1.1176 -19.74075,3.48457 -28.90699,11.67322 -54.8667,30.13118 -81.68296,46.32897 -63.78438,40.11032 -126.25664,82.23579 -188.146708,125.21739 35.978188,-13.99479 72.548738,-27.43584 110.687498,-33.84375 11.59378,0.10725 21.10173,13.52401 15.84375,24.3125 -6.95064,23.78165 -25.54358,41.23517 -38.07947,61.91327 -9.6428,13.81423 -19.10916,27.76671 -28.48303,41.77423 24.8568,-31.05314 49.43716,-62.74855 79.08315,-89.29351 7.18605,-5.66397 15.82806,-12.42042 25.47935,-10.89399 7.4589,1.93798 10.99057,11.74381 6.03125,17.78125 -10.19008,19.34247 -22.74153,37.52193 -33.76459,56.42702 C 189.36812,-3.44028 161.5989,40.91001 134.48652,85.75514 192.80277,9.08677 215.5073,-15.21295 271.90653,-93.29552 c 13.06885,-16.48161 67.06234,-84.35427 89.20499,-81.63684 24.86312,3.4436 42.62656,23.67591 57.63497,41.92879 39.6373,49.04976 60.70361,109.4662 83.45878,167.53996 4.5654,12.33697 8.95162,24.73452 13.28125,37.15625 -14.39904,-87.02458 -35.34979,-170.71994 -71.67294,-251.59283 -24.30511,-24.84109 -32.04335,-34.73684 -59.84376,-52.04184 -3.62602,-3.47955 -42.53312,27.59106 -42.53312,27.59106 z" />
    <path
       inkscape:connector-curvature="0"
       style="fill:url(#radialGradient4832)"
       id="path4752"
       d="m 395.53125,-263.09375 c -79.39136,53.22483 -151.77416,104.48249 -152.3125,105.59375 2.98412,1.60492 95.25557,-42.88095 172.40625,-61.28125 3.82631,-0.91049 7.37984,-1.46177 10.3125,-1.375 -7.88953,-10.06512 -16.35814,-18.69961 -25.5,-25.59375 -2.97264,-1.38046 -5.70807,-2.92533 -8.125,-4.71875 z M 433.34375,-210 c -1.47377,6.81514 -7.14665,17.67114 -19.125,34.40625 -5.17222,7.22618 -11.39801,16.19173 -18,25.8125 5.79552,5.41589 11.12044,11.4193 16.25,17.53125 10.75573,-13.12524 20.28626,-24.39808 27.0625,-31.625 4.71434,-5.02788 9.03029,-9.35446 12.9375,-13.03125 -5.93366,-12.04087 -12.29237,-23.11822 -19.125,-33.09375 z m 26.96875,50.15625 c -4.0287,6.56846 -7.81952,12.73721 -13.90625,22.71875 -4.11332,6.74537 -10.13871,16.50962 -16.75,27.1875 6.24469,9.23936 11.98289,18.79295 17.34375,28.5625 9.81218,-13.29406 19.30125,-26.17044 28.46875,-38.65625 -4.69825,-13.94993 -9.73781,-27.28019 -15.15625,-39.8125 z" />
    <path
       inkscape:connector-curvature="0"
       style="fill:#ffffff;filter:url(#filter4638)"
       id="path3279"
       d="M 358.33965,-297.33965 C 311.53448,-285.79122 15.125,-79.75 15.125,-79.75 c 0,0 52.96875,-24.4375 52.96875,-24.4375 77.00719,-53.34297 154.43404,-106.50191 234.84375,-154.75 20.83207,-11.52377 40.77455,-25.63294 64,-31.5 14.082,-6.24286 27.22228,-15.15497 42.0625,-19.8125 0,0 7.30154,-6.70186 13.03125,-11.96875 1.07609,-1.39811 2.17923,-2.85195 3.34375,-4.4375 -22.45974,7.77456 -62.33068,28.1558 -67.03535,29.3166 z M 198.875,-129.15625 c 3.98369,11.98392 -53.17476,77.04509 -135.09375,212.59375 -0.612419,1.08253 -1.026913,1.85872 -1.46875,2.6875 7.227323,-9.10904 54.625,-68.84375 54.625,-68.84375 24.2019,-37.62841 49.64454,-74.34107 75,-111.1875 5.30644,-9.08203 13.15917,-18.17118 12.8125,-29.1875 0.57691,-4.0675 -3.55312,-4.16175 -5.875,-6.0625 z m 49.1875,27.09375 c -3.40763,0.85409 -6.59405,2.5178 -9.84375,3.875 C 182.94375,-6.68233 125.22216,81.39452 75.03125,174.90625 80.978009,167.03556 114,123.34375 114,123.34375 153.85446,55.27521 196.69611,-11.18195 237.8125,-78.625 c 3.7599,-7.78083 10.08279,-14.30054 12.625,-22.59375 -0.58594,-0.72021 -1.4309,-0.92513 -2.375,-0.84375 z" />
    <path
       inkscape:connector-curvature="0"
       style="fill-opacity:0.2"
       id="path3522"
       d="m 172.8125,-175.8125 c -35.14628,23.55564 -69.97861,47.56047 -104.71875,71.625 0,0 -21.651321,10.19324 -39.752369,18.68852 l -6.78125,4.78125 c 29.12189,-11.88499 97.717569,-41.73787 157.783619,-56.06352 18.10724,-4.30873 30.18488,-0.94889 -1.40625,43.1875 -5.89741,8.23936 -13.01746,18.46582 -20.6875,29.6875 5.1161,4.93124 10.22781,10.49365 15.4375,16.375 0.21586,0.24369 0.4404,0.50271 0.65625,0.75 11.96158,-14.66493 22.48964,-27.24844 29.875,-35.125 7.89973,-8.42512 14.67281,-14.87143 20.34375,-19.59375 -14.14074,-31.19507 -30.79349,-56.97595 -50.75,-74.3125 z m 56.9375,88.625 c -4.85852,7.92567 -11.04108,17.95461 -19.625,32.03125 -4.72779,7.75303 -11.7467,19.10079 -19.5625,31.71875 5.60032,8.70619 11.17779,18.39742 16.65625,28.78125 13.10702,-17.73985 25.58955,-34.68927 37.53125,-50.96875 -4.6438,-14.52397 -9.62563,-28.43355 -15,-41.5625 z" />
    <path
       inkscape:connector-curvature="0"
       style="fill:url(#radialGradient4841);filter:url(#filter4517)"
       id="path3461"
       d="m 56.749912,-103.65947 c 2.20549,-0.90252 3.39165,1.05365 5.6875,0.125 33.95251,-13.73349 76.770088,-26.53957 116.156248,-35.875 5.00268,-1.18575 9.73236,-1.93001 14.59375,-0.96875 2.43069,0.48063 5.02293,1.51171 7.15625,3.53125 2.13332,2.01954 3.98136,-1.0729 4.375,1.78125 0.78728,5.7083 -1.05898,11.26836 -4.59375,18.46875 -3.53477,7.20039 -9.08644,16.00401 -17.25,27.15625 -18.48226,25.24861 -48.1052,69.46453 -73.3125,108.46875 -2.51539,3.89216 -4.08676,6.54621 -6.5,10.3125 3.45584,-4.31935 6.20114,-2.34679 9.78125,-6.84375 31.19405,-39.18264 65.65706,-83.11413 83.6875,-102.34375 9.67316,-10.31651 18.00147,-18.35051 24.96875,-24 6.96728,-5.64949 11.712,-9.62993 18.96875,-9.65625 0.17178,-6.2e-4 0.58043,-0.13495 2.15625,0.0312 0.78791,0.0831 3.60516,-2.60749 3.625,-0.71875 0.0688,6.55194 3.38627,-0.72559 3.6875,0.9375 0.60246,3.32618 -0.30759,4.42404 -0.875,5.75 -0.56741,1.32596 -1.30448,2.67443 -2.3125,4.46875 -4.0321,7.1773 -12.83783,21.25866 -31.03125,51.09375 -15.22203,24.96236 -50.07181,80.64821 -81.15625,131.8125 -10.02832,16.50639 -19.22136,31.83789 -27.65625,46.1875 98.47265,-125.45022 150.65536,-191.62004 172.19253,-226.0478 12.04733,-19.25799 26.62022,-43.94725 41.98039,-66.02389 13.20426,-18.978 33.89172,-22.30979 44.76593,-19.17278 21.74843,6.27403 38.05846,27.14429 52.03125,44.28125 34.57092,42.39957 68.08512,127.73568 105.99865,245.21322 -10.55985,-66.36256 -23.41563,-143.3538 -43.15625,-210.6562 -20.42008,-69.61889 -55.03337,-107.80633 -92.91265,-132.98621 0,0 10.35015,-26.23254 10.35015,-26.23254 81.24692,54.0081 112.25207,240.06424 133.78125,375.8125 9.03413,56.96317 12.04716,70.08905 10.875,76.78125 -49.08574,-156.96151 -90.77178,-264.13642 -131.62229,-312.56521 -25.97695,-30.79601 -61.01465,-71.7644 -109.65896,1.19021 -24.96336,37.43896 -182.84771,249.95284 -211.624998,283.9375 -8.359183,9.8718 -13.39438,17.33588 -19.8125,21.3125 7.042947,-9.99226 108.990628,-179.75581 139.304608,-229.46722 36.41278,-59.71273 35.92785,-63.95483 31.57039,-63.93903 -6.16876,0.0224 -19.76561,11.0905 -38.84375,31.4375 C 167.28703,-43.91082 69.051953,88.72973 61.938633,86.59689 66.871306,77.25504 139.1653,-35.15736 176.51538,-88.99442 c 30.93897,-44.59596 22.31432,-53.89528 4.20328,-49.60255 C 103.26784,-120.23934 8.2340345,-73.8983 5.249912,-75.50322 m 230.937498,-37.71875 c 0.0324,0.0231 0.0476,0.10751 0,0.21875 -0.0136,0.0318 -0.10777,0.18037 -0.125,0.21875 0.009,-0.047 -0.0106,-0.24651 0,-0.28125 0.043,-0.14114 0.0926,-0.17935 0.125,-0.15625 z" />
    <path
       inkscape:connector-curvature="0"
       style="fill:url(#linearGradient4783);filter:url(#filter4773)"
       id="path4714"
       d="m 248.24312,-51.15546 c 34.81133,-45.39256 -0.7308,-3.22509 63.83243,-89.91243 12.70425,-15.77478 28.04613,-34.20568 49.48695,-30.55711 25.1887,4.93895 42.13937,26.18806 58.12439,44.56174 34.52407,44.04064 54.29351,97.3743 75.2094,148.93345 8.95694,23.45972 17.38063,47.07477 25.32246,70.87981 -15.14922,-92.51632 -31.2192,-181.30353 -68.90029,-267.74863 -13.89251,-27.15489 -32.46761,-46.5938 -61.81847,-68.81113 0,0 -100.4997,98.27457 -141.25687,192.6543 z" />
    <path
       inkscape:connector-curvature="0"
       style="fill:#c2c2c2"
       id="path3523"
       d="m 426.625,-327.625 c -0.62726,-0.004 -1.46755,0.0722 -2.4375,0.28125 -1.9399,0.41812 -4.4913,1.26186 -7.5625,2.40625 -6.1424,2.28879 -14.34897,5.80037 -24.1875,9.6875 -9.00183,3.55656 -16.03961,7.49609 -21.4375,10.59375 -5.39789,3.09766 -9.04914,5.40628 -11.84375,5.6875 -4.89293,0.49239 -14.28614,4.31302 -26.6875,10.65625 -12.40136,6.34323 -27.88953,15.20676 -45.3125,25.71875 -34.84595,21.02398 -77.45718,48.69427 -118.8125,76.3125 -41.35532,27.61823 -81.452426,55.16907 -111.28125,75.96875 C 42.148088,-99.91266 29.77601,-91.17999 21.125,-85 c -4.325505,3.08999 -7.72842,5.53151 -10.0625,7.25 -0.399253,0.29395 -0.570272,0.4374 -0.90625,0.6875 0.55271,-0.18948 0.935479,-0.3065 1.625,-0.5625 2.94029,-1.09163 7.083347,-2.7599 12.21875,-4.875 0.08027,-0.0331 0.2005,-0.0917 0.28125,-0.125 60.449845,-43.18854 301.41644,-209.94999 337.625,-213.59375 4.8154,-0.48458 14.98847,-9.06549 33.09375,-16.21875 12.87009,-5.08486 22.88708,-9.49215 29.25,-11.40625 0.88913,-1.18422 1.80077,-2.40376 2.75,-3.71875 -0.15102,-0.0154 -0.19239,-0.0613 -0.375,-0.0625 z m -228.53125,194.59375 c 0.53982,3.18078 -0.46427,7.57542 -3.375,13.78125 -3.05952,6.52306 -8.24268,15.0376 -16.15625,26.09375 C 160.2539,-67.57705 130.90691,-23.84089 105.84375,14.75 93.312169,34.04544 81.856367,52.06799 73.375,65.875 c -4.240684,6.90351 -7.742678,12.75549 -10.25,17.1875 -1.253661,2.21601 -2.273431,4.07899 -3,5.53125 -0.349116,0.69781 -0.410317,0.93696 -0.625,1.4375 0.196384,-0.13502 0.331634,-0.19415 0.5625,-0.375 1.107003,-0.86717 2.602315,-2.25031 4.375,-4.0625 0.982314,-1.00421 2.061565,-2.17772 3.21875,-3.4375 20.31872,-34.79042 82.2654,-129.13562 113.125,-172.25 19.6195,-27.41067 22.36381,-39.05164 17.3125,-42.9375 z m 47.1875,25.15625 c -0.37752,-0.0198 -0.86157,0.0293 -1.40625,0.0312 -0.30241,0.001 -0.65734,0.046 -1,0.0937 -0.3507,0.69652 -0.78311,1.47496 -1.34375,2.46875 -3.74289,6.63468 -12.54515,20.67741 -30.75,50.53125 -15.16408,24.86734 -49.8207,80.18791 -80.6875,130.96875 -15.4334,25.39042 -29.90846,49.62981 -40.53125,68.375 -5.311395,9.37259 -9.676372,17.37909 -12.6875,23.4375 -1.505564,3.0292 -2.680044,5.58358 -3.46875,7.5625 -0.403637,1.01275 -0.399467,1.36644 -0.59375,2.0625 1.864383,-1.37025 3.656305,-3.01982 5.5,-4.9375 19.69288,-40.60128 107.78669,-180.28079 134.65625,-224.34375 31.86119,-52.24864 34.95512,-56.11165 32.3125,-56.25 z" />
  </g>
</svg>
