<?xml version="1.0" encoding="UTF-8" standalone="no"?>
<svg
   xmlns:dc="http://purl.org/dc/elements/1.1/"
   xmlns:cc="http://creativecommons.org/ns#"
   xmlns:rdf="http://www.w3.org/1999/02/22-rdf-syntax-ns#"
   xmlns:svg="http://www.w3.org/2000/svg"
   xmlns="http://www.w3.org/2000/svg"
   xmlns:sodipodi="http://sodipodi.sourceforge.net/DTD/sodipodi-0.dtd"
   xmlns:inkscape="http://www.inkscape.org/namespaces/inkscape"
   width="200"
   height="200"
   viewBox="0 0 150.00001 150.00001"
   version="1.1"
   id="svg2"
   inkscape:version="0.92.3 (2405546, 2018-03-11)"
   sodipodi:docname="desktop-budgie.svg"
   inkscape:export-filename="/home/yurihenriq/Documentos/budgie2.svg.png"
   inkscape:export-xdpi="751.22449"
   inkscape:export-ydpi="751.22449">
  <metadata
     id="metadata26">
    <rdf:RDF>
      <cc:Work
         rdf:about="">
        <dc:format>image/svg+xml</dc:format>
        <dc:type
           rdf:resource="http://purl.org/dc/dcmitype/StillImage" />
        <dc:title></dc:title>
      </cc:Work>
    </rdf:RDF>
  </metadata>
  <defs
     id="defs24" />
  <sodipodi:namedview
     pagecolor="#ffffff"
     bordercolor="#666666"
     borderopacity="1"
     objecttolerance="10"
     gridtolerance="10"
     guidetolerance="10"
     inkscape:pageopacity="0"
     inkscape:pageshadow="2"
     inkscape:window-width="1920"
     inkscape:window-height="1016"
     id="namedview22"
     showgrid="false"
     inkscape:zoom="1"
     inkscape:cx="-34.562125"
     inkscape:cy="103.86813"
     inkscape:window-x="0"
     inkscape:window-y="27"
     inkscape:window-maximized="1"
     inkscape:current-layer="svg2"
     fit-margin-top="0"
     fit-margin-left="0"
     fit-margin-right="0"
     fit-margin-bottom="0"
     units="px">
    <inkscape:grid
       type="xygrid"
       id="grid4143"
       originx="0"
       originy="-12.332417" />
  </sodipodi:namedview>
  <g
     id="g834"
     transform="matrix(0.77075767,0,0,0.77075767,7.5000003,26.886358)"
     style="stroke-width:1.29742479">
    <path
       inkscape:connector-curvature="0"
       style="opacity:0;fill:#ffffff;stroke-width:1.29742479"
       id="path4"
       d="M 0,-25.152338 H 83.930139 C 63.921666,-24.249767 44.252774,-16.42153 29.346952,-2.9991415 11.769165,12.433925 1.0812976,35.203728 0,58.536522 Z" />
    <path
       style="fill:#404552;stroke-width:1.29742479"
       inkscape:connector-curvature="0"
       id="path6"
       d="m 83.930139,-25.152338 h 8.239309 c 19.481232,1.19747 38.596072,8.757617 53.206992,21.7689335 17.90843,15.5224295 28.8197,38.6228785 29.7759,62.2773795 v 8.123133 C 173.95486,86.462599 166.42153,105.54168 153.44596,120.14367 138.05757,137.96275 115.18947,148.8204 91.713695,150 h -8.0159 C 63.769748,149.02594 44.199155,141.22451 29.346952,127.85574 11.813847,112.45842 1.1438519,89.769039 0,66.498802 v -7.96228 C 1.0812976,35.203728 11.769165,12.433925 29.346952,-2.9991415 44.252774,-16.42153 63.921666,-24.249767 83.930139,-25.152338 Z" />
    <path
       inkscape:connector-curvature="0"
       style="opacity:0;fill:#ffffff;stroke-width:1.29742479"
       id="path8"
       d="M 92.169448,-25.152338 H 175.15234 V 58.893975 C 174.19614,35.239474 163.28487,12.139025 145.37644,-3.3834045 130.76552,-16.394721 111.65068,-23.954868 92.169448,-25.152338 Z" />
    <path
       style="fill:#ffffff;stroke-width:1.29742479"
       inkscape:connector-curvature="0"
       id="path10"
       d="m 86.146353,27.009101 c 7.586954,-5.486915 17.479487,-6.443104 26.549877,-5.594151 9.63338,1.081298 19.41867,4.807753 25.92433,12.251728 4.41455,4.843497 6.69332,11.21511 7.58695,17.622469 0.32171,2.412813 0.63449,4.834562 0.7864,7.265247 0.7864,12.787911 -3.91411,25.486445 -11.68873,35.521965 -8.44485,8.972091 -19.67783,15.164971 -31.58998,18.158651 -17.416929,4.34307 -36.630068,1.68003 -51.90228,-7.87292 C 42.170606,98.356869 34.270878,89.429459 29.945688,78.884569 26.138805,68.563099 26.183487,57.249688 28.203101,46.552885 c 1.688969,6.478849 6.657576,12.028319 13.091743,14.02112 5.915859,1.858765 13.261534,1.197476 17.658216,-3.565598 9.972959,-9.177626 15.969245,-22.11745 27.193293,-29.999306 z" />
    <path
       style="fill:#404552;stroke-width:1.29742479"
       inkscape:connector-curvature="0"
       id="path12"
       d="m 115.88651,43.210693 c 1.64428,-3.431557 6.18395,-3.565602 8.91846,-1.376198 -0.56298,0.169791 -1.68896,0.518308 -2.25195,0.697035 0.0447,0.670226 0.11617,2.019614 0.16085,2.689839 1.21534,0.125109 2.41281,-0.125109 3.57454,-0.482562 -0.25022,2.520049 -1.19747,5.415424 -3.98561,6.067777 -4.36094,1.688969 -8.704,-3.565601 -6.41629,-7.595891 z" />
    <path
       style="fill:#5294e2;stroke-width:1.29742479"
       inkscape:connector-curvature="0"
       id="path14"
       d="m 146.20751,51.289147 c 2.79708,0.965125 5.61203,1.876632 8.41804,2.797076 -2.56473,1.456623 -5.12052,2.922184 -7.63164,4.468171 -0.15191,-2.430685 -0.46469,-4.852434 -0.7864,-7.265247 z" />
    <path
       style="fill:#5294e2;stroke-width:1.29742479"
       inkscape:connector-curvature="0"
       id="path16"
       d="m 68.53282,64.765157 c 1.858759,-3.306453 5.361806,-5.335001 9.061452,-5.853309 6.827367,-0.750653 13.502816,5.549472 12.582372,12.466201 -1.19747,4.36986 -3.976673,8.88273 -8.614635,10.107 -11.83172,2.70772 -23.547266,-1.61748 -34.842805,-4.70945 8.319736,-1.17066 17.300762,-4.432424 21.813616,-12.010442 z" />
    <path
       inkscape:connector-curvature="0"
       style="opacity:0;fill:#ffffff;stroke-width:1.29742479"
       id="path18"
       d="M 0,66.498802 C 1.1438519,89.769039 11.813847,112.45842 29.346952,127.85574 44.199155,141.22451 63.769748,149.02594 83.697795,150 H 0 Z" />
    <path
       inkscape:connector-curvature="0"
       style="opacity:0;fill:#ffffff;stroke-width:1.29742479"
       id="path20"
       d="m 153.44596,120.14367 c 12.97557,-14.60199 20.5089,-33.681071 21.70638,-53.126562 V 150 H 91.713695 c 23.475775,-1.1796 46.343875,-12.03725 61.732265,-29.85633 z" />
    <circle
       r="5.2643404"
       cy="45.746372"
       cx="120.85024"
       id="path3362"
       style="fill:#404552;fill-opacity:1;stroke:#404552;stroke-width:0.92753857;stroke-opacity:1" />
    <ellipse
       ry="1.508783"
       rx="1.5415827"
       cy="43.27"
       cx="123.72021"
       id="path3370"
       style="fill:#ffffff;fill-opacity:1;stroke:#ffffff;stroke-width:0.92753857;stroke-opacity:1" />
  </g>
</svg>
