<?xml version="1.0" encoding="UTF-8" standalone="no"?>
<!-- Created with Inkscape (http://www.inkscape.org/) -->

<svg
   xmlns:dc="http://purl.org/dc/elements/1.1/"
   xmlns:cc="http://creativecommons.org/ns#"
   xmlns:rdf="http://www.w3.org/1999/02/22-rdf-syntax-ns#"
   xmlns:svg="http://www.w3.org/2000/svg"
   xmlns="http://www.w3.org/2000/svg"
   xmlns:xlink="http://www.w3.org/1999/xlink"
   xmlns:sodipodi="http://sodipodi.sourceforge.net/DTD/sodipodi-0.dtd"
   xmlns:inkscape="http://www.inkscape.org/namespaces/inkscape"
   width="200"
   height="200"
   id="svg7854"
   sodipodi:version="0.32"
   inkscape:version="0.91+devel+osxmenu r12898"
   version="1.0"
   sodipodi:docname="distro-opensuse.svg"
   inkscape:output_extension="org.inkscape.output.svg.inkscape">
  <defs
     id="defs7856">
    <linearGradient
       inkscape:collect="always"
       id="linearGradient7716">
      <stop
         style="stop-color:#000000;stop-opacity:0.18674699"
         offset="0"
         id="stop7718" />
      <stop
         style="stop-color:#000000;stop-opacity:0;"
         offset="1"
         id="stop7720" />
    </linearGradient>
    <linearGradient
       inkscape:collect="always"
       id="linearGradient7692">
      <stop
         style="stop-color:#ffffff;stop-opacity:1;"
         offset="0"
         id="stop7694" />
      <stop
         style="stop-color:#ffffff;stop-opacity:0;"
         offset="1"
         id="stop7696" />
    </linearGradient>
    <linearGradient
       inkscape:collect="always"
       id="linearGradient6807">
      <stop
         style="stop-color:#ffffff;stop-opacity:1;"
         offset="0"
         id="stop6809" />
      <stop
         style="stop-color:#ffffff;stop-opacity:0;"
         offset="1"
         id="stop6811" />
    </linearGradient>
    <linearGradient
       inkscape:collect="always"
       id="linearGradient6692">
      <stop
         style="stop-color:#ffffff;stop-opacity:1;"
         offset="0"
         id="stop6694" />
      <stop
         style="stop-color:#ffffff;stop-opacity:0;"
         offset="1"
         id="stop6696" />
    </linearGradient>
    <linearGradient
       inkscape:collect="always"
       id="linearGradient6684">
      <stop
         style="stop-color:#b5b5ad;stop-opacity:1;"
         offset="0"
         id="stop6686" />
      <stop
         style="stop-color:#b5b5ad;stop-opacity:0;"
         offset="1"
         id="stop6688" />
    </linearGradient>
    <linearGradient
       inkscape:collect="always"
       id="linearGradient5975">
      <stop
         id="stop5979"
         offset="0"
         style="stop-color:#6eda08;stop-opacity:1" />
      <stop
         id="stop5977"
         offset="1"
         style="stop-color:#4e9a06;stop-opacity:1;" />
    </linearGradient>
    <linearGradient
       inkscape:collect="always"
       id="linearGradient6139">
      <stop
         style="stop-color:#ffffff;stop-opacity:1;"
         offset="0"
         id="stop6141" />
      <stop
         style="stop-color:#ffffff;stop-opacity:0;"
         offset="1"
         id="stop6143" />
    </linearGradient>
    <linearGradient
       inkscape:collect="always"
       id="linearGradient5486">
      <stop
         style="stop-color:#ffffff;stop-opacity:1;"
         offset="0"
         id="stop5488" />
      <stop
         style="stop-color:#ffffff;stop-opacity:0;"
         offset="1"
         id="stop5490" />
    </linearGradient>
    <linearGradient
       inkscape:collect="always"
       id="linearGradient5841">
      <stop
         style="stop-color:#ffffff;stop-opacity:1;"
         offset="0"
         id="stop5843" />
      <stop
         style="stop-color:#ffffff;stop-opacity:0;"
         offset="1"
         id="stop5845" />
    </linearGradient>
    <linearGradient
       inkscape:collect="always"
       id="linearGradient5831">
      <stop
         style="stop-color:#ffffff;stop-opacity:1;"
         offset="0"
         id="stop5833" />
      <stop
         style="stop-color:#ffffff;stop-opacity:0;"
         offset="1"
         id="stop5835" />
    </linearGradient>
    <linearGradient
       inkscape:collect="always"
       id="linearGradient5779">
      <stop
         style="stop-color:#73d216;stop-opacity:1;"
         offset="0"
         id="stop5781" />
      <stop
         style="stop-color:#73d216;stop-opacity:0;"
         offset="1"
         id="stop5783" />
    </linearGradient>
    <linearGradient
       inkscape:collect="always"
       id="linearGradient5767">
      <stop
         style="stop-color:#ffffff;stop-opacity:1;"
         offset="0"
         id="stop5769" />
      <stop
         style="stop-color:#ffffff;stop-opacity:0;"
         offset="1"
         id="stop5771" />
    </linearGradient>
    <linearGradient
       inkscape:collect="always"
       id="linearGradient5755">
      <stop
         style="stop-color:#ffffff;stop-opacity:1;"
         offset="0"
         id="stop5757" />
      <stop
         style="stop-color:#ffffff;stop-opacity:0;"
         offset="1"
         id="stop5759" />
    </linearGradient>
    <linearGradient
       inkscape:collect="always"
       id="linearGradient5745">
      <stop
         style="stop-color:#ffffff;stop-opacity:1;"
         offset="0"
         id="stop5747" />
      <stop
         style="stop-color:#ffffff;stop-opacity:0;"
         offset="1"
         id="stop5749" />
    </linearGradient>
    <linearGradient
       inkscape:collect="always"
       id="linearGradient5681">
      <stop
         style="stop-color:#000000;stop-opacity:1;"
         offset="0"
         id="stop5683" />
      <stop
         style="stop-color:#000000;stop-opacity:0.48124999"
         offset="1"
         id="stop5685" />
    </linearGradient>
    <linearGradient
       inkscape:collect="always"
       id="linearGradient5565">
      <stop
         style="stop-color:#8ae234;stop-opacity:1;"
         offset="0"
         id="stop5567" />
      <stop
         style="stop-color:#8ae234;stop-opacity:0;"
         offset="1"
         id="stop5569" />
    </linearGradient>
    <linearGradient
       inkscape:collect="always"
       id="linearGradient5518">
      <stop
         style="stop-color:#ffffff;stop-opacity:1;"
         offset="0"
         id="stop5520" />
      <stop
         style="stop-color:#ffffff;stop-opacity:0;"
         offset="1"
         id="stop5522" />
    </linearGradient>
    <linearGradient
       id="linearGradient5478">
      <stop
         style="stop-color:#3a7202;stop-opacity:1;"
         offset="0"
         id="stop5480" />
      <stop
         id="stop5626"
         offset="0.69790977"
         style="stop-color:#4e9c04;stop-opacity:1;" />
      <stop
         style="stop-color:#50a004;stop-opacity:1;"
         offset="0.75"
         id="stop5628" />
      <stop
         style="stop-color:#7bf508;stop-opacity:1;"
         offset="1"
         id="stop5482" />
    </linearGradient>
    <linearGradient
       inkscape:collect="always"
       xlink:href="#linearGradient5478"
       id="linearGradient5484"
       x1="98.727234"
       y1="42.150482"
       x2="98.727234"
       y2="164.39177"
       gradientUnits="userSpaceOnUse" />
    <clipPath
       clipPathUnits="userSpaceOnUse"
       id="clipPath5677">
      <path
         style="font-size:20.48839951px;font-family:TrebuchetMS-Bold;fill:#4e9a06;fill-opacity:1;fill-rule:evenodd;stroke:none;stroke-width:3.36292505;stroke-miterlimit:4;stroke-dasharray:none;stroke-opacity:1"
         d="M 99.999999,30.15625 C 61.429321,30.15625 30.15625,61.425757 30.15625,100 c 0,38.57424 31.273071,69.84375 69.843749,69.84375 38.570681,0 69.843741,-31.26951 69.843751,-69.84375 0,-38.574237 -31.27307,-69.84375 -69.843751,-69.84375 z m 0.334431,9.672654 c 33.23352,0 60.19682,26.941139 60.19682,60.171096 0,33.23353 -26.96686,60.1711 -60.19682,60.1711 -17.944818,0 -34.047202,-7.86473 -45.070447,-20.32286 4.532497,-3.51775 12.115631,-2.65954 21.454769,-1.59496 4.475522,0.50915 9.577449,1.09159 14.843406,1.20908 14.711892,0.0855 30.541332,-2.5996 40.311292,-6.86861 6.31629,-2.77006 10.36035,-4.59427 12.88829,-6.89434 0.91149,-0.7477 1.39015,-1.99679 1.87794,-3.29281 l 0.33442,-0.87466 c 0.40946,-1.04678 0.99706,-3.29926 1.26053,-4.52762 0.1175,-0.53764 0.17517,-1.1158 -0.2058,-1.41489 l -1.36343,0.25726 c -4.28682,2.57066 -14.99713,7.4667 -25.03056,7.66609 -12.43319,0.25991 -37.492094,-12.51643 -40.105491,-13.86585 l -0.25725,-0.3087 c -0.626641,-1.49541 -4.376766,-10.398076 -5.170753,-12.270895 18.037391,11.877765 32.991864,18.452075 44.453044,19.473925 12.74296,1.13224 22.683,-5.82499 26.93421,-8.79799 0.8296,-0.56612 1.46367,-1.01005 1.72359,-1.10618 l 0.28298,-0.46306 c -0.70498,-4.47909 -7.39073,-26.153517 -12.42525,-31.358942 -1.39571,-1.42775 -2.50536,-2.81725 -4.75915,-4.141745 C 114.08824,60.052432 70.821318,53.655846 68.795405,53.360326 l -0.334423,0.102899 -0.128625,0.282976 c 0,0 -0.162275,8.984424 -0.180078,9.981357 -1.484725,-0.491344 -6.088481,-1.9986 -12.682491,-3.807322 8.603734,-10.645844 21.78903,-20.091332 44.864642,-20.091332 z m 15.89813,31.847721 c 0.30705,-0.0046 0.61701,-0.01024 0.92611,0 10.20789,0.366727 18.22788,8.964455 17.87897,19.165229 -0.18159,4.934824 -2.26212,9.494346 -5.86533,12.862566 -3.6139,3.38602 -8.31087,5.1509 -13.27417,4.99068 -10.1901,-0.38097 -18.210098,-8.978695 -17.878978,-19.165231 0.174469,-4.941946 2.266488,-9.530765 5.891058,-12.888296 3.38468,-3.174386 7.71664,-4.895827 12.32234,-4.964948 z m -0.48878,5.453729 c -2.97293,0.180744 -5.77842,1.387873 -7.97479,3.447167 -2.50301,2.349918 -3.97993,5.531534 -4.0903,8.978075 -0.23499,7.12096 5.33713,13.113594 12.45097,13.377074 3.45722,0.10681 6.73667,-1.10438 9.26105,-3.44717 2.51726,-2.360599 3.98349,-5.5715 4.0903,-9.003802 0.23855,-7.131641 -5.35929,-13.102111 -12.47669,-13.351344 -0.43082,-0.01602 -0.83583,-0.02582 -1.26054,0 z m 3.39572,6.457012 c 3.16171,0 5.71099,1.718118 5.71098,3.833041 0,2.10425 -2.54927,3.833042 -5.71098,3.833049 -3.17239,0 -5.7367,-1.732364 -5.7367,-3.833049 0,-2.114923 2.56431,-3.833041 5.7367,-3.833041 z"
         id="path5679"
         inkscape:connector-curvature="0" />
    </clipPath>
    <linearGradient
       inkscape:collect="always"
       xlink:href="#linearGradient5681"
       id="linearGradient5687"
       x1="100"
       y1="166.72182"
       x2="100"
       y2="39.739437"
       gradientUnits="userSpaceOnUse" />
    <linearGradient
       inkscape:collect="always"
       xlink:href="#linearGradient5779"
       id="linearGradient5785"
       x1="130"
       y1="127"
       x2="136"
       y2="21"
       gradientUnits="userSpaceOnUse" />
    <radialGradient
       inkscape:collect="always"
       xlink:href="#linearGradient5486"
       id="radialGradient5492"
       cx="214.93239"
       cy="159.98334"
       fx="214.93239"
       fy="159.98334"
       r="93"
       gradientUnits="userSpaceOnUse"
       gradientTransform="matrix(1.7617562,0,0,1.4394897,-156.77001,-27.903608)" />
    <linearGradient
       inkscape:collect="always"
       xlink:href="#linearGradient5478"
       id="linearGradient5622"
       gradientUnits="userSpaceOnUse"
       x1="98.727234"
       y1="42.150482"
       x2="98.727234"
       y2="164.39177" />
    <linearGradient
       inkscape:collect="always"
       xlink:href="#linearGradient5681"
       id="linearGradient5624"
       gradientUnits="userSpaceOnUse"
       x1="100"
       y1="166.72182"
       x2="100"
       y2="39.739437" />
    <radialGradient
       inkscape:collect="always"
       xlink:href="#linearGradient6139"
       id="radialGradient6145"
       cx="255.1118"
       cy="36.448391"
       fx="255.1118"
       fy="36.448391"
       r="92.518204"
       gradientTransform="matrix(0.1320268,-0.02889951,0.06169099,0.281834,175.55307,56.036224)"
       gradientUnits="userSpaceOnUse" />
    <radialGradient
       inkscape:collect="always"
       xlink:href="#linearGradient6139"
       id="radialGradient6149"
       gradientUnits="userSpaceOnUse"
       gradientTransform="matrix(1.8165702,0,0,-2.1318194,-104.60272,289.64588)"
       cx="128.1001"
       cy="36.926102"
       fx="128.1001"
       fy="36.926102"
       r="92.518204" />
    <radialGradient
       inkscape:collect="always"
       xlink:href="#linearGradient5975"
       id="radialGradient5981"
       cx="695.23529"
       cy="-92.591293"
       fx="695.23529"
       fy="-92.591293"
       r="38.670937"
       gradientTransform="matrix(1.4932927,0,0,1.2526157,-342.95448,17.844423)"
       gradientUnits="userSpaceOnUse" />
    <radialGradient
       inkscape:collect="always"
       xlink:href="#linearGradient5975"
       id="radialGradient6036"
       gradientUnits="userSpaceOnUse"
       gradientTransform="matrix(1.4932927,0,0,1.2526157,-342.95448,17.844423)"
       cx="695.23529"
       cy="-92.591293"
       fx="695.23529"
       fy="-92.591293"
       r="38.670937" />
    <linearGradient
       inkscape:collect="always"
       xlink:href="#linearGradient6684"
       id="linearGradient6690"
       x1="310.13846"
       y1="157.09328"
       x2="395.88181"
       y2="177.51506"
       gradientUnits="userSpaceOnUse" />
    <linearGradient
       inkscape:collect="always"
       xlink:href="#linearGradient6692"
       id="linearGradient6698"
       x1="409.03015"
       y1="174.69807"
       x2="409.03015"
       y2="147.46704"
       gradientUnits="userSpaceOnUse" />
    <linearGradient
       inkscape:collect="always"
       xlink:href="#linearGradient5478"
       id="linearGradient6778"
       gradientUnits="userSpaceOnUse"
       x1="98.727234"
       y1="42.150482"
       x2="98.727234"
       y2="164.39177" />
    <linearGradient
       inkscape:collect="always"
       xlink:href="#linearGradient5478"
       id="linearGradient6780"
       gradientUnits="userSpaceOnUse"
       x1="60.836216"
       y1="18.832932"
       x2="148.27702"
       y2="153.70456" />
    <linearGradient
       inkscape:collect="always"
       xlink:href="#linearGradient5681"
       id="linearGradient6782"
       gradientUnits="userSpaceOnUse"
       x1="100"
       y1="166.72182"
       x2="100"
       y2="39.739437" />
    <radialGradient
       inkscape:collect="always"
       xlink:href="#linearGradient5565"
       id="radialGradient6784"
       gradientUnits="userSpaceOnUse"
       gradientTransform="matrix(0.4812739,0,0,-0.2452646,376.54043,-122.79884)"
       cx="132"
       cy="293.59906"
       fx="132"
       fy="293.59906"
       r="102" />
    <radialGradient
       inkscape:collect="always"
       xlink:href="#linearGradient5518"
       id="radialGradient6786"
       gradientUnits="userSpaceOnUse"
       gradientTransform="matrix(0.9311654,0,0,0.8801658,317.15471,-220.00355)"
       cx="132.01065"
       cy="37.250149"
       fx="132.01065"
       fy="37.250149"
       r="103.84375" />
    <radialGradient
       inkscape:collect="always"
       xlink:href="#linearGradient5565"
       id="radialGradient6788"
       gradientUnits="userSpaceOnUse"
       gradientTransform="matrix(1.1252161,0,0,0.5734273,291.54003,-172.5235)"
       cx="132"
       cy="293.59906"
       fx="132"
       fy="293.59906"
       r="102" />
    <radialGradient
       inkscape:collect="always"
       xlink:href="#linearGradient5565"
       id="radialGradient6790"
       gradientUnits="userSpaceOnUse"
       gradientTransform="matrix(1.4973544,0,0,0.5528207,266.33925,-180.49721)"
       cx="89.75"
       cy="20.619284"
       fx="89.75"
       fy="20.619284"
       r="59.25" />
    <radialGradient
       inkscape:collect="always"
       xlink:href="#linearGradient5745"
       id="radialGradient6792"
       gradientUnits="userSpaceOnUse"
       gradientTransform="matrix(1.2847965,0,0,0.555661,279.75821,-185.14092)"
       cx="105.75"
       cy="38.506714"
       fx="105.75"
       fy="38.506714"
       r="59.25" />
    <radialGradient
       inkscape:collect="always"
       xlink:href="#linearGradient5755"
       id="radialGradient6794"
       gradientUnits="userSpaceOnUse"
       gradientTransform="matrix(1.5487879,0,0,0.967699,219.5322,-229.11394)"
       cx="158.0618"
       cy="117.97007"
       fx="158.0618"
       fy="117.97007"
       r="12.438205" />
    <radialGradient
       inkscape:collect="always"
       xlink:href="#linearGradient5767"
       id="radialGradient6796"
       gradientUnits="userSpaceOnUse"
       gradientTransform="matrix(0.9311654,0,0,0.9920213,316.68913,-232.2523)"
       cx="40.807701"
       cy="81.171234"
       fx="40.807701"
       fy="81.171234"
       r="83.063797" />
    <radialGradient
       inkscape:collect="always"
       xlink:href="#linearGradient5767"
       id="radialGradient6798"
       gradientUnits="userSpaceOnUse"
       gradientTransform="matrix(0.9311654,0,0,0.9920213,316.68913,-232.2523)"
       cx="40.807701"
       cy="81.171234"
       fx="40.807701"
       fy="81.171234"
       r="83.063797" />
    <radialGradient
       inkscape:collect="always"
       xlink:href="#linearGradient5831"
       id="radialGradient6800"
       gradientUnits="userSpaceOnUse"
       gradientTransform="matrix(0.9311654,0,0,0.7431416,320.87937,-195.79894)"
       cx="98"
       cy="146.19427"
       fx="98"
       fy="146.19427"
       r="13" />
    <radialGradient
       inkscape:collect="always"
       xlink:href="#linearGradient5841"
       id="radialGradient6802"
       gradientUnits="userSpaceOnUse"
       gradientTransform="matrix(1.2266314,0,0,0.2485319,272.34909,-113.88511)"
       cx="164.25"
       cy="187.76793"
       fx="164.25"
       fy="187.76793"
       r="26" />
    <radialGradient
       inkscape:collect="always"
       xlink:href="#linearGradient6807"
       id="radialGradient6813"
       cx="93"
       cy="3.5"
       fx="93"
       fy="3.5"
       r="93.5"
       gradientUnits="userSpaceOnUse" />
    <radialGradient
       inkscape:collect="always"
       xlink:href="#linearGradient6807"
       id="radialGradient6817"
       gradientUnits="userSpaceOnUse"
       cx="93"
       cy="3.5"
       fx="93"
       fy="3.5"
       r="93.5" />
    <linearGradient
       inkscape:collect="always"
       xlink:href="#linearGradient6684"
       id="linearGradient6901"
       gradientUnits="userSpaceOnUse"
       x1="310.13846"
       y1="157.09328"
       x2="395.88181"
       y2="177.51506" />
    <linearGradient
       inkscape:collect="always"
       xlink:href="#linearGradient6692"
       id="linearGradient6903"
       gradientUnits="userSpaceOnUse"
       x1="409.03015"
       y1="174.69807"
       x2="409.03015"
       y2="147.46704" />
    <linearGradient
       inkscape:collect="always"
       xlink:href="#linearGradient6684"
       id="linearGradient6905"
       gradientUnits="userSpaceOnUse"
       x1="310.13846"
       y1="157.09328"
       x2="395.88181"
       y2="177.51506" />
    <linearGradient
       inkscape:collect="always"
       xlink:href="#linearGradient6692"
       id="linearGradient6907"
       gradientUnits="userSpaceOnUse"
       x1="409.03015"
       y1="174.69807"
       x2="409.03015"
       y2="147.46704" />
    <linearGradient
       inkscape:collect="always"
       xlink:href="#linearGradient6684"
       id="linearGradient6909"
       gradientUnits="userSpaceOnUse"
       x1="310.13846"
       y1="157.09328"
       x2="395.88181"
       y2="177.51506" />
    <linearGradient
       inkscape:collect="always"
       xlink:href="#linearGradient6692"
       id="linearGradient6911"
       gradientUnits="userSpaceOnUse"
       x1="409.03015"
       y1="174.69807"
       x2="409.03015"
       y2="147.46704" />
    <linearGradient
       inkscape:collect="always"
       xlink:href="#linearGradient6684"
       id="linearGradient6913"
       gradientUnits="userSpaceOnUse"
       x1="310.13846"
       y1="157.09328"
       x2="395.88181"
       y2="177.51506" />
    <linearGradient
       inkscape:collect="always"
       xlink:href="#linearGradient6692"
       id="linearGradient6915"
       gradientUnits="userSpaceOnUse"
       x1="409.03015"
       y1="174.69807"
       x2="409.03015"
       y2="147.46704" />
    <linearGradient
       inkscape:collect="always"
       xlink:href="#linearGradient6684"
       id="linearGradient6917"
       gradientUnits="userSpaceOnUse"
       x1="310.13846"
       y1="157.09328"
       x2="395.88181"
       y2="177.51506" />
    <linearGradient
       inkscape:collect="always"
       xlink:href="#linearGradient6692"
       id="linearGradient6919"
       gradientUnits="userSpaceOnUse"
       x1="409.03015"
       y1="174.69807"
       x2="409.03015"
       y2="147.46704" />
    <linearGradient
       inkscape:collect="always"
       xlink:href="#linearGradient6684"
       id="linearGradient6921"
       gradientUnits="userSpaceOnUse"
       x1="310.13846"
       y1="157.09328"
       x2="395.88181"
       y2="177.51506" />
    <linearGradient
       inkscape:collect="always"
       xlink:href="#linearGradient6692"
       id="linearGradient6923"
       gradientUnits="userSpaceOnUse"
       x1="409.03015"
       y1="174.69807"
       x2="409.03015"
       y2="147.46704" />
    <linearGradient
       inkscape:collect="always"
       xlink:href="#linearGradient6684"
       id="linearGradient6925"
       gradientUnits="userSpaceOnUse"
       x1="310.13846"
       y1="157.09328"
       x2="395.88181"
       y2="177.51506" />
    <linearGradient
       inkscape:collect="always"
       xlink:href="#linearGradient6692"
       id="linearGradient6927"
       gradientUnits="userSpaceOnUse"
       x1="409.03015"
       y1="174.69807"
       x2="409.03015"
       y2="147.46704" />
    <linearGradient
       inkscape:collect="always"
       xlink:href="#linearGradient6684"
       id="linearGradient6929"
       gradientUnits="userSpaceOnUse"
       x1="310.13846"
       y1="157.09328"
       x2="395.88181"
       y2="177.51506" />
    <linearGradient
       inkscape:collect="always"
       xlink:href="#linearGradient6692"
       id="linearGradient6931"
       gradientUnits="userSpaceOnUse"
       x1="409.03015"
       y1="174.69807"
       x2="409.03015"
       y2="147.46704" />
    <linearGradient
       inkscape:collect="always"
       xlink:href="#linearGradient6692"
       id="linearGradient6933"
       gradientUnits="userSpaceOnUse"
       x1="409.03015"
       y1="174.69807"
       x2="409.03015"
       y2="147.46704" />
    <radialGradient
       r="92.518204"
       fy="36.926102"
       fx="128.1001"
       cy="36.926102"
       cx="128.1001"
       gradientTransform="matrix(1.8165702,0,0,-2.1318194,-104.60272,289.64588)"
       gradientUnits="userSpaceOnUse"
       id="radialGradient7287"
       xlink:href="#linearGradient6139"
       inkscape:collect="always" />
    <radialGradient
       gradientUnits="userSpaceOnUse"
       gradientTransform="matrix(1.1034495,0,0,0.6647087,-11.751883,26.932667)"
       r="92.518204"
       fy="41.361626"
       fx="128.1001"
       cy="41.361626"
       cx="128.1001"
       id="radialGradient7285"
       xlink:href="#linearGradient6139"
       inkscape:collect="always" />
    <linearGradient
       y2="39.739437"
       x2="100"
       y1="166.72182"
       x1="100"
       gradientUnits="userSpaceOnUse"
       id="linearGradient7282"
       xlink:href="#linearGradient5681"
       inkscape:collect="always" />
    <linearGradient
       y2="164.39177"
       x2="98.727234"
       y1="42.150482"
       x1="98.727234"
       gradientUnits="userSpaceOnUse"
       id="linearGradient7280"
       xlink:href="#linearGradient5478"
       inkscape:collect="always" />
    <radialGradient
       gradientTransform="matrix(1.9237282,0,0,1.9237282,-195.69229,-115.35161)"
       gradientUnits="userSpaceOnUse"
       r="93"
       fy="126.5"
       fx="215.5"
       cy="126.5"
       cx="215.5"
       id="radialGradient7278"
       xlink:href="#linearGradient5486"
       inkscape:collect="always" />
    <linearGradient
       gradientUnits="userSpaceOnUse"
       y2="21"
       x2="136"
       y1="127"
       x1="130"
       id="linearGradient7263"
       xlink:href="#linearGradient5779"
       inkscape:collect="always" />
    <linearGradient
       gradientUnits="userSpaceOnUse"
       y2="39.739437"
       x2="100"
       y1="166.72182"
       x1="100"
       id="linearGradient7256"
       xlink:href="#linearGradient5681"
       inkscape:collect="always" />
    <clipPath
       id="clipPath7252"
       clipPathUnits="userSpaceOnUse">
      <path
         id="path7254"
         d="M 99.999999,30.15625 C 61.429321,30.15625 30.15625,61.425757 30.15625,100 c 0,38.57424 31.273071,69.84375 69.843749,69.84375 38.570681,0 69.843741,-31.26951 69.843751,-69.84375 0,-38.574237 -31.27307,-69.84375 -69.843751,-69.84375 z m 0.334431,9.672654 c 33.23352,0 60.19682,26.941139 60.19682,60.171096 0,33.23353 -26.96686,60.1711 -60.19682,60.1711 -17.944818,0 -34.047202,-7.86473 -45.070447,-20.32286 4.532497,-3.51775 12.115631,-2.65954 21.454769,-1.59496 4.475522,0.50915 9.577449,1.09159 14.843406,1.20908 14.711892,0.0855 30.541332,-2.5996 40.311292,-6.86861 6.31629,-2.77006 10.36035,-4.59427 12.88829,-6.89434 0.91149,-0.7477 1.39015,-1.99679 1.87794,-3.29281 l 0.33442,-0.87466 c 0.40946,-1.04678 0.99706,-3.29926 1.26053,-4.52762 0.1175,-0.53764 0.17517,-1.1158 -0.2058,-1.41489 l -1.36343,0.25726 c -4.28682,2.57066 -14.99713,7.4667 -25.03056,7.66609 -12.43319,0.25991 -37.492094,-12.51643 -40.105491,-13.86585 l -0.25725,-0.3087 c -0.626641,-1.49541 -4.376766,-10.398076 -5.170753,-12.270895 18.037391,11.877765 32.991864,18.452075 44.453044,19.473925 12.74296,1.13224 22.683,-5.82499 26.93421,-8.79799 0.8296,-0.56612 1.46367,-1.01005 1.72359,-1.10618 l 0.28298,-0.46306 c -0.70498,-4.47909 -7.39073,-26.153517 -12.42525,-31.358942 -1.39571,-1.42775 -2.50536,-2.81725 -4.75915,-4.141745 C 114.08824,60.052432 70.821318,53.655846 68.795405,53.360326 l -0.334423,0.102899 -0.128625,0.282976 c 0,0 -0.162275,8.984424 -0.180078,9.981357 -1.484725,-0.491344 -6.088481,-1.9986 -12.682491,-3.807322 8.603734,-10.645844 21.78903,-20.091332 44.864642,-20.091332 z m 15.89813,31.847721 c 0.30705,-0.0046 0.61701,-0.01024 0.92611,0 10.20789,0.366727 18.22788,8.964455 17.87897,19.165229 -0.18159,4.934824 -2.26212,9.494346 -5.86533,12.862566 -3.6139,3.38602 -8.31087,5.1509 -13.27417,4.99068 -10.1901,-0.38097 -18.210098,-8.978695 -17.878978,-19.165231 0.174469,-4.941946 2.266488,-9.530765 5.891058,-12.888296 3.38468,-3.174386 7.71664,-4.895827 12.32234,-4.964948 z m -0.48878,5.453729 c -2.97293,0.180744 -5.77842,1.387873 -7.97479,3.447167 -2.50301,2.349918 -3.97993,5.531534 -4.0903,8.978075 -0.23499,7.12096 5.33713,13.113594 12.45097,13.377074 3.45722,0.10681 6.73667,-1.10438 9.26105,-3.44717 2.51726,-2.360599 3.98349,-5.5715 4.0903,-9.003802 0.23855,-7.131641 -5.35929,-13.102111 -12.47669,-13.351344 -0.43082,-0.01602 -0.83583,-0.02582 -1.26054,0 z m 3.39572,6.457012 c 3.16171,0 5.71099,1.718118 5.71098,3.833041 0,2.10425 -2.54927,3.833042 -5.71098,3.833049 -3.17239,0 -5.7367,-1.732364 -5.7367,-3.833049 0,-2.114923 2.56431,-3.833041 5.7367,-3.833041 z"
         style="font-size:20.48839951px;font-family:TrebuchetMS-Bold;fill:#4e9a06;fill-opacity:1;fill-rule:evenodd;stroke:none;stroke-width:3.36292505;stroke-miterlimit:4;stroke-dasharray:none;stroke-opacity:1"
         inkscape:connector-curvature="0" />
    </clipPath>
    <linearGradient
       gradientUnits="userSpaceOnUse"
       y2="164.39177"
       x2="98.727234"
       y1="42.150482"
       x1="98.727234"
       id="linearGradient7238"
       xlink:href="#linearGradient5478"
       inkscape:collect="always" />
    <linearGradient
       id="linearGradient7224">
      <stop
         id="stop7226"
         offset="0"
         style="stop-color:#3a7202;stop-opacity:1;" />
      <stop
         style="stop-color:#4e9c04;stop-opacity:1;"
         offset="0.69790977"
         id="stop7228" />
      <stop
         id="stop7230"
         offset="0.75"
         style="stop-color:#50a004;stop-opacity:1;" />
      <stop
         id="stop7232"
         offset="1"
         style="stop-color:#7bf508;stop-opacity:1;" />
    </linearGradient>
    <linearGradient
       id="linearGradient4871"
       inkscape:collect="always">
      <stop
         id="stop4873"
         offset="0"
         style="stop-color:#ffffff;stop-opacity:1" />
      <stop
         style="stop-color:#d2d6ce;stop-opacity:1;"
         offset="0.21496402"
         id="stop5460" />
      <stop
         style="stop-color:#cfd3cc;stop-opacity:1"
         offset="0.35827339"
         id="stop5458" />
      <stop
         style="stop-color:#e4e7e2;stop-opacity:1"
         offset="0.87165469"
         id="stop4879" />
      <stop
         id="stop4875"
         offset="1"
         style="stop-color:#cdcfca;stop-opacity:1" />
    </linearGradient>
    <linearGradient
       id="linearGradient6128"
       inkscape:collect="always">
      <stop
         id="stop6130"
         offset="0"
         style="stop-color:#4f4f4f;stop-opacity:1;" />
      <stop
         id="stop6132"
         offset="1"
         style="stop-color:#4f4f4f;stop-opacity:0;" />
    </linearGradient>
    <linearGradient
       inkscape:collect="always"
       xlink:href="#linearGradient5478"
       id="linearGradient7392"
       gradientUnits="userSpaceOnUse"
       x1="98.727234"
       y1="42.150482"
       x2="98.727234"
       y2="164.39177" />
    <linearGradient
       inkscape:collect="always"
       xlink:href="#linearGradient5681"
       id="linearGradient7394"
       gradientUnits="userSpaceOnUse"
       x1="100"
       y1="166.72182"
       x2="100"
       y2="39.739437" />
    <linearGradient
       inkscape:collect="always"
       xlink:href="#linearGradient4871"
       id="linearGradient7462"
       gradientUnits="userSpaceOnUse"
       gradientTransform="translate(87.75001,-316.75)"
       x1="65"
       y1="325.21426"
       x2="65"
       y2="549.03125" />
    <radialGradient
       inkscape:collect="always"
       xlink:href="#linearGradient6128"
       id="radialGradient7464"
       gradientUnits="userSpaceOnUse"
       gradientTransform="matrix(1.95879,0,0,1.95879,-70.92974,-531.03957)"
       cx="114.19282"
       cy="389.68997"
       fx="114.19282"
       fy="389.68997"
       r="97" />
    <radialGradient
       inkscape:collect="always"
       xlink:href="#linearGradient7692"
       id="radialGradient7698"
       cx="161.34077"
       cy="161.34077"
       fx="161.34077"
       fy="161.34077"
       r="94.569832"
       gradientUnits="userSpaceOnUse" />
    <radialGradient
       inkscape:collect="always"
       xlink:href="#linearGradient7716"
       id="radialGradient7722"
       cx="176.80099"
       cy="183.06195"
       fx="176.80099"
       fy="183.06195"
       r="95.130486"
       gradientUnits="userSpaceOnUse" />
    <radialGradient
       inkscape:collect="always"
       xlink:href="#linearGradient5841"
       id="radialGradient7423"
       gradientUnits="userSpaceOnUse"
       gradientTransform="matrix(1.0611289,0,0,0.2149989,-319.25082,97.19835)"
       cx="164.25"
       cy="187.76793"
       fx="164.25"
       fy="187.76793"
       r="26" />
    <radialGradient
       inkscape:collect="always"
       xlink:href="#linearGradient5831"
       id="radialGradient7426"
       gradientUnits="userSpaceOnUse"
       gradientTransform="matrix(0.8055285,0,0,0.6428737,-277.26846,26.336695)"
       cx="98"
       cy="146.19427"
       fx="98"
       fy="146.19427"
       r="13" />
    <radialGradient
       inkscape:collect="always"
       xlink:href="#linearGradient5767"
       id="radialGradient7430"
       gradientUnits="userSpaceOnUse"
       gradientTransform="matrix(0.8055285,0,0,0.8581734,-280.89333,-5.1982178)"
       cx="40.807701"
       cy="81.171234"
       fx="40.807701"
       fy="81.171234"
       r="83.063797" />
    <radialGradient
       inkscape:collect="always"
       xlink:href="#linearGradient5767"
       id="radialGradient7433"
       gradientUnits="userSpaceOnUse"
       gradientTransform="matrix(0.8055285,0,0,0.8581734,-280.89333,-5.1982178)"
       cx="40.807701"
       cy="81.171234"
       fx="40.807701"
       fy="81.171234"
       r="83.063797" />
    <radialGradient
       inkscape:collect="always"
       xlink:href="#linearGradient5755"
       id="radialGradient7436"
       gradientUnits="userSpaceOnUse"
       gradientTransform="matrix(1.3398186,0,0,0.8371328,-364.94142,-2.4832991)"
       cx="158.0618"
       cy="117.97007"
       fx="158.0618"
       fy="117.97007"
       r="12.438205" />
    <radialGradient
       inkscape:collect="always"
       xlink:href="#linearGradient5745"
       id="radialGradient7439"
       gradientUnits="userSpaceOnUse"
       gradientTransform="matrix(1.1114461,0,0,0.4806888,-312.84137,35.556688)"
       cx="105.75"
       cy="38.506714"
       fx="105.75"
       fy="38.506714"
       r="59.25" />
    <radialGradient
       inkscape:collect="always"
       xlink:href="#linearGradient5565"
       id="radialGradient7442"
       gradientUnits="userSpaceOnUse"
       gradientTransform="matrix(1.2953248,0,0,0.4782317,-324.44978,39.573848)"
       cx="89.75"
       cy="20.619284"
       fx="89.75"
       fy="20.619284"
       r="59.25" />
    <radialGradient
       inkscape:collect="always"
       xlink:href="#linearGradient5565"
       id="radialGradient7445"
       gradientUnits="userSpaceOnUse"
       gradientTransform="matrix(0.973397,0,0,0.496058,-302.6492,46.47171)"
       cx="132"
       cy="293.59906"
       fx="132"
       fy="293.59906"
       r="102" />
    <radialGradient
       inkscape:collect="always"
       xlink:href="#linearGradient5518"
       id="radialGradient7448"
       gradientUnits="userSpaceOnUse"
       gradientTransform="matrix(0.8055285,0,0,0.76141,-280.49057,5.397877)"
       cx="132.01065"
       cy="37.250149"
       fx="132.01065"
       fy="37.250149"
       r="103.84375" />
    <radialGradient
       inkscape:collect="always"
       xlink:href="#linearGradient5565"
       id="radialGradient7452"
       gradientUnits="userSpaceOnUse"
       gradientTransform="matrix(0.4163383,0,0,-0.2121724,-229.11743,89.4873)"
       cx="132"
       cy="293.59906"
       fx="132"
       fy="293.59906"
       r="102" />
  </defs>
  <sodipodi:namedview
     id="base"
     pagecolor="#ffffff"
     bordercolor="#e0e0e0"
     borderopacity="1"
     gridtolerance="10000"
     guidetolerance="10"
     objecttolerance="10"
     inkscape:pageopacity="0.0"
     inkscape:pageshadow="2"
     inkscape:zoom="1"
     inkscape:cx="-245.08419"
     inkscape:cy="-54.131076"
     inkscape:document-units="px"
     inkscape:current-layer="layer1"
     width="256px"
     height="256px"
     inkscape:showpageshadow="false"
     inkscape:window-width="1920"
     inkscape:window-height="970"
     inkscape:window-x="0"
     inkscape:window-y="23"
     showgrid="false"
     inkscape:window-maximized="0" />
  <metadata
     id="metadata7859">
    <rdf:RDF>
      <cc:Work
         rdf:about="">
        <dc:format>image/svg+xml</dc:format>
        <dc:type
           rdf:resource="http://purl.org/dc/dcmitype/StillImage" />
        <dc:creator>
          <cc:Agent>
            <dc:title>Jakub Steiner</dc:title>
          </cc:Agent>
        </dc:creator>
        <dc:source>http://jimmac.musichall.cz</dc:source>
        <cc:license
           rdf:resource="http://creativecommons.org/licenses/by-sa/2.5/" />
        <dc:title />
      </cc:Work>
      <cc:License
         rdf:about="http://creativecommons.org/licenses/by-sa/2.5/">
        <cc:permits
           rdf:resource="http://web.resource.org/cc/Reproduction" />
        <cc:permits
           rdf:resource="http://web.resource.org/cc/Distribution" />
        <cc:requires
           rdf:resource="http://web.resource.org/cc/Notice" />
        <cc:requires
           rdf:resource="http://web.resource.org/cc/Attribution" />
        <cc:permits
           rdf:resource="http://web.resource.org/cc/DerivativeWorks" />
        <cc:requires
           rdf:resource="http://web.resource.org/cc/ShareAlike" />
      </cc:License>
    </rdf:RDF>
  </metadata>
  <g
     inkscape:label="Layer 1"
     inkscape:groupmode="layer"
     id="layer1"
     transform="translate(0,-56)">
    <g
       id="g4851"
       inkscape:label="Layer 1"
       transform="matrix(1.1976605,0,0,1.1976605,-19.76605,36.23395)"
       style="fill:#73ba25;fill-opacity:1">
      <path
         id="path2445"
         d="m 100,30.15625 c -38.57068,0 -69.84375,31.269508 -69.84375,69.84375 0,38.57424 31.273072,69.84375 69.84375,69.84375 38.57068,0 69.84374,-31.26951 69.84375,-69.84375 0,-38.57424 -31.27307,-69.84375 -69.84375,-69.84375 z m 0.33443,9.672652 c 33.23352,0 60.19682,26.941143 60.19682,60.171098 0,33.23353 -26.96686,60.1711 -60.19682,60.1711 -17.944821,0 -34.047203,-7.86473 -45.070445,-20.32286 4.532491,-3.51775 12.115629,-2.65954 21.454765,-1.59496 4.475525,0.50915 9.577453,1.09159 14.843405,1.20908 14.711895,0.0855 30.541335,-2.5996 40.311295,-6.86861 6.31629,-2.77006 10.36035,-4.59427 12.88829,-6.89434 0.91149,-0.7477 1.39015,-1.99679 1.87794,-3.29281 l 0.33442,-0.87466 c 0.40946,-1.04678 0.99706,-3.29926 1.26053,-4.52762 0.1175,-0.53764 0.17517,-1.1158 -0.2058,-1.41489 l -1.36343,0.25726 c -4.28682,2.57066 -14.99713,7.4667 -25.03056,7.66609 -12.43319,0.25991 -37.492093,-12.51643 -40.105489,-13.86585 l -0.257252,-0.3087 c -0.626644,-1.49541 -4.376768,-10.39808 -5.170752,-12.270896 18.037389,11.877766 32.991863,18.452076 44.453043,19.473926 12.74296,1.13224 22.683,-5.82499 26.93421,-8.79799 0.8296,-0.56612 1.46367,-1.01005 1.72359,-1.10618 l 0.28298,-0.46306 c -0.70498,-4.47909 -7.39073,-26.153517 -12.42525,-31.35894 -1.39571,-1.427752 -2.50536,-2.81725 -4.75915,-4.141747 C 114.08824,60.052429 70.821318,53.655843 68.795407,53.360325 l -0.334426,0.1029 -0.128626,0.282977 c 0,0 -0.162274,8.984421 -0.180076,9.981353 -1.484722,-0.491344 -6.088485,-1.998597 -12.682493,-3.80732 8.603733,-10.645844 21.789033,-20.091332 44.864644,-20.091333 z m 15.89813,31.847721 c 0.30705,-0.0046 0.61701,-0.01024 0.92611,0 10.20789,0.366729 18.22788,8.964457 17.87897,19.165228 -0.18159,4.934825 -2.26212,9.494349 -5.86533,12.862569 -3.6139,3.38602 -8.31087,5.1509 -13.27417,4.99068 -10.1901,-0.38097 -18.2101,-8.978697 -17.878976,-19.165231 0.174464,-4.941948 2.266486,-9.530764 5.891056,-12.888294 3.38468,-3.174391 7.71664,-4.895833 12.32234,-4.964952 z m -0.48878,5.453729 c -2.97293,0.180743 -5.77842,1.387872 -7.97479,3.447169 -2.50301,2.349915 -3.97993,5.531532 -4.0903,8.978073 -0.23499,7.120959 5.33713,13.113596 12.45097,13.377076 3.45722,0.10681 6.73667,-1.10438 9.26105,-3.447173 2.51726,-2.360599 3.98349,-5.571496 4.0903,-9.003798 0.23855,-7.131643 -5.35929,-13.102113 -12.47669,-13.351347 -0.43082,-0.01602 -0.83583,-0.02582 -1.26054,0 z m 3.39572,6.45701 c 3.16171,0 5.71099,1.718121 5.71098,3.833045 0,2.104248 -2.54927,3.833044 -5.71098,3.833046 -3.17239,0 -5.7367,-1.732365 -5.7367,-3.833046 0,-2.114922 2.56431,-3.833043 5.7367,-3.833045 z"
         style="font-size:20.48839951px;font-family:TrebuchetMS-Bold;fill:#73ba25;fill-opacity:1;fill-rule:evenodd;stroke:none;stroke-miterlimit:4"
         inkscape:connector-curvature="0" />
    </g>
  </g>
</svg>
