<?xml version="1.0" encoding="UTF-8" standalone="no"?>
<!-- Created with Inkscape (http://www.inkscape.org/) -->

<svg
   xmlns:dc="http://purl.org/dc/elements/1.1/"
   xmlns:cc="http://creativecommons.org/ns#"
   xmlns:rdf="http://www.w3.org/1999/02/22-rdf-syntax-ns#"
   xmlns:svg="http://www.w3.org/2000/svg"
   xmlns="http://www.w3.org/2000/svg"
   xmlns:sodipodi="http://sodipodi.sourceforge.net/DTD/sodipodi-0.dtd"
   xmlns:inkscape="http://www.inkscape.org/namespaces/inkscape"
   width="200"
   height="200"
   id="svg2"
   version="1.1"
   inkscape:version="0.91+devel+osxmenu r12898"
   sodipodi:docname="distro-lubuntu.svg"
   inkscape:export-filename="/home/rafa/Escritorio/plymouth.png"
   inkscape:export-xdpi="90"
   inkscape:export-ydpi="90">
  <defs
     id="defs4" />
  <sodipodi:namedview
     id="base"
     pagecolor="#ffffff"
     bordercolor="#666666"
     borderopacity="1.0"
     inkscape:pageopacity="0.0"
     inkscape:pageshadow="2"
     inkscape:zoom="1"
     inkscape:cx="-25.271469"
     inkscape:cy="28.210234"
     inkscape:document-units="px"
     inkscape:current-layer="layer1"
     showgrid="false"
     inkscape:window-width="1920"
     inkscape:window-height="971"
     inkscape:window-x="0"
     inkscape:window-y="23"
     inkscape:window-maximized="0"
     inkscape:showpageshadow="false"
     borderlayer="false"
     units="mm" />
  <metadata
     id="metadata7">
    <rdf:RDF>
      <cc:Work
         rdf:about="">
        <dc:format>image/svg+xml</dc:format>
        <dc:type
           rdf:resource="http://purl.org/dc/dcmitype/StillImage" />
        <dc:title></dc:title>
      </cc:Work>
    </rdf:RDF>
  </metadata>
  <g
     inkscape:label="Capa 1"
     inkscape:groupmode="layer"
     id="layer1"
     transform="translate(-662.76201,-444.17887)">
    <g
       id="g10455"
       transform="matrix(3.1232592,0,0,3.1232592,-1390.2156,-1384.7587)"
       style="stroke-width:0.32017836">
      <circle
         r="10.606602"
         cy="260.67712"
         cx="484.89847"
         transform="matrix(2.5054965,0,0,2.5054965,-525.57457,-35.521547)"
         id="path3910-7"
         style="color:#000000;display:inline;overflow:visible;visibility:visible;fill:#0068c8;fill-opacity:1;fill-rule:evenodd;stroke:none;stroke-width:0.45379612;marker:none;enable-background:accumulate" />
      <path
         sodipodi:nodetypes="ccccsssccssccssccccccc"
         id="path3912-0"
         d="m 696.56279,597.08268 c -0.76727,-0.0273 -5.00673,1.23525 -6.23983,2.79716 -3.72026,0.26959 -18.73621,10.49656 -27.54133,16.71129 l 0.0184,2.09787 c 4.01259,-1.5473 8.84956,-3.2592 10.74041,-3.24543 0.37153,0.002 0.6595,6.8e-4 0.78895,0.14345 0.72493,0.85433 -2.4084,5.00056 -5.59434,9.6825 -0.83414,1.22579 -2.23098,3.22959 -3.03664,4.447 l 0.7531,1.38065 c 4.37983,-5.48442 10.51172,-13.12723 12.03777,-13.35849 0.0822,-0.0115 0.15698,0.044 0.21505,0.0716 0.271,0.33125 -5.33357,9.32455 -9.8354,16.69611 l 1.57789,1.72133 c 2.18933,-3.00997 5.16918,-7.35324 7.46856,-10.528 4.78494,-6.60657 8.98073,-12.77677 11.04523,-12.83828 0.0666,0 0.15331,0.0603 0.21505,0.0716 6.36085,0.0377 12.68296,16.04457 15.95203,26.03953 l 1.2613,-1.00847 c -1.56717,-11.17531 -5.23526,-29.58458 -12.91,-34.71356 0.82229,-0.54807 0.86067,-3.37094 0.86067,-3.37094 l 2.22339,-2.79717 2.2e-4,2.3e-4 z"
         style="color:#000000;display:inline;overflow:visible;visibility:visible;fill:#ffffff;fill-opacity:1;fill-rule:evenodd;stroke:none;stroke-width:0.45379612;marker:none;enable-background:accumulate"
         inkscape:connector-curvature="0" />
    </g>
  </g>
</svg>
