<svg xmlns="http://www.w3.org/2000/svg" width="200" viewBox="0 0 199.996 200.004" height="200">
    <g stroke-width="2.904">
        <path d="M39.456 116.408l-9.75 2.168 5.75-8.93 6.582-14.934-19.698-8.587-12.097-19.069-1.5-24.13 9.148-18.991 19.066-11.73 23.727-1.248 14.466 7.286 8.197.539-6.222 5.778-18.938-1.913-16.82 4.532-9.456 10.837-3.063 15.19 6.245 11.454 8.56 1.02 30.43-30.26 15.98-2.213 15.825 8.966 7.121-5.464 10.573-3.601 12.952 4.39 21.647 26.13 7.851 1.458 6.508-8.77-.61-16.005-8.75-12.489-12.264-4.142-9.922 1.722-12.39-.982-1.757-3.908 10.261-4.029 8.23-4.166 12.602-.856 18.56 7.226 13.05 18.077 1.687 25.653-11.26 20.867-15.839 7.954.413 6.094 4.408.551-1.825 4.098-10.296.379-19.833-8.78 2.858 11.913h9.744l2.893 10.089-9.745 11.397 5.268 6.267-6.714 6.267-1.033 9.538-13.567 3.994 3.306 10.674-21.039 18.87-14.444-17.974-10.407-.894 2.966-10.673-11.88-5.457.208-8.055-8.224-8.172-6.496-22.497-21.243 7.54z" fill="#fff"/>
        <path d="M46.856 114.815c-1.25.085-2.88.645-3.973 2.604-.892 1.6-2.982 1.855-3.958 1.533-1.625-.537-3.703-.91-5.716.524-2.012 1.434-4.186.35-3.805-2.264.382-2.614 1.326-4.942 3.832-6.383 5.473-3.149 1.67-5.34 4.673-8.5 3.01-3.166 2.345-4.135 2.245-8.435-10.173-1.528-15.938-4.46-22.376-12.504-6.438-8.044-8.934-14.665-9.601-24.75-.667-10.085-.089-16.62 4.268-24.991 4.358-8.371 8.945-12.401 16.895-16.58 7.95-4.18 15.74-5.181 22.94-5.06 7.2.122 11.997.65 16.065 2.971 4.068 2.321 7.79 5.242 10.162 5.263 2.373.021 3.988-.6 5.141-1.484.308 7.817-6.728 8.496-13.022 8.662-6.295.165-10.163-2.44-15.96-1.47-5.798.968-15.29 3.606-19.914 11.655-4.624 8.049-4.782 10.894-4.397 17.644.384 6.75 6.194 11.785 9.473 11.84 3.279.055 4.011-.895 6.881-2.767 2.871-1.872 17.526-20.013 22.526-24.088 5-4.075 9.935-5.333 15.263-5.398 5.329-.066 6.69.115 10.987 1.876 4.298 1.761 6.938 5.004 10.403 6.987 1.77-1.042 2.871-2.599 4.496-3.786 5.811-4.248 8.83-5.392 15.738-4.72 3.97.386 8.975 2.654 11.962 5.251 5.318 4.624 9.711 11.062 13.262 15.952 2.765 3.809 6.018 8.366 10.662 9.79 5.071 1.555 8.887-5.013 9.447-8.656.318-2.064.732-3.873.735-6.145.004-2.272-.228-5.03-.883-7.398-.655-2.368-1.777-4.724-2.992-6.678-1.977-3.18-5.212-6.507-8.578-8.22-1.889-.96-6.333-2.707-9.135-2.768-3.432-.074-6.047 1.079-9.221 1.295-3.841.262-10.703 1.126-13.715-1.842-1.916-1.889-2.157-3.149-2.485-5.611.847.697 2.031 1.156 3.085 1.245 2.406.203 4.658-1.76 6.6-2.899 1.599-.937 3.864-2.613 5.965-3.46 5.397-2.176 12.028-2.113 17.726-1.53 4.567.467 10.489 2.499 14.494 4.765 4.025 2.277 7.903 6.116 10.744 9.735 3.573 4.553 5.527 8.46 6.822 14.14 1.654 7.251 2.113 18.146.112 25.297-1.576 5.635-6.81 14.29-11.266 18.534-4.394 4.185-9.468 6.206-15.238 7.31.225 1.165.263 2.251.561 3.206.424 1.355 1.236 2.866 2.902 2.388.665-.19 1.02-.355 1.897.411.875.767.42 3.728-2.045 5.057-1.25.673-2.568.82-4.57.86-2 .04-5.124.048-7.297-.332-2.172-.38-3.47-2.104-5.876-2.374-3.719-.416-6.566-3.103-9.548-5.024-1.244-.802-1.663-.81-2.38-1.216.387 1.186.904 2.418 1.161 3.558.258 1.14.148 2.196.285 3.109.137.911.39 1.62.537 2.36.596.533.786 1.343 1.787 1.598 1.001.254 2.569-.142 3.593-.28 1.025-.138 1.711-.696 2.515-.543.804.153 1.566.728 2.24 1.268.674.54 1.253.618 1.799 1.965.545 1.346 1.045 4.103 1.12 5.946.075 1.843-.132 3.506-.678 4.969-.546 1.462-1.026 2.11-2.505 3.559-1.479 1.448-3.887 3.574-6.29 5.054.442.656.639 1.256 1.329 1.967.69.711 2.128 1.508 2.768 2.258.64.75.964 1.289.973 2.13.01.842-.03 1.935-.714 2.853-1.701 2.283-3.713 2.693-6.16 3.767.411 2.57.747 4.405.152 6.97-.242 1.046-.782 3.416-2.071 4.024-1.29.608-3.777.314-5.351.564-1.575.25-2.456.488-3.683.732-.746 1.078-1.856 2.267-2.237 3.234-.38.966-.266 1.313.054 2.3.32.986 1.409 2.423 1.717 3.579.309 1.155.369 2.4.081 3.558-.288 1.159-.782 2-1.77 3.029-.987 1.029-2.929 1.837-3.897 2.67-.968.835-1.932.935-1.668 2.316.364 1.896 3.134 4.97 5.138 5.703 1.2.439 2.813.3 4.272-.315-.1 1.619-1.5 2.71-2.416 3.786 2.48-.71 4.884-2.067 6.547-3.866-.516 1.563-2.29 4.071-4.945 6.274-2.654 2.203-2.638 1.752-3.958 2.628 2.408.484 4.647.353 6.512.018-1.023.564-2.699 1.357-4.919 1.59-2.22.232-3.588.068-5.589-.418-2-.486-3.827-2.305-6.251-3.559.236.9.404 1.981 1.423 2.906 1.02.925 2.563 1.395 4.202 2.195-2.087-.237-4.28-.308-6.332-.76-1.518-.335-2.538-.69-3.65-1.241-1.11-.55-1.967-1.353-2.951-2.03.471.901.611 1.96 1.413 2.703.803.742 2.107 1.019 3.161 1.529-1.1-.024-2.158.214-3.298-.073-1.141-.286-2.212-.737-3.398-1.611a24.666 24.666 0 0 1-3.422-3.05c-1.012-1.1-2.26-2.527-2.639-3.541-.379-1.015.227-1.724.341-2.586-.699.46-1.558.712-2.095 1.378-.537.667-1.013 1.275-.775 2.437.238 1.161 1.31 2.58 2.068 3.873-2.262-1.85-3.525-2.562-4.063-4.793-.504-2.088.8-3.984 1.79-5.564.492-.784 1.228-1.514 1.688-2.271-1.021-1-2.189-1.86-3.064-3-.876-1.139-1.243-2.681-2.137-3.772-.894-1.09-2.096-1.781-3.143-2.67.92 1.977 2.433 4.402 2.761 5.932.328 1.53-.368 2.467-.911 3.293-.543.826-1.42 1.01-2.252 1.518-.831.507-2.124.107-2.62.86-.495.754-.628 1.888-.155 2.634l1.942 3.065c-.715-.36-1.948-1.411-2.503-2.157-.556-.745-1.409-1.433-1.526-2.44-.116-1.008-.173-1.882.48-2.78.652-.896 2.44-1.196 3.24-1.886.8-.69 1.248-1.139 1.202-2.03-.045-.892-.916-1.53-1.665-2.091-2.285-1.715-5.217-3.294-7.157-5.36-1.097-1.167-1.623-2.11-1.843-2.915-.22-.805.012-1.433.557-2.424.545-.99 2.413-2.313 2.64-3.389.227-1.075-.716-1.307-1.568-1.686-.851-.38-2.469.195-3.259-.465s.232-2.048-.658-2.808c-.89-.76-2.926-.336-3.977-1.154-1.052-.819-1.486-1.835-1.848-3.022-.363-1.187-.404-2.488-.158-3.347.245-.86.983-1.01 1.428-1.456.445-.446.83-.815.238-1.48-.593-.664-2.536.037-3.653-.816s-.433-2.895-1.223-3.757c-.79-.86-2.207-.524-2.955-.799-.748-.275-1.041.696-1.5-.84-.458-1.535-.47-6.111-1.088-7.82-.617-1.707-1.828-.114-2.391-1.812-.563-1.697-.03-4.412-.283-6.975l-1.148-6.975c-4.006 2.69-6.65 3.536-10.954 4.296-.36 10.53-1.349 16.731 2.225 28.414 3.575 11.683 10.808 18.568 20.566 28.459-12.876-9.647-19.024-17.49-22.871-27.536-3.848-10.049-3.11-18.452-2.723-28.127zm68.422-4.233c.99.045 2.194.296 2.89.748.696.451 1.434.82 2.066 1.463 1.575 1.605 2.757 3.54 3.28 5.764.333 1.417.382 3.236.503 4.9-.477-1.538-.797-3.143-1.476-4.521-1.072-2.173-2.891-4.295-5.151-5.272-.746-.323-1.244-.263-1.654-.206.183.309.49.567.504 1.018.014.452-.087 1.335-.853 1.706-1.234.599-2.606.178-3.559-.665-.96-.849-1.288-2.286-.785-3.52.6-1.471 2.884-1.475 4.235-1.415zm-12.42-2.093c.123-2.53 1.036-4.662 3.303-5.903 1.172-.64 2.977-1.47 4.637-1.665 1.594-.187 5.47-.05 7.803 1.014 1.79.818 3.01 2.09 4.583 3.02 1.573.93 2.691 1.554 4.188 2.598 2.298 1.601 3.645 3.365 5.238 4.422.767.508 1.844.432 2.862.743-.791.235-1.825.493-2.678.22-1.064-.34-2.552-1.312-3.377-2.01-1.459-1.231-2.215-1.833-3.807-2.762-.95-.554-2.515-1.206-3.56-1.887s-2.858-2.176-3.863-2.682c-1.276-.642-3.574-1-4.995-.958-1.958.057-4.792.38-6.307 1.755-1.505 1.366-2.077 2.568-1.737 4.343.567-.653.944-1.474 1.512-1.959 1.176-1.005 2.526-1.053 3.99-.863 1.645.214 2.473 1.164 3.016 2.726-.365-.269-1.037-.859-1.568-1.041-1.245-.43-2.187-.298-3.354.328-1.377.739-1.003 1.832-1.2 3.048-.092.561-.304 1.013-.455 1.52-.518-.137-.997-.353-1.388-.741.016.568-.067 1.065.05 1.704.115.638.427 1.397.64 2.096-.96-.96-1.94-1.853-2.56-3.091-.62-1.24-1.04-2.615-.974-3.975zm1.659-18.408c.707-1.05.914-2.659 1.35-3.967-.175 1.657.16 3.48-.649 4.68-.809 1.2-2.23.99-3.407 1.339.916-.698 1.999-1.003 2.706-2.052zm-16.924 24.574c.907-.735 3.357-.147 5.189-.016l-3.95 1.011c-.123.448-.067.962-.368 1.344-.3.382-.872.523-1.308.785.043-1.177-.471-2.39.437-3.124zm12.909-51.037c1.094.589 2.482 1.367 3.447 1.392.966.024 1.219-.632 1.787-1.01.894 2.914 1.92 6.117 3.442 8.762.638 1.108 1.044.593 1.53 1.706.483 1.114.699 3.379 1.158 4.801.46 1.423 1.06 2.47 1.59 3.704-1.346-1.907-3.085-4.338-3.834-5.924-.75-1.587-.27-1.725-.877-3.236-.606-1.51-1.833-3.866-2.75-5.799-.656.087-1.469.207-1.967.053-.5-.154-.4-.685-.85-1.028-.452-.343-1.21-.21-1.843-.757-.632-.547-.776-1.67-.833-2.664zM94.614 78c1.029-.09 2.307.186 3.27.131.964-.054 1.652-.304 2.478-.457-.153-1.452-.007-4.119-1.348-5.088-.865-.626-4.42-.155-5.37.05-2.137.46-4.626 1.736-6.692 2.534 1.98-1.384 3.691-2.666 6.067-3.38 1.428-.43 4.76-.988 6.234-.59.673.182.809.46 1.217 1.03 1.403 1.96 1.399 3.652 1.763 5.933.357.558.738.93 1.028 1.505.29.575.454 1.48.534 2.22-.367-.533-.142-1.2-1.159-1.597-1.017-.396-2.575-.026-3.946.117 1 .721 1.496 1.416 1.534 2.94.045 1.79-1.47 3.078-3.053 3.2-2.196.17-3.329-.311-4.217-2.189-.39-.822-.107-1.811-.14-2.613-2.639.184-2.596.098-4.525 1.706 1.049 1.536 1.71 2.42 3.442 3.338.971.516 2.072 1.017 3.276 1.222 1.204.205 3.18.403 4.445.209 1.265-.194 1.982-.555 2.92-1.423s1.024-2.11 1.39-3.092c-.083.945-.191 2.149-.542 2.835-1.067 2.084-2.913 2.702-5.117 2.708-2.116.007-4.733-.48-6.701-1.297-1.574-.652-4.182-2.499-4.801-4.103-.424-1.097-.089-2.442-.133-3.663 2.179-1.449 2.718-1.093 5.296-1.517 1.079-.178 1.82-.578 2.85-.669zM81.92 68.187c.061-.868.157-.85.236-1.275-1.985-.53-2.78.757-3.945 3.149-.435.895-.004 1.427-.471 2.017-.467.589-1.219.506-1.977 1.072-.758.565-1.509 1.648-2.217 2.234-1.454 1.202-3.42 1.936-5.106 2.745 1.151-.85 3.386-2.14 4.11-3.374.383-.654.326-1.889.923-2.477.597-.59.806-.996 1.577-1.147.77-.15.46-1.043.709-1.753.249-.71.744-1.214 1.27-1.923.527-.71 1.192-1.775 2.232-2.161 1.04-.387 2.663.03 3.45-.192.787-.223.335-.795.907-1.139.573-.343 1.686-.192 2.45-.56 1.356-.65 2.005-1.739 2.82-2.904.118 2.508.09 4.313-.812 6.672-1.014 2.655-2.043 4.219-4.923 5.852-.992.562-1.98.757-2.802 1.052.48-.654 1.166-.938 1.439-1.962.272-1.025.069-3.058.13-3.926zm46.498 12.226c-1.37.089-1.694-.091-2.79.682l1.781 2.772c-.052-1.824.125-2.19 1.009-3.454zm-3.588-1.326c1.897-.808 3.549-1.461 5.612-1.59.827-.052 2.111.076 2.947.114.711-1.048 1.618-1.874 1.95-3.07.22-.792.112-4.473-.278-5.428-1.134-2.781-2.237-2.899-3.799-4.492-1.133-1.155-1.178-2.914-1.517-4.885-.124-.724-.48-1.64-.646-2.388-2.042-.344-4.237-.457-6.585-.34 1.139-1.092 2.24-2.09 2.566-3.73.326-1.64.06-3.655-.871-5.126-.932-1.47-2.421-2.75-3.788-3.949-1.367-1.198-3.327-2.187-4.622-3.167 1.685-.603 3.405-1.49 5.055-1.809 4.3-.834 8.004.441 12.15 2.949 2.412 1.458 4.406 2.843 6.926 5.482 2.52 2.638 5.646 7.477 8.085 10.347 2.44 2.87 4.41 5.14 6.538 6.852 2.128 1.712 4.055 2.2 6.082 3.299l3.16 3.355 2.557-3.164 4.114.465.85-4.618 3.776-1.035-.616-6.225 2.715-1.927-2.04-3.873 2.073-4.233-2.703-4.838 1.042-4.659-3.129-2.666-.408-4.95-4.366-1.666-1.75-4.307-4.909-.055-2.408-3.197-3.304.231-3.683-.4-2.083-1.539-3.023 2.007-3.658-1.907-7.27 2.76 4.74-4.122 4.91-.784 3.762-.96 5.081 1.67 4.472-1.134 4.312 2.55 4.563-.253 2.242 4.022 4.543.525 2.459 4.472 2.857 1.56.759 5.728 2.545 2.414-1.12 5.013 2.999 3.795-2.811 4.068 3.006 2.542-3.843 3.406 3.892 4.053-4.7 1.516 3.061 4.347-3.839.662 2.518 4.78-4.327-.057 2.18 3.58-4.746-.571 1.135 5.15-3.587-3.154-1.228 6.242-2.475-4.482-1.34 5.59-3.056-4.122.083 5.863-3.377-5.272c.712 2.991.57 6.266 2.534 9.086 6.087-.824 10.065-2.358 14.728-6.844 4.247-4.087 9.323-12.608 10.697-18.012 1.569-6.167 1.617-17.509.072-23.788-1.486-6.045-3.419-8.932-6.871-13.865-3.3-3.505-6.546-7.208-10.735-9.707-6.148-3.669-14.032-4.658-21.039-4.563-3.88.053-6.479.798-8.799 1.642-4.056 1.475-7.3 4.693-11.425 6.283-1.345.518-2.423.534-3.482-.031 1.037 2.075 2.166 3.005 4.752 3.76 1.871.546 6.336.201 9.41-.083 3.299-.304 5.02-1.285 9.51-1.224 4.386.06 7.86 1.726 9.76 2.813 3.92 2.241 6.732 4.728 9.175 8.667 1.341 2.163 2.28 4.604 2.943 7.095.662 2.49.951 5.28.994 7.718.042 2.438-.144 4.614-.74 6.809-1.395 5.136-4.473 10.363-10.794 9.556-3.868-.495-9.7-7.755-11.653-10.419-3.94-5.376-7.996-11.325-12.947-15.802-3.02-2.729-7.153-4.607-11.212-4.978-7.616-.697-9.875.75-15.607 5.474 1.166.372 2.305.577 3.5 1.116 2.652 1.195 5.078 2.74 7.194 4.72 2.217 2.078 3.212 3.392 3.29 6.365.053 1.975-1.571 3.558-3.06 4.983-.912.872-2.118 1.67-2.856 2.347-.977.899-2.188 1.881-.96 3.312.462.538 1.264.944 1.941 1.446 1.074.797.582 3.76-.833 4.546-1.81 1.004-3.973.892-5.466-.453 1.884-.282 3.081-.532 3.032-2.073-.028-.894-1.164-1.636-2.28-2.144-2.688-1.226-4.719-1.045-7.395-2.97-2.703-1.947-2.763-3.012-3.493-6.067-1.303.136-2.503.166-4.246.743-1.743.577-3.669 1.95-5.25 2.29-3.985.858-4.78.603-6.96.04-3.84-.995-8.838.707-13.804 2.295-.826.264-4.166.009-6.414.798-3.472 1.218-8.344 4.168-11.158 6.538-4.263 3.591-9.866 14.338-13.032 26.673-.333 3.75.734 6.276-1.629 8.108-2.362 1.831-2.296 6.524-3.097 7.84-.801 1.315-1.728.734-3.452 2.582-1.724 1.848-2.602 1.539-2.559 5.033 1.486-.977 3.652-2.112 5.554-2.18 1.685-.062 1.703 2.156 6.026-2.118 2.312-2.287 6.754-2.357 9.837-3.365 3.082-1.009 8.636-3.087 14.2-9.306 5.562-6.22 8.224-12.767 9.303-22.233.172 1.678.47 3.571-.248 8.2-.719 4.63-2.268 9.83.995 16.058l2.033 3.88c-1.21-1.651-3.574-4.346-4.286-6.266l-1.642-4.429c-3.673 5.767-4.517 6.799-9.62 10.93-.203 2.564-.253 5.237.585 7.69.838 2.452-.497 5.279.14 6.894.637 1.615 2.111.696 2.593 2.331.481 1.636-.252 4.869.495 6.462.746 1.594 2.578.627 3.466 1.142.887.515 1.178 1.22 1.652 1.898.475.677-.185 2.278.78 2.797.965.52 2.471.08 3.476.579 1.004.499 1.157 1.698.916 2.773-.241 1.074-1.314 1.567-1.786 2.66-.47 1.093-.418 1.853.148 2.857.566 1.004 1.82 1.556 3.069 2.063 1.249.506 3.004.222 4.293.922 1.29.7 2.448 2.096 3.129 3.11.68 1.015.87 1.73.835 2.796-.035 1.067-.468 2.295-1.037 3.325-.569 1.03-1.825 2.283.136 4.25 1.96 1.966 1.888 1.118 3.011 2.394-.122-2.207-1.034-4.004-.367-5.666.667-1.661 2.67-1.95 3.725-2.697 1.055-.748 1.663-1.775 2.495-2.662-.012 1.142.11 2.369-.02 3.228-.264 1.748-.78 3.3 1.824 3.58 1.173.125 2.287-.635 3.521-1.092-.646 1.158-1.77 2.09-1.94 3.475-.169 1.386.034 2.907.994 4.282s2.616 2.395 3.83 3.203c1.214.808 1.864.873 2.797 1.31.046 1.362-.222 2.804-.067 4.087s.56 2.418 1.301 3.479c.743 1.06 1.933 1.67 3.054 2.454-.614-1.432-1.861-2.79-1.844-4.295.016-1.504.468-2.57 1.935-3.905 1.468-1.336 4.903-2.494 6.523-3.792 1.62-1.298 2.143-2.094 2.725-3.354.581-1.26.42-3.292.527-4.425.533 1.587.61 2.08.783 3.742.174 1.66-.968 3.99-1.452 5.22 2.004-.968 3.276-2.515 3.918-4.027.43.255.214.953.372 2.3.714-.71 1.526-1.258 2.245-1.928.72-.67 1.507-1.26 1.865-2.196.356-.935.21-1.93-.056-3.017-.265-1.087-1.48-2.348-2.134-3.537-.654-1.188.116-2.355.071-3.788-1.309-.224-2.42-.891-3.924-.674-1.506.216-3.23 1.905-4.767 1.924-1.539.02-2.402-1.421-3.663-1.817-1.261-.396-2.537-.353-3.805-.529 1.606-1.538 7.84-2.271 12.103-2.966 3.752-.612 7.474-.966 11.275-1.02 1.698-.023 3.88.537 5.058.198 1.18-.338.928-1.141 1.278-2.017.979-2.447.496-4.627-.036-7.091-3.412-.4-6.968-.89-10.406-.626-3.361.258-7.342 1.856-10.809 1.964-3.014.094-7.478-.577-10.066-2.155-3.163-1.928-5.61-6.068-6.479-7.398-1.415-2.165-3.2-6.414-4.286-8.356-1.085-1.942-1.324-2.486-2.227-3.297-.904-.81-2.14-.873-3.21-1.31 1.233.126 2.58-.264 3.7.378 1.683.966 3.568 4.97 4.615 6.711 1.11-3.72.85-5.183 4.062-7.28-2.588 2.9-2.652 5.097-3.283 8.513 2.152 3.532 5.144 9.158 9.059 10.72 1.414.564 3.843.918 5.371 1.107 4.758.589 9.348-.919 14.02-2.073 3.416-.843 6.882-.504 11.037-.26 1.41.083 4.736-.765 5.424-2.192.372-.77.345-1.694-.19-2.515-.534-.82-1.958-1.216-2.722-1.955-.763-.738-1.202-1.614-1.803-2.422-3.173.61-5.783.843-8.139.907 1.69-.696 3.31-1.093 5.069-1.78 1.758-.688 3.754-1.817 5.173-2.753 1.42-.937 2.325-1.48 3.352-2.57 1.026-1.092 2.342-2.215 3.099-3.549.757-1.333.874-2.824.917-4.474.042-1.65-.03-3.965-.666-5.294-.635-1.329-1.861-1.732-2.846-2.046-.985-.315-1.66.48-2.684.588-1.025.107-1.983.753-3.465.056-1.482-.697-3.238-2.115-4.737-4.22-1.498-2.107-2.569-5.549-4.096-8.197-2.633-4.564-5.913-8.828-9.05-13.057-.258-1.043-.646-2.485-.776-3.9-.225-2.465-.267-5.026.498-7.43.586-1.84 1.44-3.785 3.367-4.54.771-.303 1.747-.423 2.437-.167.69.255 1.366 1.033 1.095 1.933-.298.989-.983 1.016-1.448 1.515-.79.847-1.107 1.468-1.405 2.525.854-.014 2.008-.08 2.71.105.915.241 1.767.848 2.231 2.145-1.092-.969-1.635-1.413-2.998-1.448-.624-.015-1.383.208-2.074.312-.259.84-.41 1.87-.775 2.52-.365.65-1.075.495-1.341 1.254-.267.759-.282 1.993-.148 2.99zm9.543-1.139c.419.165.578.202 1.108.605.53.403 1.26.806 1.68 1.769.421.964.401 2.454.312 3.061-.369-.108-.871-.035-1.253-.362-.381-.327-.609-1.067-1.098-1.383-.49-.317-.898-.248-1.439-.316.278.79.413 1.581.284 2.298-.28 1.565-1.2 2.358-2.69 2.545-.65.082-1.683-.132-2.25-.235.263.586.708 1.1.97 1.685 1.26-.182 2.193-.156 2.87-.473.678-.317 1.404-1.026 2.273-1.327.87-.3 1.645-.296 2.596-.444-.749.646-1.24 1.291-1.989 1.937l1.646 4.785c1.164.728 2.255 1.112 3.721 2.01 1.467.9 3.226 2.508 5.136 3.385 1.91.877 3.047 1.354 5.043 1.73 1.995.377 3.583 1.993 5.547 2.256 1.963.262 5.631.315 7.145.168 1.718-.168 3.95-1.055 4.15-2.939-1.44.356-3.64.037-4.752-2.674-.493-1.204-.25-3.418-1.006-4.841-.754-1.424-1.806-1.88-3.063-3.635-1.257-1.754-3.313-4.52-4.467-6.87-1.153-2.35-1.425-5.012-2.4-7.118-.977-2.105-2.449-3.805-3.59-5.428-2.49-3.547-4.5-5.97-8.603-7.76-1.974-.86-4.22-1.09-6.331-1.635-.859.385-2.037.81-2.246 1.814-.209 1.005.193 2.488.922 3.242 1.22 1.26 3.028 2.623 3.738 4.627.457 1.286.59 5.596.194 6.766-.41 1.214-1.365 1.949-2.158 2.757zm.398 10.203c-.382.329-.672.666-1.286.94-.612.272-1.449.343-2.262.546 1.14 1.775 2.338 3.568 3.43 5.434 1.093 1.866 2.04 3.909 3.083 5.862-.05-1.12.017-2.313-.146-3.36-.163-1.046-.637-1.961-1.107-3.532-.47-1.57-1.047-3.707-1.712-5.89zM104.097 49.13c-.161 1.745.134 4.475.496 6.184.433 2.046.85 3.107 2.51 4.34 3.04 2.257 4.982 1.876 7.32 3.185 1.114.623 2.524 1.667 2.936 2.77.411 1.104-.272 2.302-1.116 2.773 1.476.22 3.131-1.444 2.44-3.153-.34-.84-1.959-1.215-2.455-2.064-.496-.848-.495-1.721-.261-2.583.421-1.552 3.494-2.964 4.58-4.191 1.67-1.89 2.312-3.47 1.365-5.902-1.328-3.417-6.462-6.16-9.534-7.5-1.407-.615-2.196-.659-3.294-.987 2.247 1.316 4.616 2.365 5.752 5.309.95 2.458.127 3.384.16 5.524.014.993 1.32 1.489 1.9 2.116.506.545.465.95.062 1.702-.045-.679-.335-1.185-.856-1.554-.86-.61-1.787-.479-2.245-1.729-.695-1.9.684-3.7-.867-5.835-1.16-1.597-2.703-3.384-4.784-3.43-.985-.023-1.726.126-2.778.437l-1.403-1.688-.033-.022c-2.853-2.604-4.805-4.75-8.808-6.54s-5.976-2.06-10.565-1.959c-4.59.102-9.145.486-14.46 5.07-5.316 4.584-19.016 22.137-22.338 24.359-3.323 2.222-4.058 2.974-8.21 2.975-4.15.001-10.63-5.87-10.884-13.209-.254-7.339-.356-9.947 4.746-18.788 5.101-8.84 14.343-11.555 21.2-12.472 6.858-.917 10.978 1.499 16.05 1.51 5.072.012 10.085-.864 11.563-4.898-.723.43-1.692.916-4.418.774-2.726-.143-6.505-3.3-10.757-5.414-4.251-2.114-8.982-2.361-15.05-2.476-6.068-.115-13.64.349-21.142 4.399-7.502 4.05-12.622 8.346-16.973 16.272-4.351 7.926-5.001 14.398-4.3 23.994.702 9.597 3.662 16.735 9.36 23.759 5.7 7.024 11.395 10.46 21.665 11.738l2.162-9.536-3.86 5.539.096-6.16-3.491 4.331-1.531-5.875-2.829 4.71-1.405-6.56-4.098 3.316 1.297-5.413-5.423.6 2.491-3.762-4.945.06 2.878-5.022-4.388-.697 3.499-4.568-5.372-1.593 4.447-4.258-4.39-3.58 3.434-2.67-3.212-4.274 3.426-3.989-1.279-5.267 2.91-2.536.865-6.019 3.265-1.64 2.81-4.698 5.192-.551 2.561-4.227 5.215.266 4.928-2.679 5.111 1.19 5.806-1.753 4.3 1.008 5.61.824 5.418 4.332-8.31-2.9-4.18 2.004-3.455-2.11-2.38 1.617-4.209.421-3.775-.244-2.752 3.36-5.61.057-2 4.526-4.988 1.75-.467 5.202-3.576 2.802 1.191 4.895-3.089 5.084 2.37 4.447-2.332 4.07 3.103 2.025-.704 6.541 4.315 1.088.972 4.852 4.702-.488 2.921 3.325 3.611-3.526c6.582-3.282 9.293-5.118 14.423-10.666 5.84-6.316 9.186-12.156 16.965-16.48 5.579-3.102 10.129-4.218 16.396-3.136 5.884 1.017 7.854 4.546 12.187 8.264.46-.831.553-1.052 1.31-1.664-.238 1.08-.615 2.2-.711 3.239z"/>
    </g>
</svg>
