<?xml version="1.0" encoding="UTF-8" standalone="no"?>
<svg
   xmlns:dc="http://purl.org/dc/elements/1.1/"
   xmlns:cc="http://creativecommons.org/ns#"
   xmlns:rdf="http://www.w3.org/1999/02/22-rdf-syntax-ns#"
   xmlns:svg="http://www.w3.org/2000/svg"
   xmlns="http://www.w3.org/2000/svg"
   version="1.1"
   id="svg2"
   height="200"
   width="200">
  <defs
     id="defs4" />
  <metadata
     id="metadata7">
    <rdf:RDF>
      <cc:Work
         rdf:about="">
        <dc:format>image/svg+xml</dc:format>
        <dc:type
           rdf:resource="http://purl.org/dc/dcmitype/StillImage" />
        <dc:title />
      </cc:Work>
    </rdf:RDF>
  </metadata>
  <g
     transform="translate(0,-852.3622)"
     id="layer1">
    <path
       id="path1301"
       transform="translate(0,852.3622)"
       d="m 7.8007812,48.935547 c 0,0 -1.8013173,-0.04857 -3.7109374,0.90625 C 2.1802252,50.796597 0,53.428581 0,56.738281 v 86.523439 c 0,3.30969 2.1802252,5.94168 4.0898438,6.89648 1.90962,0.9548 3.7109374,0.90625 3.7109374,0.90625 H 29.787109 V 143.9707 H 7.8007812 c 0,0 -0.3249337,-0.0472 -0.5429687,-0.15625 -0.2180365,-0.10902 -0.1660156,0.39289 -0.1660156,-0.55273 V 56.738281 c 0,-0.94563 -0.052024,-0.443724 0.1660156,-0.552734 0.218035,-0.10902 0.5429687,-0.15625 0.5429687,-0.15625 H 192.19727 c 0.94563,0 0.44371,-0.05012 0.55273,0.167969 0.10908,0.21803 0.1582,0.541015 0.1582,0.541015 v 86.523439 c 0,0 -0.0492,0.32494 -0.1582,0.54297 -0.10908,0.21804 0.3929,0.16601 -0.55273,0.16601 H 39.716797 v 7.09375 H 192.19727 c 3.30968,0 5.94168,-2.1783 6.89648,-4.08789 C 200.04856,145.06693 200,143.26172 200,143.26172 V 56.738281 c 0,0 0.0486,-1.80327 -0.90625,-3.71289 -0.9548,-1.90962 -3.5868,-4.089844 -6.89648,-4.089844 z M 27.787109,75.888672 V 125.5332 h 7.091797 v -15.84765 l 5.056641,-5.75 14.802734,21.59765 h 9.927735 L 45.052734,98.582031 65.246094,75.888672 H 56.15625 L 34.878906,100.00195 V 75.888672 Z m 60.992188,0 -17.609375,49.644528 h 8.347656 l 4.75586,-14.18359 h 18.478512 l 5.13477,14.18359 h 8.50976 L 96.539062,75.888672 Z m 35.460933,0 V 125.5332 h 29.78711 v -7.09179 H 132.03906 V 75.888672 Z m 36.46094,0 V 125.5332 h 7.80274 V 75.888672 Z m -67.626951,7.71875 7.632811,22.068358 H 85.988281 Z"
       style="color:#000000;font-style:normal;font-variant:normal;font-weight:normal;font-stretch:normal;font-size:medium;line-height:normal;font-family:sans-serif;font-variant-ligatures:normal;font-variant-position:normal;font-variant-caps:normal;font-variant-numeric:normal;font-variant-alternates:normal;font-feature-settings:normal;text-indent:0;text-align:start;text-decoration:none;text-decoration-line:none;text-decoration-style:solid;text-decoration-color:#000000;letter-spacing:normal;word-spacing:normal;text-transform:none;writing-mode:lr-tb;direction:ltr;text-orientation:mixed;dominant-baseline:auto;baseline-shift:baseline;text-anchor:start;white-space:normal;shape-padding:0;clip-rule:nonzero;display:inline;overflow:visible;visibility:visible;opacity:1;isolation:auto;mix-blend-mode:normal;color-interpolation:sRGB;color-interpolation-filters:linearRGB;solid-color:#000000;solid-opacity:1;vector-effect:none;fill:#527d97;fill-opacity:1;fill-rule:evenodd;stroke:none;stroke-width:5;stroke-linecap:butt;stroke-linejoin:round;stroke-miterlimit:4;stroke-dasharray:none;stroke-dashoffset:0;stroke-opacity:1;color-rendering:auto;image-rendering:auto;shape-rendering:auto;text-rendering:auto;enable-background:accumulate" />
  </g>
</svg>
