<?xml version="1.0" encoding="UTF-8" standalone="no"?>
<svg
   xmlns:dc="http://purl.org/dc/elements/1.1/"
   xmlns:cc="http://creativecommons.org/ns#"
   xmlns:rdf="http://www.w3.org/1999/02/22-rdf-syntax-ns#"
   xmlns:svg="http://www.w3.org/2000/svg"
   xmlns="http://www.w3.org/2000/svg"
   xmlns:sodipodi="http://sodipodi.sourceforge.net/DTD/sodipodi-0.dtd"
   xmlns:inkscape="http://www.inkscape.org/namespaces/inkscape"
   xml:space="preserve"
   enable-background="new 0 0 779.617 170.079"
   viewBox="0 0 200 200"
   height="200"
   width="200"
   y="0px"
   x="0px"
   id="kubuntu__x5F__black"
   version="1.1"
   sodipodi:docname="kubuntu.svg"
   inkscape:version="0.92.3 (2405546, 2018-03-11)"><sodipodi:namedview
     pagecolor="#ffffff"
     bordercolor="#666666"
     borderopacity="1"
     objecttolerance="10"
     gridtolerance="10"
     guidetolerance="10"
     inkscape:pageopacity="0"
     inkscape:pageshadow="2"
     inkscape:window-width="1920"
     inkscape:window-height="1016"
     id="namedview11"
     showgrid="false"
     inkscape:zoom="1.18"
     inkscape:cx="100"
     inkscape:cy="100"
     inkscape:window-x="0"
     inkscape:window-y="27"
     inkscape:window-maximized="1"
     inkscape:current-layer="kubuntu__x5F__black" /><metadata
     id="metadata27"><rdf:RDF><cc:Work
         rdf:about=""><dc:format>image/svg+xml</dc:format><dc:type
           rdf:resource="http://purl.org/dc/dcmitype/StillImage" /><dc:title /></cc:Work></rdf:RDF></metadata><defs
     id="defs25" /><g
     style="stroke-width:0.29527789"
     transform="matrix(3.38664,0,0,3.38664,10.000032,-487.3286)"
     id="g10398"><path
       style="fill:#0079c1;stroke-width:0.29527789"
       d="m 53.150015,173.42432 c 0,14.67627 -11.898295,26.57565 -26.575518,26.57565 -14.67664,0 -26.574506019238,-11.89938 -26.574506019238,-26.57565 0,-14.67645 11.897866019238,-26.57396 26.574506019238,-26.57396 14.677223,0 26.575518,11.89751 26.575518,26.57396 z"
       id="path2819-8-3-8"
       inkscape:connector-curvature="0" /><path
       id="path79-9-8-1"
       style="fill:#ffffff;fill-opacity:1;stroke-width:0.29527789"
       d="m 17.869335,182.9174 0.903159,-19.59371 -6.005741,-5.47068 c -0.142739,-0.0932 -0.330641,-0.0739 -0.450558,0.0469 l -2.7745938,2.7741 c -0.116654,0.11702 -0.138634,0.29877 -0.05265,0.44042 l 3.2483378,5.34981 c -0.576148,0.96862 -1.037574,2.01308 -1.367614,3.11478 l -5.9637578,1.24045 c -0.165926,0.0344 -0.285479,0.18138 -0.285479,0.35166 v 3.92314 c 0,0.16593 0.113274,0.30963 0.273159,0.34827 l 5.7882948,1.41483 c 0.308664,1.27596 0.787117,2.48574 1.419298,3.59746 l -3.3502598,5.10914 c -0.09347,0.14273 -0.07391,0.33088 0.04686,0.45115 l 2.7737468,2.77412 c 0.116655,0.11641 0.298763,0.13887 0.441017,0.0534 l 5.356787,-5.92518 z"
       inkscape:connector-curvature="0" /><path
       id="path79-9-8-1-7"
       style="fill:#ffffff;fill-opacity:1;stroke-width:0.29527789"
       d="m 22.433659,161.22231 16.783015,10.2915 7.882453,-1.72539 c 0.153822,-0.0735 0.234952,-0.2441 0.194085,-0.4093 l -0.928468,-3.81209 c -0.03936,-0.16048 -0.183225,-0.27369 -0.34893,-0.27383 l -6.258768,-0.005 c -0.528211,-0.99557 -1.18083,-1.93253 -1.950624,-2.78698 l 2.039034,-5.73999 c 0.05681,-0.15965 -0.0066,-0.33816 -0.152115,-0.42664 l -3.35193,-2.03853 c -0.141766,-0.0862 -0.323406,-0.0641 -0.439502,0.0524 l -4.21653,4.21062 c -1.250563,-0.39929 -2.532809,-0.61912 -3.811155,-0.65666 l -2.624384,-5.51726 c -0.07339,-0.15403 -0.244303,-0.23507 -0.409818,-0.1944 l -3.811487,0.92841 c -0.160078,0.0392 -0.273896,0.1831 -0.274765,0.34907 l 1.679889,7.75382 z"
       inkscape:connector-curvature="0" /><path
       id="path79-9-8-1-5"
       style="fill:#ffffff;fill-opacity:1;stroke-width:0.29527789"
       d="m 38.88735,176.14233 -16.936122,9.2851 -2.049093,7.75512 c -0.0095,0.17022 0.101024,0.32339 0.265524,0.367 l 3.788831,1.01923 c 0.159628,0.0426 0.328079,-0.029 0.407893,-0.17424 l 3.013853,-5.48533 c 1.12691,0.0157 2.262261,-0.10593 3.381617,-0.36995 l 4.052043,4.5482 c 0.112655,0.12659 0.299681,0.15681 0.447218,0.0718 l 3.399311,-1.95851 c 0.14377,-0.0828 0.211738,-0.25272 0.165404,-0.41055 l -1.663709,-5.72173 c 0.951493,-0.90443 1.760885,-1.92295 2.408569,-3.02571 l 6.099455,0.35234 c 0.170342,0.01 0.323599,-0.10114 0.36753,-0.26582 l 1.018995,-3.78828 c 0.04263,-0.15919 -0.02882,-0.32819 -0.173915,-0.40877 l -7.993404,-1.78991 z"
       inkscape:connector-curvature="0" /><path
       style="fill:#0079c1;fill-opacity:1;stroke-width:0.29527789"
       d="m 39.40274,173.42476 c 0,7.08422 -5.743299,12.82804 -12.827981,12.82804 -7.084403,0 -12.827493,-5.74382 -12.827493,-12.82804 0,-7.08432 5.74309,-12.82723 12.827493,-12.82723 7.084682,0 12.827981,5.74291 12.827981,12.82723 z"
       id="path2819-8-3-8-5"
       inkscape:connector-curvature="0" /></g></svg>