<?xml version="1.0" encoding="UTF-8" standalone="no"?>
<svg
   xmlns:dc="http://purl.org/dc/elements/1.1/"
   xmlns:cc="http://creativecommons.org/ns#"
   xmlns:rdf="http://www.w3.org/1999/02/22-rdf-syntax-ns#"
   xmlns:svg="http://www.w3.org/2000/svg"
   xmlns="http://www.w3.org/2000/svg"
   xmlns:xlink="http://www.w3.org/1999/xlink"
   xmlns:sodipodi="http://sodipodi.sourceforge.net/DTD/sodipodi-0.dtd"
   xmlns:inkscape="http://www.inkscape.org/namespaces/inkscape"
   version="1.1"
   id="svg3303"
   height="200"
   width="200"
   sodipodi:docname="distro-linux-mint.svg"
   inkscape:version="0.92.0 r">
  <sodipodi:namedview
     pagecolor="#ffffff"
     bordercolor="#666666"
     borderopacity="1"
     objecttolerance="10"
     gridtolerance="10"
     guidetolerance="10"
     inkscape:pageopacity="0"
     inkscape:pageshadow="2"
     inkscape:window-width="1920"
     inkscape:window-height="1016"
     id="namedview25"
     showgrid="false"
     inkscape:zoom="1"
     inkscape:cx="15.976368"
     inkscape:cy="61.521858"
     inkscape:window-x="0"
     inkscape:window-y="27"
     inkscape:window-maximized="1"
     inkscape:current-layer="svg3303" />
  <defs
     id="defs3305">
    <linearGradient
       id="linearGradient3312">
      <stop
         id="stop3314"
         offset="0"
         style="stop-color:#c7f994;stop-opacity:1;" />
      <stop
         id="stop3316"
         offset="1"
         style="stop-color:#87cf3e;stop-opacity:1;" />
    </linearGradient>
    <linearGradient
       id="linearGradient3431">
      <stop
         style="stop-color:#3d3d3d;stop-opacity:1;"
         offset="0"
         id="stop3433" />
      <stop
         style="stop-color:#000000;stop-opacity:0.11400651;"
         offset="1"
         id="stop3435" />
    </linearGradient>
    <filter
       id="filter3291"
       color-interpolation-filters="sRGB">
      <feGaussianBlur
         id="feGaussianBlur3293"
         stdDeviation="0.400625" />
    </filter>
    <filter
       id="filter3546"
       color-interpolation-filters="sRGB">
      <feGaussianBlur
         id="feGaussianBlur3548"
         stdDeviation="0.15992437" />
    </filter>
    <linearGradient
       y2="408.57144"
       x2="116.42857"
       y1="362.14285"
       x1="61.42857"
       gradientTransform="matrix(1.6579894,0,0,1.6579894,-63.61073,-551.20616)"
       gradientUnits="userSpaceOnUse"
       id="linearGradient3081"
       xlink:href="#linearGradient3312" />
    <linearGradient
       y2="375.87961"
       x2="113.64215"
       y1="416.38858"
       x1="70.491508"
       spreadMethod="pad"
       gradientTransform="translate(0,80)"
       gradientUnits="userSpaceOnUse"
       id="linearGradient3083"
       xlink:href="#linearGradient3431" />
    <filter
       inkscape:collect="always"
       style="color-interpolation-filters:sRGB"
       id="filter4543"
       x="-0.056894674"
       width="1.1137893"
       y="-0.063463875"
       height="1.1269278">
      <feGaussianBlur
         inkscape:collect="always"
         stdDeviation="4.1237044"
         id="feGaussianBlur4545" />
    </filter>
  </defs>
  <metadata
     id="metadata3308">
    <rdf:RDF>
      <cc:Work
         rdf:about="">
        <dc:format>image/svg+xml</dc:format>
        <dc:type
           rdf:resource="http://purl.org/dc/dcmitype/StillImage" />
        <dc:title />
      </cc:Work>
    </rdf:RDF>
  </metadata>
  <path
     inkscape:connector-curvature="0"
     d="m 93.64434,181.18636 c -32.34679,0 -60.4175,-24.52192 -60.4175,-56.83973 l -0.029,-39.24078 V 75.09947 H 12.69025 V 25.2411 l 86.481,0.40727 27.05261,0.0582 c 32.37586,0 60.41748,24.49274 60.41748,56.83956 v 98.64022 H 93.6444 v 0 0 z m 79.81965,-26.46021 c 0,-21.48857 0,-72.18001 0,-72.18001 0,-24.11448 -21.1475,-43.66226 -47.24019,-43.66226 H 99.14213 v -0.0582 l -73.2456,-0.32005 v 23.41653 c 0,0 2.9419,0 8.20496,0 5.57049,0 12.27348,5.23482 12.27348,12.91674 l 0.0582,49.47886 c 0,24.11449 21.14761,43.66224 47.21117,43.66224 h 64.35083 c 8.24982,0 15.46881,-5.22455 15.46881,-13.25386 z"
     style="display:inline;overflow:visible;visibility:visible;opacity:0.5;fill:#000000;fill-opacity:1;fill-rule:evenodd;stroke:none;stroke-width:1;marker:none;enable-background:accumulate;filter:url(#filter4543)"
     id="path4533" />
  <path
     style="display:inline;fill:url(#linearGradient3081);fill-opacity:1;fill-rule:evenodd"
     d="m 177.16464,152.98889 c 0,-22.36495 0,-75.12376 0,-75.12376 0,-25.09796 -22.00998,-45.44296 -49.1668,-45.44296 H 99.81168 v -0.0606 L 23.57885,32.02848 v 27.41018 c 0,0 6.2245,0 11.70221,0 8.16841,0 9.61144,5.6388 9.61144,13.44354 l 0.0606,48.45811 c 0,25.09797 22.01007,45.44294 49.13658,45.44294 h 66.97531 c 8.58628,0 16.09968,-5.43762 16.09968,-13.79439 z"
     id="path2576"
     inkscape:connector-curvature="0" />
  <path
     style="display:inline;opacity:0.17514122;fill:url(#linearGradient3083);fill-opacity:1;fill-rule:nonzero;filter:url(#filter3291)"
     d="m 142.9375,500.53125 c -10.75182,-7.40935 -18.36682,-15.92034 -24.78125,-27.1875 -12.64444,-23.35809 -9.68791,-34.95326 -41,-37.6875 -9.036289,0 -15.051217,-2 -24.5625,-2 v 3.3125 c 10e-7,10e-6 3.758681,1.90749 7.0625,1.90749 4.926697,1e-5 5.78125,3.41765 5.78125,8.125 l 0.03125,29.15501 c -3e-6,15.13758 13.295158,27.40625 29.65625,27.40625 H 135.5 c 2.96358,0 5.62572,-1.16787 7.4375,-3.03125 z"
     id="path3419"
     transform="matrix(1.5930206,0,0,1.5930206,-57.18503,-638.02105)"
     inkscape:connector-curvature="0" />
  <path
     style="display:inline;overflow:visible;visibility:visible;fill:#000000;fill-opacity:0.08040203;fill-rule:evenodd;stroke:none;stroke-width:4.7667098;marker:none;filter:url(#filter3546);enable-background:accumulate"
     d="m 105.51844,438.54009 c -3.83671,0 -7.245744,1.42445 -9.984837,4.1914 -2.737725,2.76548 -4.1752,6.21796 -4.17519,10.11421 v 19.69466 h 8.932957 V 452.8457 c 0,-1.49338 0.48728,-2.66108 1.55355,-3.73818 1.06977,-1.08055 2.2026,-1.56971 3.67352,-1.56971 1.50175,0 2.61758,0.4867 3.68969,1.56971 1.06628,1.0771 1.55356,2.2448 1.55356,3.73818 v 19.69466 h 8.93297 V 452.8457 c 0,-1.49338 0.48728,-2.66108 1.55356,-3.73818 1.07211,-1.08301 2.18794,-1.56971 3.68971,-1.56971 1.47093,0 2.60373,0.48916 3.6735,1.56971 1.06627,1.0771 1.55356,2.2448 1.55356,3.73818 l 0.0486,23.01222 c 0,4.90894 -4.67486,9.04618 -10.68071,9.04618 l -28.805549,-0.11326 c -4.634707,0 -8.593128,-4.51117 -8.593128,-10.30852 v -43.33528 h -8.447462 v 45.00209 c 0,4.77471 1.747181,8.96178 5.146164,12.3476 2.905193,2.8676 6.399074,4.56445 10.324689,4.98427 v 0.16191 h 32.074486 c 4.92872,0 9.25884,-1.83265 12.75212,-5.38904 h 0.0162 c 2.97102,-3.05245 4.70787,-6.70998 5.12997,-10.82624 l -0.0324,-24.58193 c 0,-3.89625 -1.43744,-7.34873 -4.17521,-10.11421 -2.73906,-2.76695 -6.14812,-4.1914 -9.98482,-4.1914 -3.76604,0 -7.06133,1.40042 -9.72593,3.96479 -2.65681,-2.56014 -5.92908,-3.96479 -9.69356,-3.96479 z"
     id="path2620"
     transform="matrix(1.5930206,0,0,1.5930206,-57.18503,-638.02105)"
     inkscape:connector-curvature="0" />
  <path
     style="display:inline;overflow:visible;visibility:visible;fill:#ffffff;fill-opacity:1;fill-rule:evenodd;stroke:none;stroke-width:1;marker:none;enable-background:accumulate"
     d="m 109.7716,60.95587 c -6.11196,0 -11.54262,2.26917 -15.90606,6.67699 -4.36126,4.40546 -6.65119,9.90534 -6.65117,16.11213 V 115.119 h 14.2304 V 83.74499 c 0,-2.37897 0.77624,-4.23915 2.47482,-5.95499 1.70418,-1.72133 3.5088,-2.50058 5.85201,-2.50058 2.39231,0 4.16985,0.77533 5.87775,2.50058 1.6986,1.71584 2.47486,3.57602 2.47486,5.95499 V 115.119 h 14.23038 V 83.74499 c 0,-2.37897 0.77626,-4.23915 2.47487,-5.95499 1.70788,-1.72525 3.48543,-2.50058 5.87779,-2.50058 2.34322,0 4.14779,0.77925 5.85194,2.50058 1.6986,1.71584 2.47485,3.57602 2.47485,5.95499 l 0.0773,36.65895 c 0,7.82004 -7.44715,14.41074 -17.01459,14.41074 l -45.88782,-0.18042 c -7.38319,0 -13.68903,-7.18638 -13.68903,-16.42168 V 49.17859 H 59.06292 v 71.68925 c 0,7.60621 2.7833,14.2763 8.19794,19.66999 4.62803,4.56814 10.19386,7.5293 16.44743,8.19808 l 51.09533,-1.2e-4 c 7.85155,0 14.74951,-2.91945 20.31439,-8.58484 h 0.0258 c 4.73287,-4.86263 7.49973,-10.68914 8.17214,-17.24643 l -0.0515,-39.15953 c 0,-6.20679 -2.28985,-11.70667 -6.65117,-16.11213 -4.36339,-4.40782 -9.7941,-6.67699 -15.90603,-6.67699 -5.99937,0 -11.24884,2.2309 -15.49361,6.31599 -4.23237,-4.07836 -9.44514,-6.31599 -15.44204,-6.31599 z"
     id="path4130"
     inkscape:connector-curvature="0" />
  <path
     style="display:inline;overflow:visible;visibility:visible;opacity:0.3;fill:#52a800;fill-opacity:1;fill-rule:evenodd;stroke:none;stroke-width:1;marker:none;enable-background:accumulate"
     d="m 101.40317,134.68195 v 14.05384 h 33.42533 c 7.85152,0 14.70873,-2.92833 20.2736,-8.59373 h 0.0476 c 4.73289,-4.86264 7.49401,-10.67765 8.16642,-17.23494 v -7.9765 h -14.19627 v 5.4601 c 0,7.82009 -7.43012,14.38619 -16.99756,14.38619 l -30.71901,-0.095 z"
     id="path4132"
     inkscape:connector-curvature="0" />
  <path
     id="path6141"
     style="display:inline;overflow:visible;visibility:visible;fill:#ffffff;fill-opacity:1;fill-rule:evenodd;stroke:none;stroke-width:1;marker:none;enable-background:accumulate"
     d="m 93.64434,177.18636 c -32.34679,0 -60.4175,-24.52192 -60.4175,-56.83973 l -0.029,-39.24078 V 71.09947 H 12.69025 V 21.2411 l 86.481,0.40727 27.05261,0.0582 c 32.37586,0 60.41748,24.49274 60.41748,56.83956 v 98.64022 H 93.6444 v 0 0 z m 79.81965,-26.46021 c 0,-21.48857 0,-72.18001 0,-72.18001 0,-24.11448 -21.1475,-43.66226 -47.24019,-43.66226 H 99.14213 v -0.0582 l -73.2456,-0.32005 v 23.41653 c 0,0 2.9419,0 8.20496,0 5.57049,0 12.27348,5.23482 12.27348,12.91674 l 0.0582,49.47886 c 0,24.11449 21.14761,43.66224 47.21117,43.66224 h 64.35083 c 8.24982,0 15.46881,-5.22455 15.46881,-13.25386 z"
     inkscape:connector-curvature="0" />
</svg>
