<?xml version="1.0" encoding="UTF-8" standalone="no"?>
<!-- Created with Inkscape (http://www.inkscape.org/) -->

<svg
   xmlns:dc="http://purl.org/dc/elements/1.1/"
   xmlns:cc="http://creativecommons.org/ns#"
   xmlns:rdf="http://www.w3.org/1999/02/22-rdf-syntax-ns#"
   xmlns:svg="http://www.w3.org/2000/svg"
   xmlns="http://www.w3.org/2000/svg"
   xmlns:sodipodi="http://sodipodi.sourceforge.net/DTD/sodipodi-0.dtd"
   xmlns:inkscape="http://www.inkscape.org/namespaces/inkscape"
   version="1.1"
   width="64"
   height="64"
   id="svg3430"
   inkscape:version="0.91+devel+osxmenu r12897"
   sodipodi:docname="logo-libreoffice.svg">
  <sodipodi:namedview
     pagecolor="#ffffff"
     bordercolor="#666666"
     borderopacity="1"
     objecttolerance="10"
     gridtolerance="10"
     guidetolerance="10"
     inkscape:pageopacity="0"
     inkscape:pageshadow="2"
     inkscape:window-width="1920"
     inkscape:window-height="970"
     id="namedview4557"
     showgrid="false"
     inkscape:zoom="0.72401386"
     inkscape:cx="212.70311"
     inkscape:cy="50.23415"
     inkscape:window-x="0"
     inkscape:window-y="23"
     inkscape:window-maximized="0"
     inkscape:current-layer="svg3430" />
  <defs
     id="defs3432" />
  <metadata
     id="metadata3435">
    <rdf:RDF>
      <cc:Work
         rdf:about="">
        <dc:format>image/svg+xml</dc:format>
        <dc:type
           rdf:resource="http://purl.org/dc/dcmitype/StillImage" />
        <dc:title></dc:title>
      </cc:Work>
    </rdf:RDF>
  </metadata>
  <g
     transform="matrix(0.61538933,0,0,0.61538933,-418.67317,-668.14364)"
     id="g2917"
     style="display:inline;stroke-width:1.6249876">
    <path
       d="m 746.51855,1098.7256 c -0.75464,-0.019 -1.49809,0.4529 -1.79306,1.1382 -0.29499,0.6853 -0.12281,1.5407 0.4153,2.0629 l 16.19626,16.2475 c 0.52235,0.5232 1.37287,0.6967 2.06271,0.4206 0.68985,-0.276 1.1775,-0.985 1.18266,-1.7192 l 0,-16.2776 c 0.002,-0.9808 -0.90388,-1.8741 -1.89823,-1.8724 l -16.16564,0 z"
       id="path2919"
       style="color:#000000;font-style:normal;font-variant:normal;font-weight:normal;font-stretch:normal;font-size:medium;line-height:normal;font-family:'Andale Mono';-inkscape-font-specification:'Andale Mono';text-indent:0;text-align:start;text-decoration:none;text-decoration-line:none;letter-spacing:normal;word-spacing:normal;text-transform:none;direction:ltr;block-progression:tb;writing-mode:lr-tb;text-anchor:start;display:inline;overflow:visible;visibility:visible;fill:#000000;fill-opacity:1;fill-rule:evenodd;stroke:none;stroke-width:6.2858367;marker:none;enable-background:accumulate"
       inkscape:connector-curvature="0" />
    <path
       d="m 701.98449,1098.725 c -0.99608,0.014 -1.89207,0.9251 -1.89033,1.9213 l 0,74.1569 c -0.002,0.9961 0.89428,1.9067 1.89033,1.9212 l 60.67658,0 c 1.00641,0 1.92292,-0.9148 1.92132,-1.9212 l 0,-47.7542 c 0.003,-0.504 -0.20246,-1.0061 -0.5578,-1.3635 l -26.24773,-26.3717 c -0.35229,-0.3665 -0.85519,-0.5837 -1.36352,-0.5888 l -34.42885,0 z"
       id="path2921"
       style="color:#000000;font-style:normal;font-variant:normal;font-weight:normal;font-stretch:normal;font-size:medium;line-height:normal;font-family:'Andale Mono';-inkscape-font-specification:'Andale Mono';text-indent:0;text-align:start;text-decoration:none;text-decoration-line:none;letter-spacing:normal;word-spacing:normal;text-transform:none;direction:ltr;block-progression:tb;writing-mode:lr-tb;text-anchor:start;display:inline;overflow:visible;visibility:visible;fill:#ffffff;fill-opacity:1;fill-rule:evenodd;stroke:none;stroke-width:6.2858367;marker:none;enable-background:accumulate"
       inkscape:connector-curvature="0" />
    <path
       d="m 701.98449,1098.725 a 1.9181599,1.9181599 0 0 0 -1.89033,1.9213 l 0,74.1569 a 1.9181599,1.9181599 0 0 0 1.89033,1.9212 l 60.67658,0 a 1.9181599,1.9181599 0 0 0 1.92132,-1.9212 l 0,-47.7542 a 1.9181599,1.9181599 0 0 0 -0.5578,-1.3635 l -26.24773,-26.3717 a 1.9181599,1.9181599 0 0 0 -1.36352,-0.5888 l -34.42885,0 z m 1.92133,3.8426 31.7018,0 25.13213,25.2562 0,45.058 -56.83393,0 0,-70.3142 z"
       id="path2923"
       style="color:#000000;font-style:normal;font-variant:normal;font-weight:normal;font-stretch:normal;font-size:medium;line-height:normal;font-family:'Andale Mono';-inkscape-font-specification:'Andale Mono';text-indent:0;text-align:start;text-decoration:none;text-decoration-line:none;letter-spacing:normal;word-spacing:normal;text-transform:none;direction:ltr;block-progression:tb;writing-mode:lr-tb;text-anchor:start;display:inline;overflow:visible;visibility:visible;fill:#000000;fill-opacity:1;fill-rule:evenodd;stroke:none;stroke-width:6.2858367;marker:none;enable-background:accumulate"
       inkscape:connector-curvature="0" />
  </g>
</svg>
