<?xml version="1.0" encoding="UTF-8" standalone="no"?>
<svg
   xmlns:dc="http://purl.org/dc/elements/1.1/"
   xmlns:cc="http://creativecommons.org/ns#"
   xmlns:rdf="http://www.w3.org/1999/02/22-rdf-syntax-ns#"
   xmlns:svg="http://www.w3.org/2000/svg"
   xmlns="http://www.w3.org/2000/svg"
   xmlns:sodipodi="http://sodipodi.sourceforge.net/DTD/sodipodi-0.dtd"
   xmlns:inkscape="http://www.inkscape.org/namespaces/inkscape"
   id="svg9247"
   height="200"
   width="200"
   version="1.1"
   sodipodi:docname="mageia.svg"
   inkscape:version="0.92.3 (2405546, 2018-03-11)">
  <sodipodi:namedview
     pagecolor="#ffffff"
     bordercolor="#666666"
     borderopacity="1"
     objecttolerance="10"
     gridtolerance="10"
     guidetolerance="10"
     inkscape:pageopacity="0"
     inkscape:pageshadow="2"
     inkscape:window-width="1920"
     inkscape:window-height="1016"
     id="namedview13"
     showgrid="false"
     inkscape:zoom="1.18"
     inkscape:cx="100"
     inkscape:cy="100"
     inkscape:window-x="0"
     inkscape:window-y="27"
     inkscape:window-maximized="1"
     inkscape:current-layer="svg9247" />
  <defs
     id="defs9249" />
  <metadata
     id="metadata9252">
    <rdf:RDF>
      <cc:Work
         rdf:about="">
        <dc:format>image/svg+xml</dc:format>
        <dc:type
           rdf:resource="http://purl.org/dc/dcmitype/StillImage" />
        <dc:title />
      </cc:Work>
    </rdf:RDF>
  </metadata>
  <g
     style="stroke-width:1.18839681"
     transform="matrix(0.8414698,0,0,0.8414698,17.53596,66.303906)"
     id="g10337">
    <g
       style="stroke-width:1.18839681"
       id="g5423"
       transform="translate(-95.208039,-581.27881)">
      <path
         style="fill:#2397d4;fill-opacity:1;stroke-width:1.18839681"
         id="path3042-0-6-4"
         d="m 177.89056,597.12767 h -0.01 c -6.6729,0 -12.10712,-5.42671 -12.11419,-12.09501 -0.01,-6.69051 5.42514,-12.12528 12.1041,-12.13236 6.68298,0 12.1162,5.42671 12.12426,12.09501 0,6.69052 -5.42512,12.1263 -12.10408,12.13337 v 0 z"
         inkscape:connector-curvature="0" />
      <path
         style="fill:#2397d4;fill-opacity:1;stroke-width:1.18839681"
         id="path3056-6-4-1"
         d="m 210.60812,588.24494 c -6.23094,0 -11.30246,-5.06615 -11.30657,-11.29167 -0.01,-6.24198 5.06123,-11.31635 11.2963,-11.32148 6.23916,0 11.31068,5.0651 11.31683,11.29063 0,6.24197 -5.06224,11.31635 -11.29628,11.32252 h -0.01 z"
         inkscape:connector-curvature="0" />
      <path
         style="fill:#2397d4;fill-opacity:1;stroke-width:1.18839681"
         id="path4104"
         transform="matrix(1.4421651,0,0,1.4421651,215.7232,578.60266)"
         d="m -10,-15.700835 a 7,7 0 1 1 -14,0 7,7 0 1 1 14,0 z"
         inkscape:connector-curvature="0" />
      <path
         style="fill:#2397d4;fill-opacity:1;stroke-width:1.18839681"
         id="path4106"
         transform="matrix(0.80761247,0,0,0.80761247,140.73061,552.34319)"
         d="m 94,-16.522263 a 11.5,11.5 0 1 1 -23,0 11.5,11.5 0 1 1 23,0 z"
         inkscape:connector-curvature="0" />
      <path
         style="fill:#2397d4;fill-opacity:1;stroke-width:1.18839681"
         id="path4132"
         transform="matrix(0.76915473,0,0,0.76915473,187.18756,551.30398)"
         d="m 11,-37.522263 a 10.5,10.5 0 1 1 -21,0 10.5,10.5 0 1 1 21,0 z"
         inkscape:connector-curvature="0" />
    </g>
    <path
       style="color:#000000;font-style:normal;font-variant:normal;font-weight:normal;font-stretch:normal;font-size:medium;line-height:normal;font-family:Sans;-inkscape-font-specification:Sans;text-indent:0;text-align:start;text-decoration:none;text-decoration-line:none;letter-spacing:normal;word-spacing:normal;text-transform:none;writing-mode:lr-tb;direction:ltr;baseline-shift:baseline;text-anchor:start;display:inline;overflow:visible;visibility:visible;fill:#262f45;fill-opacity:1;stroke:none;stroke-width:16.63755417;marker:none;enable-background:accumulate"
       id="path3347-1"
       d="M 48.92581,26.76212 C 38.47541,40.3076 30,55.54315 30,74.00004 c 0,40.00634 30.35843,73 68,73 37.64044,0 68,-32.99349 68,-73 C 166,55.5395 157.51111,40.78805 146.46983,26.76214 142.32959,22.41751 136.35226,23.0635 132.00084,25.84358 119.26788,32.43213 112.39475,35.06452 98,35.00004 84.07798,34.93764 76.76333,32.66402 64.02967,25.72269 59.67825,23.0635 53.06604,22.41749 48.92581,26.76212 Z M 58,38.00004 c 13.19828,7.29754 24.96911,11 40,11 15.0436,0 26.79494,-3.70251 40,-11 7.2055,10.15985 14,22.7579 14,36 0,32.80129 -24.17531,59 -54,59 -29.82612,0 -55,-26.19854 -55,-59 0,-13.22462 7.77879,-25.8322 15,-36 z"
       inkscape:connector-curvature="0" />
  </g>
</svg>
