<?xml version="1.0" encoding="UTF-8" standalone="no"?>
<!-- Creator: CorelDRAW -->

<svg
   xmlns:dc="http://purl.org/dc/elements/1.1/"
   xmlns:cc="http://creativecommons.org/ns#"
   xmlns:rdf="http://www.w3.org/1999/02/22-rdf-syntax-ns#"
   xmlns:svg="http://www.w3.org/2000/svg"
   xmlns="http://www.w3.org/2000/svg"
   xmlns:xlink="http://www.w3.org/1999/xlink"
   xmlns:sodipodi="http://sodipodi.sourceforge.net/DTD/sodipodi-0.dtd"
   xmlns:inkscape="http://www.inkscape.org/namespaces/inkscape"
   xml:space="preserve"
   width="200"
   height="200"
   style="fill-rule:evenodd"
   viewBox="0 0 56.444445 56.444445"
   sodipodi:version="0.32"
   inkscape:version="0.92.3 (2405546, 2018-03-11)"
   sodipodi:docname="puppylinux.svg"
   inkscape:output_extension="org.inkscape.output.svg.inkscape"
   id="svg2"
   inkscape:export-filename="D:\Puppy\puppy0912.png"
   inkscape:export-xdpi="600"
   inkscape:export-ydpi="600"
   version="1.1"><metadata
     id="metadata70"><rdf:RDF><cc:Work
         rdf:about=""><dc:format>image/svg+xml</dc:format><dc:type
           rdf:resource="http://purl.org/dc/dcmitype/StillImage" /><dc:title></dc:title></cc:Work><cc:Work
         rdf:about=""><dc:format>image/svg+xml</dc:format><dc:type
           rdf:resource="http://purl.org/dc/dcmitype/StillImage" /></cc:Work><cc:Work
         rdf:about=""><dc:format>image/svg+xml</dc:format><dc:type
           rdf:resource="http://purl.org/dc/dcmitype/StillImage" /></cc:Work></rdf:RDF></metadata><sodipodi:namedview
     inkscape:window-height="1016"
     inkscape:window-width="1920"
     inkscape:pageshadow="2"
     inkscape:pageopacity="0.0"
     guidetolerance="10.0"
     gridtolerance="10.0"
     objecttolerance="10.0"
     borderopacity="1.0"
     bordercolor="#666666"
     pagecolor="#ffffff"
     id="namedview68"
     showgrid="false"
     inkscape:zoom="1"
     inkscape:cx="246.57726"
     inkscape:cy="302.1857"
     inkscape:window-x="0"
     inkscape:window-y="27"
     inkscape:current-layer="svg2"
     inkscape:window-maximized="1" /><defs
     id="defs4"><linearGradient
       inkscape:collect="always"
       id="linearGradient964"><stop
         style="stop-color:#c9d9e6;stop-opacity:1;"
         offset="0"
         id="stop960" /><stop
         style="stop-color:#929ba3;stop-opacity:1"
         offset="1"
         id="stop962" /></linearGradient><linearGradient
       y2="295.10199"
       x2="188.735"
       y1="6.0749002"
       x1="21.865101"
       gradientUnits="userSpaceOnUse"
       id="linearGradient3226">
   <stop
   id="stop3228"
   style="stop-color: rgb(0, 0, 0); stop-opacity: 0;"
   offset="0" /><stop
   offset="0.63258851"
   style="stop-color: rgb(255, 255, 255); stop-opacity: 0;"
   id="stop3234" /><stop
   id="stop3236"
   style="stop-color: rgb(0, 0, 0); stop-opacity: 0.392157;"
   offset="0.69750071" /><stop
   offset="1"
   style="stop-color: rgb(0, 0, 0); stop-opacity: 1;"
   id="stop3232" />
   
  </linearGradient><style
       type="text/css"
       id="style6">
   
    .str0 {stroke:#1F1A17;stroke-width:0.2}
    .fil11 {fill:none}
    .fil12 {fill:#838281}
    .fil9 {fill:black}
    .fil10 {fill:url(#id0)}
    .fil0 {fill:url(#id1)}
    .fil5 {fill:url(#id2)}
    .fil3 {fill:url(#id3)}
    .fil2 {fill:url(#id4)}
    .fil4 {fill:url(#id5)}
    .fil6 {fill:url(#id6)}
    .fil7 {fill:url(#id7)}
    .fil1 {fill:url(#id8)}
    .fil8 {fill:url(#id9)}
   
  </style><linearGradient
       id="id0"
       gradientUnits="userSpaceOnUse"
       x1="52.195999"
       y1="88.3992"
       x2="-7.8656001"
       y2="24.4438">
   
   <stop
   offset="0"
   style="stop-color: rgb(255, 255, 255); stop-opacity: 0.00884956;"
   id="stop11" />
   <stop
   offset="1"
   style="stop-color: rgb(255, 255, 255); stop-opacity: 0.784314;"
   id="stop13" />
  </linearGradient><linearGradient
       id="id1"
       gradientUnits="userSpaceOnUse"
       x1="21.865101"
       y1="6.0749002"
       x2="188.735"
       y2="295.10199">
   <stop
   offset="0"
   style="stop-color: rgb(0, 0, 0); stop-opacity: 0.392157;"
   id="stop16" /><stop
   id="stop2212"
   style="stop-color: rgb(255, 255, 255); stop-opacity: 0;"
   offset="1" />
   
  </linearGradient><linearGradient
       id="id6"
       gradientUnits="userSpaceOnUse"
       x1="213.07401"
       y1="57.513599"
       x2="138.261"
       y2="26.319201">
   <stop
   offset="0"
   style="stop-color: rgb(255, 253, 255); stop-opacity: 1;"
   id="stop25" /><stop
   id="stop3190"
   style="stop-color: rgb(255, 255, 255); stop-opacity: 0;"
   offset="1" />
   
  </linearGradient><linearGradient
       id="id7"
       gradientUnits="userSpaceOnUse"
       x1="89.160797"
       y1="14.9416"
       x2="147.45399"
       y2="115.908">
   <stop
   offset="0"
   style="stop-color: rgb(255, 255, 255); stop-opacity: 1;"
   id="stop30" />
   <stop
   offset="1"
   style="stop-color: rgb(255, 255, 255); stop-opacity: 0;"
   id="stop32" />
   
  </linearGradient><filter
       inkscape:collect="always"
       id="filter3680"
       style="color-interpolation-filters:sRGB"><feGaussianBlur
         inkscape:collect="always"
         stdDeviation="8.0485938"
         id="feGaussianBlur3682" /></filter><linearGradient
       inkscape:collect="always"
       xlink:href="#id6"
       id="linearGradient2228"
       gradientUnits="userSpaceOnUse"
       gradientTransform="matrix(0.18978704,0,0,0.18978704,8.5172749,-0.08800229)"
       x1="163.3857"
       y1="5.9747305"
       x2="208.36693"
       y2="51.360291" /><linearGradient
       inkscape:collect="always"
       xlink:href="#id7"
       id="linearGradient2230"
       gradientUnits="userSpaceOnUse"
       gradientTransform="matrix(0.18978704,0,0,0.18978704,8.5172749,-0.08800229)"
       x1="91.30751"
       y1="31.001986"
       x2="145.81064"
       y2="82.995872" /><linearGradient
       inkscape:collect="always"
       xlink:href="#id0"
       id="linearGradient2232"
       gradientUnits="userSpaceOnUse"
       x1="32.651817"
       y1="64.169998"
       x2="14.327238"
       y2="43.990253"
       gradientTransform="matrix(0.18978704,0,0,0.18978704,8.5172749,-0.08800229)" /><radialGradient
       inkscape:collect="always"
       xlink:href="#linearGradient3226"
       id="radialGradient2234"
       gradientUnits="userSpaceOnUse"
       gradientTransform="matrix(0.636836,1.21177,-1.44027,0.756923,1103.64,-313.46)"
       cx="293.21979"
       cy="615.11548"
       fx="293.21979"
       fy="615.11548"
       r="460.78125" /><linearGradient
       inkscape:collect="always"
       xlink:href="#linearGradient964"
       id="linearGradient966"
       x1="7.419167"
       y1="18.261215"
       x2="51.112003"
       y2="47.963169"
       gradientUnits="userSpaceOnUse" /></defs><path
     inkscape:connector-curvature="0"
     id="path845"
     class="fil5"
     d="m 40.319699,3.9617867 c 1.175541,0.00306 2.40874,0.045644 3.610414,0.1339137 2.855991,0.2097527 5.492608,0.6739907 6.646722,1.4880253 0.609349,0.5574235 1.040583,1.6603709 1.250355,2.9609815 0.191931,1.1900027 0.189825,2.5237498 -0.03851,3.7610668 -0.222165,1.203952 -0.65467,2.304413 -1.325662,3.061398 -0.456286,0.514778 -1.028646,0.870116 -1.725696,0.982546 -1.537996,0.248071 -2.432007,-1.262596 -3.67236,-3.359363 C 43.963933,11.129094 42.619292,8.8583113 40.348148,6.8390911 39.437835,6.1818585 38.641507,6.851636 39.12275,7.3895304 l 0.0088,0.00835 c 2.407619,2.0003934 3.776477,4.3221906 4.892292,6.2084466 1.484097,2.508832 2.552484,4.315852 4.902617,3.936809 0.483027,-0.07791 0.922498,-0.235734 1.318963,-0.45862 1.814231,3.418566 2.842137,7.319658 2.842137,11.460602 0,6.760252 -2.738817,12.878911 -7.1656,17.307269 -4.425549,4.427067 -10.54136,7.165599 -17.298899,7.165599 -6.757729,0 -12.874261,-2.738285 -17.300569,-7.165599 C 6.8952028,41.424049 4.1568977,35.305144 4.1568977,28.545119 c 0,-1.660466 0.1650587,-3.282993 0.4803899,-4.85071 -0.169328,-0.903367 -0.2463436,-1.880182 -0.2945874,-2.626216 -6.643e-4,-0.0069 -0.00102,-0.01321 -0.00169,-0.0201 C 4.1387161,18.902446 4.001519,15.879255 4.230554,13.31508 4.4195449,11.199202 4.8370005,9.4390786 5.6382234,8.899552 5.6942106,8.8620501 5.7415814,8.8162735 5.7805068,8.7656573 6.0454685,8.4238128 7.577602,7.4148101 9.9265391,6.7520547 11.10912,6.4183901 12.483749,6.1859579 13.985552,6.192999 c 0.346571,0.00161 0.700201,0.016436 1.059524,0.045188 2.118345,0.1695558 4.375748,1.9611075 5.942043,4.14772 0.646793,0.902969 1.170587,1.864582 1.513134,2.803629 0.333759,0.914983 0.496104,1.805691 0.433511,2.587728 -0.06568,0.820847 -0.390107,1.520251 -1.046125,1.990163 -1.149616,0.823371 -2.762976,0.317154 -4.6097,-0.262779 -2.877759,-0.903766 -6.253749,-1.962303 -9.8587721,0.756567 l 3.8e-5,9.11e-4 c -0.9027411,0.634417 -0.2581104,1.566055 0.2778111,1.368261 3.379935,-2.804057 6.540744,-1.812533 9.22105,-0.97081 2.153476,0.676263 4.034873,1.266193 5.674252,0.09206 0.974119,-0.697768 1.454528,-1.709314 1.548264,-2.880642 0.07654,-0.956507 -0.113663,-2.019087 -0.50548,-3.093206 -0.383026,-1.050012 -0.95831,-2.11335 -1.663786,-3.0982312 C 21.008262,8.3351064 19.791441,7.1230884 18.476388,6.2716658 21.567467,4.8608079 25.003601,4.075621 28.623067,4.075621 c 1.82114,0 3.595402,0.2001304 5.30265,0.577465 0.722064,-0.3109281 1.693185,-0.4193155 2.539768,-0.5392989 l 0.0095,-0.00302 c 0.964554,-0.085328 2.113107,-0.1388482 3.344294,-0.1472937 0.165285,-0.00114 0.332526,-0.00211 0.500468,-0.00169 z"
     sodipodi:nodetypes="cscsccsccccscscscsssccsccscssscsccccscscscsccssccsssssscccccccssscscccsccsssccsssccsssccccccccsscccssscssscssscssscsssssssssccsc"
     style="fill:url(#linearGradient966);fill-opacity:1;stroke-width:0.18978705" /><path
     inkscape:connector-curvature="0"
     style="fill:url(#linearGradient2228);stroke-width:0.18978705"
     id="path52"
     d="m 39.766091,4.1768913 c 5.534038,0 10.021951,1.710247 10.021951,3.8191226 0,1.6218631 -2.654703,3.0077831 -6.398025,3.5614681 -0.549376,-3.0389464 -4.310671,-5.581903 -9.464414,-6.6649607 1.6446,-0.4503077 3.661296,-0.71563 5.840488,-0.71563 z"
     class="fil6" /><path
     inkscape:connector-curvature="0"
     style="fill:url(#linearGradient2230);stroke-width:0.18978705"
     id="path55"
     d="m 28.362357,4.3317006 c 8.336908,0 15.097862,3.5811486 15.097862,7.9970184 0,4.415908 -6.760954,7.997046 -15.097862,7.997046 -2.586096,0 -5.020266,-0.344843 -7.14831,-0.952044 0.07506,-0.01384 0.150007,-0.03029 0.224802,-0.04963 0.546454,-0.141333 1.085468,-0.435823 1.612868,-0.969615 0.477352,-0.559512 0.819633,-1.169373 0.995471,-1.841049 0.175856,-0.671713 0.185384,-1.405524 -0.0026,-2.212935 -0.182158,-0.778316 -0.43448,-1.520516 -0.745845,-2.23218 C 22.98736,11.356554 22.616877,10.675219 22.198377,10.018593 21.696922,9.2695419 21.161305,8.5802543 20.55317,7.9553046 19.947218,7.3325943 19.269071,6.7735956 18.480791,6.2828442 21.129117,5.0673152 24.583886,4.3317006 28.362357,4.3317006 Z"
     class="fil7" /><path
     inkscape:connector-curvature="0"
     style="fill:#000000;stroke-width:0.18978705"
     sodipodi:nodetypes="cscsccsccccscscscsssccsccscssscsccccscscscsccssccsssssscccccccssscscccsccsssccsssccsssccccccccsscccssscssscssscssscsssssssssccsc"
     d="m 40.202832,2.7772132 c -2.736021,0.00286 -5.183782,0.2123522 -6.290039,0.5367292 -0.06298,0.018483 -0.121147,0.046732 -0.17249,0.081919 -1.656691,-0.335259 -3.37063,-0.5116285 -5.126135,-0.5116285 -4.12287,0 -8.018318,0.9698702 -11.471432,2.6936181 C 16.475506,5.2892671 15.79546,5.1048976 15.123104,5.0511696 13.048672,4.8854548 11.15816,5.1638579 9.5816385,5.6079378 7.1075598,6.3048838 5.3559476,7.4606971 4.8775189,7.9604764 3.7663053,8.774092 3.2212087,10.827279 3.0069258,13.222322 c -0.3247186,3.62978 0.062794,8.145285 0.358385,9.985285 0.00972,0.07324 0.033059,0.143665 0.068662,0.208996 -0.3360168,1.655233 -0.512456,3.368875 -0.512456,5.123071 0,7.083911 2.8767822,13.49685 7.5259302,18.139743 4.65101,4.644734 11.073853,7.517394 18.166721,7.517394 7.092695,0 13.514798,-2.872869 18.165047,-7.517394 4.648655,-4.64295 7.524261,-11.055661 7.524261,-18.139743 0,-4.416039 -1.117935,-8.572198 -3.086414,-12.200717 0.05186,-0.05327 0.102652,-0.107835 0.152401,-0.163857 0.82713,-0.931669 1.351529,-2.235964 1.611023,-3.639979 0.253341,-1.370706 0.256209,-2.848413 0.04354,-4.164993 C 52.770798,6.8024829 52.201643,5.4370663 51.369463,4.6916818 51.350655,4.6741076 51.330631,4.6569502 51.309176,4.6415181 49.963343,3.6700176 47.084091,3.1360943 44.01435,2.9109831 42.75068,2.8183148 41.446471,2.775924 40.202832,2.7772132 Z m 0.113873,1.205522 c 1.176134,0.00305 2.409955,0.045595 3.612237,0.1337699 2.857432,0.2095275 5.495381,0.673267 6.650077,1.4864276 0.609657,0.556825 1.041107,1.6585883 1.250985,2.9578022 0.192029,1.1887251 0.189922,2.5210401 -0.03853,3.7570291 -0.222277,1.202659 -0.655001,2.301938 -1.326333,3.05811 -0.456515,0.514226 -1.029164,0.869183 -1.726567,0.981492 C 47.199802,16.60517 46.305339,15.096125 45.06436,13.001609 43.962775,11.142347 42.617455,8.8740023 40.345165,6.8569502 39.434392,6.2004233 38.637662,6.8694822 39.119148,7.4067986 l 0.0088,0.00834 c 2.408836,1.9982454 3.778385,4.3175504 4.894764,6.2017804 1.484844,2.506139 2.553772,4.311219 4.905091,3.932582 0.48327,-0.07782 0.922963,-0.235481 1.319627,-0.458127 1.815148,3.414898 2.843574,7.311801 2.843574,11.448299 0,6.752993 -2.7402,12.865083 -7.169219,17.288685 -4.427783,4.422315 -10.546682,7.157907 -17.307631,7.157907 -6.761141,0 -12.880762,-2.735345 -17.309304,-7.157907 C 6.8753293,41.404776 4.1356427,35.292441 4.1356427,28.539674 c 0,-1.658684 0.1651411,-3.279469 0.4806315,-4.845502 C 4.4468608,22.791774 4.3698063,21.816009 4.321538,21.070776 4.3208737,21.063876 4.320518,21.057586 4.319848,21.050696 4.1174527,18.907352 3.9801864,15.887407 4.209337,13.325986 4.3984224,11.212379 4.8160886,9.4541456 5.6177169,8.9151983 5.6737324,8.8777366 5.7211271,8.8320091 5.7600722,8.7814472 6.0251676,8.4399698 7.5580729,7.4320505 9.9081962,6.7700067 11.091375,6.4367004 12.466697,6.2045178 13.969259,6.2115513 c 0.346745,0.00161 0.700553,0.016419 1.060059,0.04514 2.119415,0.1693737 4.377958,1.959002 5.945042,4.1432657 0.64712,0.902 1.171178,1.86258 1.513898,2.800619 0.333928,0.914 0.496354,1.803752 0.43373,2.584949 -0.06572,0.819967 -0.390303,1.518619 -1.046653,1.988028 -1.150193,0.822487 -2.764368,0.316813 -4.612024,-0.262498 -2.879212,-0.902795 -6.256905,-1.960195 -9.8637492,0.755756 l 3.79e-5,9.11e-4 c -0.9031968,0.633737 -0.2582407,1.564375 0.2779506,1.366793 3.3816427,-2.801047 6.5440467,-1.810588 9.2257057,-0.969768 2.154562,0.675537 4.036909,1.264832 5.677118,0.09197 0.97461,-0.697019 1.45526,-1.707479 1.549044,-2.877549 0.07658,-0.955481 -0.113721,-2.01692 -0.505735,-3.089885 C 23.240464,11.740387 22.66489,10.67819 21.959057,9.6943671 20.995516,8.3513592 19.778082,7.1406426 18.462365,6.2901341 c 3.09264,-1.409343 6.530508,-2.1936869 10.151803,-2.1936869 1.822058,0 3.597216,0.1999156 5.305326,0.576845 0.722428,-0.3105942 1.694041,-0.4188653 2.541051,-0.5387198 l 0.0095,-0.00301 c 0.965041,-0.085237 2.114175,-0.138699 3.345982,-0.1471356 0.165369,-0.00114 0.332695,-0.0021 0.500721,-0.00169 v 0 z M 42.934202,16.99774 c -2.366225,0 -4.285466,1.916173 -4.285466,4.278695 0,2.362475 1.919241,4.278686 4.285466,4.278686 2.366225,0 4.285446,-1.916211 4.285446,-4.278686 0,-2.362503 -1.919221,-4.278695 -4.285446,-4.278695 z m -26.722595,3.124987 c -4.626116,0 -8.3783338,3.746298 -8.3783338,8.365114 0,4.618817 3.7522178,8.363448 8.3783338,8.363448 4.626117,0 8.378334,-3.744631 8.378334,-8.363448 0,-4.618816 -3.752217,-8.365114 -8.378334,-8.365114 z m 2.314387,4.377345 c 2.120612,1.9e-5 3.841672,1.718345 3.841672,3.83561 0,2.117285 -1.72106,3.83563 -3.841672,3.83563 -2.120611,0 -3.841671,-1.718345 -3.841671,-3.83563 0,-2.117265 1.72106,-3.83561 3.841671,-3.83561 z m 21.290047,3.339036 c -0.105309,0 -0.206024,0.01987 -0.299769,0.0535 L 27.58263,31.367063 c -0.02343,0.0058 -0.04601,0.01241 -0.06866,0.02006 l -0.0033,0.0017 -0.0067,0.0017 -0.0017,0.0017 c -0.344181,0.121733 -0.591162,0.448649 -0.591162,0.834338 0,0.366976 0.222846,0.681381 0.54092,0.815947 0.0021,9.49e-4 0.0046,7.59e-4 0.0067,0.0017 l 7.345068,4.138242 v 0.03177 c 0,1.272805 -0.565928,2.428961 -1.482075,3.268795 -0.933464,0.855741 -2.229622,1.384432 -3.66584,1.384432 -0.905874,0 -1.773867,-0.210798 -2.530417,-0.596903 -0.739213,-0.37727 -1.376691,-0.923023 -1.84213,-1.600121 -0.0063,-0.01023 -0.01337,-0.02019 -0.02009,-0.03011 -0.144652,-0.213356 -0.389317,-0.354463 -0.666506,-0.354463 -0.443776,0 -0.803852,0.359487 -0.803852,0.802562 0,0.178096 0.05903,0.341687 0.157432,0.474849 0.616342,0.901488 1.463029,1.628141 2.44668,2.130158 0.986538,0.503496 2.10489,0.780837 3.258884,0.780837 1.850447,0 3.531859,-0.693307 4.752691,-1.812473 0.887133,-0.813236 1.531103,-1.849934 1.825383,-3.01297 1.198065,0.991197 2.777985,1.590091 4.498135,1.590091 1.850447,0 3.531859,-0.691657 4.752691,-1.810804 1.238188,-1.135054 2.002885,-2.707458 2.002885,-4.447566 0,-0.07367 -0.0019,-0.163176 -0.0067,-0.26083 9.5e-5,-0.0051 0,-0.01 0,-0.01505 0,-0.443074 -0.360076,-0.802563 -0.803851,-0.802563 -0.443775,0 -0.80383,0.359489 -0.80383,0.802563 0,0.0069 -1.72e-4,0.01482 0,0.02173 3.8e-4,0.01251 0.0025,0.02444 0.0033,0.0368 0.0027,0.05881 0.0034,0.129541 0.0034,0.217357 0,1.272805 -0.565926,2.42896 -1.482074,3.268794 -0.933482,0.855742 -2.229603,1.384432 -3.665839,1.384432 -1.378531,0 -2.632156,-0.488328 -3.558651,-1.289129 -0.19108,-0.165164 -0.367841,-0.343125 -0.529204,-0.533373 L 40.583,29.170181 c 0.07616,-0.130756 0.120576,-0.282669 0.120576,-0.444762 0,-0.489296 -0.397501,-0.886169 -0.88757,-0.886169 v 0 z"
     class="fil9"
     id="path2488_5" /><ellipse
     style="fill:url(#linearGradient2232);stroke-width:0.18978705"
     id="ellipse60"
     ry="3.8237534"
     rx="7.2466383"
     cy="10.620068"
     cx="12.723943"
     class="fil10" /><path
     inkscape:connector-curvature="0"
     style="fill:#141414;fill-opacity:0.39215698;stroke-width:0.18978705"
     id="path64"
     d="m 19.34825,19.317715 c 0.988373,0.354691 2.133226,0.698583 2.882903,0.700994 2.019202,0.0065 2.780627,-1.398114 2.781614,-3.10502 5.5e-4,-0.964194 -0.646737,-2.891538 -1.106098,-3.520663 l -0.02236,0.165001 c 0.219394,0.804393 0.314269,1.589011 0.256346,2.312877 -0.09374,1.171328 -0.574144,2.182874 -1.548264,2.880642 -0.990688,0.709534 -2.069798,0.774726 -3.243897,0.566093 z"
     class="fil12" /><path
     inkscape:connector-curvature="0"
     style="fill:#141414;fill-opacity:0.39215698;stroke-width:0.18978705"
     id="path66"
     d="m 48.007403,17.577565 c 0.279594,0.209676 0.555715,0.375834 0.833678,0.461922 0.755845,0.234064 1.394441,0.247862 1.929488,0.09486 -0.166841,-0.354655 -0.341844,-0.704756 -0.524969,-1.049826 -0.396466,0.222886 -0.835936,0.380712 -1.318963,0.45862 -0.330135,0.05326 -0.63499,0.06333 -0.919234,0.03443 z"
     class="fil12" /><path
     inkscape:connector-curvature="0"
     style="fill:url(#radialGradient2234);fill-opacity:1;fill-rule:evenodd;stroke:none;filter:url(#filter3680)"
     d="m 806.90625,286.375 c 3.14475,21.77786 4.78125,44.04321 4.78125,66.6875 0,255.66731 -207.52019,463.15625 -463.1875,463.15625 -173.99385,0 -325.687892,-96.07821 -404.84375,-238.0625 32.400861,224.06213 225.38386,396.37501 458.375,396.375 255.66731,0 463.1875,-207.48893 463.1875,-463.15625 0,-81.63943 -21.18519,-158.37131 -58.3125,-225 z"
     id="path2419"
     transform="matrix(0.05356208,0,0,0.05356208,7.1752088,1.0100524)" /></svg>