<?xml version="1.0" encoding="UTF-8" standalone="no"?>
<svg
   xmlns:dc="http://purl.org/dc/elements/1.1/"
   xmlns:cc="http://creativecommons.org/ns#"
   xmlns:rdf="http://www.w3.org/1999/02/22-rdf-syntax-ns#"
   xmlns:svg="http://www.w3.org/2000/svg"
   xmlns="http://www.w3.org/2000/svg"
   xmlns:sodipodi="http://sodipodi.sourceforge.net/DTD/sodipodi-0.dtd"
   xmlns:inkscape="http://www.inkscape.org/namespaces/inkscape"
   version="1.1"
   id="svg2"
   width="200"
   viewBox="0 0 199.99632 200.00416"
   height="200"
   sodipodi:docname="pureos.svg"
   inkscape:version="0.92.4 5da689c313, 2019-01-14">
  <sodipodi:namedview
     pagecolor="#ffffff"
     bordercolor="#666666"
     borderopacity="1"
     objecttolerance="10"
     gridtolerance="10"
     guidetolerance="10"
     inkscape:pageopacity="0"
     inkscape:pageshadow="2"
     inkscape:window-width="1920"
     inkscape:window-height="1016"
     id="namedview18"
     showgrid="false"
     inkscape:zoom="1"
     inkscape:cx="31.24908"
     inkscape:cy="172.59825"
     inkscape:window-x="0"
     inkscape:window-y="27"
     inkscape:window-maximized="1"
     inkscape:current-layer="svg2">
    <inkscape:grid
       type="xygrid"
       id="grid814" />
  </sodipodi:namedview>
  <metadata
     id="metadata46">
    <rdf:RDF>
      <cc:Work
         rdf:about="">
        <dc:format>image/svg+xml</dc:format>
        <dc:type
           rdf:resource="http://purl.org/dc/dcmitype/StillImage" />
        <dc:title />
      </cc:Work>
    </rdf:RDF>
  </metadata>
  <defs
     id="defs44" />
  <path
     style="font-style:normal;font-variant:normal;font-weight:bold;font-stretch:normal;font-size:58.04286194px;line-height:1000%;font-family:Cantarell;-inkscape-font-specification:'Cantarell Bold';letter-spacing:-2.93004823px;word-spacing:0px;fill:#000000;fill-opacity:1;stroke:none;stroke-width:0.99999994px;stroke-linecap:butt;stroke-linejoin:miter;stroke-opacity:1"
     d="M 138.86523 81.279297 C 126.90865 81.279297 118.95703 89.695975 118.95703 102.29102 C 118.95703 114.5378 126.67683 122.66211 138.28516 122.66211 C 150.41586 122.66211 158.48242 114.24738 158.48242 101.65234 C 158.48242 89.463593 150.64769 81.279297 138.86523 81.279297 z M 177.11523 81.279297 C 167.48032 81.279297 161.03711 86.212949 161.03711 93.816406 C 161.03711 107.57228 182.16406 103.04465 182.16406 111.22852 C 182.16406 114.18864 179.61073 115.98828 174.61914 115.98828 C 170.96252 115.98828 166.49316 115.17539 162.48828 113.49219 L 160.39844 119.5293 C 164.69352 121.50272 169.62815 122.7207 174.27148 122.7207 C 184.13857 122.7207 190 117.8462 190 110.30078 C 190 95.732329 168.81445 100.78012 168.81445 92.654297 C 168.81445 89.57809 171.6588 87.837891 176.65039 87.837891 C 180.01681 87.837891 183.67354 88.475333 186.51758 89.578125 L 188.66602 83.658203 C 185.24156 82.14912 181.06207 81.279297 177.11523 81.279297 z M 10 81.859375 L 10 122.14062 L 17.488281 122.14062 L 17.488281 109.19727 L 22.537109 109.19727 C 32.520274 109.19727 39.136719 103.56673 39.136719 94.976562 C 39.136719 86.908772 33.217201 81.859375 23.814453 81.859375 L 10 81.859375 z M 138.28516 87.837891 C 145.71449 87.837891 150.70508 93.584766 150.70508 102.29102 C 150.70508 110.59097 145.94632 116.16211 138.86523 116.16211 C 131.55199 116.16211 126.73437 110.35859 126.73438 101.65234 C 126.73438 93.352384 131.32016 87.837891 138.28516 87.837891 z M 17.488281 88.417969 L 23.117188 88.417969 C 28.050729 88.417969 31.359375 91.437042 31.359375 95.90625 C 31.359375 100.25938 28.630509 102.69727 23.871094 102.69727 L 17.488281 102.69727 L 17.488281 88.417969 z M 104.80078 93.351562 C 96.384746 93.351562 90.753906 99.329464 90.753906 108.09375 C 90.753906 117.14825 96.673678 122.7207 106.30859 122.7207 C 109.61696 122.7207 113.21621 122.02496 116.23438 120.74805 L 114.60938 115.64062 C 112.34575 116.56929 109.8504 117.08984 107.4707 117.08984 C 102.36303 117.08984 99.286641 114.71169 98.416016 110.06836 L 116.69922 110.06836 C 116.87335 108.90752 117.04688 107.16559 117.04688 105.88867 C 117.04688 98.169127 112.3462 93.351563 104.80078 93.351562 z M 87.341797 93.642578 C 83.975381 93.642578 80.842854 95.325329 78.695312 98.111328 L 77.998047 93.931641 L 72.136719 93.931641 L 72.136719 122.14062 L 79.507812 122.14062 L 79.507812 103.50977 C 81.19102 101.47831 83.569766 100.31641 86.181641 100.31641 C 87.516599 100.31641 88.908927 100.60654 90.011719 101.12891 L 91.695312 94.628906 C 90.418396 93.990448 88.85088 93.642578 87.341797 93.642578 z M 41.609375 93.931641 L 41.609375 111.92578 C 41.609375 118.42645 45.616011 122.60547 51.652344 122.60547 C 54.902676 122.60547 58.094053 121.38611 60.589844 119.06445 L 61.867188 122.14062 L 67.148438 122.14062 L 67.148438 93.931641 L 59.777344 93.931641 L 59.777344 114.13086 C 58.152178 115.40778 56.295131 116.16211 54.263672 116.16211 C 50.432924 116.16211 48.982422 113.60916 48.982422 110.30078 L 48.982422 93.931641 L 41.609375 93.931641 z M 104.27734 99.039062 C 107.93397 99.039062 110.08203 101.36091 110.08203 105.42383 L 98.240234 105.42383 C 98.704567 101.24484 100.79485 99.039063 104.27734 99.039062 z "
     transform="matrix(1.0000208,0,0,1.0000208,-0.00392,0)"
     id="path824" />
</svg>
