<?xml version="1.0" encoding="UTF-8" standalone="no"?>
<svg
   xmlns:dc="http://purl.org/dc/elements/1.1/"
   xmlns:cc="http://creativecommons.org/ns#"
   xmlns:rdf="http://www.w3.org/1999/02/22-rdf-syntax-ns#"
   xmlns:svg="http://www.w3.org/2000/svg"
   xmlns="http://www.w3.org/2000/svg"
   version="1.1"
   id="svg4451"
   height="200"
   width="200">
  <defs
     id="defs4453">
    <filter
       height="1.072"
       y="-0.035999985"
       width="1.072"
       x="-0.036000015"
       id="filter5252"
       style="color-interpolation-filters:sRGB">
      <feGaussianBlur
         id="feGaussianBlur5254"
         stdDeviation="1.7999993" />
    </filter>
  </defs>
  <metadata
     id="metadata4456">
    <rdf:RDF>
      <cc:Work
         rdf:about="">
        <dc:format>image/svg+xml</dc:format>
        <dc:type
           rdf:resource="http://purl.org/dc/dcmitype/StillImage" />
        <dc:title />
      </cc:Work>
    </rdf:RDF>
  </metadata>
  <g
     transform="translate(0,152)"
     id="layer1">
    <rect
       ry="12"
       rx="12"
       y="-136"
       x="16"
       height="168"
       width="168"
       id="rect4943"
       style="opacity:1;fill:#428bc0;fill-opacity:1;stroke:none;stroke-width:2;stroke-linecap:round;stroke-linejoin:round;stroke-miterlimit:4;stroke-dasharray:none;stroke-dashoffset:0;stroke-opacity:1" />
    <path
       id="path5218"
       style="fill:#000000;fill-opacity:1;stroke:none;stroke-width:0.14497955;stroke-miterlimit:4;stroke-dasharray:none;stroke-opacity:1;opacity:0.4;filter:url(#filter5252)"
       d="M 79.657105,-69.73165 C 58.662202,-68.573999 42.00005,-51.179292 42.00005,-29.895281 v 0.25525 39.640032 h 39.345539 0.549734 c 22.032857,0 39.895267,-17.86246 39.895267,-39.895272 0,-19.394607 -13.83665,-35.55648 -32.179295,-39.149198 0.05241,1.772789 0.26625,3.53606 0.628266,5.261779 15.243969,3.744559 26.564129,17.488516 26.564129,33.887419 0,19.278717 -15.62985,34.9083648 -34.908368,34.9083648 H 81.404474 46.986949 v -34.6924008 -0.215949 c 0,-18.656322 14.626589,-33.904544 33.043185,-34.869095 -0.222,-1.646625 -0.34355,-3.307438 -0.373051,-4.967273 z m 42.447625,-40.2683 c -22.03285,0 -39.895272,17.862402 -39.895272,39.895262 0,19.387996 13.826351,35.529513 32.159672,39.129563 -0.037,-1.774435 -0.23589,-3.52567 -0.58901,-5.242139 -15.254049,-3.73757 -26.583756,-17.481493 -26.583756,-33.887424 0,-19.278749 15.629616,-34.908362 34.908366,-34.908362 h 0.49086 34.41752 v 34.692392 0.21595 c 0,18.623131 -14.59465,33.816324 -32.96464,34.829828 0.10213,0.824045 0.1721,1.65864 0.21595,2.493456 0.0717,0.831774 0.10638,1.665514 0.11775,2.493453 20.97638,-1.177184 37.61778,-18.546011 37.61778,-39.816737 V -70.359958 -110 h -39.34553 -0.54974 z" />
    <path
       d="M 77.657105,-71.73165 C 56.662202,-70.573999 40.00005,-53.179292 40.00005,-31.895281 v 0.25525 39.6400325 h 39.345539 0.549734 c 22.032857,0 39.895267,-17.8624605 39.895267,-39.8952725 0,-19.394607 -13.83665,-35.55648 -32.179295,-39.149198 0.05241,1.772789 0.26625,3.53606 0.628266,5.261779 15.243969,3.744559 26.564129,17.488516 26.564129,33.887419 0,19.278717 -15.629851,34.9083648 -34.908368,34.9083648 H 79.404474 44.986949 v -34.6924008 -0.215949 c 0,-18.656322 14.626589,-33.904544 33.043185,-34.869095 -0.222,-1.646625 -0.34355,-3.307438 -0.373051,-4.967273 z m 42.447625,-40.2683 c -22.032854,0 -39.895272,17.862402 -39.895272,39.895262 0,19.387996 13.826351,35.529513 32.159672,39.129563 -0.037,-1.774435 -0.23589,-3.52567 -0.58901,-5.242139 -15.254049,-3.73757 -26.583756,-17.481493 -26.583756,-33.887424 0,-19.278749 15.629616,-34.908362 34.908366,-34.908362 h 0.49086 34.41752 v 34.692392 0.21595 c 0,18.623131 -14.59465,33.816324 -32.96464,34.829828 0.10213,0.824045 0.1721,1.65864 0.21595,2.493456 0.0717,0.831774 0.10638,1.665514 0.11775,2.493453 20.97638,-1.177184 37.61778,-18.546011 37.61778,-39.816737 V -72.359958 -112 h -39.34553 -0.54974 z"
       style="fill:#ffffff;fill-opacity:1;stroke:none;stroke-width:0.14497955;stroke-miterlimit:4;stroke-dasharray:none;stroke-opacity:1"
       id="path4429-5" />
  </g>
</svg>
