<?xml version="1.0" encoding="UTF-8" standalone="no"?>
<svg
   xmlns:dc="http://purl.org/dc/elements/1.1/"
   xmlns:cc="http://creativecommons.org/ns#"
   xmlns:rdf="http://www.w3.org/1999/02/22-rdf-syntax-ns#"
   xmlns:svg="http://www.w3.org/2000/svg"
   xmlns="http://www.w3.org/2000/svg"
   xmlns:sodipodi="http://sodipodi.sourceforge.net/DTD/sodipodi-0.dtd"
   xmlns:inkscape="http://www.inkscape.org/namespaces/inkscape"
   class="emote"
   height="64"
   width="64"
   version="1.1"
   style="overflow: hidden; position: relative;"
   id="svg4907"
   inkscape:version="0.91+devel+osxmenu r12895"
   sodipodi:docname="face-sad_large.svg">
  <metadata
     id="metadata4915">
    <rdf:RDF>
      <cc:Work
         rdf:about="">
        <dc:format>image/svg+xml</dc:format>
        <dc:type
           rdf:resource="http://purl.org/dc/dcmitype/StillImage" />
      </cc:Work>
    </rdf:RDF>
  </metadata>
  <defs
     id="defs4913" />
  <sodipodi:namedview
     pagecolor="#ffffff"
     bordercolor="#666666"
     borderopacity="1"
     objecttolerance="10"
     gridtolerance="10"
     guidetolerance="10"
     inkscape:pageopacity="0"
     inkscape:pageshadow="2"
     inkscape:window-width="725"
     inkscape:window-height="480"
     id="namedview4911"
     showgrid="false"
     inkscape:zoom="3.6875"
     inkscape:cx="-2.9830508"
     inkscape:cy="32"
     inkscape:window-x="0"
     inkscape:window-y="23"
     inkscape:window-maximized="0"
     inkscape:current-layer="svg4907" />
  <path
     class="emote-fill"
     d="M 32,4 C 47.464,4 60,16.536 60,32 60,47.464 47.464,60 32,60 16.536,60 4,47.464 4,32 4,16.536 16.536,4 32,4 z m 12,16 c -2.21628,0 -4,1.7978 -4,4 0,2.20256 1.78372,4 4,4 2.21696,0 4,-1.79744 4,-4 0,-2.2022 -1.78304,-4 -4,-4 z m -24,0 c -2.2166,0 -4,1.7978 -4,4 0,2.20256 1.7834,4 4,4 2.21628,0 4,-1.79744 4,-4 0,-2.2022 -1.78372,-4 -4,-4 z m 12,20 c -7.0312,0 -12.75,3.7782 -12.75,6 0,0.51816 0.4336,1.04476 1,1.5 C 23.0544,46.59932 27.234,46 32,46 c 4.766,0 8.9456,0.59932 11.75,1.5 0.5652,-0.45524 1,-0.98184 1,-1.5 0,-2.2218 -5.7184,-6 -12.75,-6 z"
     id="path4909"
     style="fill:#555555;fill-opacity:1" />
</svg>
