<?xml version="1.0" encoding="UTF-8" standalone="no"?>
<!-- Created with Inkscape (http://www.inkscape.org/) -->

<svg
   xmlns:dc="http://purl.org/dc/elements/1.1/"
   xmlns:cc="http://creativecommons.org/ns#"
   xmlns:rdf="http://www.w3.org/1999/02/22-rdf-syntax-ns#"
   xmlns:svg="http://www.w3.org/2000/svg"
   xmlns="http://www.w3.org/2000/svg"
   xmlns:sodipodi="http://sodipodi.sourceforge.net/DTD/sodipodi-0.dtd"
   xmlns:inkscape="http://www.inkscape.org/namespaces/inkscape"
   width="1024"
   height="512"
   viewBox="0 0 1024 512"
   id="svg2"
   version="1.1"
   inkscape:version="0.92.4 5da689c313, 2019-01-14"
   sodipodi:docname="promo.svg"
   inkscape:export-filename="promo.png"
   inkscape:export-xdpi="96"
   inkscape:export-ydpi="96">
  <defs
     id="defs4">
    <clipPath
       clipPathUnits="userSpaceOnUse"
       id="clipPath4599">
      <circle
         r="50.799999"
         cy="229.26665"
         cx="67.73333"
         id="circle4601"
         style="opacity:1;fill:#635b82;fill-opacity:1;stroke:none;stroke-width:0.52916664;stroke-linecap:round;stroke-linejoin:miter;stroke-miterlimit:4;stroke-dasharray:none;stroke-dashoffset:0;stroke-opacity:1" />
    </clipPath>
    <clipPath
       clipPathUnits="userSpaceOnUse"
       id="clipPath4624">
      <path
         style="color:#000000;font-style:normal;font-variant:normal;font-weight:normal;font-stretch:normal;font-size:medium;line-height:normal;font-family:sans-serif;text-indent:0;text-align:start;text-decoration:none;text-decoration-line:none;text-decoration-style:solid;text-decoration-color:#000000;letter-spacing:normal;word-spacing:normal;text-transform:none;writing-mode:lr-tb;direction:ltr;baseline-shift:baseline;text-anchor:start;white-space:normal;shape-padding:0;clip-rule:nonzero;display:inline;overflow:visible;visibility:visible;opacity:1;isolation:auto;mix-blend-mode:normal;color-interpolation:sRGB;color-interpolation-filters:linearRGB;solid-color:#000000;solid-opacity:1;fill:#ededed;fill-opacity:1;fill-rule:nonzero;stroke:none;stroke-width:2.11666656;stroke-linecap:round;stroke-linejoin:round;stroke-miterlimit:4;stroke-dasharray:none;stroke-dashoffset:0;stroke-opacity:1;color-rendering:auto;image-rendering:auto;shape-rendering:auto;text-rendering:auto;enable-background:accumulate"
         d="m 66.464844,121.31641 c -0.166029,-9.4e-4 -0.329949,0.0372 -0.478516,0.11132 0,0 -17.413222,8.75537 -21.734375,31.44141 -2.377685,12.48284 0.802049,33.95579 2.148438,44.54492 0.978798,7.6981 2.089843,13.01953 2.089843,13.01953 0.102489,0.49013 0.534422,0.84139 1.035157,0.8418 h 31.75 c 0.487305,-3.3e-4 0.911415,-0.33332 1.027343,-0.80664 0,0 1.265381,-5.16939 2.328125,-12.89063 1.398164,-10.15816 4.286935,-31.08304 1.919922,-44.69335 C 84.401063,140.52389 79.537234,132.64711 75.177734,127.87891 70.818235,123.1107 66.875,121.40234 66.875,121.40234 c -0.129627,-0.0557 -0.269079,-0.0849 -0.410156,-0.0859 z"
         id="path4626"
         inkscape:connector-curvature="0"
         sodipodi:nodetypes="ccssccccsssccc" />
    </clipPath>
    <clipPath
       clipPathUnits="userSpaceOnUse"
       id="clipPath4880">
      <circle
         r="46.991886"
         cy="96.880188"
         cx="-174.21211"
         id="circle4882"
         style="opacity:1;fill:#aaccf9;fill-opacity:1;stroke:none;stroke-width:2.11666656;stroke-linecap:round;stroke-linejoin:round;stroke-miterlimit:4;stroke-dasharray:none;stroke-dashoffset:0;stroke-opacity:1"
         transform="rotate(-45)" />
    </clipPath>
  </defs>
  <sodipodi:namedview
     id="base"
     pagecolor="#ffffff"
     bordercolor="#666666"
     borderopacity="1.0"
     inkscape:pageopacity="0"
     inkscape:pageshadow="2"
     inkscape:zoom="1"
     inkscape:cx="509.64621"
     inkscape:cy="286.30666"
     inkscape:document-units="px"
     inkscape:current-layer="layer1"
     showgrid="false"
     units="px"
     inkscape:window-width="1920"
     inkscape:window-height="1016"
     inkscape:window-x="0"
     inkscape:window-y="27"
     inkscape:window-maximized="1"
     inkscape:snap-bbox="true"
     inkscape:bbox-paths="true"
     inkscape:snap-bbox-midpoints="true"
     inkscape:snap-intersection-paths="true"
     inkscape:object-paths="true"
     inkscape:object-nodes="true"
     inkscape:snap-smooth-nodes="true"
     inkscape:snap-midpoints="true"
     inkscape:bbox-nodes="true"
     inkscape:snap-global="true"
     showguides="false">
    <inkscape:grid
       type="xygrid"
       id="grid4514"
       empspacing="4" />
  </sodipodi:namedview>
  <metadata
     id="metadata7">
    <rdf:RDF>
      <cc:Work
         rdf:about="">
        <dc:format>image/svg+xml</dc:format>
        <dc:type
           rdf:resource="http://purl.org/dc/dcmitype/StillImage" />
        <dc:title />
      </cc:Work>
    </rdf:RDF>
  </metadata>
  <g
     inkscape:label="Layer 1"
     inkscape:groupmode="layer"
     id="layer1"
     transform="translate(0,-161.53331)">
    <rect
       style="opacity:1;fill:#0099ee;fill-opacity:1;stroke:none;stroke-width:2;stroke-linecap:round;stroke-linejoin:round;stroke-miterlimit:4;stroke-dasharray:none;stroke-dashoffset:0;stroke-opacity:1"
       id="rect822"
       width="1024"
       height="512"
       x="0"
       y="161.53331" />
    <text
       id="text847"
       y="437.71997"
       x="510.3468"
       style="font-style:normal;font-weight:normal;font-size:40px;line-height:1000%;font-family:sans-serif;letter-spacing:0px;word-spacing:0px;opacity:0.2;fill:#000000;fill-opacity:1;stroke:none;stroke-width:1px;stroke-linecap:butt;stroke-linejoin:miter;stroke-opacity:1"
       xml:space="preserve"><tspan
         style="font-style:normal;font-variant:normal;font-weight:bold;font-stretch:normal;font-size:144px;font-family:'Ostrich Sans';-inkscape-font-specification:'Ostrich Sans Bold';text-align:center;text-anchor:middle;fill:#000000;fill-opacity:1"
         y="437.71997"
         x="510.3468"
         id="tspan845"
         sodipodi:role="line">Compute Freely</tspan></text>
    <g
       aria-label="Free Your Computer. Use Linux"
       style="font-style:normal;font-weight:normal;font-size:40px;line-height:1000%;font-family:sans-serif;letter-spacing:0px;word-spacing:0px;opacity:0.4;fill:#b1e3ff;fill-opacity:1;stroke:none;stroke-width:1px;stroke-linecap:butt;stroke-linejoin:miter;stroke-opacity:1"
       id="text835">
      <path
         d="m 296.52319,502.31997 q 0.352,0 0.608,0.256 0.256,0.256 0.256,0.608 v 1.152 q 0,0.352 -0.256,0.608 -0.256,0.256 -0.608,0.256 h -10.528 v 7.392 h 9.888 q 0.352,0 0.608,0.256 0.256,0.256 0.256,0.608 v 1.152 q 0,0.352 -0.256,0.608 -0.256,0.256 -0.608,0.256 h -9.888 v 8.384 q 0,0.352 -0.256,0.608 -0.256,0.256 -0.608,0.256 h -1.312 q -0.352,0 -0.608,-0.256 -0.256,-0.256 -0.256,-0.608 v -20.672 q 0,-0.352 0.256,-0.608 0.256,-0.256 0.608,-0.256 z"
         style="font-style:normal;font-variant:normal;font-weight:normal;font-stretch:normal;font-size:32px;font-family:rubik;-inkscape-font-specification:rubik;text-align:center;text-anchor:middle;fill:#b1e3ff;fill-opacity:1"
         id="path942" />
      <path
         d="m 308.98869,508.07997 q 0.352,0 0.608,0.256 0.256,0.256 0.256,0.608 v 1.024 q 0,0.352 -0.256,0.608 -0.256,0.256 -0.608,0.256 h -1.856 q -3.68,0 -3.68,3.68 v 9.344 q 0,0.352 -0.256,0.608 -0.256,0.256 -0.608,0.256 h -1.184 q -0.352,0 -0.608,-0.256 -0.256,-0.256 -0.256,-0.608 v -14.912 q 0,-0.352 0.256,-0.608 0.256,-0.256 0.608,-0.256 h 1.184 q 0.352,0 0.608,0.256 0.256,0.256 0.256,0.608 v 0.992 q 0.64,-0.96 1.536,-1.408 0.896,-0.448 2.336,-0.448 z"
         style="font-style:normal;font-variant:normal;font-weight:normal;font-stretch:normal;font-size:32px;font-family:rubik;-inkscape-font-specification:rubik;text-align:center;text-anchor:middle;fill:#b1e3ff;fill-opacity:1"
         id="path944" />
      <path
         d="m 311.52269,514.79997 q 0.128,-1.472 0.704,-2.752 0.576,-1.28 1.504,-2.24 0.928,-0.96 2.208,-1.504 1.312,-0.544 2.912,-0.544 1.728,0 3.072,0.576 1.376,0.544 2.336,1.6 0.96,1.056 1.472,2.56 0.512,1.504 0.512,3.36 v 0.864 q 0,0.352 -0.256,0.608 -0.256,0.256 -0.608,0.256 h -11.008 v 0.192 q 0.064,2.176 1.312,3.36 1.28,1.152 3.168,1.152 1.76,0 2.624,-0.48 0.896,-0.512 1.44,-1.12 0.256,-0.256 0.448,-0.352 0.192,-0.096 0.576,-0.096 h 0.96 q 0.352,0 0.64,0.256 0.288,0.256 0.224,0.608 -0.096,0.576 -0.544,1.28 -0.448,0.672 -1.312,1.28 -0.832,0.576 -2.112,0.992 -1.248,0.384 -2.944,0.384 -1.6,0 -2.88,-0.544 -1.28,-0.576 -2.24,-1.536 -0.928,-0.992 -1.504,-2.304 -0.576,-1.344 -0.704,-2.912 -0.16,-1.472 0,-2.944 z m 2.848,0.096 h 8.992 v -0.096 q 0,-1.952 -1.248,-3.104 -1.216,-1.184 -3.264,-1.184 -0.928,0 -1.728,0.32 -0.8,0.288 -1.408,0.864 -0.608,0.544 -0.96,1.344 -0.352,0.8 -0.384,1.76 z"
         style="font-style:normal;font-variant:normal;font-weight:normal;font-stretch:normal;font-size:32px;font-family:rubik;-inkscape-font-specification:rubik;text-align:center;text-anchor:middle;fill:#b1e3ff;fill-opacity:1"
         id="path946" />
      <path
         d="m 329.33519,514.79997 q 0.128,-1.472 0.704,-2.752 0.576,-1.28 1.504,-2.24 0.928,-0.96 2.208,-1.504 1.312,-0.544 2.912,-0.544 1.728,0 3.072,0.576 1.376,0.544 2.336,1.6 0.96,1.056 1.472,2.56 0.512,1.504 0.512,3.36 v 0.864 q 0,0.352 -0.256,0.608 -0.256,0.256 -0.608,0.256 h -11.008 v 0.192 q 0.064,2.176 1.312,3.36 1.28,1.152 3.168,1.152 1.76,0 2.624,-0.48 0.896,-0.512 1.44,-1.12 0.256,-0.256 0.448,-0.352 0.192,-0.096 0.576,-0.096 h 0.96 q 0.352,0 0.64,0.256 0.288,0.256 0.224,0.608 -0.096,0.576 -0.544,1.28 -0.448,0.672 -1.312,1.28 -0.832,0.576 -2.112,0.992 -1.248,0.384 -2.944,0.384 -1.6,0 -2.88,-0.544 -1.28,-0.576 -2.24,-1.536 -0.928,-0.992 -1.504,-2.304 -0.576,-1.344 -0.704,-2.912 -0.16,-1.472 0,-2.944 z m 2.848,0.096 h 8.992 v -0.096 q 0,-1.952 -1.248,-3.104 -1.216,-1.184 -3.264,-1.184 -0.928,0 -1.728,0.32 -0.8,0.288 -1.408,0.864 -0.608,0.544 -0.96,1.344 -0.352,0.8 -0.384,1.76 z"
         style="font-style:normal;font-variant:normal;font-weight:normal;font-stretch:normal;font-size:32px;font-family:rubik;-inkscape-font-specification:rubik;text-align:center;text-anchor:middle;fill:#b1e3ff;fill-opacity:1"
         id="path948" />
      <path
         d="m 364.19869,523.85597 q 0,0.352 -0.256,0.608 -0.256,0.256 -0.608,0.256 h -1.312 q -0.352,0 -0.608,-0.256 -0.256,-0.256 -0.256,-0.608 v -7.488 l -7.648,-12.896 q -0.16,-0.288 -0.16,-0.448 0,-0.288 0.192,-0.48 0.224,-0.224 0.512,-0.224 h 1.376 q 0.64,0 0.896,0.256 0.288,0.256 0.448,0.544 l 5.888,10.176 5.92,-10.176 q 0.16,-0.288 0.416,-0.544 0.288,-0.256 0.928,-0.256 h 1.376 q 0.288,0 0.48,0.224 0.224,0.192 0.224,0.48 0,0.16 -0.16,0.448 l -7.648,12.896 z"
         style="font-style:normal;font-variant:normal;font-weight:normal;font-stretch:normal;font-size:32px;font-family:rubik;-inkscape-font-specification:rubik;text-align:center;text-anchor:middle;fill:#b1e3ff;fill-opacity:1"
         id="path950" />
      <path
         d="m 379.41919,507.75997 q 1.728,0 3.072,0.544 1.344,0.512 2.304,1.44 0.96,0.928 1.504,2.272 0.576,1.312 0.704,2.88 0.032,0.288 0.032,0.704 0,0.384 0,0.832 0,0.416 0,0.832 0,0.384 -0.032,0.64 -0.16,1.6 -0.704,2.912 -0.544,1.312 -1.504,2.24 -0.96,0.928 -2.304,1.472 -1.344,0.512 -3.072,0.512 -1.728,0 -3.072,-0.512 -1.344,-0.544 -2.304,-1.472 -0.96,-0.928 -1.536,-2.24 -0.544,-1.312 -0.672,-2.912 -0.032,-0.256 -0.064,-0.64 0,-0.416 0,-0.832 0,-0.448 0,-0.832 0.032,-0.416 0.064,-0.704 0.128,-1.568 0.672,-2.88 0.576,-1.344 1.536,-2.272 0.96,-0.928 2.304,-1.44 1.344,-0.544 3.072,-0.544 z m 4.672,9.984 q 0.064,-0.544 0.064,-1.312 0,-0.8 -0.064,-1.376 -0.096,-0.96 -0.416,-1.792 -0.32,-0.832 -0.896,-1.44 -0.576,-0.608 -1.408,-0.96 -0.832,-0.352 -1.952,-0.352 -1.12,0 -1.952,0.352 -0.832,0.352 -1.408,0.96 -0.576,0.608 -0.896,1.44 -0.32,0.832 -0.416,1.792 -0.064,0.576 -0.064,1.376 0,0.768 0.064,1.312 0.096,0.96 0.416,1.792 0.32,0.832 0.896,1.44 0.576,0.608 1.408,0.96 0.832,0.352 1.952,0.352 1.12,0 1.952,-0.352 0.832,-0.352 1.408,-0.96 0.576,-0.608 0.896,-1.44 0.32,-0.832 0.416,-1.792 z"
         style="font-style:normal;font-variant:normal;font-weight:normal;font-stretch:normal;font-size:32px;font-family:rubik;-inkscape-font-specification:rubik;text-align:center;text-anchor:middle;fill:#b1e3ff;fill-opacity:1"
         id="path952" />
      <path
         d="m 390.88069,508.94397 q 0,-0.352 0.256,-0.608 0.256,-0.256 0.608,-0.256 h 1.184 q 0.352,0 0.608,0.256 0.256,0.256 0.256,0.608 v 8.448 q 0,2.464 1.088,3.68 1.12,1.216 3.232,1.216 2.016,0 3.168,-1.216 1.152,-1.216 1.152,-3.68 v -8.448 q 0,-0.352 0.256,-0.608 0.256,-0.256 0.608,-0.256 h 1.184 q 0.352,0 0.608,0.256 0.256,0.256 0.256,0.608 v 14.912 q 0,0.352 -0.256,0.608 -0.256,0.256 -0.608,0.256 h -1.184 q -0.352,0 -0.608,-0.256 -0.256,-0.256 -0.256,-0.608 v -0.992 q -0.608,0.8 -1.728,1.504 -1.12,0.672 -3.072,0.672 -1.504,0 -2.752,-0.48 -1.248,-0.512 -2.144,-1.408 -0.896,-0.928 -1.376,-2.24 -0.48,-1.344 -0.48,-3.04 z"
         style="font-style:normal;font-variant:normal;font-weight:normal;font-stretch:normal;font-size:32px;font-family:rubik;-inkscape-font-specification:rubik;text-align:center;text-anchor:middle;fill:#b1e3ff;fill-opacity:1"
         id="path954" />
      <path
         d="m 418.61369,508.07997 q 0.352,0 0.608,0.256 0.256,0.256 0.256,0.608 v 1.024 q 0,0.352 -0.256,0.608 -0.256,0.256 -0.608,0.256 h -1.856 q -3.68,0 -3.68,3.68 v 9.344 q 0,0.352 -0.256,0.608 -0.256,0.256 -0.608,0.256 h -1.184 q -0.352,0 -0.608,-0.256 -0.256,-0.256 -0.256,-0.608 v -14.912 q 0,-0.352 0.256,-0.608 0.256,-0.256 0.608,-0.256 h 1.184 q 0.352,0 0.608,0.256 0.256,0.256 0.256,0.608 v 0.992 q 0.64,-0.96 1.536,-1.408 0.896,-0.448 2.336,-0.448 z"
         style="font-style:normal;font-variant:normal;font-weight:normal;font-stretch:normal;font-size:32px;font-family:rubik;-inkscape-font-specification:rubik;text-align:center;text-anchor:middle;fill:#b1e3ff;fill-opacity:1"
         id="path956" />
      <path
         d="m 431.91319,510.83197 q -0.064,1.44 -0.064,2.688 0,1.248 0.064,2.688 0.096,2.656 1.6,4.32 1.536,1.632 4.384,1.632 1.536,0 2.592,-0.384 1.056,-0.384 1.728,-0.992 0.704,-0.608 1.056,-1.376 0.384,-0.8 0.576,-1.6 0.064,-0.352 0.32,-0.512 0.256,-0.192 0.512,-0.192 h 1.472 q 0.288,0 0.48,0.224 0.224,0.192 0.224,0.48 -0.032,1.056 -0.544,2.304 -0.512,1.248 -1.6,2.368 -1.056,1.088 -2.752,1.824 -1.664,0.736 -4.064,0.736 -2.08,0 -3.712,-0.64 -1.632,-0.672 -2.816,-1.824 -1.152,-1.152 -1.792,-2.72 -0.64,-1.6 -0.704,-3.488 -0.096,-2.848 0,-5.696 0.064,-1.856 0.704,-3.456 0.64,-1.6 1.792,-2.752 1.184,-1.152 2.816,-1.792 1.632,-0.672 3.712,-0.672 2.4,0 4.064,0.736 1.696,0.736 2.752,1.856 1.088,1.088 1.6,2.336 0.512,1.248 0.544,2.304 0,0.288 -0.224,0.512 -0.192,0.192 -0.48,0.192 h -1.472 q -0.256,0 -0.512,-0.16 -0.256,-0.192 -0.32,-0.544 -0.192,-0.8 -0.576,-1.568 -0.352,-0.8 -1.056,-1.408 -0.672,-0.608 -1.728,-0.992 -1.056,-0.384 -2.592,-0.384 -2.848,0 -4.384,1.664 -1.504,1.632 -1.6,4.288 z"
         style="font-style:normal;font-variant:normal;font-weight:normal;font-stretch:normal;font-size:32px;font-family:rubik;-inkscape-font-specification:rubik;text-align:center;text-anchor:middle;fill:#b1e3ff;fill-opacity:1"
         id="path958" />
      <path
         d="m 457.54419,507.75997 q 1.728,0 3.072,0.544 1.344,0.512 2.304,1.44 0.96,0.928 1.504,2.272 0.576,1.312 0.704,2.88 0.032,0.288 0.032,0.704 0,0.384 0,0.832 0,0.416 0,0.832 0,0.384 -0.032,0.64 -0.16,1.6 -0.704,2.912 -0.544,1.312 -1.504,2.24 -0.96,0.928 -2.304,1.472 -1.344,0.512 -3.072,0.512 -1.728,0 -3.072,-0.512 -1.344,-0.544 -2.304,-1.472 -0.96,-0.928 -1.536,-2.24 -0.544,-1.312 -0.672,-2.912 -0.032,-0.256 -0.064,-0.64 0,-0.416 0,-0.832 0,-0.448 0,-0.832 0.032,-0.416 0.064,-0.704 0.128,-1.568 0.672,-2.88 0.576,-1.344 1.536,-2.272 0.96,-0.928 2.304,-1.44 1.344,-0.544 3.072,-0.544 z m 4.672,9.984 q 0.064,-0.544 0.064,-1.312 0,-0.8 -0.064,-1.376 -0.096,-0.96 -0.416,-1.792 -0.32,-0.832 -0.896,-1.44 -0.576,-0.608 -1.408,-0.96 -0.832,-0.352 -1.952,-0.352 -1.12,0 -1.952,0.352 -0.832,0.352 -1.408,0.96 -0.576,0.608 -0.896,1.44 -0.32,0.832 -0.416,1.792 -0.064,0.576 -0.064,1.376 0,0.768 0.064,1.312 0.096,0.96 0.416,1.792 0.32,0.832 0.896,1.44 0.576,0.608 1.408,0.96 0.832,0.352 1.952,0.352 1.12,0 1.952,-0.352 0.832,-0.352 1.408,-0.96 0.576,-0.608 0.896,-1.44 0.32,-0.832 0.416,-1.792 z"
         style="font-style:normal;font-variant:normal;font-weight:normal;font-stretch:normal;font-size:32px;font-family:rubik;-inkscape-font-specification:rubik;text-align:center;text-anchor:middle;fill:#b1e3ff;fill-opacity:1"
         id="path960" />
      <path
         d="m 472.07769,509.93597 q 0.288,-0.384 0.672,-0.768 0.384,-0.416 0.864,-0.704 0.512,-0.32 1.184,-0.512 0.672,-0.192 1.568,-0.192 1.952,0 3.232,0.736 1.28,0.704 2.016,2.048 0.416,-0.576 0.864,-1.088 0.48,-0.512 1.088,-0.896 0.64,-0.384 1.408,-0.576 0.8,-0.224 1.856,-0.224 3.232,0 4.704,1.952 1.472,1.92 1.472,5.28 v 8.864 q 0,0.352 -0.256,0.608 -0.256,0.256 -0.608,0.256 h -1.184 q -0.352,0 -0.608,-0.256 -0.256,-0.256 -0.256,-0.608 v -8.544 q 0,-2.464 -0.96,-3.616 -0.96,-1.184 -2.816,-1.184 -1.696,0 -2.752,1.12 -1.024,1.12 -1.024,3.456 v 8.768 q 0,0.352 -0.256,0.608 -0.256,0.256 -0.608,0.256 h -1.184 q -0.352,0 -0.608,-0.256 -0.256,-0.256 -0.256,-0.608 v -8.544 q 0,-2.464 -0.96,-3.616 -0.96,-1.184 -2.816,-1.184 -1.696,0 -2.752,1.12 -1.024,1.12 -1.024,3.456 v 8.768 q 0,0.352 -0.256,0.608 -0.256,0.256 -0.608,0.256 h -1.184 q -0.352,0 -0.608,-0.256 -0.256,-0.256 -0.256,-0.608 v -14.912 q 0,-0.352 0.256,-0.608 0.256,-0.256 0.608,-0.256 h 1.184 q 0.352,0 0.608,0.256 0.256,0.256 0.256,0.608 z"
         style="font-style:normal;font-variant:normal;font-weight:normal;font-stretch:normal;font-size:32px;font-family:rubik;-inkscape-font-specification:rubik;text-align:center;text-anchor:middle;fill:#b1e3ff;fill-opacity:1"
         id="path962" />
      <path
         d="m 505.53769,525.03997 q -1.984,0 -3.168,-0.672 -1.184,-0.704 -1.792,-1.504 v 7.072 q 0,0.352 -0.256,0.608 -0.256,0.256 -0.608,0.256 h -1.184 q -0.352,0 -0.608,-0.256 -0.256,-0.256 -0.256,-0.608 v -20.992 q 0,-0.352 0.256,-0.608 0.256,-0.256 0.608,-0.256 h 1.184 q 0.352,0 0.608,0.256 0.256,0.256 0.256,0.608 v 0.992 q 0.64,-0.864 1.824,-1.504 1.184,-0.672 3.136,-0.672 1.504,0 2.784,0.544 1.312,0.512 2.272,1.504 0.96,0.992 1.536,2.4 0.576,1.408 0.672,3.168 0.032,0.48 0.032,1.056 0,0.544 -0.032,1.024 -0.096,1.76 -0.672,3.168 -0.576,1.408 -1.536,2.4 -0.96,0.96 -2.272,1.504 -1.28,0.512 -2.784,0.512 z m -4.96,-10.016 q -0.032,0.48 -0.032,1.28 0,0.768 0.032,1.248 0.096,2.272 1.344,3.52 1.28,1.216 3.296,1.216 2.112,0 3.328,-1.344 1.216,-1.344 1.344,-3.648 0.032,-0.896 0,-1.792 -0.128,-2.304 -1.344,-3.648 -1.216,-1.344 -3.328,-1.344 -1.984,0 -3.264,1.216 -1.28,1.216 -1.376,3.296 z"
         style="font-style:normal;font-variant:normal;font-weight:normal;font-stretch:normal;font-size:32px;font-family:rubik;-inkscape-font-specification:rubik;text-align:center;text-anchor:middle;fill:#b1e3ff;fill-opacity:1"
         id="path964" />
      <path
         d="m 516.63069,508.94397 q 0,-0.352 0.256,-0.608 0.256,-0.256 0.608,-0.256 h 1.184 q 0.352,0 0.608,0.256 0.256,0.256 0.256,0.608 v 8.448 q 0,2.464 1.088,3.68 1.12,1.216 3.232,1.216 2.016,0 3.168,-1.216 1.152,-1.216 1.152,-3.68 v -8.448 q 0,-0.352 0.256,-0.608 0.256,-0.256 0.608,-0.256 h 1.184 q 0.352,0 0.608,0.256 0.256,0.256 0.256,0.608 v 14.912 q 0,0.352 -0.256,0.608 -0.256,0.256 -0.608,0.256 h -1.184 q -0.352,0 -0.608,-0.256 -0.256,-0.256 -0.256,-0.608 v -0.992 q -0.608,0.8 -1.728,1.504 -1.12,0.672 -3.072,0.672 -1.504,0 -2.752,-0.48 -1.248,-0.512 -2.144,-1.408 -0.896,-0.928 -1.376,-2.24 -0.48,-1.344 -0.48,-3.04 z"
         style="font-style:normal;font-variant:normal;font-weight:normal;font-stretch:normal;font-size:32px;font-family:rubik;-inkscape-font-specification:rubik;text-align:center;text-anchor:middle;fill:#b1e3ff;fill-opacity:1"
         id="path966" />
      <path
         d="m 540.26769,519.11997 q 0,0.608 0.096,1.152 0.128,0.512 0.416,0.896 0.288,0.384 0.8,0.608 0.544,0.192 1.376,0.192 h 1.696 q 0.352,0 0.608,0.256 0.256,0.256 0.256,0.608 v 1.024 q 0,0.352 -0.256,0.608 -0.256,0.256 -0.608,0.256 h -2.016 q -2.784,0 -4.032,-1.44 -1.248,-1.44 -1.248,-4.16 v -8.288 h -2.368 q -0.352,0 -0.608,-0.256 -0.256,-0.256 -0.256,-0.608 v -1.024 q 0,-0.352 0.256,-0.608 0.256,-0.256 0.608,-0.256 h 2.368 v -5.216 q 0,-0.352 0.256,-0.608 0.256,-0.256 0.608,-0.256 h 1.184 q 0.352,0 0.608,0.256 0.256,0.256 0.256,0.608 v 5.216 h 4.064 q 0.352,0 0.608,0.256 0.256,0.256 0.256,0.608 v 1.024 q 0,0.352 -0.256,0.608 -0.256,0.256 -0.608,0.256 h -4.064 z"
         style="font-style:normal;font-variant:normal;font-weight:normal;font-stretch:normal;font-size:32px;font-family:rubik;-inkscape-font-specification:rubik;text-align:center;text-anchor:middle;fill:#b1e3ff;fill-opacity:1"
         id="path968" />
      <path
         d="m 547.96019,514.79997 q 0.128,-1.472 0.704,-2.752 0.576,-1.28 1.504,-2.24 0.928,-0.96 2.208,-1.504 1.312,-0.544 2.912,-0.544 1.728,0 3.072,0.576 1.376,0.544 2.336,1.6 0.96,1.056 1.472,2.56 0.512,1.504 0.512,3.36 v 0.864 q 0,0.352 -0.256,0.608 -0.256,0.256 -0.608,0.256 h -11.008 v 0.192 q 0.064,2.176 1.312,3.36 1.28,1.152 3.168,1.152 1.76,0 2.624,-0.48 0.896,-0.512 1.44,-1.12 0.256,-0.256 0.448,-0.352 0.192,-0.096 0.576,-0.096 h 0.96 q 0.352,0 0.64,0.256 0.288,0.256 0.224,0.608 -0.096,0.576 -0.544,1.28 -0.448,0.672 -1.312,1.28 -0.832,0.576 -2.112,0.992 -1.248,0.384 -2.944,0.384 -1.6,0 -2.88,-0.544 -1.28,-0.576 -2.24,-1.536 -0.928,-0.992 -1.504,-2.304 -0.576,-1.344 -0.704,-2.912 -0.16,-1.472 0,-2.944 z m 2.848,0.096 h 8.992 v -0.096 q 0,-1.952 -1.248,-3.104 -1.216,-1.184 -3.264,-1.184 -0.928,0 -1.728,0.32 -0.8,0.288 -1.408,0.864 -0.608,0.544 -0.96,1.344 -0.352,0.8 -0.384,1.76 z"
         style="font-style:normal;font-variant:normal;font-weight:normal;font-stretch:normal;font-size:32px;font-family:rubik;-inkscape-font-specification:rubik;text-align:center;text-anchor:middle;fill:#b1e3ff;fill-opacity:1"
         id="path970" />
      <path
         d="m 574.98869,508.07997 q 0.352,0 0.608,0.256 0.256,0.256 0.256,0.608 v 1.024 q 0,0.352 -0.256,0.608 -0.256,0.256 -0.608,0.256 h -1.856 q -3.68,0 -3.68,3.68 v 9.344 q 0,0.352 -0.256,0.608 -0.256,0.256 -0.608,0.256 h -1.184 q -0.352,0 -0.608,-0.256 -0.256,-0.256 -0.256,-0.608 v -14.912 q 0,-0.352 0.256,-0.608 0.256,-0.256 0.608,-0.256 h 1.184 q 0.352,0 0.608,0.256 0.256,0.256 0.256,0.608 v 0.992 q 0.64,-0.96 1.536,-1.408 0.896,-0.448 2.336,-0.448 z"
         style="font-style:normal;font-variant:normal;font-weight:normal;font-stretch:normal;font-size:32px;font-family:rubik;-inkscape-font-specification:rubik;text-align:center;text-anchor:middle;fill:#b1e3ff;fill-opacity:1"
         id="path972" />
      <path
         d="m 579.53969,520.84797 q 0.352,0 0.608,0.256 0.256,0.256 0.256,0.608 v 2.144 q 0,0.352 -0.256,0.608 -0.256,0.256 -0.608,0.256 h -2.144 q -0.352,0 -0.608,-0.256 -0.256,-0.256 -0.256,-0.608 v -2.144 q 0,-0.352 0.256,-0.608 0.256,-0.256 0.608,-0.256 z"
         style="font-style:normal;font-variant:normal;font-weight:normal;font-stretch:normal;font-size:32px;font-family:rubik;-inkscape-font-specification:rubik;text-align:center;text-anchor:middle;fill:#b1e3ff;fill-opacity:1"
         id="path974" />
      <path
         d="m 610.01119,502.31997 q 0.352,0 0.608,0.256 0.256,0.256 0.256,0.608 v 13.12 q 0,1.984 -0.576,3.584 -0.576,1.6 -1.728,2.752 -1.152,1.152 -2.88,1.792 -1.728,0.608 -4,0.608 -2.304,0 -4.032,-0.608 -1.696,-0.64 -2.848,-1.792 -1.152,-1.152 -1.728,-2.752 -0.544,-1.6 -0.544,-3.584 v -13.12 q 0,-0.352 0.256,-0.608 0.256,-0.256 0.608,-0.256 h 2.592 q 0.352,0 0.608,0.256 0.256,0.256 0.256,0.608 v 12.96 q 0,1.312 0.352,2.24 0.352,0.928 0.992,1.536 0.64,0.576 1.536,0.864 0.896,0.256 1.952,0.256 1.056,0 1.952,-0.256 0.928,-0.288 1.568,-0.864 0.64,-0.608 0.992,-1.536 0.384,-0.928 0.384,-2.24 v -12.96 q 0,-0.352 0.256,-0.608 0.256,-0.256 0.608,-0.256 z"
         style="font-style:normal;font-variant:normal;font-weight:500;font-stretch:normal;font-family:rubik;-inkscape-font-specification:'rubik Medium';fill:#b1e3ff;fill-opacity:1"
         id="path976" />
      <path
         d="m 624.46719,519.95197 q 0,-0.352 -0.224,-0.576 -0.224,-0.224 -0.8,-0.416 -0.544,-0.192 -1.472,-0.384 -0.928,-0.192 -2.368,-0.512 -1.408,-0.32 -2.336,-0.8 -0.928,-0.48 -1.504,-1.12 -0.544,-0.64 -0.768,-1.44 -0.224,-0.832 -0.224,-1.792 0,-0.96 0.448,-1.888 0.448,-0.928 1.28,-1.632 0.864,-0.736 2.08,-1.184 1.216,-0.448 2.784,-0.448 1.568,0 2.784,0.352 1.248,0.352 2.112,0.928 0.864,0.576 1.344,1.344 0.48,0.736 0.544,1.504 0.032,0.352 -0.256,0.608 -0.256,0.256 -0.608,0.256 h -2.464 q -0.48,0 -0.736,-0.16 -0.224,-0.192 -0.512,-0.416 -0.288,-0.224 -0.768,-0.384 -0.48,-0.192 -1.44,-0.192 -0.96,0 -1.696,0.288 -0.736,0.288 -0.736,1.024 0,0.352 0.16,0.608 0.192,0.224 0.672,0.416 0.512,0.192 1.376,0.416 0.896,0.192 2.304,0.48 2.848,0.608 4,1.92 1.184,1.28 1.184,3.2 0,0.96 -0.48,1.888 -0.48,0.896 -1.408,1.632 -0.896,0.704 -2.24,1.152 -1.312,0.416 -2.976,0.416 -1.696,0 -3.008,-0.384 -1.28,-0.416 -2.176,-1.056 -0.896,-0.64 -1.376,-1.44 -0.48,-0.8 -0.512,-1.568 -0.032,-0.352 0.224,-0.608 0.288,-0.256 0.64,-0.256 h 2.464 q 0.48,0 0.704,0.224 0.256,0.224 0.544,0.512 0.32,0.288 0.864,0.512 0.544,0.224 1.632,0.224 0.48,0 0.992,-0.064 0.512,-0.064 0.928,-0.192 0.448,-0.16 0.736,-0.384 0.288,-0.256 0.288,-0.608 z"
         style="font-style:normal;font-variant:normal;font-weight:500;font-stretch:normal;font-family:rubik;-inkscape-font-specification:'rubik Medium';fill:#b1e3ff;fill-opacity:1"
         id="path978" />
      <path
         d="m 631.20419,516.39997 q 0,-1.792 0.544,-3.36 0.544,-1.6 1.568,-2.752 1.024,-1.184 2.464,-1.856 1.472,-0.672 3.264,-0.672 1.792,0 3.232,0.672 1.472,0.64 2.496,1.76 1.024,1.088 1.568,2.592 0.576,1.472 0.576,3.104 v 1.44 q 0,0.352 -0.256,0.608 -0.256,0.256 -0.608,0.256 h -10.688 q 0,0.736 0.288,1.312 0.32,0.544 0.832,0.928 0.512,0.384 1.184,0.576 0.672,0.192 1.376,0.192 1.024,0 1.664,-0.192 0.64,-0.224 1.056,-0.544 0.352,-0.256 0.576,-0.352 0.224,-0.096 0.608,-0.096 h 2.56 q 0.352,0 0.608,0.256 0.288,0.256 0.256,0.608 -0.032,0.448 -0.512,1.152 -0.448,0.704 -1.376,1.376 -0.928,0.672 -2.304,1.152 -1.344,0.48 -3.136,0.48 -1.792,0 -3.264,-0.608 -1.44,-0.64 -2.464,-1.792 -1.024,-1.152 -1.568,-2.72 -0.544,-1.6 -0.544,-3.52 z m 7.84,-4.8 q -0.928,0 -1.6,0.288 -0.64,0.256 -1.088,0.704 -0.448,0.416 -0.704,0.96 -0.224,0.512 -0.288,0.992 h 7.232 q -0.064,-0.48 -0.256,-0.992 -0.16,-0.544 -0.576,-0.96 -0.384,-0.448 -1.056,-0.704 -0.64,-0.288 -1.664,-0.288 z"
         style="font-style:normal;font-variant:normal;font-weight:500;font-stretch:normal;font-family:rubik;-inkscape-font-specification:'rubik Medium';fill:#b1e3ff;fill-opacity:1"
         id="path980" />
      <path
         d="m 672.89169,520.71997 q 0.352,0 0.608,0.256 0.256,0.256 0.256,0.608 v 2.272 q 0,0.352 -0.256,0.608 -0.256,0.256 -0.608,0.256 h -14.016 q -0.352,0 -0.608,-0.256 -0.256,-0.256 -0.256,-0.608 v -20.672 q 0,-0.352 0.256,-0.608 0.256,-0.256 0.608,-0.256 h 2.592 q 0.352,0 0.608,0.256 0.256,0.256 0.256,0.608 v 17.536 z"
         style="font-style:normal;font-variant:normal;font-weight:500;font-stretch:normal;font-family:rubik;-inkscape-font-specification:'rubik Medium';fill:#b1e3ff;fill-opacity:1"
         id="path982" />
      <path
         d="m 680.69619,523.85597 q 0,0.352 -0.256,0.608 -0.256,0.256 -0.608,0.256 h -2.432 q -0.352,0 -0.608,-0.256 -0.256,-0.256 -0.256,-0.608 v -14.912 q 0,-0.352 0.256,-0.608 0.256,-0.256 0.608,-0.256 h 2.432 q 0.352,0 0.608,0.256 0.256,0.256 0.256,0.608 z m -0.704,-21.856 q 0.352,0 0.608,0.256 0.256,0.256 0.256,0.608 v 2.496 q 0,0.352 -0.256,0.608 -0.256,0.256 -0.608,0.256 h -2.752 q -0.352,0 -0.608,-0.256 -0.256,-0.256 -0.256,-0.608 v -2.496 q 0,-0.352 0.256,-0.608 0.256,-0.256 0.608,-0.256 z"
         style="font-style:normal;font-variant:normal;font-weight:500;font-stretch:normal;font-family:rubik;-inkscape-font-specification:'rubik Medium';fill:#b1e3ff;fill-opacity:1"
         id="path984" />
      <path
         d="m 700.71469,523.85597 q 0,0.352 -0.256,0.608 -0.256,0.256 -0.608,0.256 h -2.432 q -0.352,0 -0.608,-0.256 -0.256,-0.256 -0.256,-0.608 v -8.128 q 0,-1.92 -0.896,-3.072 -0.896,-1.152 -2.752,-1.152 -1.696,0 -2.688,1.152 -0.96,1.152 -0.96,3.072 v 8.128 q 0,0.352 -0.256,0.608 -0.256,0.256 -0.608,0.256 h -2.432 q -0.352,0 -0.608,-0.256 -0.256,-0.256 -0.256,-0.608 v -14.912 q 0,-0.352 0.256,-0.608 0.256,-0.256 0.608,-0.256 h 2.432 q 0.352,0 0.608,0.256 0.256,0.256 0.256,0.608 v 0.736 q 0.832,-0.832 1.952,-1.376 1.12,-0.544 2.656,-0.544 1.952,0 3.264,0.608 1.312,0.608 2.112,1.632 0.8,1.024 1.12,2.4 0.352,1.344 0.352,2.848 z"
         style="font-style:normal;font-variant:normal;font-weight:500;font-stretch:normal;font-family:rubik;-inkscape-font-specification:'rubik Medium';fill:#b1e3ff;fill-opacity:1"
         id="path986" />
      <path
         d="m 704.81369,508.94397 q 0,-0.352 0.256,-0.608 0.256,-0.256 0.608,-0.256 h 2.432 q 0.352,0 0.608,0.256 0.256,0.256 0.256,0.608 v 8.128 q 0,1.92 0.8,3.072 0.832,1.152 2.688,1.152 1.696,0 2.592,-1.152 0.896,-1.152 0.896,-3.072 v -8.128 q 0,-0.352 0.256,-0.608 0.256,-0.256 0.608,-0.256 h 2.432 q 0.352,0 0.608,0.256 0.256,0.256 0.256,0.608 v 14.912 q 0,0.352 -0.256,0.608 -0.256,0.256 -0.608,0.256 h -2.432 q -0.352,0 -0.608,-0.256 -0.256,-0.256 -0.256,-0.608 v -0.736 q -0.736,0.736 -1.824,1.344 -1.088,0.576 -2.624,0.576 -1.952,0 -3.232,-0.608 -1.28,-0.608 -2.048,-1.632 -0.768,-1.024 -1.088,-2.368 -0.32,-1.376 -0.32,-2.88 z"
         style="font-style:normal;font-variant:normal;font-weight:500;font-stretch:normal;font-family:rubik;-inkscape-font-specification:'rubik Medium';fill:#b1e3ff;fill-opacity:1"
         id="path988" />
      <path
         d="m 731.64019,519.43997 -3.776,4.672 q -0.32,0.384 -0.672,0.512 -0.32,0.096 -0.736,0.096 h -2.464 q -0.352,0 -0.608,-0.256 -0.224,-0.256 -0.224,-0.64 0,-0.256 0.128,-0.448 l 5.76,-7.136 -5.504,-6.816 q -0.128,-0.192 -0.128,-0.448 0,-0.384 0.224,-0.64 0.256,-0.256 0.608,-0.256 h 2.464 q 0.416,0 0.736,0.128 0.352,0.096 0.672,0.48 l 3.616,4.48 3.584,-4.48 q 0.32,-0.384 0.64,-0.48 0.352,-0.128 0.768,-0.128 h 2.464 q 0.352,0 0.576,0.256 0.256,0.256 0.256,0.64 0,0.256 -0.128,0.448 l -5.568,6.944 5.696,7.008 q 0.128,0.192 0.128,0.448 0,0.384 -0.256,0.64 -0.224,0.256 -0.576,0.256 h -2.464 q -0.416,0 -0.768,-0.096 -0.32,-0.128 -0.64,-0.512 z"
         style="font-style:normal;font-variant:normal;font-weight:500;font-stretch:normal;font-family:rubik;-inkscape-font-specification:'rubik Medium';fill:#b1e3ff;fill-opacity:1"
         id="path990" />
    </g>
    <g
       aria-label="Compute Freely"
       style="font-style:normal;font-weight:normal;font-size:40px;line-height:1000%;font-family:sans-serif;letter-spacing:0px;word-spacing:0px;fill:#000000;fill-opacity:1;stroke:none;stroke-width:1px;stroke-linecap:butt;stroke-linejoin:miter;stroke-opacity:1"
       id="text826"
       transform="translate(0,4)">
      <path
         d="m 146.34405,366.59997 v -6.768 q 0,-12.384 -4.896,-18.72 -5.184,-6.336 -15.12,-6.336 -9.936,0 -15.12,6.336 -5.04,6.624 -5.04,18.72 v 45.648 q 0,7.776 1.872,12.816 1.872,4.896 4.752,7.632 2.88,2.736 6.48,3.744 3.6,1.008 7.056,1.008 3.456,0 6.912,-1.008 3.6,-1.008 6.48,-3.744 2.88,-2.736 4.752,-7.632 1.872,-5.04 1.872,-12.816 v -6.912 h 5.184 v 6.912 q 0,13.968 -6.192,21.744 -2.304,2.88 -6.768,5.76 -4.464,2.736 -12.24,2.736 -3.888,0 -6.912,-0.72 -3.024,-0.864 -5.472,-2.016 -2.304,-1.296 -4.032,-2.736 -1.584,-1.584 -2.736,-3.024 -6.048,-7.488 -6.048,-21.744 v -45.648 q 0,-14.112 6.048,-21.744 1.152,-1.44 2.736,-2.88 1.728,-1.584 4.032,-2.736 2.448,-1.296 5.472,-2.016 3.024,-0.864 6.912,-0.864 7.776,0 12.24,2.88 4.464,2.736 6.768,5.616 6.192,7.776 6.192,21.744 v 6.768 z m -20.016,-28.512 q 16.704,0 16.704,21.744 v 6.768 h -5.184 v -6.768 q 0,-6.192 -1.296,-9.504 -1.152,-3.456 -3.024,-4.896 -1.728,-1.584 -3.744,-1.872 -2.016,-0.288 -3.456,-0.288 -1.584,0 -3.6,0.288 -1.872,0.288 -3.744,1.872 -1.872,1.44 -3.168,4.896 -1.152,3.312 -1.152,9.504 v 45.648 q 0,9.36 3.312,13.392 0.72,1.152 2.592,2.304 1.872,1.008 5.76,1.008 3.888,0 5.616,-1.008 1.872,-1.152 2.736,-2.304 3.168,-4.032 3.168,-13.392 v -6.912 h 5.184 v 6.912 q 0,21.744 -16.704,21.744 -16.704,0 -16.704,-21.744 v -45.648 q 0,-21.744 16.704,-21.744 z"
         style="font-style:normal;font-variant:normal;font-weight:bold;font-stretch:normal;font-size:144px;font-family:'Ostrich Sans';-inkscape-font-specification:'Ostrich Sans Bold';text-align:center;text-anchor:middle;fill:#ffffff"
         id="path851"
         inkscape:connector-curvature="0" />
      <path
         d="m 185.1093,337.79997 q 8.496,0 12.384,5.184 4.32,5.184 4.32,16.416 v 45.792 q 0,21.744 -16.704,21.744 -16.704,0 -16.704,-21.744 v -45.792 q 0,-11.232 4.32,-16.416 3.888,-5.184 12.384,-5.184 z m 11.664,21.6 q 0,-6.192 -1.296,-9.504 -1.152,-3.456 -3.024,-4.896 -1.872,-1.584 -3.888,-1.872 -2.016,-0.288 -3.456,-0.288 -1.584,0 -3.6,0.288 -1.872,0.288 -3.744,1.872 -1.872,1.44 -3.168,4.896 -1.152,3.312 -1.152,9.504 v 45.792 q 0,6.336 1.152,9.792 1.296,3.312 3.168,4.896 1.872,1.44 3.744,1.728 2.016,0.288 3.6,0.288 1.44,0 3.456,-0.288 2.016,-0.288 3.888,-1.728 1.872,-1.584 3.024,-4.896 1.296,-3.456 1.296,-9.792 z m 7.488,-21.744 q 6.048,7.776 6.048,21.744 v 45.792 q 0,14.256 -6.048,21.744 -1.152,1.44 -2.88,3.024 -1.584,1.44 -4.032,2.736 -2.304,1.152 -5.328,2.016 -3.024,0.72 -6.912,0.72 -7.776,0 -12.384,-2.736 -4.464,-2.88 -6.768,-5.76 -6.048,-7.488 -6.048,-21.744 v -45.792 q 0,-13.968 6.048,-21.744 2.304,-2.88 6.768,-5.616 4.608,-2.736 12.384,-2.736 7.776,0 12.24,2.736 4.608,2.736 6.912,5.616 z m 1.008,21.744 q 0,-12.24 -5.04,-18.576 -5.184,-6.48 -15.12,-6.48 -9.936,0 -15.12,6.48 -5.04,6.336 -5.04,18.576 v 45.792 q 0,12.24 5.04,18.576 5.328,6.624 15.12,6.624 9.792,0 15.12,-6.624 5.04,-6.336 5.04,-18.576 z"
         style="font-style:normal;font-variant:normal;font-weight:bold;font-stretch:normal;font-size:144px;font-family:'Ostrich Sans';-inkscape-font-specification:'Ostrich Sans Bold';text-align:center;text-anchor:middle;fill:#ffffff"
         id="path853"
         inkscape:connector-curvature="0" />
      <path
         d="m 226.62405,348.31197 24.912,86.688 24.768,-86.688 v 87.264 h -5.04 v -50.832 l -14.688,50.832 h -10.224 l -14.688,-50.832 v 50.832 h -5.04 z m 55.44,-18.864 h 2.736 v 106.128 h -5.04 v -100.944 h -3.024 l -25.2,87.984 -25.344,-87.984 h -3.024 v 100.944 h -5.04 v -106.128 h 1.584 3.456 1.584 3.168 2.16 l 21.456,74.736 21.312,-74.736 h 1.152 4.176 1.584 z"
         style="font-style:normal;font-variant:normal;font-weight:bold;font-stretch:normal;font-size:144px;font-family:'Ostrich Sans';-inkscape-font-specification:'Ostrich Sans Bold';text-align:center;text-anchor:middle;fill:#ffffff"
         id="path855"
         inkscape:connector-curvature="0" />
      <path
         d="m 336.0798,359.11197 q 0,11.376 -4.464,16.416 -4.32,5.04 -14.112,5.04 h -13.536 v -42.768 h 13.536 q 9.792,0 14.112,4.896 4.464,5.04 4.464,16.416 z m -27.072,16.416 h 8.496 q 5.616,0 7.632,-1.296 2.016,-1.296 2.592,-2.016 3.168,-3.6 3.168,-13.104 0,-5.184 -0.864,-8.352 -0.864,-3.168 -2.592,-4.896 -1.584,-1.728 -4.176,-2.304 -2.448,-0.72 -5.76,-0.72 h -8.496 z m -8.496,59.904 h -5.04 v -97.632 h 5.04 z m 37.584,-98.208 q 6.48,7.344 6.48,21.888 0,14.544 -6.48,22.032 -6.912,7.92 -20.592,7.92 h -8.496 v 46.368 h -5.04 v -51.408 h 13.536 q 11.232,0 16.56,-6.048 5.328,-6.048 5.328,-18.864 0,-12.672 -5.328,-18.72 -5.328,-6.048 -16.56,-6.048 h -13.824 -3.168 -5.04 v -5.04 h 22.032 q 13.68,0 20.592,7.92 z"
         style="font-style:normal;font-variant:normal;font-weight:bold;font-stretch:normal;font-size:144px;font-family:'Ostrich Sans';-inkscape-font-specification:'Ostrich Sans Bold';text-align:center;text-anchor:middle;fill:#ffffff"
         id="path857"
         inkscape:connector-curvature="0" />
      <path
         d="m 364.41405,329.59197 v 77.904 q 0,5.472 1.008,8.496 1.152,3.024 2.736,4.464 1.584,1.296 3.312,1.584 1.728,0.144 3.168,0.144 1.44,0 3.168,-0.144 1.728,-0.288 3.312,-1.584 1.584,-1.44 2.592,-4.464 1.152,-3.024 1.152,-8.496 v -77.904 h 5.04 v 77.904 q 0,10.224 -3.888,15.12 -3.6,4.608 -11.376,4.608 -7.632,0 -11.376,-4.608 -3.888,-4.896 -3.888,-15.12 v -77.904 z m 33.984,0 v 77.904 q 0,13.248 -5.76,20.304 -2.16,2.88 -6.48,5.472 -4.32,2.448 -11.52,2.448 -7.2,0 -11.52,-2.448 -4.32,-2.592 -6.48,-5.472 -5.76,-7.056 -5.76,-20.304 v -77.904 h 5.04 v 77.904 q 0,11.376 4.752,17.136 4.752,6.048 13.968,6.048 9.36,0 13.968,-6.048 4.752,-5.76 4.752,-17.136 v -77.904 z"
         style="font-style:normal;font-variant:normal;font-weight:bold;font-stretch:normal;font-size:144px;font-family:'Ostrich Sans';-inkscape-font-specification:'Ostrich Sans Bold';text-align:center;text-anchor:middle;fill:#ffffff"
         id="path859"
         inkscape:connector-curvature="0" />
      <path
         d="m 436.0248,334.77597 h -28.368 v -5.184 h 60.048 v 5.184 h -28.368 z m 0,100.944 h -5.184 v -92.448 h -23.184 v -5.184 h 28.368 z m 3.312,-97.632 h 28.368 v 5.184 h -23.184 v 92.448 h -5.184 v -5.04 z"
         style="font-style:normal;font-variant:normal;font-weight:bold;font-stretch:normal;font-size:144px;font-family:'Ostrich Sans';-inkscape-font-specification:'Ostrich Sans Bold';text-align:center;text-anchor:middle;fill:#ffffff"
         id="path861"
         inkscape:connector-curvature="0" />
      <path
         d="m 480.5118,430.67997 h 38.88 v 5.04 h -43.92 v -106.128 h 43.92 v 5.184 h -38.88 v 46.224 3.312 z m 38.88,-41.184 h -30.384 v 32.688 h 30.384 v 5.04 h -35.424 v -42.912 h 35.424 z m 0,-46.224 h -30.384 v 32.544 h 30.384 v 5.184 h -35.424 v -42.912 h 35.424 z"
         style="font-style:normal;font-variant:normal;font-weight:bold;font-stretch:normal;font-size:144px;font-family:'Ostrich Sans';-inkscape-font-specification:'Ostrich Sans Bold';text-align:center;text-anchor:middle;fill:#ffffff"
         id="path863"
         inkscape:connector-curvature="0" />
      <path
         d="m 617.2668,343.27197 h -30.384 v 32.544 h 30.384 v 5.184 h -35.424 v -42.912 h 35.424 z m -38.88,41.04 v 51.408 h -5.04 v -106.128 h 43.92 v 5.184 h -38.88 v 46.224 z m 3.456,0 h 35.424 v 5.184 h -30.384 v 46.224 h -5.04 z"
         style="fill:#ffdd22;fill-opacity:1"
         id="path865"
         inkscape:connector-curvature="0" />
      <path
         d="m 662.3523,435.71997 v -31.392 q 0,-13.968 -13.536,-13.968 h -6.768 -1.728 v 45.36 h -5.04 v -50.544 h 11.808 1.728 q 8.928,0 13.824,5.04 4.896,4.896 4.896,14.112 v 31.392 z m -30.528,0 h -5.04 v -97.632 h 5.04 z m 15.264,-54 h -11.808 v -43.632 h 13.536 q 9.792,0 14.112,5.04 4.32,5.184 4.32,16.704 0,11.664 -4.32,16.848 -4.32,5.04 -14.112,5.04 z m -5.04,-5.04 h 6.768 q 5.472,0 7.488,-1.296 2.16,-1.296 2.736,-2.016 3.168,-4.032 3.168,-13.536 0,-5.328 -0.864,-8.496 -0.864,-3.312 -2.592,-5.04 -1.584,-1.872 -4.176,-2.448 -2.448,-0.576 -5.76,-0.576 h -8.496 v 33.408 z m 25.92,6.912 q 3.888,3.744 5.904,8.928 2.16,5.184 2.16,11.808 v 31.392 h -5.184 v -31.392 q 0,-10.656 -6.192,-16.848 -2.592,-2.304 -6.048,-3.888 12.096,-4.608 12.096,-23.76 0,-12.816 -5.184,-18.864 -5.328,-6.192 -16.704,-6.192 h -15.264 -1.728 -5.04 v -5.184 h 22.032 q 13.68,0 20.592,8.064 6.336,7.344 6.336,22.176 0,14.688 -6.336,22.32 -0.288,0.288 -0.72,0.72 -0.288,0.432 -0.72,0.72 z"
         style="fill:#ffdd22;fill-opacity:1"
         id="path867"
         inkscape:connector-curvature="0" />
      <path
         d="m 692.0118,430.67997 h 38.88 v 5.04 h -43.92 v -106.128 h 43.92 v 5.184 h -38.88 v 46.224 3.312 z m 38.88,-41.184 h -30.384 v 32.688 h 30.384 v 5.04 h -35.424 v -42.912 h 35.424 z m 0,-46.224 h -30.384 v 32.544 h 30.384 v 5.184 h -35.424 v -42.912 h 35.424 z"
         style="fill:#ffdd22;fill-opacity:1"
         id="path869"
         inkscape:connector-curvature="0" />
      <path
         d="m 745.4493,430.67997 h 38.88 v 5.04 h -43.92 v -106.128 h 43.92 v 5.184 h -38.88 v 46.224 3.312 z m 38.88,-41.184 h -30.384 v 32.688 h 30.384 v 5.04 h -35.424 v -42.912 h 35.424 z m 0,-46.224 h -30.384 v 32.544 h 30.384 v 5.184 h -35.424 v -42.912 h 35.424 z"
         style="fill:#ffdd22;fill-opacity:1"
         id="path871"
         inkscape:connector-curvature="0" />
      <path
         d="m 802.3428,329.44797 h 5.04 v 92.592 h 32.688 v 5.04 h -37.728 z m -3.456,101.088 h 41.184 v 5.04 h -46.224 v -106.128 h 5.04 z"
         style="fill:#ffdd22;fill-opacity:1"
         id="path873"
         inkscape:connector-curvature="0" />
      <path
         d="m 874.4103,435.71997 h -4.896 v -51.264 l -30.24,-54.864 h 5.76 l 29.376,53.568 z m 1.728,-56.592 -27.216,-49.536 h 5.904 l 21.456,39.024 21.6,-39.024 h 5.472 z m 31.104,-49.536 h 6.192 l -30.384,54.864 v 51.264 h -5.328 v -52.56 z"
         style="fill:#ffdd22;fill-opacity:1"
         id="path875"
         inkscape:connector-curvature="0" />
    </g>
    <g
       aria-label="Free Your Computer. Use Linux"
       style="font-style:normal;font-weight:normal;font-size:40px;line-height:1000%;font-family:sans-serif;letter-spacing:0px;word-spacing:0px;fill:#00659d;fill-opacity:1;stroke:none;stroke-width:1px;stroke-linecap:butt;stroke-linejoin:miter;stroke-opacity:1"
       id="text827">
      <path
         d="m 296.52319,501.31997 q 0.352,0 0.608,0.256 0.256,0.256 0.256,0.608 v 1.152 q 0,0.352 -0.256,0.608 -0.256,0.256 -0.608,0.256 h -10.528 v 7.392 h 9.888 q 0.352,0 0.608,0.256 0.256,0.256 0.256,0.608 v 1.152 q 0,0.352 -0.256,0.608 -0.256,0.256 -0.608,0.256 h -9.888 v 8.384 q 0,0.352 -0.256,0.608 -0.256,0.256 -0.608,0.256 h -1.312 q -0.352,0 -0.608,-0.256 -0.256,-0.256 -0.256,-0.608 v -20.672 q 0,-0.352 0.256,-0.608 0.256,-0.256 0.608,-0.256 z"
         style="font-style:normal;font-variant:normal;font-weight:normal;font-stretch:normal;font-size:32px;font-family:rubik;-inkscape-font-specification:rubik;text-align:center;text-anchor:middle;fill:#00659d;fill-opacity:1"
         id="path891" />
      <path
         d="m 308.98869,507.07997 q 0.352,0 0.608,0.256 0.256,0.256 0.256,0.608 v 1.024 q 0,0.352 -0.256,0.608 -0.256,0.256 -0.608,0.256 h -1.856 q -3.68,0 -3.68,3.68 v 9.344 q 0,0.352 -0.256,0.608 -0.256,0.256 -0.608,0.256 h -1.184 q -0.352,0 -0.608,-0.256 -0.256,-0.256 -0.256,-0.608 v -14.912 q 0,-0.352 0.256,-0.608 0.256,-0.256 0.608,-0.256 h 1.184 q 0.352,0 0.608,0.256 0.256,0.256 0.256,0.608 v 0.992 q 0.64,-0.96 1.536,-1.408 0.896,-0.448 2.336,-0.448 z"
         style="font-style:normal;font-variant:normal;font-weight:normal;font-stretch:normal;font-size:32px;font-family:rubik;-inkscape-font-specification:rubik;text-align:center;text-anchor:middle;fill:#00659d;fill-opacity:1"
         id="path893" />
      <path
         d="m 311.52269,513.79997 q 0.128,-1.472 0.704,-2.752 0.576,-1.28 1.504,-2.24 0.928,-0.96 2.208,-1.504 1.312,-0.544 2.912,-0.544 1.728,0 3.072,0.576 1.376,0.544 2.336,1.6 0.96,1.056 1.472,2.56 0.512,1.504 0.512,3.36 v 0.864 q 0,0.352 -0.256,0.608 -0.256,0.256 -0.608,0.256 h -11.008 v 0.192 q 0.064,2.176 1.312,3.36 1.28,1.152 3.168,1.152 1.76,0 2.624,-0.48 0.896,-0.512 1.44,-1.12 0.256,-0.256 0.448,-0.352 0.192,-0.096 0.576,-0.096 h 0.96 q 0.352,0 0.64,0.256 0.288,0.256 0.224,0.608 -0.096,0.576 -0.544,1.28 -0.448,0.672 -1.312,1.28 -0.832,0.576 -2.112,0.992 -1.248,0.384 -2.944,0.384 -1.6,0 -2.88,-0.544 -1.28,-0.576 -2.24,-1.536 -0.928,-0.992 -1.504,-2.304 -0.576,-1.344 -0.704,-2.912 -0.16,-1.472 0,-2.944 z m 2.848,0.096 h 8.992 v -0.096 q 0,-1.952 -1.248,-3.104 -1.216,-1.184 -3.264,-1.184 -0.928,0 -1.728,0.32 -0.8,0.288 -1.408,0.864 -0.608,0.544 -0.96,1.344 -0.352,0.8 -0.384,1.76 z"
         style="font-style:normal;font-variant:normal;font-weight:normal;font-stretch:normal;font-size:32px;font-family:rubik;-inkscape-font-specification:rubik;text-align:center;text-anchor:middle;fill:#00659d;fill-opacity:1"
         id="path895" />
      <path
         d="m 329.33519,513.79997 q 0.128,-1.472 0.704,-2.752 0.576,-1.28 1.504,-2.24 0.928,-0.96 2.208,-1.504 1.312,-0.544 2.912,-0.544 1.728,0 3.072,0.576 1.376,0.544 2.336,1.6 0.96,1.056 1.472,2.56 0.512,1.504 0.512,3.36 v 0.864 q 0,0.352 -0.256,0.608 -0.256,0.256 -0.608,0.256 h -11.008 v 0.192 q 0.064,2.176 1.312,3.36 1.28,1.152 3.168,1.152 1.76,0 2.624,-0.48 0.896,-0.512 1.44,-1.12 0.256,-0.256 0.448,-0.352 0.192,-0.096 0.576,-0.096 h 0.96 q 0.352,0 0.64,0.256 0.288,0.256 0.224,0.608 -0.096,0.576 -0.544,1.28 -0.448,0.672 -1.312,1.28 -0.832,0.576 -2.112,0.992 -1.248,0.384 -2.944,0.384 -1.6,0 -2.88,-0.544 -1.28,-0.576 -2.24,-1.536 -0.928,-0.992 -1.504,-2.304 -0.576,-1.344 -0.704,-2.912 -0.16,-1.472 0,-2.944 z m 2.848,0.096 h 8.992 v -0.096 q 0,-1.952 -1.248,-3.104 -1.216,-1.184 -3.264,-1.184 -0.928,0 -1.728,0.32 -0.8,0.288 -1.408,0.864 -0.608,0.544 -0.96,1.344 -0.352,0.8 -0.384,1.76 z"
         style="font-style:normal;font-variant:normal;font-weight:normal;font-stretch:normal;font-size:32px;font-family:rubik;-inkscape-font-specification:rubik;text-align:center;text-anchor:middle;fill:#00659d;fill-opacity:1"
         id="path897" />
      <path
         d="m 364.19869,522.85597 q 0,0.352 -0.256,0.608 -0.256,0.256 -0.608,0.256 h -1.312 q -0.352,0 -0.608,-0.256 -0.256,-0.256 -0.256,-0.608 v -7.488 l -7.648,-12.896 q -0.16,-0.288 -0.16,-0.448 0,-0.288 0.192,-0.48 0.224,-0.224 0.512,-0.224 h 1.376 q 0.64,0 0.896,0.256 0.288,0.256 0.448,0.544 l 5.888,10.176 5.92,-10.176 q 0.16,-0.288 0.416,-0.544 0.288,-0.256 0.928,-0.256 h 1.376 q 0.288,0 0.48,0.224 0.224,0.192 0.224,0.48 0,0.16 -0.16,0.448 l -7.648,12.896 z"
         style="font-style:normal;font-variant:normal;font-weight:normal;font-stretch:normal;font-size:32px;font-family:rubik;-inkscape-font-specification:rubik;text-align:center;text-anchor:middle;fill:#00659d;fill-opacity:1"
         id="path899" />
      <path
         d="m 379.41919,506.75997 q 1.728,0 3.072,0.544 1.344,0.512 2.304,1.44 0.96,0.928 1.504,2.272 0.576,1.312 0.704,2.88 0.032,0.288 0.032,0.704 0,0.384 0,0.832 0,0.416 0,0.832 0,0.384 -0.032,0.64 -0.16,1.6 -0.704,2.912 -0.544,1.312 -1.504,2.24 -0.96,0.928 -2.304,1.472 -1.344,0.512 -3.072,0.512 -1.728,0 -3.072,-0.512 -1.344,-0.544 -2.304,-1.472 -0.96,-0.928 -1.536,-2.24 -0.544,-1.312 -0.672,-2.912 -0.032,-0.256 -0.064,-0.64 0,-0.416 0,-0.832 0,-0.448 0,-0.832 0.032,-0.416 0.064,-0.704 0.128,-1.568 0.672,-2.88 0.576,-1.344 1.536,-2.272 0.96,-0.928 2.304,-1.44 1.344,-0.544 3.072,-0.544 z m 4.672,9.984 q 0.064,-0.544 0.064,-1.312 0,-0.8 -0.064,-1.376 -0.096,-0.96 -0.416,-1.792 -0.32,-0.832 -0.896,-1.44 -0.576,-0.608 -1.408,-0.96 -0.832,-0.352 -1.952,-0.352 -1.12,0 -1.952,0.352 -0.832,0.352 -1.408,0.96 -0.576,0.608 -0.896,1.44 -0.32,0.832 -0.416,1.792 -0.064,0.576 -0.064,1.376 0,0.768 0.064,1.312 0.096,0.96 0.416,1.792 0.32,0.832 0.896,1.44 0.576,0.608 1.408,0.96 0.832,0.352 1.952,0.352 1.12,0 1.952,-0.352 0.832,-0.352 1.408,-0.96 0.576,-0.608 0.896,-1.44 0.32,-0.832 0.416,-1.792 z"
         style="font-style:normal;font-variant:normal;font-weight:normal;font-stretch:normal;font-size:32px;font-family:rubik;-inkscape-font-specification:rubik;text-align:center;text-anchor:middle;fill:#00659d;fill-opacity:1"
         id="path901" />
      <path
         d="m 390.88069,507.94397 q 0,-0.352 0.256,-0.608 0.256,-0.256 0.608,-0.256 h 1.184 q 0.352,0 0.608,0.256 0.256,0.256 0.256,0.608 v 8.448 q 0,2.464 1.088,3.68 1.12,1.216 3.232,1.216 2.016,0 3.168,-1.216 1.152,-1.216 1.152,-3.68 v -8.448 q 0,-0.352 0.256,-0.608 0.256,-0.256 0.608,-0.256 h 1.184 q 0.352,0 0.608,0.256 0.256,0.256 0.256,0.608 v 14.912 q 0,0.352 -0.256,0.608 -0.256,0.256 -0.608,0.256 h -1.184 q -0.352,0 -0.608,-0.256 -0.256,-0.256 -0.256,-0.608 v -0.992 q -0.608,0.8 -1.728,1.504 -1.12,0.672 -3.072,0.672 -1.504,0 -2.752,-0.48 -1.248,-0.512 -2.144,-1.408 -0.896,-0.928 -1.376,-2.24 -0.48,-1.344 -0.48,-3.04 z"
         style="font-style:normal;font-variant:normal;font-weight:normal;font-stretch:normal;font-size:32px;font-family:rubik;-inkscape-font-specification:rubik;text-align:center;text-anchor:middle;fill:#00659d;fill-opacity:1"
         id="path903" />
      <path
         d="m 418.61369,507.07997 q 0.352,0 0.608,0.256 0.256,0.256 0.256,0.608 v 1.024 q 0,0.352 -0.256,0.608 -0.256,0.256 -0.608,0.256 h -1.856 q -3.68,0 -3.68,3.68 v 9.344 q 0,0.352 -0.256,0.608 -0.256,0.256 -0.608,0.256 h -1.184 q -0.352,0 -0.608,-0.256 -0.256,-0.256 -0.256,-0.608 v -14.912 q 0,-0.352 0.256,-0.608 0.256,-0.256 0.608,-0.256 h 1.184 q 0.352,0 0.608,0.256 0.256,0.256 0.256,0.608 v 0.992 q 0.64,-0.96 1.536,-1.408 0.896,-0.448 2.336,-0.448 z"
         style="font-style:normal;font-variant:normal;font-weight:normal;font-stretch:normal;font-size:32px;font-family:rubik;-inkscape-font-specification:rubik;text-align:center;text-anchor:middle;fill:#00659d;fill-opacity:1"
         id="path905" />
      <path
         d="m 431.91319,509.83197 q -0.064,1.44 -0.064,2.688 0,1.248 0.064,2.688 0.096,2.656 1.6,4.32 1.536,1.632 4.384,1.632 1.536,0 2.592,-0.384 1.056,-0.384 1.728,-0.992 0.704,-0.608 1.056,-1.376 0.384,-0.8 0.576,-1.6 0.064,-0.352 0.32,-0.512 0.256,-0.192 0.512,-0.192 h 1.472 q 0.288,0 0.48,0.224 0.224,0.192 0.224,0.48 -0.032,1.056 -0.544,2.304 -0.512,1.248 -1.6,2.368 -1.056,1.088 -2.752,1.824 -1.664,0.736 -4.064,0.736 -2.08,0 -3.712,-0.64 -1.632,-0.672 -2.816,-1.824 -1.152,-1.152 -1.792,-2.72 -0.64,-1.6 -0.704,-3.488 -0.096,-2.848 0,-5.696 0.064,-1.856 0.704,-3.456 0.64,-1.6 1.792,-2.752 1.184,-1.152 2.816,-1.792 1.632,-0.672 3.712,-0.672 2.4,0 4.064,0.736 1.696,0.736 2.752,1.856 1.088,1.088 1.6,2.336 0.512,1.248 0.544,2.304 0,0.288 -0.224,0.512 -0.192,0.192 -0.48,0.192 h -1.472 q -0.256,0 -0.512,-0.16 -0.256,-0.192 -0.32,-0.544 -0.192,-0.8 -0.576,-1.568 -0.352,-0.8 -1.056,-1.408 -0.672,-0.608 -1.728,-0.992 -1.056,-0.384 -2.592,-0.384 -2.848,0 -4.384,1.664 -1.504,1.632 -1.6,4.288 z"
         style="font-style:normal;font-variant:normal;font-weight:normal;font-stretch:normal;font-size:32px;font-family:rubik;-inkscape-font-specification:rubik;text-align:center;text-anchor:middle;fill:#00659d;fill-opacity:1"
         id="path907" />
      <path
         d="m 457.54419,506.75997 q 1.728,0 3.072,0.544 1.344,0.512 2.304,1.44 0.96,0.928 1.504,2.272 0.576,1.312 0.704,2.88 0.032,0.288 0.032,0.704 0,0.384 0,0.832 0,0.416 0,0.832 0,0.384 -0.032,0.64 -0.16,1.6 -0.704,2.912 -0.544,1.312 -1.504,2.24 -0.96,0.928 -2.304,1.472 -1.344,0.512 -3.072,0.512 -1.728,0 -3.072,-0.512 -1.344,-0.544 -2.304,-1.472 -0.96,-0.928 -1.536,-2.24 -0.544,-1.312 -0.672,-2.912 -0.032,-0.256 -0.064,-0.64 0,-0.416 0,-0.832 0,-0.448 0,-0.832 0.032,-0.416 0.064,-0.704 0.128,-1.568 0.672,-2.88 0.576,-1.344 1.536,-2.272 0.96,-0.928 2.304,-1.44 1.344,-0.544 3.072,-0.544 z m 4.672,9.984 q 0.064,-0.544 0.064,-1.312 0,-0.8 -0.064,-1.376 -0.096,-0.96 -0.416,-1.792 -0.32,-0.832 -0.896,-1.44 -0.576,-0.608 -1.408,-0.96 -0.832,-0.352 -1.952,-0.352 -1.12,0 -1.952,0.352 -0.832,0.352 -1.408,0.96 -0.576,0.608 -0.896,1.44 -0.32,0.832 -0.416,1.792 -0.064,0.576 -0.064,1.376 0,0.768 0.064,1.312 0.096,0.96 0.416,1.792 0.32,0.832 0.896,1.44 0.576,0.608 1.408,0.96 0.832,0.352 1.952,0.352 1.12,0 1.952,-0.352 0.832,-0.352 1.408,-0.96 0.576,-0.608 0.896,-1.44 0.32,-0.832 0.416,-1.792 z"
         style="font-style:normal;font-variant:normal;font-weight:normal;font-stretch:normal;font-size:32px;font-family:rubik;-inkscape-font-specification:rubik;text-align:center;text-anchor:middle;fill:#00659d;fill-opacity:1"
         id="path909" />
      <path
         d="m 472.07769,508.93597 q 0.288,-0.384 0.672,-0.768 0.384,-0.416 0.864,-0.704 0.512,-0.32 1.184,-0.512 0.672,-0.192 1.568,-0.192 1.952,0 3.232,0.736 1.28,0.704 2.016,2.048 0.416,-0.576 0.864,-1.088 0.48,-0.512 1.088,-0.896 0.64,-0.384 1.408,-0.576 0.8,-0.224 1.856,-0.224 3.232,0 4.704,1.952 1.472,1.92 1.472,5.28 v 8.864 q 0,0.352 -0.256,0.608 -0.256,0.256 -0.608,0.256 h -1.184 q -0.352,0 -0.608,-0.256 -0.256,-0.256 -0.256,-0.608 v -8.544 q 0,-2.464 -0.96,-3.616 -0.96,-1.184 -2.816,-1.184 -1.696,0 -2.752,1.12 -1.024,1.12 -1.024,3.456 v 8.768 q 0,0.352 -0.256,0.608 -0.256,0.256 -0.608,0.256 h -1.184 q -0.352,0 -0.608,-0.256 -0.256,-0.256 -0.256,-0.608 v -8.544 q 0,-2.464 -0.96,-3.616 -0.96,-1.184 -2.816,-1.184 -1.696,0 -2.752,1.12 -1.024,1.12 -1.024,3.456 v 8.768 q 0,0.352 -0.256,0.608 -0.256,0.256 -0.608,0.256 h -1.184 q -0.352,0 -0.608,-0.256 -0.256,-0.256 -0.256,-0.608 v -14.912 q 0,-0.352 0.256,-0.608 0.256,-0.256 0.608,-0.256 h 1.184 q 0.352,0 0.608,0.256 0.256,0.256 0.256,0.608 z"
         style="font-style:normal;font-variant:normal;font-weight:normal;font-stretch:normal;font-size:32px;font-family:rubik;-inkscape-font-specification:rubik;text-align:center;text-anchor:middle;fill:#00659d;fill-opacity:1"
         id="path911" />
      <path
         d="m 505.53769,524.03997 q -1.984,0 -3.168,-0.672 -1.184,-0.704 -1.792,-1.504 v 7.072 q 0,0.352 -0.256,0.608 -0.256,0.256 -0.608,0.256 h -1.184 q -0.352,0 -0.608,-0.256 -0.256,-0.256 -0.256,-0.608 v -20.992 q 0,-0.352 0.256,-0.608 0.256,-0.256 0.608,-0.256 h 1.184 q 0.352,0 0.608,0.256 0.256,0.256 0.256,0.608 v 0.992 q 0.64,-0.864 1.824,-1.504 1.184,-0.672 3.136,-0.672 1.504,0 2.784,0.544 1.312,0.512 2.272,1.504 0.96,0.992 1.536,2.4 0.576,1.408 0.672,3.168 0.032,0.48 0.032,1.056 0,0.544 -0.032,1.024 -0.096,1.76 -0.672,3.168 -0.576,1.408 -1.536,2.4 -0.96,0.96 -2.272,1.504 -1.28,0.512 -2.784,0.512 z m -4.96,-10.016 q -0.032,0.48 -0.032,1.28 0,0.768 0.032,1.248 0.096,2.272 1.344,3.52 1.28,1.216 3.296,1.216 2.112,0 3.328,-1.344 1.216,-1.344 1.344,-3.648 0.032,-0.896 0,-1.792 -0.128,-2.304 -1.344,-3.648 -1.216,-1.344 -3.328,-1.344 -1.984,0 -3.264,1.216 -1.28,1.216 -1.376,3.296 z"
         style="font-style:normal;font-variant:normal;font-weight:normal;font-stretch:normal;font-size:32px;font-family:rubik;-inkscape-font-specification:rubik;text-align:center;text-anchor:middle;fill:#00659d;fill-opacity:1"
         id="path913" />
      <path
         d="m 516.63069,507.94397 q 0,-0.352 0.256,-0.608 0.256,-0.256 0.608,-0.256 h 1.184 q 0.352,0 0.608,0.256 0.256,0.256 0.256,0.608 v 8.448 q 0,2.464 1.088,3.68 1.12,1.216 3.232,1.216 2.016,0 3.168,-1.216 1.152,-1.216 1.152,-3.68 v -8.448 q 0,-0.352 0.256,-0.608 0.256,-0.256 0.608,-0.256 h 1.184 q 0.352,0 0.608,0.256 0.256,0.256 0.256,0.608 v 14.912 q 0,0.352 -0.256,0.608 -0.256,0.256 -0.608,0.256 h -1.184 q -0.352,0 -0.608,-0.256 -0.256,-0.256 -0.256,-0.608 v -0.992 q -0.608,0.8 -1.728,1.504 -1.12,0.672 -3.072,0.672 -1.504,0 -2.752,-0.48 -1.248,-0.512 -2.144,-1.408 -0.896,-0.928 -1.376,-2.24 -0.48,-1.344 -0.48,-3.04 z"
         style="font-style:normal;font-variant:normal;font-weight:normal;font-stretch:normal;font-size:32px;font-family:rubik;-inkscape-font-specification:rubik;text-align:center;text-anchor:middle;fill:#00659d;fill-opacity:1"
         id="path915" />
      <path
         d="m 540.26769,518.11997 q 0,0.608 0.096,1.152 0.128,0.512 0.416,0.896 0.288,0.384 0.8,0.608 0.544,0.192 1.376,0.192 h 1.696 q 0.352,0 0.608,0.256 0.256,0.256 0.256,0.608 v 1.024 q 0,0.352 -0.256,0.608 -0.256,0.256 -0.608,0.256 h -2.016 q -2.784,0 -4.032,-1.44 -1.248,-1.44 -1.248,-4.16 v -8.288 h -2.368 q -0.352,0 -0.608,-0.256 -0.256,-0.256 -0.256,-0.608 v -1.024 q 0,-0.352 0.256,-0.608 0.256,-0.256 0.608,-0.256 h 2.368 v -5.216 q 0,-0.352 0.256,-0.608 0.256,-0.256 0.608,-0.256 h 1.184 q 0.352,0 0.608,0.256 0.256,0.256 0.256,0.608 v 5.216 h 4.064 q 0.352,0 0.608,0.256 0.256,0.256 0.256,0.608 v 1.024 q 0,0.352 -0.256,0.608 -0.256,0.256 -0.608,0.256 h -4.064 z"
         style="font-style:normal;font-variant:normal;font-weight:normal;font-stretch:normal;font-size:32px;font-family:rubik;-inkscape-font-specification:rubik;text-align:center;text-anchor:middle;fill:#00659d;fill-opacity:1"
         id="path917" />
      <path
         d="m 547.96019,513.79997 q 0.128,-1.472 0.704,-2.752 0.576,-1.28 1.504,-2.24 0.928,-0.96 2.208,-1.504 1.312,-0.544 2.912,-0.544 1.728,0 3.072,0.576 1.376,0.544 2.336,1.6 0.96,1.056 1.472,2.56 0.512,1.504 0.512,3.36 v 0.864 q 0,0.352 -0.256,0.608 -0.256,0.256 -0.608,0.256 h -11.008 v 0.192 q 0.064,2.176 1.312,3.36 1.28,1.152 3.168,1.152 1.76,0 2.624,-0.48 0.896,-0.512 1.44,-1.12 0.256,-0.256 0.448,-0.352 0.192,-0.096 0.576,-0.096 h 0.96 q 0.352,0 0.64,0.256 0.288,0.256 0.224,0.608 -0.096,0.576 -0.544,1.28 -0.448,0.672 -1.312,1.28 -0.832,0.576 -2.112,0.992 -1.248,0.384 -2.944,0.384 -1.6,0 -2.88,-0.544 -1.28,-0.576 -2.24,-1.536 -0.928,-0.992 -1.504,-2.304 -0.576,-1.344 -0.704,-2.912 -0.16,-1.472 0,-2.944 z m 2.848,0.096 h 8.992 v -0.096 q 0,-1.952 -1.248,-3.104 -1.216,-1.184 -3.264,-1.184 -0.928,0 -1.728,0.32 -0.8,0.288 -1.408,0.864 -0.608,0.544 -0.96,1.344 -0.352,0.8 -0.384,1.76 z"
         style="font-style:normal;font-variant:normal;font-weight:normal;font-stretch:normal;font-size:32px;font-family:rubik;-inkscape-font-specification:rubik;text-align:center;text-anchor:middle;fill:#00659d;fill-opacity:1"
         id="path919" />
      <path
         d="m 574.98869,507.07997 q 0.352,0 0.608,0.256 0.256,0.256 0.256,0.608 v 1.024 q 0,0.352 -0.256,0.608 -0.256,0.256 -0.608,0.256 h -1.856 q -3.68,0 -3.68,3.68 v 9.344 q 0,0.352 -0.256,0.608 -0.256,0.256 -0.608,0.256 h -1.184 q -0.352,0 -0.608,-0.256 -0.256,-0.256 -0.256,-0.608 v -14.912 q 0,-0.352 0.256,-0.608 0.256,-0.256 0.608,-0.256 h 1.184 q 0.352,0 0.608,0.256 0.256,0.256 0.256,0.608 v 0.992 q 0.64,-0.96 1.536,-1.408 0.896,-0.448 2.336,-0.448 z"
         style="font-style:normal;font-variant:normal;font-weight:normal;font-stretch:normal;font-size:32px;font-family:rubik;-inkscape-font-specification:rubik;text-align:center;text-anchor:middle;fill:#00659d;fill-opacity:1"
         id="path921" />
      <path
         d="m 579.53969,519.84797 q 0.352,0 0.608,0.256 0.256,0.256 0.256,0.608 v 2.144 q 0,0.352 -0.256,0.608 -0.256,0.256 -0.608,0.256 h -2.144 q -0.352,0 -0.608,-0.256 -0.256,-0.256 -0.256,-0.608 v -2.144 q 0,-0.352 0.256,-0.608 0.256,-0.256 0.608,-0.256 z"
         style="font-style:normal;font-variant:normal;font-weight:normal;font-stretch:normal;font-size:32px;font-family:rubik;-inkscape-font-specification:rubik;text-align:center;text-anchor:middle;fill:#00659d;fill-opacity:1"
         id="path923" />
      <path
         d="m 610.01119,501.31997 q 0.352,0 0.608,0.256 0.256,0.256 0.256,0.608 v 13.12 q 0,1.984 -0.576,3.584 -0.576,1.6 -1.728,2.752 -1.152,1.152 -2.88,1.792 -1.728,0.608 -4,0.608 -2.304,0 -4.032,-0.608 -1.696,-0.64 -2.848,-1.792 -1.152,-1.152 -1.728,-2.752 -0.544,-1.6 -0.544,-3.584 v -13.12 q 0,-0.352 0.256,-0.608 0.256,-0.256 0.608,-0.256 h 2.592 q 0.352,0 0.608,0.256 0.256,0.256 0.256,0.608 v 12.96 q 0,1.312 0.352,2.24 0.352,0.928 0.992,1.536 0.64,0.576 1.536,0.864 0.896,0.256 1.952,0.256 1.056,0 1.952,-0.256 0.928,-0.288 1.568,-0.864 0.64,-0.608 0.992,-1.536 0.384,-0.928 0.384,-2.24 v -12.96 q 0,-0.352 0.256,-0.608 0.256,-0.256 0.608,-0.256 z"
         style="font-style:normal;font-variant:normal;font-weight:500;font-stretch:normal;font-family:rubik;-inkscape-font-specification:'rubik Medium';fill:#00659d;fill-opacity:1"
         id="path925" />
      <path
         d="m 624.46719,518.95197 q 0,-0.352 -0.224,-0.576 -0.224,-0.224 -0.8,-0.416 -0.544,-0.192 -1.472,-0.384 -0.928,-0.192 -2.368,-0.512 -1.408,-0.32 -2.336,-0.8 -0.928,-0.48 -1.504,-1.12 -0.544,-0.64 -0.768,-1.44 -0.224,-0.832 -0.224,-1.792 0,-0.96 0.448,-1.888 0.448,-0.928 1.28,-1.632 0.864,-0.736 2.08,-1.184 1.216,-0.448 2.784,-0.448 1.568,0 2.784,0.352 1.248,0.352 2.112,0.928 0.864,0.576 1.344,1.344 0.48,0.736 0.544,1.504 0.032,0.352 -0.256,0.608 -0.256,0.256 -0.608,0.256 h -2.464 q -0.48,0 -0.736,-0.16 -0.224,-0.192 -0.512,-0.416 -0.288,-0.224 -0.768,-0.384 -0.48,-0.192 -1.44,-0.192 -0.96,0 -1.696,0.288 -0.736,0.288 -0.736,1.024 0,0.352 0.16,0.608 0.192,0.224 0.672,0.416 0.512,0.192 1.376,0.416 0.896,0.192 2.304,0.48 2.848,0.608 4,1.92 1.184,1.28 1.184,3.2 0,0.96 -0.48,1.888 -0.48,0.896 -1.408,1.632 -0.896,0.704 -2.24,1.152 -1.312,0.416 -2.976,0.416 -1.696,0 -3.008,-0.384 -1.28,-0.416 -2.176,-1.056 -0.896,-0.64 -1.376,-1.44 -0.48,-0.8 -0.512,-1.568 -0.032,-0.352 0.224,-0.608 0.288,-0.256 0.64,-0.256 h 2.464 q 0.48,0 0.704,0.224 0.256,0.224 0.544,0.512 0.32,0.288 0.864,0.512 0.544,0.224 1.632,0.224 0.48,0 0.992,-0.064 0.512,-0.064 0.928,-0.192 0.448,-0.16 0.736,-0.384 0.288,-0.256 0.288,-0.608 z"
         style="font-style:normal;font-variant:normal;font-weight:500;font-stretch:normal;font-family:rubik;-inkscape-font-specification:'rubik Medium';fill:#00659d;fill-opacity:1"
         id="path927" />
      <path
         d="m 631.20419,515.39997 q 0,-1.792 0.544,-3.36 0.544,-1.6 1.568,-2.752 1.024,-1.184 2.464,-1.856 1.472,-0.672 3.264,-0.672 1.792,0 3.232,0.672 1.472,0.64 2.496,1.76 1.024,1.088 1.568,2.592 0.576,1.472 0.576,3.104 v 1.44 q 0,0.352 -0.256,0.608 -0.256,0.256 -0.608,0.256 h -10.688 q 0,0.736 0.288,1.312 0.32,0.544 0.832,0.928 0.512,0.384 1.184,0.576 0.672,0.192 1.376,0.192 1.024,0 1.664,-0.192 0.64,-0.224 1.056,-0.544 0.352,-0.256 0.576,-0.352 0.224,-0.096 0.608,-0.096 h 2.56 q 0.352,0 0.608,0.256 0.288,0.256 0.256,0.608 -0.032,0.448 -0.512,1.152 -0.448,0.704 -1.376,1.376 -0.928,0.672 -2.304,1.152 -1.344,0.48 -3.136,0.48 -1.792,0 -3.264,-0.608 -1.44,-0.64 -2.464,-1.792 -1.024,-1.152 -1.568,-2.72 -0.544,-1.6 -0.544,-3.52 z m 7.84,-4.8 q -0.928,0 -1.6,0.288 -0.64,0.256 -1.088,0.704 -0.448,0.416 -0.704,0.96 -0.224,0.512 -0.288,0.992 h 7.232 q -0.064,-0.48 -0.256,-0.992 -0.16,-0.544 -0.576,-0.96 -0.384,-0.448 -1.056,-0.704 -0.64,-0.288 -1.664,-0.288 z"
         style="font-style:normal;font-variant:normal;font-weight:500;font-stretch:normal;font-family:rubik;-inkscape-font-specification:'rubik Medium';fill:#00659d;fill-opacity:1"
         id="path929" />
      <path
         d="m 672.89169,519.71997 q 0.352,0 0.608,0.256 0.256,0.256 0.256,0.608 v 2.272 q 0,0.352 -0.256,0.608 -0.256,0.256 -0.608,0.256 h -14.016 q -0.352,0 -0.608,-0.256 -0.256,-0.256 -0.256,-0.608 v -20.672 q 0,-0.352 0.256,-0.608 0.256,-0.256 0.608,-0.256 h 2.592 q 0.352,0 0.608,0.256 0.256,0.256 0.256,0.608 v 17.536 z"
         style="font-style:normal;font-variant:normal;font-weight:500;font-stretch:normal;font-family:rubik;-inkscape-font-specification:'rubik Medium';fill:#00659d;fill-opacity:1"
         id="path931" />
      <path
         d="m 680.69619,522.85597 q 0,0.352 -0.256,0.608 -0.256,0.256 -0.608,0.256 h -2.432 q -0.352,0 -0.608,-0.256 -0.256,-0.256 -0.256,-0.608 v -14.912 q 0,-0.352 0.256,-0.608 0.256,-0.256 0.608,-0.256 h 2.432 q 0.352,0 0.608,0.256 0.256,0.256 0.256,0.608 z m -0.704,-21.856 q 0.352,0 0.608,0.256 0.256,0.256 0.256,0.608 v 2.496 q 0,0.352 -0.256,0.608 -0.256,0.256 -0.608,0.256 h -2.752 q -0.352,0 -0.608,-0.256 -0.256,-0.256 -0.256,-0.608 v -2.496 q 0,-0.352 0.256,-0.608 0.256,-0.256 0.608,-0.256 z"
         style="font-style:normal;font-variant:normal;font-weight:500;font-stretch:normal;font-family:rubik;-inkscape-font-specification:'rubik Medium';fill:#00659d;fill-opacity:1"
         id="path933" />
      <path
         d="m 700.71469,522.85597 q 0,0.352 -0.256,0.608 -0.256,0.256 -0.608,0.256 h -2.432 q -0.352,0 -0.608,-0.256 -0.256,-0.256 -0.256,-0.608 v -8.128 q 0,-1.92 -0.896,-3.072 -0.896,-1.152 -2.752,-1.152 -1.696,0 -2.688,1.152 -0.96,1.152 -0.96,3.072 v 8.128 q 0,0.352 -0.256,0.608 -0.256,0.256 -0.608,0.256 h -2.432 q -0.352,0 -0.608,-0.256 -0.256,-0.256 -0.256,-0.608 v -14.912 q 0,-0.352 0.256,-0.608 0.256,-0.256 0.608,-0.256 h 2.432 q 0.352,0 0.608,0.256 0.256,0.256 0.256,0.608 v 0.736 q 0.832,-0.832 1.952,-1.376 1.12,-0.544 2.656,-0.544 1.952,0 3.264,0.608 1.312,0.608 2.112,1.632 0.8,1.024 1.12,2.4 0.352,1.344 0.352,2.848 z"
         style="font-style:normal;font-variant:normal;font-weight:500;font-stretch:normal;font-family:rubik;-inkscape-font-specification:'rubik Medium';fill:#00659d;fill-opacity:1"
         id="path935" />
      <path
         d="m 704.81369,507.94397 q 0,-0.352 0.256,-0.608 0.256,-0.256 0.608,-0.256 h 2.432 q 0.352,0 0.608,0.256 0.256,0.256 0.256,0.608 v 8.128 q 0,1.92 0.8,3.072 0.832,1.152 2.688,1.152 1.696,0 2.592,-1.152 0.896,-1.152 0.896,-3.072 v -8.128 q 0,-0.352 0.256,-0.608 0.256,-0.256 0.608,-0.256 h 2.432 q 0.352,0 0.608,0.256 0.256,0.256 0.256,0.608 v 14.912 q 0,0.352 -0.256,0.608 -0.256,0.256 -0.608,0.256 h -2.432 q -0.352,0 -0.608,-0.256 -0.256,-0.256 -0.256,-0.608 v -0.736 q -0.736,0.736 -1.824,1.344 -1.088,0.576 -2.624,0.576 -1.952,0 -3.232,-0.608 -1.28,-0.608 -2.048,-1.632 -0.768,-1.024 -1.088,-2.368 -0.32,-1.376 -0.32,-2.88 z"
         style="font-style:normal;font-variant:normal;font-weight:500;font-stretch:normal;font-family:rubik;-inkscape-font-specification:'rubik Medium';fill:#00659d;fill-opacity:1"
         id="path937" />
      <path
         d="m 731.64019,518.43997 -3.776,4.672 q -0.32,0.384 -0.672,0.512 -0.32,0.096 -0.736,0.096 h -2.464 q -0.352,0 -0.608,-0.256 -0.224,-0.256 -0.224,-0.64 0,-0.256 0.128,-0.448 l 5.76,-7.136 -5.504,-6.816 q -0.128,-0.192 -0.128,-0.448 0,-0.384 0.224,-0.64 0.256,-0.256 0.608,-0.256 h 2.464 q 0.416,0 0.736,0.128 0.352,0.096 0.672,0.48 l 3.616,4.48 3.584,-4.48 q 0.32,-0.384 0.64,-0.48 0.352,-0.128 0.768,-0.128 h 2.464 q 0.352,0 0.576,0.256 0.256,0.256 0.256,0.64 0,0.256 -0.128,0.448 l -5.568,6.944 5.696,7.008 q 0.128,0.192 0.128,0.448 0,0.384 -0.256,0.64 -0.224,0.256 -0.576,0.256 h -2.464 q -0.416,0 -0.768,-0.096 -0.32,-0.128 -0.64,-0.512 z"
         style="font-style:normal;font-variant:normal;font-weight:500;font-stretch:normal;font-family:rubik;-inkscape-font-specification:'rubik Medium';fill:#00659d;fill-opacity:1"
         id="path939" />
    </g>
  </g>
</svg>
